%TF.GenerationSoftware,KiCad,Pcbnew,9.0.8-1.fc43*%
%TF.CreationDate,2026-04-21T20:00:48+02:00*%
%TF.ProjectId,Bachelorprojekt,42616368-656c-46f7-9270-726f6a656b74,rev?*%
%TF.SameCoordinates,Original*%
%TF.FileFunction,Copper,L2,Bot*%
%TF.FilePolarity,Positive*%
%FSLAX46Y46*%
G04 Gerber Fmt 4.6, Leading zero omitted, Abs format (unit mm)*
G04 Created by KiCad (PCBNEW 9.0.8-1.fc43) date 2026-04-21 20:00:48*
%MOMM*%
%LPD*%
G01*
G04 APERTURE LIST*
G04 Aperture macros list*
%AMRoundRect*
0 Rectangle with rounded corners*
0 $1 Rounding radius*
0 $2 $3 $4 $5 $6 $7 $8 $9 X,Y pos of 4 corners*
0 Add a 4 corners polygon primitive as box body*
4,1,4,$2,$3,$4,$5,$6,$7,$8,$9,$2,$3,0*
0 Add four circle primitives for the rounded corners*
1,1,$1+$1,$2,$3*
1,1,$1+$1,$4,$5*
1,1,$1+$1,$6,$7*
1,1,$1+$1,$8,$9*
0 Add four rect primitives between the rounded corners*
20,1,$1+$1,$2,$3,$4,$5,0*
20,1,$1+$1,$4,$5,$6,$7,0*
20,1,$1+$1,$6,$7,$8,$9,0*
20,1,$1+$1,$8,$9,$2,$3,0*%
G04 Aperture macros list end*
%TA.AperFunction,ComponentPad*%
%ADD10C,1.600000*%
%TD*%
%TA.AperFunction,ComponentPad*%
%ADD11RoundRect,0.250000X-0.550000X-0.550000X0.550000X-0.550000X0.550000X0.550000X-0.550000X0.550000X0*%
%TD*%
%TA.AperFunction,ComponentPad*%
%ADD12R,1.700000X1.700000*%
%TD*%
%TA.AperFunction,ComponentPad*%
%ADD13C,1.700000*%
%TD*%
%TA.AperFunction,ComponentPad*%
%ADD14RoundRect,0.250000X-0.725000X0.600000X-0.725000X-0.600000X0.725000X-0.600000X0.725000X0.600000X0*%
%TD*%
%TA.AperFunction,ComponentPad*%
%ADD15O,1.950000X1.700000*%
%TD*%
%TA.AperFunction,ComponentPad*%
%ADD16RoundRect,0.250001X-1.149999X1.149999X-1.149999X-1.149999X1.149999X-1.149999X1.149999X1.149999X0*%
%TD*%
%TA.AperFunction,ComponentPad*%
%ADD17C,2.800000*%
%TD*%
%TA.AperFunction,ComponentPad*%
%ADD18RoundRect,0.250000X-0.750000X0.600000X-0.750000X-0.600000X0.750000X-0.600000X0.750000X0.600000X0*%
%TD*%
%TA.AperFunction,ComponentPad*%
%ADD19O,2.000000X1.700000*%
%TD*%
%TA.AperFunction,ComponentPad*%
%ADD20C,2.010000*%
%TD*%
%TA.AperFunction,ComponentPad*%
%ADD21RoundRect,0.250001X1.149999X1.149999X-1.149999X1.149999X-1.149999X-1.149999X1.149999X-1.149999X0*%
%TD*%
%TA.AperFunction,ViaPad*%
%ADD22C,0.800000*%
%TD*%
%TA.AperFunction,ViaPad*%
%ADD23C,0.600000*%
%TD*%
%TA.AperFunction,Conductor*%
%ADD24C,0.500000*%
%TD*%
%TA.AperFunction,Conductor*%
%ADD25C,0.250000*%
%TD*%
G04 APERTURE END LIST*
D10*
%TO.P,U2,8,VOS*%
%TO.N,unconnected-(U2-VOS-Pad8)*%
X108975000Y-44880000D03*
%TO.P,U2,7,V+*%
%TO.N,+9V*%
X108975000Y-47420000D03*
%TO.P,U2,6*%
%TO.N,/LP Out*%
X108975000Y-49960000D03*
%TO.P,U2,5,NC*%
%TO.N,unconnected-(U2-NC-Pad5)*%
X108975000Y-52500000D03*
%TO.P,U2,4,V-*%
%TO.N,-9V*%
X101355000Y-52500000D03*
%TO.P,U2,3,+*%
%TO.N,Net-(J11-Pin_1)*%
X101355000Y-49960000D03*
%TO.P,U2,2,-*%
%TO.N,/LP Out*%
X101355000Y-47420000D03*
D11*
%TO.P,U2,1,VOS*%
%TO.N,unconnected-(U2-VOS-Pad1)*%
X101355000Y-44880000D03*
%TD*%
D12*
%TO.P,J11,1,Pin_1*%
%TO.N,Net-(J11-Pin_1)*%
X109540000Y-56500000D03*
D13*
%TO.P,J11,2,Pin_2*%
%TO.N,Net-(J10-Pin_1)*%
X107000000Y-56500000D03*
%TD*%
D11*
%TO.P,U3,1,VOS*%
%TO.N,unconnected-(U3-VOS-Pad1)*%
X149000000Y-41000000D03*
D10*
%TO.P,U3,2,-*%
%TO.N,/HP Out*%
X149000000Y-43540000D03*
%TO.P,U3,3,+*%
%TO.N,Net-(J13-Pin_1)*%
X149000000Y-46080000D03*
%TO.P,U3,4,V-*%
%TO.N,-9V*%
X149000000Y-48620000D03*
%TO.P,U3,5,NC*%
%TO.N,unconnected-(U3-NC-Pad5)*%
X156620000Y-48620000D03*
%TO.P,U3,6*%
%TO.N,/HP Out*%
X156620000Y-46080000D03*
%TO.P,U3,7,V+*%
%TO.N,+9V*%
X156620000Y-43540000D03*
%TO.P,U3,8,VOS*%
%TO.N,unconnected-(U3-VOS-Pad8)*%
X156620000Y-41000000D03*
%TD*%
D14*
%TO.P,J7,1,Pin_1*%
%TO.N,-9V*%
X176750000Y-46000000D03*
D15*
%TO.P,J7,2,Pin_2*%
%TO.N,GND*%
X176750000Y-48500000D03*
%TO.P,J7,3,Pin_3*%
%TO.N,+9V*%
X176750000Y-51000000D03*
%TO.P,J7,4,Pin_4*%
%TO.N,/HP Out*%
X176750000Y-53500000D03*
%TD*%
D16*
%TO.P,J1,1,Pin_1*%
%TO.N,/S1223 Out*%
X24500000Y-47380000D03*
D17*
%TO.P,J1,2,Pin_2*%
%TO.N,GND*%
X24500000Y-52380000D03*
%TD*%
D10*
%TO.P,C8,1*%
%TO.N,+9V*%
X112975000Y-47880000D03*
%TO.P,C8,2*%
%TO.N,GND*%
X112975000Y-52880000D03*
%TD*%
%TO.P,C1,1*%
%TO.N,/S1223 Out*%
X39250000Y-54380000D03*
%TO.P,C1,2*%
%TO.N,/TIA Out*%
X41750000Y-54380000D03*
%TD*%
%TO.P,C11,1*%
%TO.N,-9V*%
X145000000Y-49000000D03*
%TO.P,C11,2*%
%TO.N,GND*%
X145000000Y-44000000D03*
%TD*%
D12*
%TO.P,J14,1,Pin_1*%
%TO.N,Net-(J14-Pin_1)*%
X205000000Y-53250000D03*
D13*
%TO.P,J14,2,Pin_2*%
%TO.N,/Non-inv. JST Output*%
X205000000Y-55790000D03*
%TD*%
D14*
%TO.P,J4,1,Pin_1*%
%TO.N,-9V*%
X84250000Y-46000000D03*
D15*
%TO.P,J4,2,Pin_2*%
%TO.N,GND*%
X84250000Y-48500000D03*
%TO.P,J4,3,Pin_3*%
%TO.N,+9V*%
X84250000Y-51000000D03*
%TO.P,J4,4,Pin_4*%
%TO.N,/TIA Out*%
X84250000Y-53500000D03*
%TD*%
D14*
%TO.P,J8,1,Pin_1*%
%TO.N,-9V*%
X185250000Y-46000000D03*
D15*
%TO.P,J8,2,Pin_2*%
%TO.N,GND*%
X185250000Y-48500000D03*
%TO.P,J8,3,Pin_3*%
%TO.N,+9V*%
X185250000Y-51000000D03*
%TO.P,J8,4,Pin_4*%
%TO.N,/HP Out*%
X185250000Y-53500000D03*
%TD*%
D10*
%TO.P,C14,1*%
%TO.N,+9V*%
X68500000Y-57880000D03*
%TO.P,C14,2*%
%TO.N,GND*%
X63500000Y-57880000D03*
%TD*%
%TO.P,C5,1*%
%TO.N,Net-(J12-Pin_2)*%
X156000000Y-54500000D03*
%TO.P,C5,2*%
%TO.N,Net-(J13-Pin_1)*%
X161000000Y-54500000D03*
%TD*%
D12*
%TO.P,J12,1,Pin_1*%
%TO.N,/HP Out*%
X165025000Y-43250000D03*
D13*
%TO.P,J12,2,Pin_2*%
%TO.N,Net-(J12-Pin_2)*%
X165025000Y-45790000D03*
%TD*%
D10*
%TO.P,C7,1*%
%TO.N,GND*%
X49000000Y-50880000D03*
%TO.P,C7,2*%
%TO.N,+9V*%
X49000000Y-45880000D03*
%TD*%
D14*
%TO.P,J3,1,Pin_1*%
%TO.N,-9V*%
X75750000Y-46000000D03*
D15*
%TO.P,J3,2,Pin_2*%
%TO.N,GND*%
X75750000Y-48500000D03*
%TO.P,J3,3,Pin_3*%
%TO.N,+9V*%
X75750000Y-51000000D03*
%TO.P,J3,4,Pin_4*%
%TO.N,/TIA Out*%
X75750000Y-53500000D03*
%TD*%
D12*
%TO.P,J13,1,Pin_1*%
%TO.N,Net-(J13-Pin_1)*%
X165025000Y-50750000D03*
D13*
%TO.P,J13,2,Pin_2*%
%TO.N,GND*%
X165025000Y-53290000D03*
%TD*%
D10*
%TO.P,C6,1*%
%TO.N,GND*%
X32500000Y-45880000D03*
%TO.P,C6,2*%
%TO.N,-9V*%
X32500000Y-50880000D03*
%TD*%
D12*
%TO.P,J15,1,Pin_1*%
%TO.N,Net-(J14-Pin_1)*%
X198525000Y-53250000D03*
D13*
%TO.P,J15,2,Pin_2*%
%TO.N,GND*%
X198525000Y-55790000D03*
%TD*%
D10*
%TO.P,C2,1*%
%TO.N,Net-(J10-Pin_1)*%
X97975000Y-44000000D03*
%TO.P,C2,2*%
%TO.N,/LP Out*%
X92975000Y-44000000D03*
%TD*%
D12*
%TO.P,J10,1,Pin_1*%
%TO.N,Net-(J10-Pin_1)*%
X103000000Y-56500000D03*
D13*
%TO.P,J10,2,Pin_2*%
%TO.N,/TIA Out*%
X100460000Y-56500000D03*
%TD*%
D10*
%TO.P,C9,1*%
%TO.N,-9V*%
X97475000Y-53000000D03*
%TO.P,C9,2*%
%TO.N,GND*%
X97475000Y-48000000D03*
%TD*%
%TO.P,C12,1*%
%TO.N,-9V*%
X194000000Y-45500000D03*
%TO.P,C12,2*%
%TO.N,GND*%
X194000000Y-40500000D03*
%TD*%
%TO.P,C4,1*%
%TO.N,/LP Out*%
X144500000Y-54500000D03*
%TO.P,C4,2*%
%TO.N,Net-(J12-Pin_2)*%
X149500000Y-54500000D03*
%TD*%
%TO.P,C3,1*%
%TO.N,GND*%
X117475000Y-44000000D03*
%TO.P,C3,2*%
%TO.N,Net-(J11-Pin_1)*%
X112475000Y-44000000D03*
%TD*%
D11*
%TO.P,U4,1,VOS*%
%TO.N,unconnected-(U4-VOS-Pad1)*%
X197880000Y-41380000D03*
D10*
%TO.P,U4,2,-*%
%TO.N,Net-(J14-Pin_1)*%
X197880000Y-43920000D03*
%TO.P,U4,3,+*%
%TO.N,/HP Out*%
X197880000Y-46460000D03*
%TO.P,U4,4,V-*%
%TO.N,-9V*%
X197880000Y-49000000D03*
%TO.P,U4,5,NC*%
%TO.N,unconnected-(U4-NC-Pad5)*%
X205500000Y-49000000D03*
%TO.P,U4,6*%
%TO.N,/Non-inv. JST Output*%
X205500000Y-46460000D03*
%TO.P,U4,7,V+*%
%TO.N,+9V*%
X205500000Y-43920000D03*
%TO.P,U4,8,VOS*%
%TO.N,unconnected-(U4-VOS-Pad8)*%
X205500000Y-41380000D03*
%TD*%
D18*
%TO.P,J9,1,Pin_1*%
%TO.N,GND*%
X217275000Y-48500000D03*
D19*
%TO.P,J9,2,Pin_2*%
%TO.N,/Non-inv. JST Output*%
X217275000Y-51000000D03*
%TD*%
D12*
%TO.P,J16,1,Pin_1*%
%TO.N,/TIA Out*%
X42000000Y-58380000D03*
D13*
%TO.P,J16,2,Pin_2*%
%TO.N,/S1223 Out*%
X39460000Y-58380000D03*
%TD*%
D10*
%TO.P,C10,1*%
%TO.N,+9V*%
X160500000Y-44000000D03*
%TO.P,C10,2*%
%TO.N,GND*%
X160500000Y-49000000D03*
%TD*%
D20*
%TO.P,F2,1*%
%TO.N,-9V*%
X54900000Y-53430000D03*
%TO.P,F2,2*%
X56100000Y-48330000D03*
%TD*%
%TO.P,F1,1*%
%TO.N,+9V*%
X66800000Y-53480000D03*
%TO.P,F1,2*%
X68000000Y-48380000D03*
%TD*%
D14*
%TO.P,J6,1,Pin_1*%
%TO.N,-9V*%
X135250000Y-46000000D03*
D15*
%TO.P,J6,2,Pin_2*%
%TO.N,GND*%
X135250000Y-48500000D03*
%TO.P,J6,3,Pin_3*%
%TO.N,+9V*%
X135250000Y-51000000D03*
%TO.P,J6,4,Pin_4*%
%TO.N,/LP Out*%
X135250000Y-53500000D03*
%TD*%
D11*
%TO.P,U1,1,VOS*%
%TO.N,unconnected-(U1-VOS-Pad1)*%
X37000000Y-42880000D03*
D10*
%TO.P,U1,2,-*%
%TO.N,/S1223 Out*%
X37000000Y-45420000D03*
%TO.P,U1,3,+*%
%TO.N,GND*%
X37000000Y-47960000D03*
%TO.P,U1,4,V-*%
%TO.N,-9V*%
X37000000Y-50500000D03*
%TO.P,U1,5,NC*%
%TO.N,unconnected-(U1-NC-Pad5)*%
X44620000Y-50500000D03*
%TO.P,U1,6*%
%TO.N,/TIA Out*%
X44620000Y-47960000D03*
%TO.P,U1,7,V+*%
%TO.N,+9V*%
X44620000Y-45420000D03*
%TO.P,U1,8,VOS*%
%TO.N,unconnected-(U1-VOS-Pad8)*%
X44620000Y-42880000D03*
%TD*%
D21*
%TO.P,J2,1,Pin_1*%
%TO.N,+9V*%
X66250000Y-42380000D03*
D17*
%TO.P,J2,2,Pin_2*%
%TO.N,GND*%
X61250000Y-42380000D03*
%TO.P,J2,3,Pin_3*%
%TO.N,-9V*%
X56250000Y-42380000D03*
%TD*%
D14*
%TO.P,J5,1,Pin_1*%
%TO.N,-9V*%
X126750000Y-46000000D03*
D15*
%TO.P,J5,2,Pin_2*%
%TO.N,GND*%
X126750000Y-48500000D03*
%TO.P,J5,3,Pin_3*%
%TO.N,+9V*%
X126750000Y-51000000D03*
%TO.P,J5,4,Pin_4*%
%TO.N,/LP Out*%
X126750000Y-53500000D03*
%TD*%
D10*
%TO.P,C13,1*%
%TO.N,+9V*%
X209500000Y-40500000D03*
%TO.P,C13,2*%
%TO.N,GND*%
X209500000Y-45500000D03*
%TD*%
%TO.P,C15,1*%
%TO.N,GND*%
X59500000Y-57880000D03*
%TO.P,C15,2*%
%TO.N,-9V*%
X54500000Y-57880000D03*
%TD*%
D22*
%TO.N,-9V*%
X70250000Y-54250000D03*
X71041041Y-56541041D03*
D23*
%TO.N,Net-(J11-Pin_1)*%
X114500000Y-49335000D03*
X113250000Y-50585000D03*
%TD*%
D24*
%TO.N,-9V*%
X54500000Y-57880000D02*
X55750000Y-59130000D01*
X55750000Y-59130000D02*
X69017767Y-59130000D01*
X69017767Y-59130000D02*
X71041041Y-57106726D01*
X71041041Y-57106726D02*
X71041041Y-56541041D01*
X70250000Y-54250000D02*
X70250000Y-51500000D01*
X70250000Y-51500000D02*
X75750000Y-46000000D01*
X54900000Y-53430000D02*
X54900000Y-57480000D01*
X54900000Y-57480000D02*
X54500000Y-57880000D01*
X56250000Y-42380000D02*
X56250000Y-48180000D01*
X56250000Y-48180000D02*
X56100000Y-48330000D01*
%TO.N,+9V*%
X68500000Y-57880000D02*
X75380000Y-51000000D01*
X75380000Y-51000000D02*
X75750000Y-51000000D01*
X66250000Y-42380000D02*
X66250000Y-46630000D01*
X66250000Y-46630000D02*
X68000000Y-48380000D01*
%TO.N,-9V*%
X90475000Y-46000000D02*
X90605000Y-46130000D01*
X90605000Y-46130000D02*
X126620000Y-46130000D01*
X90475000Y-46000000D02*
X90645000Y-46170000D01*
D25*
%TO.N,Net-(J11-Pin_1)*%
X113250000Y-50585000D02*
X114500000Y-49335000D01*
D24*
%TO.N,+9V*%
X209500000Y-40500000D02*
X206080000Y-43920000D01*
X206080000Y-43920000D02*
X205500000Y-43920000D01*
X185250000Y-51000000D02*
X205767767Y-51000000D01*
X205767767Y-51000000D02*
X210750000Y-46017767D01*
X210750000Y-46017767D02*
X210750000Y-41750000D01*
X210750000Y-41750000D02*
X209500000Y-40500000D01*
%TO.N,-9V*%
X194000000Y-45500000D02*
X194380000Y-45500000D01*
X194380000Y-45500000D02*
X197880000Y-49000000D01*
X185250000Y-46000000D02*
X193500000Y-46000000D01*
X193500000Y-46000000D02*
X194000000Y-45500000D01*
X149000000Y-48620000D02*
X155330000Y-42290000D01*
X155330000Y-42290000D02*
X163385000Y-42290000D01*
X163385000Y-42290000D02*
X163725000Y-41950000D01*
X163725000Y-41950000D02*
X172700000Y-41950000D01*
X172700000Y-41950000D02*
X176750000Y-46000000D01*
%TO.N,+9V*%
X160500000Y-44000000D02*
X160825000Y-44000000D01*
X160825000Y-44000000D02*
X167825000Y-51000000D01*
X167825000Y-51000000D02*
X176750000Y-51000000D01*
X160500000Y-44000000D02*
X157080000Y-44000000D01*
X157080000Y-44000000D02*
X156620000Y-43540000D01*
X135250000Y-51000000D02*
X156732233Y-51000000D01*
X156732233Y-51000000D02*
X160500000Y-47232233D01*
X160500000Y-47232233D02*
X160500000Y-44000000D01*
%TO.N,-9V*%
X145000000Y-49000000D02*
X148620000Y-49000000D01*
X148620000Y-49000000D02*
X149000000Y-48620000D01*
X135250000Y-46000000D02*
X142000000Y-46000000D01*
X142000000Y-46000000D02*
X145000000Y-49000000D01*
%TO.N,+9V*%
X84250000Y-51000000D02*
X87500000Y-54250000D01*
X87500000Y-54250000D02*
X110689339Y-54250000D01*
X110689339Y-54250000D02*
X112439339Y-56000000D01*
X112439339Y-56000000D02*
X121750000Y-56000000D01*
X121750000Y-56000000D02*
X126750000Y-51000000D01*
X112975000Y-47880000D02*
X109435000Y-47880000D01*
X109435000Y-47880000D02*
X108975000Y-47420000D01*
X105457233Y-54250000D02*
X108457233Y-51250000D01*
X87500000Y-54250000D02*
X105457233Y-54250000D01*
X108457233Y-51250000D02*
X109605000Y-51250000D01*
X109605000Y-51250000D02*
X112975000Y-47880000D01*
%TO.N,-9V*%
X97475000Y-53000000D02*
X100855000Y-53000000D01*
X100855000Y-53000000D02*
X101355000Y-52500000D01*
X84250000Y-46000000D02*
X90475000Y-46000000D01*
X90475000Y-46000000D02*
X97475000Y-53000000D01*
%TO.N,+9V*%
X49000000Y-45880000D02*
X45080000Y-45880000D01*
X45080000Y-45880000D02*
X44620000Y-45420000D01*
X68500000Y-57880000D02*
X60405000Y-49785000D01*
X60405000Y-49785000D02*
X52905000Y-49785000D01*
X52905000Y-49785000D02*
X49000000Y-45880000D01*
X66800000Y-53480000D02*
X68500000Y-55180000D01*
X68500000Y-55180000D02*
X68500000Y-57880000D01*
%TO.N,-9V*%
X32500000Y-50880000D02*
X36620000Y-50880000D01*
X36620000Y-50880000D02*
X37000000Y-50500000D01*
X54500000Y-57880000D02*
X50232233Y-57880000D01*
X50232233Y-57880000D02*
X43232233Y-50880000D01*
X43232233Y-50880000D02*
X32500000Y-50880000D01*
X197500000Y-49000000D02*
X197880000Y-49000000D01*
%TO.N,+9V*%
X209500000Y-40500000D02*
X208920000Y-40500000D01*
X49000000Y-45880000D02*
X49407681Y-45880000D01*
X68500000Y-57880000D02*
X68870000Y-57880000D01*
%TD*%
%TA.AperFunction,Conductor*%
%TO.N,GND*%
G36*
X78942539Y-35019685D02*
G01*
X78988294Y-35072489D01*
X78999500Y-35124000D01*
X78999500Y-62376000D01*
X78979815Y-62443039D01*
X78927011Y-62488794D01*
X78875500Y-62500000D01*
X16124500Y-62500000D01*
X16057461Y-62480315D01*
X16011706Y-62427511D01*
X16000500Y-62376000D01*
X16000500Y-58293389D01*
X38359500Y-58293389D01*
X38359500Y-58466610D01*
X38379546Y-58593181D01*
X38386598Y-58637701D01*
X38440127Y-58802445D01*
X38518768Y-58956788D01*
X38620586Y-59096928D01*
X38743072Y-59219414D01*
X38883212Y-59321232D01*
X39037555Y-59399873D01*
X39202299Y-59453402D01*
X39373389Y-59480500D01*
X39373390Y-59480500D01*
X39546610Y-59480500D01*
X39546611Y-59480500D01*
X39717701Y-59453402D01*
X39882445Y-59399873D01*
X40036788Y-59321232D01*
X40176928Y-59219414D01*
X40299414Y-59096928D01*
X40401232Y-58956788D01*
X40479873Y-58802445D01*
X40533402Y-58637701D01*
X40560500Y-58466611D01*
X40560500Y-58293389D01*
X40533402Y-58122299D01*
X40479873Y-57957555D01*
X40401232Y-57803212D01*
X40299414Y-57663072D01*
X40176928Y-57540586D01*
X40128390Y-57505321D01*
X40899500Y-57505321D01*
X40899500Y-59254678D01*
X40914032Y-59327735D01*
X40914033Y-59327739D01*
X40914034Y-59327740D01*
X40969399Y-59410601D01*
X41052260Y-59465966D01*
X41052264Y-59465967D01*
X41125321Y-59480499D01*
X41125324Y-59480500D01*
X41125326Y-59480500D01*
X42874676Y-59480500D01*
X42874677Y-59480499D01*
X42947740Y-59465966D01*
X43030601Y-59410601D01*
X43085966Y-59327740D01*
X43100500Y-59254674D01*
X43100500Y-57505326D01*
X43100500Y-57505323D01*
X43100499Y-57505321D01*
X43085967Y-57432264D01*
X43085966Y-57432260D01*
X43030601Y-57349399D01*
X42958823Y-57301439D01*
X42947739Y-57294033D01*
X42947735Y-57294032D01*
X42874677Y-57279500D01*
X42874674Y-57279500D01*
X41125326Y-57279500D01*
X41125323Y-57279500D01*
X41052264Y-57294032D01*
X41052260Y-57294033D01*
X40969399Y-57349399D01*
X40914033Y-57432260D01*
X40914032Y-57432264D01*
X40899500Y-57505321D01*
X40128390Y-57505321D01*
X40036788Y-57438768D01*
X39911095Y-57374725D01*
X39882447Y-57360128D01*
X39882446Y-57360127D01*
X39882445Y-57360127D01*
X39717701Y-57306598D01*
X39717699Y-57306597D01*
X39717698Y-57306597D01*
X39586271Y-57285781D01*
X39546611Y-57279500D01*
X39373389Y-57279500D01*
X39333728Y-57285781D01*
X39202302Y-57306597D01*
X39037552Y-57360128D01*
X38883211Y-57438768D01*
X38826461Y-57480000D01*
X38743072Y-57540586D01*
X38743070Y-57540588D01*
X38743069Y-57540588D01*
X38620588Y-57663069D01*
X38620588Y-57663070D01*
X38620586Y-57663072D01*
X38579537Y-57719571D01*
X38518768Y-57803211D01*
X38440128Y-57957552D01*
X38386597Y-58122302D01*
X38359500Y-58293389D01*
X16000500Y-58293389D01*
X16000500Y-54276530D01*
X38199500Y-54276530D01*
X38199500Y-54483469D01*
X38239868Y-54686412D01*
X38239870Y-54686420D01*
X38319059Y-54877598D01*
X38376541Y-54963626D01*
X38434024Y-55049657D01*
X38580342Y-55195975D01*
X38580345Y-55195977D01*
X38752402Y-55310941D01*
X38943580Y-55390130D01*
X39146530Y-55430499D01*
X39146534Y-55430500D01*
X39146535Y-55430500D01*
X39353466Y-55430500D01*
X39353467Y-55430499D01*
X39556420Y-55390130D01*
X39747598Y-55310941D01*
X39919655Y-55195977D01*
X40065977Y-55049655D01*
X40180941Y-54877598D01*
X40260130Y-54686420D01*
X40300500Y-54483465D01*
X40300500Y-54276535D01*
X40300499Y-54276530D01*
X40699500Y-54276530D01*
X40699500Y-54483469D01*
X40739868Y-54686412D01*
X40739870Y-54686420D01*
X40819059Y-54877598D01*
X40876541Y-54963626D01*
X40934024Y-55049657D01*
X41080342Y-55195975D01*
X41080345Y-55195977D01*
X41252402Y-55310941D01*
X41443580Y-55390130D01*
X41646530Y-55430499D01*
X41646534Y-55430500D01*
X41646535Y-55430500D01*
X41853466Y-55430500D01*
X41853467Y-55430499D01*
X42056420Y-55390130D01*
X42247598Y-55310941D01*
X42419655Y-55195977D01*
X42565977Y-55049655D01*
X42680941Y-54877598D01*
X42760130Y-54686420D01*
X42800500Y-54483465D01*
X42800500Y-54276535D01*
X42760130Y-54073580D01*
X42680941Y-53882402D01*
X42565977Y-53710345D01*
X42565975Y-53710342D01*
X42419657Y-53564024D01*
X42333626Y-53506541D01*
X42247598Y-53449059D01*
X42056420Y-53369870D01*
X42056412Y-53369868D01*
X41853469Y-53329500D01*
X41853465Y-53329500D01*
X41646535Y-53329500D01*
X41646530Y-53329500D01*
X41443587Y-53369868D01*
X41443579Y-53369870D01*
X41252403Y-53449058D01*
X41080342Y-53564024D01*
X40934024Y-53710342D01*
X40819058Y-53882403D01*
X40739870Y-54073579D01*
X40739868Y-54073587D01*
X40699500Y-54276530D01*
X40300499Y-54276530D01*
X40260130Y-54073580D01*
X40180941Y-53882402D01*
X40065977Y-53710345D01*
X40065975Y-53710342D01*
X39919657Y-53564024D01*
X39833626Y-53506541D01*
X39747598Y-53449059D01*
X39556420Y-53369870D01*
X39556412Y-53369868D01*
X39353469Y-53329500D01*
X39353465Y-53329500D01*
X39146535Y-53329500D01*
X39146530Y-53329500D01*
X38943587Y-53369868D01*
X38943579Y-53369870D01*
X38752403Y-53449058D01*
X38580342Y-53564024D01*
X38434024Y-53710342D01*
X38319058Y-53882403D01*
X38239870Y-54073579D01*
X38239868Y-54073587D01*
X38199500Y-54276530D01*
X16000500Y-54276530D01*
X16000500Y-52250142D01*
X22850000Y-52250142D01*
X22850000Y-52509857D01*
X22890629Y-52766377D01*
X22970883Y-53013377D01*
X23088796Y-53244791D01*
X23169951Y-53356492D01*
X23169952Y-53356493D01*
X23898958Y-52627487D01*
X23923978Y-52687890D01*
X23995112Y-52794351D01*
X24085649Y-52884888D01*
X24192110Y-52956022D01*
X24252511Y-52981041D01*
X23523505Y-53710046D01*
X23523506Y-53710048D01*
X23635208Y-53791203D01*
X23866622Y-53909116D01*
X24113622Y-53989370D01*
X24370143Y-54030000D01*
X24629857Y-54030000D01*
X24886377Y-53989370D01*
X25133377Y-53909116D01*
X25364788Y-53791205D01*
X25476492Y-53710046D01*
X25476493Y-53710046D01*
X24747488Y-52981041D01*
X24807890Y-52956022D01*
X24914351Y-52884888D01*
X25004888Y-52794351D01*
X25076022Y-52687890D01*
X25101041Y-52627488D01*
X25830046Y-53356493D01*
X25830046Y-53356492D01*
X25911205Y-53244788D01*
X26029116Y-53013377D01*
X26109370Y-52766377D01*
X26150000Y-52509857D01*
X26150000Y-52250142D01*
X26109370Y-51993622D01*
X26029116Y-51746622D01*
X25911203Y-51515208D01*
X25830048Y-51403506D01*
X25830046Y-51403505D01*
X25101041Y-52132511D01*
X25076022Y-52072110D01*
X25004888Y-51965649D01*
X24914351Y-51875112D01*
X24807890Y-51803978D01*
X24747488Y-51778958D01*
X25476493Y-51049952D01*
X25476492Y-51049951D01*
X25364791Y-50968796D01*
X25192342Y-50880928D01*
X25192340Y-50880926D01*
X25133379Y-50850884D01*
X25133380Y-50850884D01*
X24904539Y-50776530D01*
X31449500Y-50776530D01*
X31449500Y-50983469D01*
X31489868Y-51186412D01*
X31489870Y-51186420D01*
X31543534Y-51315977D01*
X31569059Y-51377598D01*
X31606818Y-51434108D01*
X31684024Y-51549657D01*
X31830342Y-51695975D01*
X31830345Y-51695977D01*
X32002402Y-51810941D01*
X32193580Y-51890130D01*
X32394016Y-51929999D01*
X32396530Y-51930499D01*
X32396534Y-51930500D01*
X32396535Y-51930500D01*
X32603466Y-51930500D01*
X32603467Y-51930499D01*
X32806420Y-51890130D01*
X32997598Y-51810941D01*
X33169655Y-51695977D01*
X33315977Y-51549655D01*
X33392180Y-51435608D01*
X33445790Y-51390805D01*
X33495281Y-51380500D01*
X36389296Y-51380500D01*
X36456335Y-51400185D01*
X36458179Y-51401392D01*
X36502402Y-51430941D01*
X36693580Y-51510130D01*
X36875551Y-51546326D01*
X36896530Y-51550499D01*
X36896534Y-51550500D01*
X36896535Y-51550500D01*
X37103466Y-51550500D01*
X37103467Y-51550499D01*
X37306420Y-51510130D01*
X37497598Y-51430941D01*
X37541814Y-51401396D01*
X37608492Y-51380520D01*
X37610704Y-51380500D01*
X42973557Y-51380500D01*
X43040596Y-51400185D01*
X43061238Y-51416819D01*
X49924919Y-58280500D01*
X50039047Y-58346392D01*
X50166341Y-58380500D01*
X50298125Y-58380500D01*
X53504719Y-58380500D01*
X53571758Y-58400185D01*
X53607819Y-58435607D01*
X53642729Y-58487853D01*
X53684024Y-58549657D01*
X53830342Y-58695975D01*
X53830345Y-58695977D01*
X54002402Y-58810941D01*
X54193580Y-58890130D01*
X54396530Y-58930499D01*
X54396534Y-58930500D01*
X54396535Y-58930500D01*
X54603466Y-58930500D01*
X54623140Y-58926586D01*
X54737992Y-58903740D01*
X54807580Y-58909967D01*
X54849862Y-58937676D01*
X55349500Y-59437314D01*
X55442686Y-59530500D01*
X55556814Y-59596392D01*
X55684108Y-59630500D01*
X55684110Y-59630500D01*
X69083657Y-59630500D01*
X69083659Y-59630500D01*
X69210953Y-59596392D01*
X69325081Y-59530500D01*
X71441541Y-57414040D01*
X71464240Y-57374724D01*
X71507433Y-57299912D01*
X71541541Y-57172618D01*
X71541541Y-57000473D01*
X71561226Y-56933434D01*
X71562439Y-56931582D01*
X71617502Y-56849174D01*
X71617502Y-56849173D01*
X71617506Y-56849168D01*
X71666542Y-56730785D01*
X71691541Y-56605110D01*
X71691541Y-56476972D01*
X71691541Y-56476969D01*
X71666543Y-56351302D01*
X71666542Y-56351301D01*
X71666542Y-56351297D01*
X71617506Y-56232914D01*
X71617505Y-56232913D01*
X71617502Y-56232907D01*
X71546317Y-56126372D01*
X71546314Y-56126368D01*
X71455713Y-56035767D01*
X71455709Y-56035764D01*
X71344103Y-55961191D01*
X71344784Y-55960171D01*
X71299541Y-55915728D01*
X71284082Y-55847590D01*
X71307915Y-55781911D01*
X71320153Y-55767659D01*
X73674422Y-53413389D01*
X74524500Y-53413389D01*
X74524500Y-53586610D01*
X74544097Y-53710345D01*
X74551598Y-53757701D01*
X74605127Y-53922445D01*
X74683768Y-54076788D01*
X74785586Y-54216928D01*
X74908072Y-54339414D01*
X75048212Y-54441232D01*
X75202555Y-54519873D01*
X75367299Y-54573402D01*
X75538389Y-54600500D01*
X75538390Y-54600500D01*
X75961610Y-54600500D01*
X75961611Y-54600500D01*
X76132701Y-54573402D01*
X76297445Y-54519873D01*
X76451788Y-54441232D01*
X76591928Y-54339414D01*
X76714414Y-54216928D01*
X76816232Y-54076788D01*
X76894873Y-53922445D01*
X76948402Y-53757701D01*
X76975500Y-53586611D01*
X76975500Y-53413389D01*
X76948402Y-53242299D01*
X76894873Y-53077555D01*
X76816232Y-52923212D01*
X76714414Y-52783072D01*
X76591928Y-52660586D01*
X76451788Y-52558768D01*
X76297445Y-52480127D01*
X76132701Y-52426598D01*
X76132699Y-52426597D01*
X76132698Y-52426597D01*
X76001271Y-52405781D01*
X75961611Y-52399500D01*
X75538389Y-52399500D01*
X75498728Y-52405781D01*
X75367302Y-52426597D01*
X75202552Y-52480128D01*
X75048211Y-52558768D01*
X74974815Y-52612094D01*
X74908072Y-52660586D01*
X74908070Y-52660588D01*
X74908069Y-52660588D01*
X74785588Y-52783069D01*
X74785588Y-52783070D01*
X74785586Y-52783072D01*
X74757322Y-52821974D01*
X74683768Y-52923211D01*
X74605128Y-53077552D01*
X74551597Y-53242302D01*
X74524500Y-53413389D01*
X73674422Y-53413389D01*
X75049674Y-52038137D01*
X75110995Y-52004654D01*
X75180687Y-52009638D01*
X75193647Y-52015335D01*
X75202549Y-52019870D01*
X75202555Y-52019873D01*
X75367299Y-52073402D01*
X75538389Y-52100500D01*
X75538390Y-52100500D01*
X75961610Y-52100500D01*
X75961611Y-52100500D01*
X76132701Y-52073402D01*
X76297445Y-52019873D01*
X76451788Y-51941232D01*
X76591928Y-51839414D01*
X76714414Y-51716928D01*
X76816232Y-51576788D01*
X76894873Y-51422445D01*
X76948402Y-51257701D01*
X76975500Y-51086611D01*
X76975500Y-50913389D01*
X76948402Y-50742299D01*
X76894873Y-50577555D01*
X76816232Y-50423212D01*
X76714414Y-50283072D01*
X76591928Y-50160586D01*
X76451788Y-50058768D01*
X76341166Y-50002404D01*
X76297447Y-49980128D01*
X76297446Y-49980127D01*
X76297445Y-49980127D01*
X76132701Y-49926598D01*
X76132699Y-49926597D01*
X76132698Y-49926597D01*
X76001271Y-49905781D01*
X75961611Y-49899500D01*
X75538389Y-49899500D01*
X75498728Y-49905781D01*
X75367302Y-49926597D01*
X75202552Y-49980128D01*
X75048211Y-50058768D01*
X74968256Y-50116859D01*
X74908072Y-50160586D01*
X74908070Y-50160588D01*
X74908069Y-50160588D01*
X74785588Y-50283069D01*
X74785588Y-50283070D01*
X74785586Y-50283072D01*
X74759085Y-50319547D01*
X74683768Y-50423211D01*
X74605128Y-50577552D01*
X74551597Y-50742302D01*
X74524500Y-50913389D01*
X74524500Y-51091483D01*
X74523370Y-51091483D01*
X74510105Y-51154622D01*
X74488534Y-51183651D01*
X71063908Y-54608277D01*
X71002585Y-54641762D01*
X70932893Y-54636778D01*
X70876960Y-54594906D01*
X70852543Y-54529442D01*
X70861665Y-54473146D01*
X70875501Y-54439744D01*
X70885866Y-54387639D01*
X70900500Y-54314071D01*
X70900500Y-54185928D01*
X70875502Y-54060261D01*
X70875501Y-54060260D01*
X70875501Y-54060256D01*
X70826465Y-53941873D01*
X70826464Y-53941871D01*
X70826458Y-53941861D01*
X70771398Y-53859457D01*
X70750520Y-53792780D01*
X70750500Y-53790567D01*
X70750500Y-51758675D01*
X70770185Y-51691636D01*
X70786814Y-51670999D01*
X74348919Y-48108893D01*
X74410240Y-48075410D01*
X74479932Y-48080394D01*
X74535865Y-48122266D01*
X74560282Y-48187730D01*
X74554531Y-48234888D01*
X74552086Y-48242412D01*
X74552085Y-48242414D01*
X74550884Y-48249999D01*
X74550885Y-48250000D01*
X75345854Y-48250000D01*
X75307370Y-48316657D01*
X75275000Y-48437465D01*
X75275000Y-48562535D01*
X75307370Y-48683343D01*
X75345854Y-48750000D01*
X74550885Y-48750000D01*
X74552085Y-48757584D01*
X74605591Y-48922255D01*
X74684195Y-49076524D01*
X74785967Y-49216602D01*
X74908397Y-49339032D01*
X75048475Y-49440804D01*
X75202744Y-49519408D01*
X75367415Y-49572913D01*
X75500000Y-49593913D01*
X75500000Y-48904145D01*
X75566657Y-48942630D01*
X75687465Y-48975000D01*
X75812535Y-48975000D01*
X75933343Y-48942630D01*
X76000000Y-48904145D01*
X76000000Y-49593912D01*
X76132584Y-49572913D01*
X76297255Y-49519408D01*
X76451524Y-49440804D01*
X76591602Y-49339032D01*
X76714032Y-49216602D01*
X76815804Y-49076524D01*
X76894408Y-48922255D01*
X76947914Y-48757584D01*
X76949115Y-48750000D01*
X76154146Y-48750000D01*
X76192630Y-48683343D01*
X76225000Y-48562535D01*
X76225000Y-48437465D01*
X76192630Y-48316657D01*
X76154146Y-48250000D01*
X76949115Y-48250000D01*
X76949115Y-48249999D01*
X76947914Y-48242415D01*
X76894408Y-48077744D01*
X76815804Y-47923475D01*
X76714032Y-47783397D01*
X76591602Y-47660967D01*
X76451524Y-47559195D01*
X76297257Y-47480591D01*
X76132585Y-47427086D01*
X76000000Y-47406086D01*
X76000000Y-48095854D01*
X75933343Y-48057370D01*
X75812535Y-48025000D01*
X75687465Y-48025000D01*
X75566657Y-48057370D01*
X75500000Y-48095854D01*
X75500000Y-47406086D01*
X75367412Y-47427086D01*
X75367410Y-47427087D01*
X75359891Y-47429530D01*
X75290049Y-47431523D01*
X75230218Y-47395441D01*
X75199391Y-47332739D01*
X75207358Y-47263325D01*
X75233890Y-47223922D01*
X75320997Y-47136815D01*
X75382319Y-47103333D01*
X75408676Y-47100499D01*
X76522871Y-47100499D01*
X76522872Y-47100499D01*
X76582483Y-47094091D01*
X76717331Y-47043796D01*
X76832546Y-46957546D01*
X76918796Y-46842331D01*
X76969091Y-46707483D01*
X76975500Y-46647873D01*
X76975499Y-45352128D01*
X76969091Y-45292517D01*
X76964307Y-45279691D01*
X76918797Y-45157671D01*
X76918793Y-45157664D01*
X76832547Y-45042455D01*
X76832544Y-45042452D01*
X76717335Y-44956206D01*
X76717328Y-44956202D01*
X76582482Y-44905908D01*
X76582483Y-44905908D01*
X76522883Y-44899501D01*
X76522881Y-44899500D01*
X76522873Y-44899500D01*
X76522864Y-44899500D01*
X74977129Y-44899500D01*
X74977123Y-44899501D01*
X74917516Y-44905908D01*
X74782671Y-44956202D01*
X74782664Y-44956206D01*
X74667455Y-45042452D01*
X74667452Y-45042455D01*
X74581206Y-45157664D01*
X74581202Y-45157671D01*
X74530908Y-45292517D01*
X74524501Y-45352116D01*
X74524501Y-45352123D01*
X74524500Y-45352135D01*
X74524500Y-46466323D01*
X74504815Y-46533362D01*
X74488181Y-46554004D01*
X69942686Y-51099500D01*
X69849502Y-51192683D01*
X69849500Y-51192686D01*
X69783608Y-51306812D01*
X69749500Y-51434108D01*
X69749500Y-53790567D01*
X69729815Y-53857606D01*
X69728602Y-53859457D01*
X69673541Y-53941861D01*
X69673533Y-53941875D01*
X69624499Y-54060255D01*
X69624497Y-54060261D01*
X69599500Y-54185928D01*
X69599500Y-54185931D01*
X69599500Y-54314069D01*
X69599500Y-54314071D01*
X69599499Y-54314071D01*
X69624497Y-54439738D01*
X69624499Y-54439744D01*
X69673533Y-54558124D01*
X69673538Y-54558133D01*
X69744723Y-54664668D01*
X69744726Y-54664672D01*
X69835327Y-54755273D01*
X69835331Y-54755276D01*
X69941866Y-54826461D01*
X69941872Y-54826464D01*
X69941873Y-54826465D01*
X70060256Y-54875501D01*
X70060260Y-54875501D01*
X70060261Y-54875502D01*
X70185928Y-54900500D01*
X70185931Y-54900500D01*
X70314071Y-54900500D01*
X70398615Y-54883682D01*
X70439744Y-54875501D01*
X70473145Y-54861665D01*
X70542611Y-54854197D01*
X70605091Y-54885471D01*
X70640744Y-54945560D01*
X70638251Y-55015385D01*
X70608277Y-55063908D01*
X69212181Y-56460005D01*
X69150858Y-56493490D01*
X69081166Y-56488506D01*
X69025233Y-56446634D01*
X69000816Y-56381170D01*
X69000500Y-56372324D01*
X69000500Y-55114110D01*
X69000500Y-55114108D01*
X68966392Y-54986814D01*
X68900500Y-54872686D01*
X68807314Y-54779500D01*
X68023683Y-53995869D01*
X67990198Y-53934546D01*
X67993432Y-53869872D01*
X68024585Y-53773997D01*
X68055500Y-53578810D01*
X68055500Y-53381190D01*
X68024585Y-53186003D01*
X67963517Y-52998055D01*
X67963515Y-52998052D01*
X67963515Y-52998050D01*
X67873799Y-52821974D01*
X67845535Y-52783072D01*
X67757642Y-52662097D01*
X67617903Y-52522358D01*
X67458025Y-52406200D01*
X67281949Y-52316484D01*
X67093997Y-52255414D01*
X66925497Y-52228726D01*
X66898810Y-52224500D01*
X66701190Y-52224500D01*
X66677712Y-52228218D01*
X66506002Y-52255414D01*
X66318050Y-52316484D01*
X66141974Y-52406200D01*
X65982094Y-52522360D01*
X65842360Y-52662094D01*
X65726200Y-52821974D01*
X65636484Y-52998050D01*
X65575414Y-53186002D01*
X65554059Y-53320836D01*
X65544500Y-53381190D01*
X65544500Y-53578810D01*
X65545736Y-53586611D01*
X65575414Y-53773997D01*
X65606566Y-53869869D01*
X65636483Y-53961945D01*
X65636484Y-53961948D01*
X65636485Y-53961949D01*
X65641243Y-53971288D01*
X65654138Y-54039958D01*
X65627860Y-54104698D01*
X65570753Y-54144954D01*
X65500947Y-54147945D01*
X65443076Y-54115262D01*
X60712316Y-49384502D01*
X60712314Y-49384500D01*
X60655250Y-49351554D01*
X60598187Y-49318608D01*
X60534539Y-49301554D01*
X60470892Y-49284500D01*
X60470891Y-49284500D01*
X57201762Y-49284500D01*
X57134723Y-49264815D01*
X57088968Y-49212011D01*
X57079024Y-49142853D01*
X57101444Y-49087614D01*
X57173800Y-48988025D01*
X57263517Y-48811945D01*
X57324585Y-48623997D01*
X57355500Y-48428810D01*
X57355500Y-48231190D01*
X57328935Y-48063465D01*
X57324585Y-48036002D01*
X57286198Y-47917861D01*
X57263517Y-47848055D01*
X57263515Y-47848052D01*
X57263515Y-47848050D01*
X57199276Y-47721975D01*
X57173800Y-47671975D01*
X57057642Y-47512097D01*
X56917903Y-47372358D01*
X56805022Y-47290345D01*
X56801614Y-47287869D01*
X56758949Y-47232539D01*
X56750500Y-47187551D01*
X56750500Y-44042907D01*
X56770185Y-43975868D01*
X56822989Y-43930113D01*
X56836173Y-43924979D01*
X56883572Y-43909579D01*
X57115051Y-43791634D01*
X57325229Y-43638931D01*
X57508931Y-43455229D01*
X57661634Y-43245051D01*
X57779579Y-43013572D01*
X57859860Y-42766493D01*
X57890414Y-42573579D01*
X57900500Y-42509902D01*
X57900500Y-42250142D01*
X59600000Y-42250142D01*
X59600000Y-42509857D01*
X59640629Y-42766377D01*
X59720883Y-43013377D01*
X59838796Y-43244791D01*
X59919951Y-43356492D01*
X59919952Y-43356493D01*
X60648958Y-42627487D01*
X60673978Y-42687890D01*
X60745112Y-42794351D01*
X60835649Y-42884888D01*
X60942110Y-42956022D01*
X61002511Y-42981041D01*
X60273505Y-43710046D01*
X60273506Y-43710048D01*
X60385208Y-43791203D01*
X60616622Y-43909116D01*
X60863622Y-43989370D01*
X61120143Y-44030000D01*
X61379857Y-44030000D01*
X61636377Y-43989370D01*
X61883377Y-43909116D01*
X62114788Y-43791205D01*
X62226492Y-43710046D01*
X62226493Y-43710046D01*
X61497488Y-42981041D01*
X61557890Y-42956022D01*
X61664351Y-42884888D01*
X61754888Y-42794351D01*
X61826022Y-42687890D01*
X61851041Y-42627488D01*
X62580046Y-43356493D01*
X62580046Y-43356492D01*
X62661205Y-43244788D01*
X62779116Y-43013377D01*
X62859370Y-42766377D01*
X62900000Y-42509857D01*
X62900000Y-42250142D01*
X62859370Y-41993622D01*
X62779116Y-41746622D01*
X62661203Y-41515208D01*
X62580048Y-41403506D01*
X62580046Y-41403505D01*
X61851041Y-42132511D01*
X61826022Y-42072110D01*
X61754888Y-41965649D01*
X61664351Y-41875112D01*
X61557890Y-41803978D01*
X61497488Y-41778958D01*
X62094310Y-41182136D01*
X64599500Y-41182136D01*
X64599500Y-43577863D01*
X64599501Y-43577882D01*
X64605908Y-43637481D01*
X64656202Y-43772327D01*
X64656203Y-43772328D01*
X64656204Y-43772330D01*
X64742454Y-43887546D01*
X64857670Y-43973796D01*
X64857671Y-43973796D01*
X64857672Y-43973797D01*
X64992518Y-44024091D01*
X64992517Y-44024091D01*
X64999445Y-44024835D01*
X65052128Y-44030500D01*
X65625500Y-44030500D01*
X65692539Y-44050185D01*
X65738294Y-44102989D01*
X65749500Y-44154500D01*
X65749500Y-46564108D01*
X65749500Y-46695892D01*
X65749523Y-46695977D01*
X65783608Y-46823187D01*
X65816554Y-46880250D01*
X65849500Y-46937314D01*
X65849502Y-46937316D01*
X66776315Y-47864129D01*
X66809800Y-47925452D01*
X66806565Y-47990127D01*
X66775415Y-48085999D01*
X66744500Y-48281190D01*
X66744500Y-48478809D01*
X66775414Y-48673997D01*
X66836484Y-48861949D01*
X66912175Y-49010499D01*
X66926200Y-49038025D01*
X67042358Y-49197903D01*
X67182097Y-49337642D01*
X67341975Y-49453800D01*
X67412763Y-49489868D01*
X67518050Y-49543515D01*
X67518052Y-49543515D01*
X67518055Y-49543517D01*
X67596662Y-49569058D01*
X67706002Y-49604585D01*
X67803596Y-49620042D01*
X67901190Y-49635500D01*
X67901191Y-49635500D01*
X68098809Y-49635500D01*
X68098810Y-49635500D01*
X68293997Y-49604585D01*
X68481945Y-49543517D01*
X68658025Y-49453800D01*
X68817903Y-49337642D01*
X68957642Y-49197903D01*
X69073800Y-49038025D01*
X69163517Y-48861945D01*
X69224585Y-48673997D01*
X69255500Y-48478810D01*
X69255500Y-48281190D01*
X69224585Y-48086003D01*
X69221901Y-48077744D01*
X69169952Y-47917861D01*
X69163517Y-47898055D01*
X69163515Y-47898052D01*
X69163515Y-47898050D01*
X69073799Y-47721974D01*
X69068292Y-47714394D01*
X68957642Y-47562097D01*
X68817903Y-47422358D01*
X68658025Y-47306200D01*
X68626902Y-47290342D01*
X68481949Y-47216484D01*
X68293997Y-47155414D01*
X68125497Y-47128726D01*
X68098810Y-47124500D01*
X67901190Y-47124500D01*
X67862152Y-47130683D01*
X67705999Y-47155415D01*
X67610127Y-47186565D01*
X67540285Y-47188560D01*
X67484129Y-47156315D01*
X66786819Y-46459005D01*
X66753334Y-46397682D01*
X66750500Y-46371324D01*
X66750500Y-44154500D01*
X66770185Y-44087461D01*
X66822989Y-44041706D01*
X66874500Y-44030500D01*
X67447863Y-44030500D01*
X67447872Y-44030500D01*
X67507482Y-44024091D01*
X67642330Y-43973796D01*
X67757546Y-43887546D01*
X67843796Y-43772330D01*
X67894091Y-43637482D01*
X67900500Y-43577872D01*
X67900500Y-41182128D01*
X67894091Y-41122518D01*
X67843796Y-40987670D01*
X67757546Y-40872454D01*
X67642330Y-40786204D01*
X67642328Y-40786203D01*
X67642327Y-40786202D01*
X67507481Y-40735908D01*
X67507482Y-40735908D01*
X67447882Y-40729501D01*
X67447880Y-40729500D01*
X67447872Y-40729500D01*
X65052128Y-40729500D01*
X65052120Y-40729500D01*
X65052117Y-40729501D01*
X64992518Y-40735908D01*
X64857672Y-40786202D01*
X64857670Y-40786204D01*
X64742454Y-40872454D01*
X64656204Y-40987670D01*
X64656202Y-40987672D01*
X64605908Y-41122518D01*
X64599501Y-41182117D01*
X64599500Y-41182136D01*
X62094310Y-41182136D01*
X62185320Y-41091126D01*
X62226493Y-41049952D01*
X62226492Y-41049951D01*
X62114791Y-40968796D01*
X61883377Y-40850883D01*
X61636377Y-40770629D01*
X61379857Y-40730000D01*
X61120143Y-40730000D01*
X60863622Y-40770629D01*
X60616622Y-40850883D01*
X60385215Y-40968792D01*
X60273506Y-41049952D01*
X61002512Y-41778958D01*
X60942110Y-41803978D01*
X60835649Y-41875112D01*
X60745112Y-41965649D01*
X60673978Y-42072110D01*
X60648958Y-42132512D01*
X59919952Y-41403506D01*
X59838792Y-41515215D01*
X59720883Y-41746622D01*
X59640629Y-41993622D01*
X59600000Y-42250142D01*
X57900500Y-42250142D01*
X57900500Y-42250097D01*
X57872309Y-42072110D01*
X57859860Y-41993507D01*
X57779579Y-41746428D01*
X57779577Y-41746425D01*
X57779577Y-41746423D01*
X57736787Y-41662445D01*
X57661634Y-41514949D01*
X57508931Y-41304771D01*
X57325229Y-41121069D01*
X57227343Y-41049951D01*
X57115054Y-40968368D01*
X57115053Y-40968367D01*
X57115051Y-40968366D01*
X57042764Y-40931534D01*
X56883576Y-40850422D01*
X56636493Y-40770140D01*
X56379902Y-40729500D01*
X56379897Y-40729500D01*
X56120103Y-40729500D01*
X56120098Y-40729500D01*
X55863506Y-40770140D01*
X55616423Y-40850422D01*
X55384945Y-40968368D01*
X55174774Y-41121066D01*
X55174768Y-41121071D01*
X54991071Y-41304768D01*
X54991066Y-41304774D01*
X54838368Y-41514945D01*
X54720422Y-41746423D01*
X54640140Y-41993506D01*
X54599500Y-42250097D01*
X54599500Y-42509902D01*
X54640140Y-42766493D01*
X54720422Y-43013576D01*
X54801534Y-43172764D01*
X54838366Y-43245051D01*
X54991069Y-43455229D01*
X55174771Y-43638931D01*
X55384949Y-43791634D01*
X55616428Y-43909579D01*
X55663816Y-43924976D01*
X55721492Y-43964411D01*
X55748691Y-44028769D01*
X55749500Y-44042907D01*
X55749500Y-47033682D01*
X55729815Y-47100721D01*
X55677011Y-47146476D01*
X55663820Y-47151612D01*
X55618054Y-47166482D01*
X55441974Y-47256200D01*
X55282094Y-47372360D01*
X55142360Y-47512094D01*
X55026200Y-47671974D01*
X54936484Y-47848050D01*
X54875414Y-48036002D01*
X54844500Y-48231190D01*
X54844500Y-48428809D01*
X54875414Y-48623997D01*
X54936484Y-48811949D01*
X55018949Y-48973795D01*
X55026200Y-48988025D01*
X55090498Y-49076524D01*
X55098556Y-49087614D01*
X55122036Y-49153421D01*
X55106211Y-49221475D01*
X55056105Y-49270170D01*
X54998238Y-49284500D01*
X53163676Y-49284500D01*
X53096637Y-49264815D01*
X53075995Y-49248181D01*
X50057676Y-46229862D01*
X50024191Y-46168539D01*
X50023740Y-46117993D01*
X50050500Y-45983465D01*
X50050500Y-45776535D01*
X50010130Y-45573580D01*
X49930941Y-45382402D01*
X49815977Y-45210345D01*
X49815975Y-45210342D01*
X49669657Y-45064024D01*
X49545967Y-44981378D01*
X49497598Y-44949059D01*
X49393425Y-44905909D01*
X49306420Y-44869870D01*
X49306412Y-44869868D01*
X49103469Y-44829500D01*
X49103465Y-44829500D01*
X48896535Y-44829500D01*
X48896530Y-44829500D01*
X48693587Y-44869868D01*
X48693579Y-44869870D01*
X48502403Y-44949058D01*
X48330342Y-45064024D01*
X48184024Y-45210342D01*
X48144292Y-45269806D01*
X48107819Y-45324391D01*
X48054210Y-45369195D01*
X48004719Y-45379500D01*
X45784789Y-45379500D01*
X45717750Y-45359815D01*
X45671995Y-45307011D01*
X45663172Y-45279691D01*
X45630131Y-45113587D01*
X45630130Y-45113580D01*
X45550941Y-44922402D01*
X45435977Y-44750345D01*
X45435975Y-44750342D01*
X45289657Y-44604024D01*
X45203626Y-44546541D01*
X45117598Y-44489059D01*
X44926420Y-44409870D01*
X44926412Y-44409868D01*
X44723469Y-44369500D01*
X44723465Y-44369500D01*
X44516535Y-44369500D01*
X44516530Y-44369500D01*
X44313587Y-44409868D01*
X44313579Y-44409870D01*
X44122403Y-44489058D01*
X43950342Y-44604024D01*
X43804024Y-44750342D01*
X43689058Y-44922403D01*
X43609870Y-45113579D01*
X43609868Y-45113587D01*
X43569500Y-45316530D01*
X43569500Y-45523469D01*
X43609868Y-45726412D01*
X43609870Y-45726420D01*
X43689058Y-45917596D01*
X43804024Y-46089657D01*
X43950342Y-46235975D01*
X43950345Y-46235977D01*
X44122402Y-46350941D01*
X44313580Y-46430130D01*
X44495536Y-46466323D01*
X44516530Y-46470499D01*
X44516534Y-46470500D01*
X44516535Y-46470500D01*
X44723466Y-46470500D01*
X44723467Y-46470499D01*
X44926420Y-46430130D01*
X45023449Y-46389938D01*
X45070902Y-46380500D01*
X48004719Y-46380500D01*
X48071758Y-46400185D01*
X48107819Y-46435607D01*
X48131134Y-46470500D01*
X48184024Y-46549657D01*
X48330342Y-46695975D01*
X48330345Y-46695977D01*
X48502402Y-46810941D01*
X48693580Y-46890130D01*
X48894016Y-46929999D01*
X48896530Y-46930499D01*
X48896534Y-46930500D01*
X48896535Y-46930500D01*
X49103466Y-46930500D01*
X49123140Y-46926586D01*
X49237992Y-46903740D01*
X49307580Y-46909967D01*
X49349862Y-46937676D01*
X52597686Y-50185500D01*
X52711814Y-50251392D01*
X52839108Y-50285500D01*
X52970892Y-50285500D01*
X60146324Y-50285500D01*
X60213363Y-50305185D01*
X60234005Y-50321819D01*
X67442322Y-57530136D01*
X67475807Y-57591459D01*
X67476258Y-57642008D01*
X67449500Y-57776530D01*
X67449500Y-57983469D01*
X67489868Y-58186412D01*
X67489870Y-58186420D01*
X67568959Y-58377358D01*
X67569059Y-58377598D01*
X67570998Y-58380500D01*
X67608489Y-58436610D01*
X67629366Y-58503288D01*
X67610881Y-58570668D01*
X67558901Y-58617357D01*
X67505386Y-58629500D01*
X64494013Y-58629500D01*
X64426974Y-58609815D01*
X64381219Y-58557011D01*
X64371275Y-58487853D01*
X64390911Y-58436609D01*
X64430494Y-58377368D01*
X64430499Y-58377358D01*
X64509649Y-58186274D01*
X64509651Y-58186266D01*
X64549999Y-57983420D01*
X64550000Y-57983417D01*
X64550000Y-57776583D01*
X64549999Y-57776579D01*
X64509651Y-57573733D01*
X64509649Y-57573725D01*
X64430498Y-57382639D01*
X64430495Y-57382633D01*
X64398621Y-57334932D01*
X64398620Y-57334931D01*
X63900000Y-57833551D01*
X63900000Y-57827339D01*
X63872741Y-57725606D01*
X63820080Y-57634394D01*
X63745606Y-57559920D01*
X63654394Y-57507259D01*
X63552661Y-57480000D01*
X63546447Y-57480000D01*
X64045067Y-56981378D01*
X64045067Y-56981377D01*
X63997359Y-56949500D01*
X63806274Y-56870350D01*
X63806266Y-56870348D01*
X63603420Y-56830000D01*
X63396579Y-56830000D01*
X63193733Y-56870348D01*
X63193725Y-56870350D01*
X63002641Y-56949500D01*
X63002631Y-56949505D01*
X62954932Y-56981377D01*
X62954932Y-56981378D01*
X63453554Y-57480000D01*
X63447339Y-57480000D01*
X63345606Y-57507259D01*
X63254394Y-57559920D01*
X63179920Y-57634394D01*
X63127259Y-57725606D01*
X63100000Y-57827339D01*
X63100000Y-57833554D01*
X62601378Y-57334932D01*
X62601377Y-57334932D01*
X62569505Y-57382631D01*
X62569500Y-57382641D01*
X62490350Y-57573725D01*
X62490348Y-57573733D01*
X62450000Y-57776579D01*
X62450000Y-57983420D01*
X62490348Y-58186266D01*
X62490350Y-58186274D01*
X62569500Y-58377358D01*
X62569505Y-58377368D01*
X62609089Y-58436609D01*
X62629967Y-58503287D01*
X62611482Y-58570667D01*
X62559504Y-58617357D01*
X62505987Y-58629500D01*
X60494013Y-58629500D01*
X60426974Y-58609815D01*
X60381219Y-58557011D01*
X60371275Y-58487853D01*
X60390911Y-58436609D01*
X60430494Y-58377368D01*
X60430499Y-58377358D01*
X60509649Y-58186274D01*
X60509651Y-58186266D01*
X60549999Y-57983420D01*
X60550000Y-57983417D01*
X60550000Y-57776583D01*
X60549999Y-57776579D01*
X60509651Y-57573733D01*
X60509649Y-57573725D01*
X60430498Y-57382639D01*
X60430495Y-57382633D01*
X60398621Y-57334932D01*
X60398620Y-57334931D01*
X59900000Y-57833551D01*
X59900000Y-57827339D01*
X59872741Y-57725606D01*
X59820080Y-57634394D01*
X59745606Y-57559920D01*
X59654394Y-57507259D01*
X59552661Y-57480000D01*
X59546447Y-57480000D01*
X60045067Y-56981378D01*
X60045067Y-56981377D01*
X59997359Y-56949500D01*
X59806274Y-56870350D01*
X59806266Y-56870348D01*
X59603420Y-56830000D01*
X59396579Y-56830000D01*
X59193733Y-56870348D01*
X59193725Y-56870350D01*
X59002641Y-56949500D01*
X59002631Y-56949505D01*
X58954932Y-56981377D01*
X58954932Y-56981378D01*
X59453554Y-57480000D01*
X59447339Y-57480000D01*
X59345606Y-57507259D01*
X59254394Y-57559920D01*
X59179920Y-57634394D01*
X59127259Y-57725606D01*
X59100000Y-57827339D01*
X59100000Y-57833554D01*
X58601378Y-57334932D01*
X58601377Y-57334932D01*
X58569505Y-57382631D01*
X58569500Y-57382641D01*
X58490350Y-57573725D01*
X58490348Y-57573733D01*
X58450000Y-57776579D01*
X58450000Y-57983420D01*
X58490348Y-58186266D01*
X58490350Y-58186274D01*
X58569500Y-58377358D01*
X58569505Y-58377368D01*
X58609089Y-58436609D01*
X58629967Y-58503287D01*
X58611482Y-58570667D01*
X58559504Y-58617357D01*
X58505987Y-58629500D01*
X56008676Y-58629500D01*
X55941637Y-58609815D01*
X55920995Y-58593181D01*
X55557676Y-58229862D01*
X55524191Y-58168539D01*
X55523740Y-58117993D01*
X55550500Y-57983465D01*
X55550500Y-57776535D01*
X55510130Y-57573580D01*
X55430941Y-57382402D01*
X55421395Y-57368116D01*
X55400520Y-57301439D01*
X55400500Y-57299228D01*
X55400500Y-54660049D01*
X55420185Y-54593010D01*
X55468204Y-54549565D01*
X55558025Y-54503800D01*
X55717903Y-54387642D01*
X55857642Y-54247903D01*
X55973800Y-54088025D01*
X56063517Y-53911945D01*
X56124585Y-53723997D01*
X56155500Y-53528810D01*
X56155500Y-53331190D01*
X56124585Y-53136003D01*
X56063517Y-52948055D01*
X56063515Y-52948052D01*
X56063515Y-52948050D01*
X55999276Y-52821975D01*
X55973800Y-52771975D01*
X55857642Y-52612097D01*
X55717903Y-52472358D01*
X55558025Y-52356200D01*
X55381949Y-52266484D01*
X55193997Y-52205414D01*
X55025497Y-52178726D01*
X54998810Y-52174500D01*
X54801190Y-52174500D01*
X54777712Y-52178218D01*
X54606002Y-52205414D01*
X54418050Y-52266484D01*
X54241974Y-52356200D01*
X54082094Y-52472360D01*
X53942360Y-52612094D01*
X53826200Y-52771974D01*
X53736484Y-52948050D01*
X53675414Y-53136002D01*
X53644500Y-53331190D01*
X53644500Y-53528809D01*
X53675414Y-53723997D01*
X53736484Y-53911949D01*
X53818839Y-54073579D01*
X53826200Y-54088025D01*
X53942358Y-54247903D01*
X54082097Y-54387642D01*
X54241975Y-54503800D01*
X54331795Y-54549565D01*
X54382590Y-54597538D01*
X54399500Y-54660049D01*
X54399500Y-56727145D01*
X54379815Y-56794184D01*
X54327011Y-56839939D01*
X54299692Y-56848762D01*
X54193585Y-56869868D01*
X54193579Y-56869870D01*
X54002403Y-56949058D01*
X53830342Y-57064024D01*
X53684024Y-57210342D01*
X53644292Y-57269806D01*
X53607819Y-57324391D01*
X53554210Y-57369195D01*
X53504719Y-57379500D01*
X50490909Y-57379500D01*
X50423870Y-57359815D01*
X50403228Y-57343181D01*
X44793321Y-51733274D01*
X44759836Y-51671951D01*
X44764820Y-51602259D01*
X44806692Y-51546326D01*
X44856808Y-51523976D01*
X44926420Y-51510130D01*
X45117598Y-51430941D01*
X45289655Y-51315977D01*
X45435977Y-51169655D01*
X45550941Y-50997598D01*
X45630130Y-50806420D01*
X45636066Y-50776579D01*
X47950000Y-50776579D01*
X47950000Y-50983420D01*
X47990348Y-51186266D01*
X47990350Y-51186274D01*
X48069500Y-51377359D01*
X48101377Y-51425067D01*
X48101378Y-51425067D01*
X48600000Y-50926445D01*
X48600000Y-50932661D01*
X48627259Y-51034394D01*
X48679920Y-51125606D01*
X48754394Y-51200080D01*
X48845606Y-51252741D01*
X48947339Y-51280000D01*
X48953554Y-51280000D01*
X48454931Y-51778620D01*
X48454932Y-51778621D01*
X48502633Y-51810495D01*
X48502639Y-51810498D01*
X48693725Y-51889649D01*
X48693733Y-51889651D01*
X48896579Y-51929999D01*
X48896583Y-51930000D01*
X49103417Y-51930000D01*
X49103420Y-51929999D01*
X49306266Y-51889651D01*
X49306274Y-51889649D01*
X49497366Y-51810495D01*
X49545066Y-51778621D01*
X49545067Y-51778620D01*
X49046447Y-51280000D01*
X49052661Y-51280000D01*
X49154394Y-51252741D01*
X49245606Y-51200080D01*
X49320080Y-51125606D01*
X49372741Y-51034394D01*
X49400000Y-50932661D01*
X49400000Y-50926447D01*
X49898620Y-51425067D01*
X49898621Y-51425066D01*
X49930495Y-51377366D01*
X50009649Y-51186274D01*
X50009651Y-51186266D01*
X50049999Y-50983420D01*
X50050000Y-50983417D01*
X50050000Y-50776583D01*
X50049999Y-50776579D01*
X50009651Y-50573733D01*
X50009649Y-50573725D01*
X49930498Y-50382639D01*
X49930495Y-50382633D01*
X49898621Y-50334932D01*
X49898620Y-50334931D01*
X49400000Y-50833552D01*
X49400000Y-50827339D01*
X49372741Y-50725606D01*
X49320080Y-50634394D01*
X49245606Y-50559920D01*
X49154394Y-50507259D01*
X49052661Y-50480000D01*
X49046447Y-50480000D01*
X49545067Y-49981378D01*
X49545067Y-49981377D01*
X49497359Y-49949500D01*
X49306274Y-49870350D01*
X49306266Y-49870348D01*
X49103420Y-49830000D01*
X48896579Y-49830000D01*
X48693733Y-49870348D01*
X48693725Y-49870350D01*
X48502641Y-49949500D01*
X48502631Y-49949505D01*
X48454932Y-49981377D01*
X48454932Y-49981378D01*
X48953554Y-50480000D01*
X48947339Y-50480000D01*
X48845606Y-50507259D01*
X48754394Y-50559920D01*
X48679920Y-50634394D01*
X48627259Y-50725606D01*
X48600000Y-50827339D01*
X48600000Y-50833554D01*
X48101378Y-50334932D01*
X48101377Y-50334932D01*
X48069505Y-50382631D01*
X48069500Y-50382641D01*
X47990350Y-50573725D01*
X47990348Y-50573733D01*
X47950000Y-50776579D01*
X45636066Y-50776579D01*
X45637249Y-50770629D01*
X45642089Y-50746301D01*
X45670499Y-50603469D01*
X45670500Y-50603466D01*
X45670500Y-50396534D01*
X45670499Y-50396530D01*
X45658246Y-50334931D01*
X45630130Y-50193580D01*
X45576465Y-50064023D01*
X45550942Y-50002404D01*
X45536892Y-49981377D01*
X45435977Y-49830345D01*
X45435975Y-49830342D01*
X45289657Y-49684024D01*
X45154793Y-49593912D01*
X45117598Y-49569059D01*
X44926420Y-49489870D01*
X44926412Y-49489868D01*
X44723469Y-49449500D01*
X44723465Y-49449500D01*
X44516535Y-49449500D01*
X44516530Y-49449500D01*
X44313587Y-49489868D01*
X44313579Y-49489870D01*
X44122403Y-49569058D01*
X43950342Y-49684024D01*
X43804024Y-49830342D01*
X43689058Y-50002403D01*
X43609870Y-50193579D01*
X43609868Y-50193587D01*
X43584813Y-50319547D01*
X43552428Y-50381458D01*
X43491713Y-50416032D01*
X43431103Y-50415131D01*
X43309847Y-50382641D01*
X43298125Y-50379500D01*
X43298124Y-50379500D01*
X38148876Y-50379500D01*
X38081837Y-50359815D01*
X38036082Y-50307011D01*
X38027259Y-50279691D01*
X38010131Y-50193587D01*
X38010130Y-50193580D01*
X37930941Y-50002402D01*
X37815977Y-49830345D01*
X37815975Y-49830342D01*
X37669657Y-49684024D01*
X37534793Y-49593912D01*
X37497598Y-49569059D01*
X37306420Y-49489870D01*
X37306412Y-49489868D01*
X37103469Y-49449500D01*
X37103465Y-49449500D01*
X36896535Y-49449500D01*
X36896530Y-49449500D01*
X36693587Y-49489868D01*
X36693579Y-49489870D01*
X36502403Y-49569058D01*
X36330342Y-49684024D01*
X36184024Y-49830342D01*
X36069058Y-50002403D01*
X35989870Y-50193579D01*
X35989868Y-50193587D01*
X35972741Y-50279691D01*
X35940356Y-50341602D01*
X35879641Y-50376176D01*
X35851124Y-50379500D01*
X33495281Y-50379500D01*
X33428242Y-50359815D01*
X33392180Y-50324392D01*
X33315977Y-50210345D01*
X33315975Y-50210342D01*
X33169657Y-50064024D01*
X33077435Y-50002404D01*
X32997598Y-49949059D01*
X32943370Y-49926597D01*
X32806420Y-49869870D01*
X32806412Y-49869868D01*
X32603469Y-49829500D01*
X32603465Y-49829500D01*
X32396535Y-49829500D01*
X32396530Y-49829500D01*
X32193587Y-49869868D01*
X32193579Y-49869870D01*
X32002403Y-49949058D01*
X31830342Y-50064024D01*
X31684024Y-50210342D01*
X31569058Y-50382403D01*
X31489870Y-50573579D01*
X31489868Y-50573587D01*
X31449500Y-50776530D01*
X24904539Y-50776530D01*
X24886377Y-50770629D01*
X24629857Y-50730000D01*
X24370143Y-50730000D01*
X24113622Y-50770629D01*
X23866622Y-50850883D01*
X23635215Y-50968792D01*
X23523506Y-51049952D01*
X24252512Y-51778958D01*
X24192110Y-51803978D01*
X24085649Y-51875112D01*
X23995112Y-51965649D01*
X23923978Y-52072110D01*
X23898958Y-52132512D01*
X23169952Y-51403506D01*
X23088792Y-51515215D01*
X22970883Y-51746622D01*
X22890629Y-51993622D01*
X22850000Y-52250142D01*
X16000500Y-52250142D01*
X16000500Y-46182136D01*
X22849500Y-46182136D01*
X22849500Y-48577863D01*
X22849501Y-48577882D01*
X22855908Y-48637481D01*
X22906202Y-48772327D01*
X22906203Y-48772328D01*
X22906204Y-48772330D01*
X22992454Y-48887546D01*
X23107670Y-48973796D01*
X23107671Y-48973796D01*
X23107672Y-48973797D01*
X23242518Y-49024091D01*
X23242517Y-49024091D01*
X23249445Y-49024835D01*
X23302128Y-49030500D01*
X23302137Y-49030500D01*
X25697863Y-49030500D01*
X25697872Y-49030500D01*
X25757482Y-49024091D01*
X25892330Y-48973796D01*
X26007546Y-48887546D01*
X26093796Y-48772330D01*
X26093798Y-48772325D01*
X26095010Y-48769077D01*
X26095010Y-48769076D01*
X26144091Y-48637481D01*
X26144932Y-48629657D01*
X26150500Y-48577872D01*
X26150500Y-47856579D01*
X35950000Y-47856579D01*
X35950000Y-48063420D01*
X35990348Y-48266266D01*
X35990350Y-48266274D01*
X36069500Y-48457359D01*
X36101377Y-48505067D01*
X36101378Y-48505067D01*
X36600000Y-48006445D01*
X36600000Y-48012661D01*
X36627259Y-48114394D01*
X36679920Y-48205606D01*
X36754394Y-48280080D01*
X36845606Y-48332741D01*
X36947339Y-48360000D01*
X36953554Y-48360000D01*
X36454931Y-48858620D01*
X36454932Y-48858621D01*
X36502633Y-48890495D01*
X36502639Y-48890498D01*
X36693725Y-48969649D01*
X36693733Y-48969651D01*
X36896579Y-49009999D01*
X36896583Y-49010000D01*
X37103417Y-49010000D01*
X37103420Y-49009999D01*
X37306266Y-48969651D01*
X37306274Y-48969649D01*
X37497366Y-48890495D01*
X37545066Y-48858621D01*
X37545067Y-48858620D01*
X37046447Y-48360000D01*
X37052661Y-48360000D01*
X37154394Y-48332741D01*
X37245606Y-48280080D01*
X37320080Y-48205606D01*
X37372741Y-48114394D01*
X37400000Y-48012661D01*
X37400000Y-48006447D01*
X37898620Y-48505067D01*
X37898621Y-48505066D01*
X37930495Y-48457366D01*
X38009649Y-48266274D01*
X38009651Y-48266266D01*
X38049999Y-48063420D01*
X38050000Y-48063417D01*
X38050000Y-47856581D01*
X38049999Y-47856580D01*
X38049989Y-47856530D01*
X43569500Y-47856530D01*
X43569500Y-48063469D01*
X43609868Y-48266412D01*
X43609870Y-48266420D01*
X43680719Y-48437465D01*
X43689059Y-48457598D01*
X43720776Y-48505066D01*
X43804024Y-48629657D01*
X43950342Y-48775975D01*
X43950345Y-48775977D01*
X44122402Y-48890941D01*
X44313580Y-48970130D01*
X44514016Y-49009999D01*
X44516530Y-49010499D01*
X44516534Y-49010500D01*
X44516535Y-49010500D01*
X44723466Y-49010500D01*
X44723467Y-49010499D01*
X44926420Y-48970130D01*
X45117598Y-48890941D01*
X45289655Y-48775977D01*
X45435977Y-48629655D01*
X45550941Y-48457598D01*
X45630130Y-48266420D01*
X45670500Y-48063465D01*
X45670500Y-47856535D01*
X45630130Y-47653580D01*
X45550941Y-47462402D01*
X45435977Y-47290345D01*
X45435975Y-47290342D01*
X45289657Y-47144024D01*
X45165967Y-47061378D01*
X45117598Y-47029059D01*
X44926420Y-46949870D01*
X44926412Y-46949868D01*
X44723469Y-46909500D01*
X44723465Y-46909500D01*
X44516535Y-46909500D01*
X44516530Y-46909500D01*
X44313587Y-46949868D01*
X44313579Y-46949870D01*
X44122403Y-47029058D01*
X43950342Y-47144024D01*
X43804024Y-47290342D01*
X43689058Y-47462403D01*
X43609870Y-47653579D01*
X43609868Y-47653587D01*
X43569500Y-47856530D01*
X38049989Y-47856530D01*
X38009651Y-47653733D01*
X38009649Y-47653725D01*
X37930498Y-47462639D01*
X37930495Y-47462633D01*
X37898621Y-47414932D01*
X37898620Y-47414931D01*
X37400000Y-47913552D01*
X37400000Y-47907339D01*
X37372741Y-47805606D01*
X37320080Y-47714394D01*
X37245606Y-47639920D01*
X37154394Y-47587259D01*
X37052661Y-47560000D01*
X37046447Y-47560000D01*
X37545067Y-47061378D01*
X37545067Y-47061377D01*
X37497359Y-47029500D01*
X37306274Y-46950350D01*
X37306266Y-46950348D01*
X37103420Y-46910000D01*
X36896579Y-46910000D01*
X36693733Y-46950348D01*
X36693725Y-46950350D01*
X36502641Y-47029500D01*
X36502631Y-47029505D01*
X36454932Y-47061377D01*
X36454932Y-47061378D01*
X36953554Y-47560000D01*
X36947339Y-47560000D01*
X36845606Y-47587259D01*
X36754394Y-47639920D01*
X36679920Y-47714394D01*
X36627259Y-47805606D01*
X36600000Y-47907339D01*
X36600000Y-47913554D01*
X36101378Y-47414932D01*
X36101377Y-47414932D01*
X36069505Y-47462631D01*
X36069500Y-47462641D01*
X35990350Y-47653725D01*
X35990348Y-47653733D01*
X35950000Y-47856579D01*
X26150500Y-47856579D01*
X26150500Y-46182128D01*
X26144091Y-46122518D01*
X26093796Y-45987670D01*
X26007546Y-45872454D01*
X25892330Y-45786204D01*
X25892328Y-45786203D01*
X25892327Y-45786202D01*
X25866526Y-45776579D01*
X31450000Y-45776579D01*
X31450000Y-45983420D01*
X31490348Y-46186266D01*
X31490350Y-46186274D01*
X31569500Y-46377359D01*
X31601377Y-46425067D01*
X31601378Y-46425067D01*
X32100000Y-45926445D01*
X32100000Y-45932661D01*
X32127259Y-46034394D01*
X32179920Y-46125606D01*
X32254394Y-46200080D01*
X32345606Y-46252741D01*
X32447339Y-46280000D01*
X32453554Y-46280000D01*
X31954931Y-46778620D01*
X31954932Y-46778621D01*
X32002633Y-46810495D01*
X32002639Y-46810498D01*
X32193725Y-46889649D01*
X32193733Y-46889651D01*
X32396579Y-46929999D01*
X32396583Y-46930000D01*
X32603417Y-46930000D01*
X32603420Y-46929999D01*
X32806266Y-46889651D01*
X32806274Y-46889649D01*
X32997366Y-46810495D01*
X33045066Y-46778621D01*
X33045067Y-46778620D01*
X32546447Y-46280000D01*
X32552661Y-46280000D01*
X32654394Y-46252741D01*
X32745606Y-46200080D01*
X32820080Y-46125606D01*
X32872741Y-46034394D01*
X32900000Y-45932661D01*
X32900000Y-45926447D01*
X33398620Y-46425067D01*
X33398621Y-46425066D01*
X33430495Y-46377366D01*
X33509649Y-46186274D01*
X33509651Y-46186266D01*
X33549999Y-45983420D01*
X33550000Y-45983417D01*
X33550000Y-45776583D01*
X33549999Y-45776579D01*
X33509651Y-45573733D01*
X33509649Y-45573725D01*
X33430498Y-45382639D01*
X33430495Y-45382633D01*
X33428289Y-45379331D01*
X33398621Y-45334932D01*
X33398620Y-45334931D01*
X32900000Y-45833552D01*
X32900000Y-45827339D01*
X32872741Y-45725606D01*
X32820080Y-45634394D01*
X32745606Y-45559920D01*
X32654394Y-45507259D01*
X32552661Y-45480000D01*
X32546447Y-45480000D01*
X32709916Y-45316530D01*
X35949500Y-45316530D01*
X35949500Y-45523469D01*
X35989868Y-45726412D01*
X35989870Y-45726420D01*
X36069058Y-45917596D01*
X36184024Y-46089657D01*
X36330342Y-46235975D01*
X36330345Y-46235977D01*
X36502402Y-46350941D01*
X36693580Y-46430130D01*
X36875536Y-46466323D01*
X36896530Y-46470499D01*
X36896534Y-46470500D01*
X36896535Y-46470500D01*
X37103466Y-46470500D01*
X37103467Y-46470499D01*
X37306420Y-46430130D01*
X37497598Y-46350941D01*
X37669655Y-46235977D01*
X37815977Y-46089655D01*
X37930941Y-45917598D01*
X38010130Y-45726420D01*
X38050500Y-45523465D01*
X38050500Y-45316535D01*
X38010130Y-45113580D01*
X37930941Y-44922402D01*
X37815977Y-44750345D01*
X37815975Y-44750342D01*
X37669657Y-44604024D01*
X37583626Y-44546541D01*
X37497598Y-44489059D01*
X37306420Y-44409870D01*
X37306412Y-44409868D01*
X37103469Y-44369500D01*
X37103465Y-44369500D01*
X36896535Y-44369500D01*
X36896530Y-44369500D01*
X36693587Y-44409868D01*
X36693579Y-44409870D01*
X36502403Y-44489058D01*
X36330342Y-44604024D01*
X36184024Y-44750342D01*
X36069058Y-44922403D01*
X35989870Y-45113579D01*
X35989868Y-45113587D01*
X35949500Y-45316530D01*
X32709916Y-45316530D01*
X33045067Y-44981378D01*
X33045067Y-44981377D01*
X32997359Y-44949500D01*
X32806274Y-44870350D01*
X32806266Y-44870348D01*
X32603420Y-44830000D01*
X32396579Y-44830000D01*
X32193733Y-44870348D01*
X32193725Y-44870350D01*
X32002641Y-44949500D01*
X32002631Y-44949505D01*
X31954932Y-44981377D01*
X31954932Y-44981378D01*
X32453554Y-45480000D01*
X32447339Y-45480000D01*
X32345606Y-45507259D01*
X32254394Y-45559920D01*
X32179920Y-45634394D01*
X32127259Y-45725606D01*
X32100000Y-45827339D01*
X32100000Y-45833554D01*
X31601378Y-45334932D01*
X31601377Y-45334932D01*
X31569505Y-45382631D01*
X31569500Y-45382641D01*
X31490350Y-45573725D01*
X31490348Y-45573733D01*
X31450000Y-45776579D01*
X25866526Y-45776579D01*
X25757481Y-45735908D01*
X25757482Y-45735908D01*
X25697882Y-45729501D01*
X25697880Y-45729500D01*
X25697872Y-45729500D01*
X23302128Y-45729500D01*
X23302120Y-45729500D01*
X23302117Y-45729501D01*
X23242518Y-45735908D01*
X23107672Y-45786202D01*
X23107670Y-45786204D01*
X22992454Y-45872454D01*
X22906204Y-45987670D01*
X22906202Y-45987672D01*
X22855908Y-46122518D01*
X22849501Y-46182117D01*
X22849500Y-46182136D01*
X16000500Y-46182136D01*
X16000500Y-42282135D01*
X35949500Y-42282135D01*
X35949500Y-43477870D01*
X35949501Y-43477876D01*
X35955908Y-43537483D01*
X36006202Y-43672328D01*
X36006206Y-43672335D01*
X36092452Y-43787544D01*
X36092455Y-43787547D01*
X36207664Y-43873793D01*
X36207671Y-43873797D01*
X36342517Y-43924091D01*
X36342516Y-43924091D01*
X36349444Y-43924835D01*
X36402127Y-43930500D01*
X37597872Y-43930499D01*
X37657483Y-43924091D01*
X37792331Y-43873796D01*
X37907546Y-43787546D01*
X37993796Y-43672331D01*
X38044091Y-43537483D01*
X38050500Y-43477873D01*
X38050499Y-42776530D01*
X43569500Y-42776530D01*
X43569500Y-42983469D01*
X43609868Y-43186412D01*
X43609870Y-43186420D01*
X43689058Y-43377596D01*
X43804024Y-43549657D01*
X43950342Y-43695975D01*
X43950345Y-43695977D01*
X44122402Y-43810941D01*
X44313580Y-43890130D01*
X44484315Y-43924091D01*
X44516530Y-43930499D01*
X44516534Y-43930500D01*
X44516535Y-43930500D01*
X44723466Y-43930500D01*
X44723467Y-43930499D01*
X44926420Y-43890130D01*
X45117598Y-43810941D01*
X45289655Y-43695977D01*
X45435977Y-43549655D01*
X45550941Y-43377598D01*
X45630130Y-43186420D01*
X45670500Y-42983465D01*
X45670500Y-42776535D01*
X45630130Y-42573580D01*
X45550941Y-42382402D01*
X45435977Y-42210345D01*
X45435975Y-42210342D01*
X45289657Y-42064024D01*
X45184292Y-41993622D01*
X45117598Y-41949059D01*
X44926420Y-41869870D01*
X44926412Y-41869868D01*
X44723469Y-41829500D01*
X44723465Y-41829500D01*
X44516535Y-41829500D01*
X44516530Y-41829500D01*
X44313587Y-41869868D01*
X44313579Y-41869870D01*
X44122403Y-41949058D01*
X43950342Y-42064024D01*
X43804024Y-42210342D01*
X43689058Y-42382403D01*
X43609870Y-42573579D01*
X43609868Y-42573587D01*
X43569500Y-42776530D01*
X38050499Y-42776530D01*
X38050499Y-42282128D01*
X38044091Y-42222517D01*
X38039551Y-42210345D01*
X37993797Y-42087671D01*
X37993793Y-42087664D01*
X37907547Y-41972455D01*
X37907544Y-41972452D01*
X37792335Y-41886206D01*
X37792328Y-41886202D01*
X37657482Y-41835908D01*
X37657483Y-41835908D01*
X37597883Y-41829501D01*
X37597881Y-41829500D01*
X37597873Y-41829500D01*
X37597864Y-41829500D01*
X36402129Y-41829500D01*
X36402123Y-41829501D01*
X36342516Y-41835908D01*
X36207671Y-41886202D01*
X36207664Y-41886206D01*
X36092455Y-41972452D01*
X36092452Y-41972455D01*
X36006206Y-42087664D01*
X36006202Y-42087671D01*
X35955908Y-42222517D01*
X35949501Y-42282116D01*
X35949501Y-42282123D01*
X35949500Y-42282135D01*
X16000500Y-42282135D01*
X16000500Y-35124000D01*
X16020185Y-35056961D01*
X16072989Y-35011206D01*
X16124500Y-35000000D01*
X78875500Y-35000000D01*
X78942539Y-35019685D01*
G37*
%TD.AperFunction*%
%TD*%
%TA.AperFunction,Conductor*%
%TO.N,GND*%
G36*
X179942539Y-35019685D02*
G01*
X179988294Y-35072489D01*
X179999500Y-35124000D01*
X179999500Y-62376000D01*
X179979815Y-62443039D01*
X179927011Y-62488794D01*
X179875500Y-62500000D01*
X131124500Y-62500000D01*
X131057461Y-62480315D01*
X131011706Y-62427511D01*
X131000500Y-62376000D01*
X131000500Y-53413389D01*
X134024500Y-53413389D01*
X134024500Y-53586610D01*
X134051316Y-53755925D01*
X134051598Y-53757701D01*
X134105127Y-53922445D01*
X134183768Y-54076788D01*
X134285586Y-54216928D01*
X134408072Y-54339414D01*
X134548212Y-54441232D01*
X134702555Y-54519873D01*
X134867299Y-54573402D01*
X135038389Y-54600500D01*
X135038390Y-54600500D01*
X135461610Y-54600500D01*
X135461611Y-54600500D01*
X135632701Y-54573402D01*
X135797445Y-54519873D01*
X135951788Y-54441232D01*
X136013315Y-54396530D01*
X143449500Y-54396530D01*
X143449500Y-54603469D01*
X143489868Y-54806412D01*
X143489870Y-54806420D01*
X143569058Y-54997596D01*
X143684024Y-55169657D01*
X143830342Y-55315975D01*
X143830345Y-55315977D01*
X144002402Y-55430941D01*
X144193580Y-55510130D01*
X144396530Y-55550499D01*
X144396534Y-55550500D01*
X144396535Y-55550500D01*
X144603466Y-55550500D01*
X144603467Y-55550499D01*
X144806420Y-55510130D01*
X144997598Y-55430941D01*
X145169655Y-55315977D01*
X145315977Y-55169655D01*
X145430941Y-54997598D01*
X145510130Y-54806420D01*
X145550500Y-54603465D01*
X145550500Y-54396535D01*
X145550499Y-54396530D01*
X148449500Y-54396530D01*
X148449500Y-54603469D01*
X148489868Y-54806412D01*
X148489870Y-54806420D01*
X148569058Y-54997596D01*
X148684024Y-55169657D01*
X148830342Y-55315975D01*
X148830345Y-55315977D01*
X149002402Y-55430941D01*
X149193580Y-55510130D01*
X149396530Y-55550499D01*
X149396534Y-55550500D01*
X149396535Y-55550500D01*
X149603466Y-55550500D01*
X149603467Y-55550499D01*
X149806420Y-55510130D01*
X149997598Y-55430941D01*
X150169655Y-55315977D01*
X150315977Y-55169655D01*
X150430941Y-54997598D01*
X150510130Y-54806420D01*
X150550500Y-54603465D01*
X150550500Y-54396535D01*
X150550499Y-54396530D01*
X154949500Y-54396530D01*
X154949500Y-54603469D01*
X154989868Y-54806412D01*
X154989870Y-54806420D01*
X155069058Y-54997596D01*
X155184024Y-55169657D01*
X155330342Y-55315975D01*
X155330345Y-55315977D01*
X155502402Y-55430941D01*
X155693580Y-55510130D01*
X155896530Y-55550499D01*
X155896534Y-55550500D01*
X155896535Y-55550500D01*
X156103466Y-55550500D01*
X156103467Y-55550499D01*
X156306420Y-55510130D01*
X156497598Y-55430941D01*
X156669655Y-55315977D01*
X156815977Y-55169655D01*
X156930941Y-54997598D01*
X157010130Y-54806420D01*
X157050500Y-54603465D01*
X157050500Y-54396535D01*
X157050499Y-54396530D01*
X159949500Y-54396530D01*
X159949500Y-54603469D01*
X159989868Y-54806412D01*
X159989870Y-54806420D01*
X160069058Y-54997596D01*
X160184024Y-55169657D01*
X160330342Y-55315975D01*
X160330345Y-55315977D01*
X160502402Y-55430941D01*
X160693580Y-55510130D01*
X160896530Y-55550499D01*
X160896534Y-55550500D01*
X160896535Y-55550500D01*
X161103466Y-55550500D01*
X161103467Y-55550499D01*
X161306420Y-55510130D01*
X161497598Y-55430941D01*
X161669655Y-55315977D01*
X161815977Y-55169655D01*
X161930941Y-54997598D01*
X162010130Y-54806420D01*
X162050500Y-54603465D01*
X162050500Y-54396535D01*
X162017534Y-54230801D01*
X162012049Y-54203226D01*
X162012048Y-54203223D01*
X162010130Y-54193580D01*
X161930941Y-54002402D01*
X161815977Y-53830345D01*
X161815975Y-53830342D01*
X161669657Y-53684024D01*
X161539425Y-53597007D01*
X161497598Y-53569059D01*
X161306420Y-53489870D01*
X161306412Y-53489868D01*
X161103469Y-53449500D01*
X161103465Y-53449500D01*
X160896535Y-53449500D01*
X160896530Y-53449500D01*
X160693587Y-53489868D01*
X160693579Y-53489870D01*
X160502403Y-53569058D01*
X160330342Y-53684024D01*
X160184024Y-53830342D01*
X160069058Y-54002403D01*
X159989870Y-54193579D01*
X159989868Y-54193587D01*
X159949500Y-54396530D01*
X157050499Y-54396530D01*
X157010130Y-54193580D01*
X156930941Y-54002402D01*
X156815977Y-53830345D01*
X156815975Y-53830342D01*
X156669657Y-53684024D01*
X156539425Y-53597007D01*
X156497598Y-53569059D01*
X156306420Y-53489870D01*
X156306412Y-53489868D01*
X156103469Y-53449500D01*
X156103465Y-53449500D01*
X155896535Y-53449500D01*
X155896530Y-53449500D01*
X155693587Y-53489868D01*
X155693579Y-53489870D01*
X155502403Y-53569058D01*
X155330342Y-53684024D01*
X155184024Y-53830342D01*
X155069058Y-54002403D01*
X154989870Y-54193579D01*
X154989868Y-54193587D01*
X154949500Y-54396530D01*
X150550499Y-54396530D01*
X150510130Y-54193580D01*
X150430941Y-54002402D01*
X150315977Y-53830345D01*
X150315975Y-53830342D01*
X150169657Y-53684024D01*
X150039425Y-53597007D01*
X149997598Y-53569059D01*
X149806420Y-53489870D01*
X149806412Y-53489868D01*
X149603469Y-53449500D01*
X149603465Y-53449500D01*
X149396535Y-53449500D01*
X149396530Y-53449500D01*
X149193587Y-53489868D01*
X149193579Y-53489870D01*
X149002403Y-53569058D01*
X148830342Y-53684024D01*
X148684024Y-53830342D01*
X148569058Y-54002403D01*
X148489870Y-54193579D01*
X148489868Y-54193587D01*
X148449500Y-54396530D01*
X145550499Y-54396530D01*
X145510130Y-54193580D01*
X145430941Y-54002402D01*
X145315977Y-53830345D01*
X145315975Y-53830342D01*
X145169657Y-53684024D01*
X145039425Y-53597007D01*
X144997598Y-53569059D01*
X144806420Y-53489870D01*
X144806412Y-53489868D01*
X144603469Y-53449500D01*
X144603465Y-53449500D01*
X144396535Y-53449500D01*
X144396530Y-53449500D01*
X144193587Y-53489868D01*
X144193579Y-53489870D01*
X144002403Y-53569058D01*
X143830342Y-53684024D01*
X143684024Y-53830342D01*
X143569058Y-54002403D01*
X143489870Y-54193579D01*
X143489868Y-54193587D01*
X143449500Y-54396530D01*
X136013315Y-54396530D01*
X136091928Y-54339414D01*
X136214414Y-54216928D01*
X136316232Y-54076788D01*
X136394873Y-53922445D01*
X136448402Y-53757701D01*
X136475500Y-53586611D01*
X136475500Y-53413389D01*
X136448402Y-53242299D01*
X136435772Y-53203428D01*
X163925000Y-53203428D01*
X163925000Y-53376571D01*
X163952085Y-53547584D01*
X164005592Y-53712259D01*
X164084196Y-53866525D01*
X164088709Y-53872736D01*
X164088709Y-53872737D01*
X164542037Y-53419409D01*
X164559075Y-53482993D01*
X164624901Y-53597007D01*
X164717993Y-53690099D01*
X164832007Y-53755925D01*
X164895589Y-53772962D01*
X164442261Y-54226289D01*
X164442262Y-54226290D01*
X164448471Y-54230801D01*
X164602742Y-54309408D01*
X164767415Y-54362914D01*
X164938429Y-54390000D01*
X165111571Y-54390000D01*
X165282584Y-54362914D01*
X165447257Y-54309408D01*
X165601525Y-54230803D01*
X165607736Y-54226289D01*
X165607737Y-54226289D01*
X165154410Y-53772962D01*
X165217993Y-53755925D01*
X165332007Y-53690099D01*
X165425099Y-53597007D01*
X165490925Y-53482993D01*
X165507962Y-53419409D01*
X165961289Y-53872736D01*
X165965803Y-53866525D01*
X166044408Y-53712257D01*
X166097914Y-53547584D01*
X166119169Y-53413389D01*
X175524500Y-53413389D01*
X175524500Y-53586610D01*
X175551316Y-53755925D01*
X175551598Y-53757701D01*
X175605127Y-53922445D01*
X175683768Y-54076788D01*
X175785586Y-54216928D01*
X175908072Y-54339414D01*
X176048212Y-54441232D01*
X176202555Y-54519873D01*
X176367299Y-54573402D01*
X176538389Y-54600500D01*
X176538390Y-54600500D01*
X176961610Y-54600500D01*
X176961611Y-54600500D01*
X177132701Y-54573402D01*
X177297445Y-54519873D01*
X177451788Y-54441232D01*
X177591928Y-54339414D01*
X177714414Y-54216928D01*
X177816232Y-54076788D01*
X177894873Y-53922445D01*
X177948402Y-53757701D01*
X177975500Y-53586611D01*
X177975500Y-53413389D01*
X177948402Y-53242299D01*
X177894873Y-53077555D01*
X177816232Y-52923212D01*
X177714414Y-52783072D01*
X177591928Y-52660586D01*
X177451788Y-52558768D01*
X177297445Y-52480127D01*
X177132701Y-52426598D01*
X177132699Y-52426597D01*
X177132698Y-52426597D01*
X177001271Y-52405781D01*
X176961611Y-52399500D01*
X176538389Y-52399500D01*
X176498728Y-52405781D01*
X176367302Y-52426597D01*
X176202552Y-52480128D01*
X176048211Y-52558768D01*
X175968256Y-52616859D01*
X175908072Y-52660586D01*
X175908070Y-52660588D01*
X175908069Y-52660588D01*
X175785588Y-52783069D01*
X175785588Y-52783070D01*
X175785586Y-52783072D01*
X175741859Y-52843256D01*
X175683768Y-52923211D01*
X175605128Y-53077552D01*
X175551597Y-53242302D01*
X175524500Y-53413389D01*
X166119169Y-53413389D01*
X166123001Y-53389193D01*
X166123012Y-53389122D01*
X166125000Y-53376568D01*
X166125000Y-53203428D01*
X166097914Y-53032415D01*
X166044408Y-52867742D01*
X165965801Y-52713471D01*
X165961290Y-52707262D01*
X165961289Y-52707261D01*
X165507962Y-53160589D01*
X165490925Y-53097007D01*
X165425099Y-52982993D01*
X165332007Y-52889901D01*
X165217993Y-52824075D01*
X165154409Y-52807037D01*
X165607737Y-52353709D01*
X165601525Y-52349196D01*
X165447259Y-52270592D01*
X165282584Y-52217085D01*
X165111571Y-52190000D01*
X164938429Y-52190000D01*
X164767415Y-52217085D01*
X164602740Y-52270592D01*
X164448480Y-52349193D01*
X164448463Y-52349203D01*
X164442261Y-52353708D01*
X164442261Y-52353709D01*
X164895590Y-52807037D01*
X164832007Y-52824075D01*
X164717993Y-52889901D01*
X164624901Y-52982993D01*
X164559075Y-53097007D01*
X164542037Y-53160590D01*
X164088709Y-52707261D01*
X164088708Y-52707261D01*
X164084203Y-52713463D01*
X164084193Y-52713480D01*
X164005592Y-52867740D01*
X163952085Y-53032415D01*
X163925000Y-53203428D01*
X136435772Y-53203428D01*
X136394873Y-53077555D01*
X136316232Y-52923212D01*
X136214414Y-52783072D01*
X136091928Y-52660586D01*
X136021858Y-52609677D01*
X135951786Y-52558766D01*
X135858923Y-52511451D01*
X135858922Y-52511451D01*
X135797447Y-52480128D01*
X135797446Y-52480127D01*
X135797445Y-52480127D01*
X135632701Y-52426598D01*
X135632699Y-52426597D01*
X135632698Y-52426597D01*
X135501271Y-52405781D01*
X135461611Y-52399500D01*
X135038389Y-52399500D01*
X134998728Y-52405781D01*
X134867302Y-52426597D01*
X134702552Y-52480128D01*
X134548211Y-52558768D01*
X134468256Y-52616859D01*
X134408072Y-52660586D01*
X134408070Y-52660588D01*
X134408069Y-52660588D01*
X134285588Y-52783069D01*
X134285588Y-52783070D01*
X134285586Y-52783072D01*
X134241859Y-52843256D01*
X134183768Y-52923211D01*
X134105128Y-53077552D01*
X134051597Y-53242302D01*
X134024500Y-53413389D01*
X131000500Y-53413389D01*
X131000500Y-48249999D01*
X134050884Y-48249999D01*
X134050885Y-48250000D01*
X134845854Y-48250000D01*
X134807370Y-48316657D01*
X134775000Y-48437465D01*
X134775000Y-48562535D01*
X134807370Y-48683343D01*
X134845854Y-48750000D01*
X134050885Y-48750000D01*
X134052085Y-48757584D01*
X134105591Y-48922255D01*
X134184195Y-49076524D01*
X134285967Y-49216602D01*
X134408397Y-49339032D01*
X134548475Y-49440804D01*
X134702744Y-49519408D01*
X134867415Y-49572913D01*
X135000000Y-49593913D01*
X135000000Y-48904145D01*
X135066657Y-48942630D01*
X135187465Y-48975000D01*
X135312535Y-48975000D01*
X135433343Y-48942630D01*
X135500000Y-48904145D01*
X135500000Y-49593912D01*
X135632584Y-49572913D01*
X135797255Y-49519408D01*
X135951524Y-49440804D01*
X136091602Y-49339032D01*
X136214032Y-49216602D01*
X136315804Y-49076524D01*
X136394408Y-48922255D01*
X136447914Y-48757584D01*
X136449115Y-48750000D01*
X135654146Y-48750000D01*
X135692630Y-48683343D01*
X135725000Y-48562535D01*
X135725000Y-48437465D01*
X135692630Y-48316657D01*
X135654146Y-48250000D01*
X136449115Y-48250000D01*
X136449115Y-48249999D01*
X136447914Y-48242415D01*
X136394408Y-48077744D01*
X136315804Y-47923475D01*
X136214032Y-47783397D01*
X136091602Y-47660967D01*
X135951524Y-47559195D01*
X135797257Y-47480591D01*
X135632585Y-47427086D01*
X135500000Y-47406086D01*
X135500000Y-48095854D01*
X135433343Y-48057370D01*
X135312535Y-48025000D01*
X135187465Y-48025000D01*
X135066657Y-48057370D01*
X135000000Y-48095854D01*
X135000000Y-47406086D01*
X134867414Y-47427086D01*
X134702742Y-47480591D01*
X134548475Y-47559195D01*
X134408397Y-47660967D01*
X134285967Y-47783397D01*
X134184195Y-47923475D01*
X134105591Y-48077744D01*
X134052085Y-48242415D01*
X134050884Y-48249999D01*
X131000500Y-48249999D01*
X131000500Y-45352135D01*
X134024500Y-45352135D01*
X134024500Y-46647870D01*
X134024501Y-46647876D01*
X134030908Y-46707483D01*
X134081202Y-46842328D01*
X134081206Y-46842335D01*
X134167452Y-46957544D01*
X134167455Y-46957547D01*
X134282664Y-47043793D01*
X134282671Y-47043797D01*
X134417517Y-47094091D01*
X134417516Y-47094091D01*
X134424444Y-47094835D01*
X134477127Y-47100500D01*
X136022872Y-47100499D01*
X136082483Y-47094091D01*
X136217331Y-47043796D01*
X136332546Y-46957546D01*
X136418796Y-46842331D01*
X136469091Y-46707483D01*
X136475500Y-46647873D01*
X136475500Y-46624500D01*
X136495185Y-46557461D01*
X136547989Y-46511706D01*
X136599500Y-46500500D01*
X141741324Y-46500500D01*
X141808363Y-46520185D01*
X141829005Y-46536819D01*
X143942322Y-48650136D01*
X143975807Y-48711459D01*
X143976258Y-48762008D01*
X143949500Y-48896530D01*
X143949500Y-49103469D01*
X143989868Y-49306412D01*
X143989870Y-49306420D01*
X144044297Y-49437819D01*
X144069059Y-49497598D01*
X144107821Y-49555610D01*
X144184024Y-49669657D01*
X144330342Y-49815975D01*
X144330345Y-49815977D01*
X144502402Y-49930941D01*
X144693580Y-50010130D01*
X144894016Y-50049999D01*
X144896530Y-50050499D01*
X144896534Y-50050500D01*
X144896535Y-50050500D01*
X145103466Y-50050500D01*
X145103467Y-50050499D01*
X145306420Y-50010130D01*
X145497598Y-49930941D01*
X145669655Y-49815977D01*
X145815977Y-49669655D01*
X145892180Y-49555608D01*
X145945790Y-49510805D01*
X145995281Y-49500500D01*
X148389296Y-49500500D01*
X148456335Y-49520185D01*
X148458179Y-49521392D01*
X148502402Y-49550941D01*
X148693580Y-49630130D01*
X148864018Y-49664032D01*
X148896530Y-49670499D01*
X148896534Y-49670500D01*
X148896535Y-49670500D01*
X149103466Y-49670500D01*
X149103467Y-49670499D01*
X149306420Y-49630130D01*
X149497598Y-49550941D01*
X149669655Y-49435977D01*
X149815977Y-49289655D01*
X149930941Y-49117598D01*
X150010130Y-48926420D01*
X150050500Y-48723465D01*
X150050500Y-48516535D01*
X150047111Y-48499500D01*
X150036149Y-48444390D01*
X150023740Y-48382006D01*
X150029967Y-48312418D01*
X150057674Y-48270138D01*
X152351283Y-45976530D01*
X155569500Y-45976530D01*
X155569500Y-46183469D01*
X155609868Y-46386412D01*
X155609870Y-46386420D01*
X155689058Y-46577596D01*
X155804024Y-46749657D01*
X155950342Y-46895975D01*
X155950345Y-46895977D01*
X156122402Y-47010941D01*
X156313580Y-47090130D01*
X156516530Y-47130499D01*
X156516534Y-47130500D01*
X156516535Y-47130500D01*
X156723466Y-47130500D01*
X156723467Y-47130499D01*
X156926420Y-47090130D01*
X157117598Y-47010941D01*
X157289655Y-46895977D01*
X157435977Y-46749655D01*
X157550941Y-46577598D01*
X157630130Y-46386420D01*
X157670500Y-46183465D01*
X157670500Y-45976535D01*
X157630130Y-45773580D01*
X157550941Y-45582402D01*
X157435977Y-45410345D01*
X157435975Y-45410342D01*
X157289657Y-45264024D01*
X157167910Y-45182676D01*
X157117598Y-45149059D01*
X156926420Y-45069870D01*
X156926412Y-45069868D01*
X156723469Y-45029500D01*
X156723465Y-45029500D01*
X156516535Y-45029500D01*
X156516530Y-45029500D01*
X156313587Y-45069868D01*
X156313579Y-45069870D01*
X156122403Y-45149058D01*
X155950342Y-45264024D01*
X155804024Y-45410342D01*
X155689058Y-45582403D01*
X155609870Y-45773579D01*
X155609868Y-45773587D01*
X155569500Y-45976530D01*
X152351283Y-45976530D01*
X155500995Y-42826819D01*
X155527922Y-42812115D01*
X155553741Y-42795523D01*
X155559941Y-42794631D01*
X155562318Y-42793334D01*
X155588676Y-42790500D01*
X155625386Y-42790500D01*
X155692425Y-42810185D01*
X155738180Y-42862989D01*
X155748124Y-42932147D01*
X155728489Y-42983390D01*
X155689058Y-43042403D01*
X155609870Y-43233579D01*
X155609868Y-43233587D01*
X155569500Y-43436530D01*
X155569500Y-43643469D01*
X155609868Y-43846412D01*
X155609870Y-43846420D01*
X155689058Y-44037596D01*
X155804024Y-44209657D01*
X155950342Y-44355975D01*
X155950345Y-44355977D01*
X156122402Y-44470941D01*
X156313580Y-44550130D01*
X156516530Y-44590499D01*
X156516534Y-44590500D01*
X156516535Y-44590500D01*
X156723466Y-44590500D01*
X156723467Y-44590499D01*
X156926420Y-44550130D01*
X157023449Y-44509938D01*
X157070902Y-44500500D01*
X159504719Y-44500500D01*
X159571758Y-44520185D01*
X159607819Y-44555607D01*
X159631134Y-44590500D01*
X159684024Y-44669657D01*
X159830340Y-44815973D01*
X159830343Y-44815975D01*
X159830345Y-44815977D01*
X159900992Y-44863181D01*
X159944390Y-44892178D01*
X159989196Y-44945791D01*
X159999500Y-44995281D01*
X159999500Y-46973557D01*
X159979815Y-47040596D01*
X159963181Y-47061238D01*
X157724558Y-49299860D01*
X157663235Y-49333345D01*
X157593543Y-49328361D01*
X157537610Y-49286489D01*
X157513193Y-49221025D01*
X157528045Y-49152752D01*
X157533776Y-49143287D01*
X157550941Y-49117598D01*
X157556815Y-49103417D01*
X157630130Y-48926420D01*
X157670500Y-48723465D01*
X157670500Y-48516535D01*
X157630130Y-48313580D01*
X157550941Y-48122402D01*
X157435977Y-47950345D01*
X157435975Y-47950342D01*
X157289657Y-47804024D01*
X157203626Y-47746541D01*
X157117598Y-47689059D01*
X157049778Y-47660967D01*
X156926420Y-47609870D01*
X156926412Y-47609868D01*
X156723469Y-47569500D01*
X156723465Y-47569500D01*
X156516535Y-47569500D01*
X156516530Y-47569500D01*
X156313587Y-47609868D01*
X156313579Y-47609870D01*
X156122403Y-47689058D01*
X155950342Y-47804024D01*
X155804024Y-47950342D01*
X155689058Y-48122403D01*
X155609870Y-48313579D01*
X155609868Y-48313587D01*
X155569500Y-48516530D01*
X155569500Y-48723469D01*
X155609868Y-48926412D01*
X155609870Y-48926420D01*
X155683206Y-49103469D01*
X155689059Y-49117598D01*
X155746541Y-49203626D01*
X155804024Y-49289657D01*
X155950342Y-49435975D01*
X155950345Y-49435977D01*
X156122402Y-49550941D01*
X156313580Y-49630130D01*
X156484018Y-49664032D01*
X156516530Y-49670499D01*
X156516534Y-49670500D01*
X156516535Y-49670500D01*
X156723466Y-49670500D01*
X156723467Y-49670499D01*
X156926420Y-49630130D01*
X157117598Y-49550941D01*
X157143287Y-49533775D01*
X157209964Y-49512897D01*
X157277345Y-49531381D01*
X157324035Y-49583359D01*
X157335212Y-49652329D01*
X157307327Y-49716393D01*
X157299860Y-49724558D01*
X156561238Y-50463181D01*
X156499915Y-50496666D01*
X156473557Y-50499500D01*
X136431090Y-50499500D01*
X136364051Y-50479815D01*
X136320607Y-50431798D01*
X136316234Y-50423216D01*
X136316229Y-50423207D01*
X136286672Y-50382526D01*
X136214414Y-50283072D01*
X136091928Y-50160586D01*
X135951788Y-50058768D01*
X135797445Y-49980127D01*
X135632701Y-49926598D01*
X135632699Y-49926597D01*
X135632698Y-49926597D01*
X135501271Y-49905781D01*
X135461611Y-49899500D01*
X135038389Y-49899500D01*
X134998728Y-49905781D01*
X134867302Y-49926597D01*
X134702552Y-49980128D01*
X134548211Y-50058768D01*
X134468256Y-50116859D01*
X134408072Y-50160586D01*
X134408070Y-50160588D01*
X134408069Y-50160588D01*
X134285588Y-50283069D01*
X134285588Y-50283070D01*
X134285586Y-50283072D01*
X134267710Y-50307676D01*
X134183768Y-50423211D01*
X134105128Y-50577552D01*
X134051597Y-50742302D01*
X134024500Y-50913389D01*
X134024500Y-51086611D01*
X134051598Y-51257701D01*
X134105127Y-51422445D01*
X134183768Y-51576788D01*
X134285586Y-51716928D01*
X134408072Y-51839414D01*
X134548212Y-51941232D01*
X134702555Y-52019873D01*
X134867299Y-52073402D01*
X135038389Y-52100500D01*
X135038390Y-52100500D01*
X135461610Y-52100500D01*
X135461611Y-52100500D01*
X135632701Y-52073402D01*
X135797445Y-52019873D01*
X135951788Y-51941232D01*
X136091928Y-51839414D01*
X136214414Y-51716928D01*
X136316232Y-51576788D01*
X136320607Y-51568202D01*
X136368582Y-51517408D01*
X136431090Y-51500500D01*
X156798123Y-51500500D01*
X156798125Y-51500500D01*
X156925419Y-51466392D01*
X157039547Y-51400500D01*
X159267151Y-49172894D01*
X159328473Y-49139410D01*
X159398164Y-49144394D01*
X159454098Y-49186265D01*
X159476448Y-49236385D01*
X159490348Y-49306266D01*
X159490350Y-49306274D01*
X159569500Y-49497359D01*
X159601377Y-49545067D01*
X160100000Y-49046445D01*
X160100000Y-49052661D01*
X160127259Y-49154394D01*
X160179920Y-49245606D01*
X160254394Y-49320080D01*
X160345606Y-49372741D01*
X160447339Y-49400000D01*
X160453554Y-49400000D01*
X159954931Y-49898620D01*
X159954932Y-49898621D01*
X160002633Y-49930495D01*
X160002639Y-49930498D01*
X160193725Y-50009649D01*
X160193733Y-50009651D01*
X160396579Y-50049999D01*
X160396583Y-50050000D01*
X160603417Y-50050000D01*
X160603420Y-50049999D01*
X160806266Y-50009651D01*
X160806274Y-50009649D01*
X160997366Y-49930495D01*
X161045066Y-49898621D01*
X161045067Y-49898620D01*
X160546447Y-49400000D01*
X160552661Y-49400000D01*
X160654394Y-49372741D01*
X160745606Y-49320080D01*
X160820080Y-49245606D01*
X160872741Y-49154394D01*
X160900000Y-49052661D01*
X160900000Y-49046447D01*
X161398620Y-49545067D01*
X161398621Y-49545066D01*
X161430495Y-49497366D01*
X161509649Y-49306274D01*
X161509651Y-49306266D01*
X161549999Y-49103420D01*
X161550000Y-49103417D01*
X161550000Y-48896583D01*
X161549999Y-48896579D01*
X161509651Y-48693733D01*
X161509649Y-48693725D01*
X161430498Y-48502639D01*
X161430495Y-48502633D01*
X161398621Y-48454932D01*
X161398620Y-48454931D01*
X160900000Y-48953552D01*
X160900000Y-48947339D01*
X160872741Y-48845606D01*
X160820080Y-48754394D01*
X160745606Y-48679920D01*
X160654394Y-48627259D01*
X160552661Y-48600000D01*
X160546445Y-48600000D01*
X161045067Y-48101377D01*
X160997359Y-48069500D01*
X160806274Y-47990350D01*
X160736385Y-47976449D01*
X160727378Y-47971737D01*
X160717241Y-47971013D01*
X160696942Y-47955817D01*
X160674473Y-47944064D01*
X160669443Y-47935231D01*
X160661308Y-47929141D01*
X160652446Y-47905383D01*
X160639899Y-47883348D01*
X160640442Y-47873199D01*
X160636891Y-47863677D01*
X160642281Y-47838899D01*
X160643638Y-47813579D01*
X160649978Y-47803517D01*
X160651743Y-47795404D01*
X160672890Y-47767154D01*
X160797104Y-47642940D01*
X160797109Y-47642937D01*
X160807312Y-47632733D01*
X160807314Y-47632733D01*
X160900500Y-47539547D01*
X160966392Y-47425419D01*
X161000500Y-47298125D01*
X161000500Y-45182676D01*
X161020185Y-45115637D01*
X161072989Y-45069882D01*
X161142147Y-45059938D01*
X161205703Y-45088963D01*
X161212181Y-45094995D01*
X165555005Y-49437819D01*
X165588490Y-49499142D01*
X165583506Y-49568834D01*
X165541634Y-49624767D01*
X165476170Y-49649184D01*
X165467324Y-49649500D01*
X164150323Y-49649500D01*
X164077264Y-49664032D01*
X164077260Y-49664033D01*
X163994399Y-49719399D01*
X163939033Y-49802260D01*
X163939032Y-49802264D01*
X163924500Y-49875321D01*
X163924500Y-51624678D01*
X163939032Y-51697735D01*
X163939033Y-51697739D01*
X163939034Y-51697740D01*
X163994399Y-51780601D01*
X164077260Y-51835966D01*
X164077264Y-51835967D01*
X164150321Y-51850499D01*
X164150324Y-51850500D01*
X164150326Y-51850500D01*
X165899676Y-51850500D01*
X165899677Y-51850499D01*
X165972740Y-51835966D01*
X166055601Y-51780601D01*
X166110966Y-51697740D01*
X166125500Y-51624674D01*
X166125500Y-50307676D01*
X166145185Y-50240637D01*
X166197989Y-50194882D01*
X166267147Y-50184938D01*
X166330703Y-50213963D01*
X166337181Y-50219995D01*
X167424500Y-51307314D01*
X167517686Y-51400500D01*
X167631814Y-51466392D01*
X167759108Y-51500500D01*
X175568910Y-51500500D01*
X175635949Y-51520185D01*
X175679393Y-51568202D01*
X175683765Y-51576783D01*
X175683770Y-51576792D01*
X175718559Y-51624674D01*
X175785586Y-51716928D01*
X175908072Y-51839414D01*
X176048212Y-51941232D01*
X176202555Y-52019873D01*
X176367299Y-52073402D01*
X176538389Y-52100500D01*
X176538390Y-52100500D01*
X176961610Y-52100500D01*
X176961611Y-52100500D01*
X177132701Y-52073402D01*
X177297445Y-52019873D01*
X177451788Y-51941232D01*
X177591928Y-51839414D01*
X177714414Y-51716928D01*
X177816232Y-51576788D01*
X177894873Y-51422445D01*
X177948402Y-51257701D01*
X177975500Y-51086611D01*
X177975500Y-50913389D01*
X177948402Y-50742299D01*
X177894873Y-50577555D01*
X177816232Y-50423212D01*
X177714414Y-50283072D01*
X177591928Y-50160586D01*
X177451788Y-50058768D01*
X177297445Y-49980127D01*
X177132701Y-49926598D01*
X177132699Y-49926597D01*
X177132698Y-49926597D01*
X177001271Y-49905781D01*
X176961611Y-49899500D01*
X176538389Y-49899500D01*
X176498728Y-49905781D01*
X176367302Y-49926597D01*
X176202552Y-49980128D01*
X176048211Y-50058768D01*
X175968256Y-50116859D01*
X175908072Y-50160586D01*
X175908070Y-50160588D01*
X175908069Y-50160588D01*
X175785588Y-50283069D01*
X175785588Y-50283070D01*
X175785586Y-50283072D01*
X175767710Y-50307676D01*
X175683770Y-50423207D01*
X175683765Y-50423216D01*
X175679393Y-50431798D01*
X175631418Y-50482592D01*
X175568910Y-50499500D01*
X168083676Y-50499500D01*
X168016637Y-50479815D01*
X167995995Y-50463181D01*
X165782813Y-48249999D01*
X175550884Y-48249999D01*
X175550885Y-48250000D01*
X176345854Y-48250000D01*
X176307370Y-48316657D01*
X176275000Y-48437465D01*
X176275000Y-48562535D01*
X176307370Y-48683343D01*
X176345854Y-48750000D01*
X175550885Y-48750000D01*
X175552085Y-48757584D01*
X175605591Y-48922255D01*
X175684195Y-49076524D01*
X175785967Y-49216602D01*
X175908397Y-49339032D01*
X176048475Y-49440804D01*
X176202744Y-49519408D01*
X176367415Y-49572913D01*
X176500000Y-49593913D01*
X176500000Y-48904145D01*
X176566657Y-48942630D01*
X176687465Y-48975000D01*
X176812535Y-48975000D01*
X176933343Y-48942630D01*
X177000000Y-48904145D01*
X177000000Y-49593912D01*
X177132584Y-49572913D01*
X177297255Y-49519408D01*
X177451524Y-49440804D01*
X177591602Y-49339032D01*
X177714032Y-49216602D01*
X177815804Y-49076524D01*
X177894408Y-48922255D01*
X177947914Y-48757584D01*
X177949115Y-48750000D01*
X177154146Y-48750000D01*
X177192630Y-48683343D01*
X177225000Y-48562535D01*
X177225000Y-48437465D01*
X177192630Y-48316657D01*
X177154146Y-48250000D01*
X177949115Y-48250000D01*
X177949115Y-48249999D01*
X177947914Y-48242415D01*
X177894408Y-48077744D01*
X177815804Y-47923475D01*
X177714032Y-47783397D01*
X177591602Y-47660967D01*
X177451524Y-47559195D01*
X177297257Y-47480591D01*
X177132585Y-47427086D01*
X177000000Y-47406086D01*
X177000000Y-48095854D01*
X176933343Y-48057370D01*
X176812535Y-48025000D01*
X176687465Y-48025000D01*
X176566657Y-48057370D01*
X176500000Y-48095854D01*
X176500000Y-47406086D01*
X176367414Y-47427086D01*
X176202742Y-47480591D01*
X176048475Y-47559195D01*
X175908397Y-47660967D01*
X175785967Y-47783397D01*
X175684195Y-47923475D01*
X175605591Y-48077744D01*
X175552085Y-48242415D01*
X175550884Y-48249999D01*
X165782813Y-48249999D01*
X164582829Y-47050015D01*
X164549344Y-46988692D01*
X164554328Y-46919000D01*
X164596200Y-46863067D01*
X164661664Y-46838650D01*
X164708825Y-46844402D01*
X164767299Y-46863402D01*
X164938389Y-46890500D01*
X164938390Y-46890500D01*
X165111610Y-46890500D01*
X165111611Y-46890500D01*
X165282701Y-46863402D01*
X165447445Y-46809873D01*
X165601788Y-46731232D01*
X165741928Y-46629414D01*
X165864414Y-46506928D01*
X165966232Y-46366788D01*
X166044873Y-46212445D01*
X166098402Y-46047701D01*
X166125500Y-45876611D01*
X166125500Y-45703389D01*
X166098402Y-45532299D01*
X166044873Y-45367555D01*
X165966232Y-45213212D01*
X165864414Y-45073072D01*
X165741928Y-44950586D01*
X165601788Y-44848768D01*
X165447445Y-44770127D01*
X165282701Y-44716598D01*
X165282699Y-44716597D01*
X165282698Y-44716597D01*
X165151271Y-44695781D01*
X165111611Y-44689500D01*
X164938389Y-44689500D01*
X164898728Y-44695781D01*
X164767302Y-44716597D01*
X164602552Y-44770128D01*
X164448211Y-44848768D01*
X164378384Y-44899501D01*
X164308072Y-44950586D01*
X164308070Y-44950588D01*
X164308069Y-44950588D01*
X164185588Y-45073069D01*
X164185588Y-45073070D01*
X164185586Y-45073072D01*
X164169658Y-45094995D01*
X164083768Y-45213211D01*
X164005128Y-45367552D01*
X164005127Y-45367554D01*
X164005127Y-45367555D01*
X163991225Y-45410342D01*
X163951597Y-45532302D01*
X163924500Y-45703389D01*
X163924500Y-45876610D01*
X163951597Y-46047698D01*
X163951598Y-46047702D01*
X163970596Y-46106172D01*
X163972591Y-46176013D01*
X163936510Y-46235845D01*
X163873809Y-46266673D01*
X163804395Y-46258708D01*
X163764984Y-46232170D01*
X161586819Y-44054005D01*
X161553334Y-43992682D01*
X161550500Y-43966324D01*
X161550500Y-43896534D01*
X161550499Y-43896530D01*
X161510130Y-43693580D01*
X161430941Y-43502402D01*
X161315977Y-43330345D01*
X161315975Y-43330342D01*
X161169657Y-43184024D01*
X160997596Y-43069057D01*
X160901035Y-43029061D01*
X160846632Y-42985220D01*
X160824567Y-42918926D01*
X160841846Y-42851226D01*
X160892984Y-42803616D01*
X160948488Y-42790500D01*
X163450890Y-42790500D01*
X163450892Y-42790500D01*
X163578186Y-42756392D01*
X163692314Y-42690500D01*
X163712819Y-42669995D01*
X163774142Y-42636510D01*
X163843834Y-42641494D01*
X163899767Y-42683366D01*
X163924184Y-42748830D01*
X163924500Y-42757676D01*
X163924500Y-44124678D01*
X163939032Y-44197735D01*
X163939033Y-44197739D01*
X163957405Y-44225235D01*
X163994399Y-44280601D01*
X164053485Y-44320080D01*
X164077260Y-44335966D01*
X164077264Y-44335967D01*
X164150321Y-44350499D01*
X164150324Y-44350500D01*
X164150326Y-44350500D01*
X165899676Y-44350500D01*
X165899677Y-44350499D01*
X165972740Y-44335966D01*
X166055601Y-44280601D01*
X166110966Y-44197740D01*
X166125500Y-44124674D01*
X166125500Y-42574500D01*
X166145185Y-42507461D01*
X166197989Y-42461706D01*
X166249500Y-42450500D01*
X172441324Y-42450500D01*
X172508363Y-42470185D01*
X172529005Y-42486819D01*
X175488181Y-45445995D01*
X175521666Y-45507318D01*
X175524500Y-45533676D01*
X175524500Y-46647870D01*
X175524501Y-46647876D01*
X175530908Y-46707483D01*
X175581202Y-46842328D01*
X175581206Y-46842335D01*
X175667452Y-46957544D01*
X175667455Y-46957547D01*
X175782664Y-47043793D01*
X175782671Y-47043797D01*
X175917517Y-47094091D01*
X175917516Y-47094091D01*
X175924444Y-47094835D01*
X175977127Y-47100500D01*
X177522872Y-47100499D01*
X177582483Y-47094091D01*
X177717331Y-47043796D01*
X177832546Y-46957546D01*
X177918796Y-46842331D01*
X177969091Y-46707483D01*
X177975500Y-46647873D01*
X177975499Y-45352128D01*
X177969091Y-45292517D01*
X177958463Y-45264023D01*
X177918797Y-45157671D01*
X177918793Y-45157664D01*
X177832547Y-45042455D01*
X177832544Y-45042452D01*
X177717335Y-44956206D01*
X177717328Y-44956202D01*
X177582482Y-44905908D01*
X177582483Y-44905908D01*
X177522883Y-44899501D01*
X177522881Y-44899500D01*
X177522873Y-44899500D01*
X177522865Y-44899500D01*
X176408676Y-44899500D01*
X176341637Y-44879815D01*
X176320995Y-44863181D01*
X173007316Y-41549502D01*
X173007314Y-41549500D01*
X172950250Y-41516554D01*
X172893187Y-41483608D01*
X172829539Y-41466554D01*
X172765892Y-41449500D01*
X163790893Y-41449500D01*
X163659108Y-41449500D01*
X163531812Y-41483608D01*
X163417686Y-41549500D01*
X163417683Y-41549502D01*
X163214005Y-41753181D01*
X163152682Y-41786666D01*
X163126324Y-41789500D01*
X157587887Y-41789500D01*
X157520848Y-41769815D01*
X157475093Y-41717011D01*
X157465149Y-41647853D01*
X157484784Y-41596610D01*
X157516261Y-41549500D01*
X157550941Y-41497598D01*
X157630130Y-41306420D01*
X157670500Y-41103465D01*
X157670500Y-40896535D01*
X157630130Y-40693580D01*
X157550941Y-40502402D01*
X157435977Y-40330345D01*
X157435975Y-40330342D01*
X157289657Y-40184024D01*
X157152608Y-40092452D01*
X157117598Y-40069059D01*
X156926420Y-39989870D01*
X156926412Y-39989868D01*
X156723469Y-39949500D01*
X156723465Y-39949500D01*
X156516535Y-39949500D01*
X156516530Y-39949500D01*
X156313587Y-39989868D01*
X156313579Y-39989870D01*
X156122403Y-40069058D01*
X155950342Y-40184024D01*
X155804024Y-40330342D01*
X155689058Y-40502403D01*
X155609870Y-40693579D01*
X155609868Y-40693587D01*
X155569500Y-40896530D01*
X155569500Y-41103469D01*
X155609868Y-41306412D01*
X155609870Y-41306420D01*
X155689058Y-41497596D01*
X155755216Y-41596610D01*
X155776093Y-41663288D01*
X155757608Y-41730668D01*
X155705629Y-41777357D01*
X155652113Y-41789500D01*
X155264108Y-41789500D01*
X155136812Y-41823608D01*
X155022686Y-41889500D01*
X155022683Y-41889502D01*
X150008375Y-46903809D01*
X149947052Y-46937294D01*
X149877360Y-46932310D01*
X149821427Y-46890438D01*
X149797010Y-46824974D01*
X149811862Y-46756701D01*
X149817585Y-46747247D01*
X149930941Y-46577598D01*
X150010130Y-46386420D01*
X150050500Y-46183465D01*
X150050500Y-45976535D01*
X150010130Y-45773580D01*
X149930941Y-45582402D01*
X149815977Y-45410345D01*
X149815975Y-45410342D01*
X149669657Y-45264024D01*
X149547910Y-45182676D01*
X149497598Y-45149059D01*
X149306420Y-45069870D01*
X149306412Y-45069868D01*
X149103469Y-45029500D01*
X149103465Y-45029500D01*
X148896535Y-45029500D01*
X148896530Y-45029500D01*
X148693587Y-45069868D01*
X148693579Y-45069870D01*
X148502403Y-45149058D01*
X148330342Y-45264024D01*
X148184024Y-45410342D01*
X148069058Y-45582403D01*
X147989870Y-45773579D01*
X147989868Y-45773587D01*
X147949500Y-45976530D01*
X147949500Y-46183469D01*
X147989868Y-46386412D01*
X147989870Y-46386420D01*
X148069058Y-46577596D01*
X148184024Y-46749657D01*
X148330342Y-46895975D01*
X148330345Y-46895977D01*
X148502402Y-47010941D01*
X148693580Y-47090130D01*
X148896530Y-47130499D01*
X148896534Y-47130500D01*
X148896535Y-47130500D01*
X149103466Y-47130500D01*
X149103467Y-47130499D01*
X149306420Y-47090130D01*
X149497598Y-47010941D01*
X149667238Y-46897591D01*
X149733915Y-46876714D01*
X149801295Y-46895199D01*
X149847985Y-46947178D01*
X149859161Y-47016148D01*
X149831275Y-47080211D01*
X149823809Y-47088375D01*
X149349862Y-47562322D01*
X149288539Y-47595807D01*
X149237990Y-47596258D01*
X149103469Y-47569500D01*
X149103465Y-47569500D01*
X148896535Y-47569500D01*
X148896530Y-47569500D01*
X148693587Y-47609868D01*
X148693579Y-47609870D01*
X148502403Y-47689058D01*
X148330342Y-47804024D01*
X148184024Y-47950342D01*
X148069058Y-48122403D01*
X147989870Y-48313579D01*
X147989868Y-48313587D01*
X147972741Y-48399691D01*
X147940356Y-48461602D01*
X147879641Y-48496176D01*
X147851124Y-48499500D01*
X145995281Y-48499500D01*
X145928242Y-48479815D01*
X145892180Y-48444392D01*
X145815977Y-48330345D01*
X145815975Y-48330342D01*
X145669657Y-48184024D01*
X145583626Y-48126541D01*
X145497598Y-48069059D01*
X145469378Y-48057370D01*
X145306420Y-47989870D01*
X145306412Y-47989868D01*
X145103469Y-47949500D01*
X145103465Y-47949500D01*
X144896535Y-47949500D01*
X144896530Y-47949500D01*
X144762008Y-47976258D01*
X144692416Y-47970031D01*
X144650136Y-47942322D01*
X142307316Y-45599502D01*
X142307314Y-45599500D01*
X142250250Y-45566554D01*
X142193187Y-45533608D01*
X142095069Y-45507318D01*
X142065892Y-45499500D01*
X142065891Y-45499500D01*
X136599499Y-45499500D01*
X136532460Y-45479815D01*
X136486705Y-45427011D01*
X136475499Y-45375500D01*
X136475499Y-45352129D01*
X136475498Y-45352123D01*
X136475497Y-45352116D01*
X136469091Y-45292517D01*
X136458463Y-45264023D01*
X136418797Y-45157671D01*
X136418793Y-45157664D01*
X136332547Y-45042455D01*
X136332544Y-45042452D01*
X136217334Y-44956206D01*
X136217328Y-44956202D01*
X136082482Y-44905908D01*
X136082483Y-44905908D01*
X136022883Y-44899501D01*
X136022881Y-44899500D01*
X136022873Y-44899500D01*
X136022864Y-44899500D01*
X134477129Y-44899500D01*
X134477123Y-44899501D01*
X134417516Y-44905908D01*
X134282671Y-44956202D01*
X134282664Y-44956206D01*
X134167455Y-45042452D01*
X134167452Y-45042455D01*
X134081206Y-45157664D01*
X134081202Y-45157671D01*
X134030908Y-45292517D01*
X134024501Y-45352116D01*
X134024501Y-45352123D01*
X134024500Y-45352135D01*
X131000500Y-45352135D01*
X131000500Y-43896579D01*
X143950000Y-43896579D01*
X143950000Y-44103420D01*
X143990348Y-44306266D01*
X143990350Y-44306274D01*
X144069500Y-44497359D01*
X144101377Y-44545067D01*
X144101378Y-44545067D01*
X144600000Y-44046445D01*
X144600000Y-44052661D01*
X144627259Y-44154394D01*
X144679920Y-44245606D01*
X144754394Y-44320080D01*
X144845606Y-44372741D01*
X144947339Y-44400000D01*
X144953554Y-44400000D01*
X144454931Y-44898620D01*
X144454932Y-44898621D01*
X144502633Y-44930495D01*
X144502639Y-44930498D01*
X144693725Y-45009649D01*
X144693733Y-45009651D01*
X144896579Y-45049999D01*
X144896583Y-45050000D01*
X145103417Y-45050000D01*
X145103420Y-45049999D01*
X145306266Y-45009651D01*
X145306274Y-45009649D01*
X145497366Y-44930495D01*
X145545066Y-44898621D01*
X145545067Y-44898620D01*
X145046447Y-44400000D01*
X145052661Y-44400000D01*
X145154394Y-44372741D01*
X145245606Y-44320080D01*
X145320080Y-44245606D01*
X145372741Y-44154394D01*
X145400000Y-44052661D01*
X145400000Y-44046446D01*
X145898620Y-44545067D01*
X145898621Y-44545066D01*
X145930495Y-44497366D01*
X146009649Y-44306274D01*
X146009651Y-44306266D01*
X146049999Y-44103420D01*
X146050000Y-44103417D01*
X146050000Y-43896583D01*
X146049999Y-43896579D01*
X146009651Y-43693733D01*
X146009649Y-43693725D01*
X145930498Y-43502639D01*
X145930495Y-43502633D01*
X145928289Y-43499331D01*
X145898621Y-43454932D01*
X145898620Y-43454931D01*
X145400000Y-43953552D01*
X145400000Y-43947339D01*
X145372741Y-43845606D01*
X145320080Y-43754394D01*
X145245606Y-43679920D01*
X145154394Y-43627259D01*
X145052661Y-43600000D01*
X145046447Y-43600000D01*
X145209916Y-43436530D01*
X147949500Y-43436530D01*
X147949500Y-43643469D01*
X147989868Y-43846412D01*
X147989870Y-43846420D01*
X148069058Y-44037596D01*
X148184024Y-44209657D01*
X148330342Y-44355975D01*
X148330345Y-44355977D01*
X148502402Y-44470941D01*
X148693580Y-44550130D01*
X148896530Y-44590499D01*
X148896534Y-44590500D01*
X148896535Y-44590500D01*
X149103466Y-44590500D01*
X149103467Y-44590499D01*
X149306420Y-44550130D01*
X149497598Y-44470941D01*
X149669655Y-44355977D01*
X149815977Y-44209655D01*
X149930941Y-44037598D01*
X150010130Y-43846420D01*
X150050500Y-43643465D01*
X150050500Y-43436535D01*
X150010130Y-43233580D01*
X149930941Y-43042402D01*
X149815977Y-42870345D01*
X149815975Y-42870342D01*
X149669657Y-42724024D01*
X149546141Y-42641494D01*
X149497598Y-42609059D01*
X149306420Y-42529870D01*
X149306412Y-42529868D01*
X149103469Y-42489500D01*
X149103465Y-42489500D01*
X148896535Y-42489500D01*
X148896530Y-42489500D01*
X148693587Y-42529868D01*
X148693579Y-42529870D01*
X148502403Y-42609058D01*
X148330342Y-42724024D01*
X148184024Y-42870342D01*
X148069058Y-43042403D01*
X147989870Y-43233579D01*
X147989868Y-43233587D01*
X147949500Y-43436530D01*
X145209916Y-43436530D01*
X145545067Y-43101378D01*
X145545067Y-43101377D01*
X145497359Y-43069500D01*
X145306274Y-42990350D01*
X145306266Y-42990348D01*
X145103420Y-42950000D01*
X144896579Y-42950000D01*
X144693733Y-42990348D01*
X144693725Y-42990350D01*
X144502641Y-43069500D01*
X144502631Y-43069505D01*
X144454932Y-43101377D01*
X144454932Y-43101378D01*
X144953554Y-43600000D01*
X144947339Y-43600000D01*
X144845606Y-43627259D01*
X144754394Y-43679920D01*
X144679920Y-43754394D01*
X144627259Y-43845606D01*
X144600000Y-43947339D01*
X144600000Y-43953554D01*
X144101378Y-43454932D01*
X144101377Y-43454932D01*
X144069505Y-43502631D01*
X144069500Y-43502641D01*
X143990350Y-43693725D01*
X143990348Y-43693733D01*
X143950000Y-43896579D01*
X131000500Y-43896579D01*
X131000500Y-40402135D01*
X147949500Y-40402135D01*
X147949500Y-41597870D01*
X147949501Y-41597876D01*
X147955908Y-41657483D01*
X148006202Y-41792328D01*
X148006206Y-41792335D01*
X148092452Y-41907544D01*
X148092455Y-41907547D01*
X148207664Y-41993793D01*
X148207671Y-41993797D01*
X148342517Y-42044091D01*
X148342516Y-42044091D01*
X148349444Y-42044835D01*
X148402127Y-42050500D01*
X149597872Y-42050499D01*
X149657483Y-42044091D01*
X149792331Y-41993796D01*
X149907546Y-41907546D01*
X149993796Y-41792331D01*
X150044091Y-41657483D01*
X150050500Y-41597873D01*
X150050499Y-40402128D01*
X150044091Y-40342517D01*
X150039551Y-40330345D01*
X149993797Y-40207671D01*
X149993793Y-40207664D01*
X149907547Y-40092455D01*
X149907544Y-40092452D01*
X149792335Y-40006206D01*
X149792328Y-40006202D01*
X149657482Y-39955908D01*
X149657483Y-39955908D01*
X149597883Y-39949501D01*
X149597881Y-39949500D01*
X149597873Y-39949500D01*
X149597864Y-39949500D01*
X148402129Y-39949500D01*
X148402123Y-39949501D01*
X148342516Y-39955908D01*
X148207671Y-40006202D01*
X148207664Y-40006206D01*
X148092455Y-40092452D01*
X148092452Y-40092455D01*
X148006206Y-40207664D01*
X148006202Y-40207671D01*
X147955908Y-40342517D01*
X147949501Y-40402116D01*
X147949501Y-40402123D01*
X147949500Y-40402135D01*
X131000500Y-40402135D01*
X131000500Y-35124000D01*
X131020185Y-35056961D01*
X131072989Y-35011206D01*
X131124500Y-35000000D01*
X179875500Y-35000000D01*
X179942539Y-35019685D01*
G37*
%TD.AperFunction*%
%TD*%
%TA.AperFunction,Conductor*%
%TO.N,GND*%
G36*
X224442539Y-35019685D02*
G01*
X224488294Y-35072489D01*
X224499500Y-35124000D01*
X224499500Y-62376000D01*
X224479815Y-62443039D01*
X224427011Y-62488794D01*
X224375500Y-62500000D01*
X181124500Y-62500000D01*
X181057461Y-62480315D01*
X181011706Y-62427511D01*
X181000500Y-62376000D01*
X181000500Y-55683753D01*
X197175000Y-55683753D01*
X197175000Y-55896246D01*
X197208242Y-56106127D01*
X197208242Y-56106130D01*
X197273904Y-56308217D01*
X197370375Y-56497550D01*
X197409728Y-56551716D01*
X198042037Y-55919408D01*
X198059075Y-55982993D01*
X198124901Y-56097007D01*
X198217993Y-56190099D01*
X198332007Y-56255925D01*
X198395590Y-56272962D01*
X197763282Y-56905269D01*
X197763282Y-56905270D01*
X197817449Y-56944624D01*
X198006782Y-57041095D01*
X198208870Y-57106757D01*
X198418754Y-57140000D01*
X198631246Y-57140000D01*
X198841127Y-57106757D01*
X198841130Y-57106757D01*
X199043217Y-57041095D01*
X199232554Y-56944622D01*
X199286716Y-56905270D01*
X199286717Y-56905270D01*
X198654408Y-56272962D01*
X198717993Y-56255925D01*
X198832007Y-56190099D01*
X198925099Y-56097007D01*
X198990925Y-55982993D01*
X199007962Y-55919408D01*
X199640270Y-56551717D01*
X199640270Y-56551716D01*
X199679622Y-56497554D01*
X199776095Y-56308217D01*
X199841757Y-56106130D01*
X199841757Y-56106127D01*
X199875000Y-55896246D01*
X199875000Y-55703389D01*
X203899500Y-55703389D01*
X203899500Y-55876611D01*
X203926598Y-56047701D01*
X203980127Y-56212445D01*
X204058768Y-56366788D01*
X204160586Y-56506928D01*
X204283072Y-56629414D01*
X204423212Y-56731232D01*
X204577555Y-56809873D01*
X204742299Y-56863402D01*
X204913389Y-56890500D01*
X204913390Y-56890500D01*
X205086610Y-56890500D01*
X205086611Y-56890500D01*
X205257701Y-56863402D01*
X205422445Y-56809873D01*
X205576788Y-56731232D01*
X205716928Y-56629414D01*
X205839414Y-56506928D01*
X205941232Y-56366788D01*
X206019873Y-56212445D01*
X206073402Y-56047701D01*
X206100500Y-55876611D01*
X206100500Y-55703389D01*
X206073402Y-55532299D01*
X206019873Y-55367555D01*
X205941232Y-55213212D01*
X205839414Y-55073072D01*
X205716928Y-54950586D01*
X205576788Y-54848768D01*
X205422445Y-54770127D01*
X205257701Y-54716598D01*
X205257699Y-54716597D01*
X205257698Y-54716597D01*
X205126271Y-54695781D01*
X205086611Y-54689500D01*
X204913389Y-54689500D01*
X204873728Y-54695781D01*
X204742302Y-54716597D01*
X204577552Y-54770128D01*
X204423211Y-54848768D01*
X204343256Y-54906859D01*
X204283072Y-54950586D01*
X204283070Y-54950588D01*
X204283069Y-54950588D01*
X204160588Y-55073069D01*
X204160588Y-55073070D01*
X204160586Y-55073072D01*
X204116859Y-55133256D01*
X204058768Y-55213211D01*
X203980128Y-55367552D01*
X203926597Y-55532302D01*
X203916349Y-55597007D01*
X203899500Y-55703389D01*
X199875000Y-55703389D01*
X199875000Y-55683753D01*
X199841757Y-55473872D01*
X199841757Y-55473869D01*
X199776095Y-55271782D01*
X199679624Y-55082449D01*
X199640270Y-55028282D01*
X199640269Y-55028282D01*
X199007962Y-55660590D01*
X198990925Y-55597007D01*
X198925099Y-55482993D01*
X198832007Y-55389901D01*
X198717993Y-55324075D01*
X198654409Y-55307037D01*
X199286716Y-54674728D01*
X199232550Y-54635375D01*
X199133655Y-54584985D01*
X199082859Y-54537010D01*
X199066064Y-54469189D01*
X199088602Y-54403054D01*
X199143317Y-54359603D01*
X199189950Y-54350500D01*
X199399676Y-54350500D01*
X199399677Y-54350499D01*
X199472740Y-54335966D01*
X199555601Y-54280601D01*
X199610966Y-54197740D01*
X199625500Y-54124674D01*
X199625500Y-52375326D01*
X199625500Y-52375323D01*
X199625499Y-52375321D01*
X203899500Y-52375321D01*
X203899500Y-54124678D01*
X203914032Y-54197735D01*
X203914033Y-54197739D01*
X203914034Y-54197740D01*
X203969399Y-54280601D01*
X204052260Y-54335966D01*
X204052264Y-54335967D01*
X204125321Y-54350499D01*
X204125324Y-54350500D01*
X204125326Y-54350500D01*
X205874676Y-54350500D01*
X205874677Y-54350499D01*
X205947740Y-54335966D01*
X206030601Y-54280601D01*
X206085966Y-54197740D01*
X206100500Y-54124674D01*
X206100500Y-52375326D01*
X206100500Y-52375323D01*
X206100499Y-52375321D01*
X206085967Y-52302264D01*
X206085966Y-52302260D01*
X206030601Y-52219399D01*
X205947740Y-52164034D01*
X205947739Y-52164033D01*
X205947735Y-52164032D01*
X205874677Y-52149500D01*
X205874674Y-52149500D01*
X204125326Y-52149500D01*
X204125323Y-52149500D01*
X204052264Y-52164032D01*
X204052260Y-52164033D01*
X203969399Y-52219399D01*
X203914033Y-52302260D01*
X203914032Y-52302264D01*
X203899500Y-52375321D01*
X199625499Y-52375321D01*
X199610967Y-52302264D01*
X199610966Y-52302260D01*
X199555601Y-52219399D01*
X199472740Y-52164034D01*
X199472739Y-52164033D01*
X199472735Y-52164032D01*
X199399677Y-52149500D01*
X199399674Y-52149500D01*
X197650326Y-52149500D01*
X197650323Y-52149500D01*
X197577264Y-52164032D01*
X197577260Y-52164033D01*
X197494399Y-52219399D01*
X197439033Y-52302260D01*
X197439032Y-52302264D01*
X197424500Y-52375321D01*
X197424500Y-54124678D01*
X197439032Y-54197735D01*
X197439033Y-54197739D01*
X197439034Y-54197740D01*
X197494399Y-54280601D01*
X197577260Y-54335966D01*
X197577264Y-54335967D01*
X197650321Y-54350499D01*
X197650324Y-54350500D01*
X197860051Y-54350500D01*
X197927090Y-54370185D01*
X197972845Y-54422989D01*
X197982789Y-54492147D01*
X197953764Y-54555703D01*
X197916346Y-54584985D01*
X197817439Y-54635380D01*
X197763282Y-54674727D01*
X197763282Y-54674728D01*
X198395591Y-55307037D01*
X198332007Y-55324075D01*
X198217993Y-55389901D01*
X198124901Y-55482993D01*
X198059075Y-55597007D01*
X198042037Y-55660590D01*
X197409728Y-55028282D01*
X197409727Y-55028282D01*
X197370380Y-55082439D01*
X197273904Y-55271782D01*
X197208242Y-55473869D01*
X197208242Y-55473872D01*
X197175000Y-55683753D01*
X181000500Y-55683753D01*
X181000500Y-53413389D01*
X184024500Y-53413389D01*
X184024500Y-53586611D01*
X184051598Y-53757701D01*
X184105127Y-53922445D01*
X184183768Y-54076788D01*
X184285586Y-54216928D01*
X184408072Y-54339414D01*
X184548212Y-54441232D01*
X184702555Y-54519873D01*
X184867299Y-54573402D01*
X185038389Y-54600500D01*
X185038390Y-54600500D01*
X185461610Y-54600500D01*
X185461611Y-54600500D01*
X185632701Y-54573402D01*
X185797445Y-54519873D01*
X185951788Y-54441232D01*
X186091928Y-54339414D01*
X186214414Y-54216928D01*
X186316232Y-54076788D01*
X186394873Y-53922445D01*
X186448402Y-53757701D01*
X186475500Y-53586611D01*
X186475500Y-53413389D01*
X186448402Y-53242299D01*
X186394873Y-53077555D01*
X186316232Y-52923212D01*
X186214414Y-52783072D01*
X186091928Y-52660586D01*
X185951788Y-52558768D01*
X185797448Y-52480128D01*
X185797445Y-52480127D01*
X185632701Y-52426598D01*
X185632699Y-52426597D01*
X185632698Y-52426597D01*
X185501271Y-52405781D01*
X185461611Y-52399500D01*
X185038389Y-52399500D01*
X184998728Y-52405781D01*
X184867302Y-52426597D01*
X184702552Y-52480128D01*
X184548211Y-52558768D01*
X184468256Y-52616859D01*
X184408072Y-52660586D01*
X184408070Y-52660588D01*
X184408069Y-52660588D01*
X184285588Y-52783069D01*
X184285588Y-52783070D01*
X184285586Y-52783072D01*
X184241859Y-52843256D01*
X184183768Y-52923211D01*
X184105128Y-53077552D01*
X184051597Y-53242302D01*
X184024500Y-53413389D01*
X181000500Y-53413389D01*
X181000500Y-48250000D01*
X183797769Y-48250000D01*
X184845854Y-48250000D01*
X184807370Y-48316657D01*
X184775000Y-48437465D01*
X184775000Y-48562535D01*
X184807370Y-48683343D01*
X184845854Y-48750000D01*
X183797769Y-48750000D01*
X183808242Y-48816126D01*
X183808242Y-48816129D01*
X183873904Y-49018217D01*
X183970379Y-49207557D01*
X184095272Y-49379459D01*
X184095276Y-49379464D01*
X184245535Y-49529723D01*
X184245540Y-49529727D01*
X184417442Y-49654620D01*
X184606778Y-49751093D01*
X184655022Y-49766768D01*
X184712698Y-49806205D01*
X184739897Y-49870563D01*
X184727983Y-49939410D01*
X184680740Y-49990886D01*
X184673000Y-49995185D01*
X184548211Y-50058768D01*
X184468256Y-50116859D01*
X184408072Y-50160586D01*
X184408070Y-50160588D01*
X184408069Y-50160588D01*
X184285588Y-50283069D01*
X184285588Y-50283070D01*
X184285586Y-50283072D01*
X184241859Y-50343256D01*
X184183768Y-50423211D01*
X184105128Y-50577552D01*
X184051597Y-50742302D01*
X184024500Y-50913389D01*
X184024500Y-51086611D01*
X184051598Y-51257701D01*
X184105127Y-51422445D01*
X184183768Y-51576788D01*
X184285586Y-51716928D01*
X184408072Y-51839414D01*
X184548212Y-51941232D01*
X184702555Y-52019873D01*
X184867299Y-52073402D01*
X185038389Y-52100500D01*
X185038390Y-52100500D01*
X185461610Y-52100500D01*
X185461611Y-52100500D01*
X185632701Y-52073402D01*
X185797445Y-52019873D01*
X185951788Y-51941232D01*
X186091928Y-51839414D01*
X186214414Y-51716928D01*
X186316232Y-51576788D01*
X186320607Y-51568202D01*
X186368582Y-51517408D01*
X186431090Y-51500500D01*
X205833657Y-51500500D01*
X205833659Y-51500500D01*
X205960953Y-51466392D01*
X206075081Y-51400500D01*
X208154367Y-49321214D01*
X208864625Y-48610957D01*
X209625569Y-47850013D01*
X215775000Y-47850013D01*
X215775000Y-48250000D01*
X216841988Y-48250000D01*
X216809075Y-48307007D01*
X216775000Y-48434174D01*
X216775000Y-48565826D01*
X216809075Y-48692993D01*
X216841988Y-48750000D01*
X215775001Y-48750000D01*
X215775001Y-49149986D01*
X215785494Y-49252697D01*
X215840641Y-49419119D01*
X215840643Y-49419124D01*
X215932684Y-49568345D01*
X216056654Y-49692315D01*
X216205875Y-49784356D01*
X216205880Y-49784358D01*
X216372302Y-49839505D01*
X216372310Y-49839506D01*
X216468347Y-49849318D01*
X216533039Y-49875714D01*
X216573191Y-49932895D01*
X216576054Y-50002706D01*
X216540720Y-50062982D01*
X216528631Y-50072994D01*
X216408070Y-50160587D01*
X216285588Y-50283069D01*
X216285588Y-50283070D01*
X216285586Y-50283072D01*
X216241859Y-50343256D01*
X216183768Y-50423211D01*
X216105128Y-50577552D01*
X216051597Y-50742302D01*
X216024500Y-50913389D01*
X216024500Y-51086611D01*
X216051598Y-51257701D01*
X216105127Y-51422445D01*
X216183768Y-51576788D01*
X216285586Y-51716928D01*
X216408072Y-51839414D01*
X216548212Y-51941232D01*
X216702555Y-52019873D01*
X216867299Y-52073402D01*
X217038389Y-52100500D01*
X217038390Y-52100500D01*
X217511610Y-52100500D01*
X217511611Y-52100500D01*
X217682701Y-52073402D01*
X217847445Y-52019873D01*
X218001788Y-51941232D01*
X218141928Y-51839414D01*
X218264414Y-51716928D01*
X218366232Y-51576788D01*
X218444873Y-51422445D01*
X218498402Y-51257701D01*
X218525500Y-51086611D01*
X218525500Y-50913389D01*
X218498402Y-50742299D01*
X218444873Y-50577555D01*
X218366232Y-50423212D01*
X218264414Y-50283072D01*
X218141928Y-50160586D01*
X218021367Y-50072993D01*
X217978702Y-50017663D01*
X217972723Y-49948049D01*
X218005329Y-49886254D01*
X218066168Y-49851897D01*
X218081652Y-49849317D01*
X218177696Y-49839505D01*
X218344119Y-49784358D01*
X218344124Y-49784356D01*
X218493345Y-49692315D01*
X218617315Y-49568345D01*
X218709356Y-49419124D01*
X218709358Y-49419119D01*
X218764505Y-49252697D01*
X218764506Y-49252690D01*
X218774999Y-49149986D01*
X218775000Y-49149973D01*
X218775000Y-48750000D01*
X217708012Y-48750000D01*
X217740925Y-48692993D01*
X217775000Y-48565826D01*
X217775000Y-48434174D01*
X217740925Y-48307007D01*
X217708012Y-48250000D01*
X218774999Y-48250000D01*
X218774999Y-47850028D01*
X218774998Y-47850013D01*
X218764505Y-47747302D01*
X218709358Y-47580880D01*
X218709356Y-47580875D01*
X218617315Y-47431654D01*
X218493345Y-47307684D01*
X218344124Y-47215643D01*
X218344119Y-47215641D01*
X218177697Y-47160494D01*
X218177690Y-47160493D01*
X218074986Y-47150000D01*
X217525000Y-47150000D01*
X217525000Y-48066988D01*
X217467993Y-48034075D01*
X217340826Y-48000000D01*
X217209174Y-48000000D01*
X217082007Y-48034075D01*
X217025000Y-48066988D01*
X217025000Y-47150000D01*
X216475028Y-47150000D01*
X216475012Y-47150001D01*
X216372302Y-47160494D01*
X216205880Y-47215641D01*
X216205875Y-47215643D01*
X216056654Y-47307684D01*
X215932684Y-47431654D01*
X215840643Y-47580875D01*
X215840641Y-47580880D01*
X215785494Y-47747302D01*
X215785493Y-47747309D01*
X215775000Y-47850013D01*
X209625569Y-47850013D01*
X209716399Y-47759183D01*
X211150497Y-46325084D01*
X211150499Y-46325082D01*
X211160758Y-46307314D01*
X211216392Y-46210953D01*
X211250500Y-46083659D01*
X211250500Y-41684108D01*
X211216392Y-41556814D01*
X211150500Y-41442686D01*
X211057314Y-41349500D01*
X210557676Y-40849862D01*
X210524191Y-40788539D01*
X210523740Y-40737993D01*
X210550500Y-40603465D01*
X210550500Y-40396535D01*
X210510130Y-40193580D01*
X210430941Y-40002402D01*
X210315977Y-39830345D01*
X210315975Y-39830342D01*
X210169657Y-39684024D01*
X210083626Y-39626541D01*
X209997598Y-39569059D01*
X209806420Y-39489870D01*
X209806412Y-39489868D01*
X209603469Y-39449500D01*
X209603465Y-39449500D01*
X209396535Y-39449500D01*
X209396530Y-39449500D01*
X209193587Y-39489868D01*
X209193579Y-39489870D01*
X209002403Y-39569058D01*
X208830342Y-39684024D01*
X208684024Y-39830342D01*
X208569058Y-40002403D01*
X208489870Y-40193579D01*
X208489868Y-40193584D01*
X208478560Y-40250433D01*
X208464334Y-40288233D01*
X208453611Y-40306808D01*
X208453608Y-40306814D01*
X208445812Y-40335909D01*
X208419500Y-40434108D01*
X208419500Y-40565891D01*
X208453608Y-40693185D01*
X208453610Y-40693190D01*
X208459251Y-40702961D01*
X208475722Y-40770861D01*
X208452869Y-40836888D01*
X208439544Y-40852640D01*
X206252707Y-43039478D01*
X206191384Y-43072963D01*
X206121692Y-43067979D01*
X206096136Y-43054899D01*
X205997599Y-42989059D01*
X205806420Y-42909870D01*
X205806412Y-42909868D01*
X205603469Y-42869500D01*
X205603465Y-42869500D01*
X205396535Y-42869500D01*
X205396530Y-42869500D01*
X205193587Y-42909868D01*
X205193579Y-42909870D01*
X205002403Y-42989058D01*
X204830342Y-43104024D01*
X204684024Y-43250342D01*
X204569058Y-43422403D01*
X204489870Y-43613579D01*
X204489868Y-43613587D01*
X204449500Y-43816530D01*
X204449500Y-44023469D01*
X204488695Y-44220515D01*
X204489870Y-44226420D01*
X204569059Y-44417598D01*
X204571014Y-44420524D01*
X204684024Y-44589657D01*
X204830342Y-44735975D01*
X204830345Y-44735977D01*
X205002402Y-44850941D01*
X205193580Y-44930130D01*
X205324654Y-44956202D01*
X205396530Y-44970499D01*
X205396534Y-44970500D01*
X205396535Y-44970500D01*
X205603466Y-44970500D01*
X205603467Y-44970499D01*
X205806420Y-44930130D01*
X205997598Y-44850941D01*
X206169655Y-44735977D01*
X206315977Y-44589655D01*
X206430941Y-44417598D01*
X206510130Y-44226420D01*
X206510132Y-44226406D01*
X206511898Y-44220590D01*
X206513291Y-44221012D01*
X206542301Y-44165538D01*
X206543805Y-44164007D01*
X209150138Y-41557674D01*
X209211459Y-41524191D01*
X209262005Y-41523740D01*
X209372127Y-41545644D01*
X209396534Y-41550500D01*
X209396535Y-41550500D01*
X209603466Y-41550500D01*
X209623140Y-41546586D01*
X209737992Y-41523740D01*
X209807580Y-41529967D01*
X209849862Y-41557676D01*
X210213181Y-41920995D01*
X210246666Y-41982318D01*
X210249500Y-42008676D01*
X210249500Y-44220515D01*
X210229815Y-44287554D01*
X210177011Y-44333309D01*
X210107853Y-44343253D01*
X210069206Y-44331000D01*
X209999034Y-44295245D01*
X209804417Y-44232009D01*
X209602317Y-44200000D01*
X209397683Y-44200000D01*
X209195582Y-44232009D01*
X209000968Y-44295244D01*
X208818644Y-44388143D01*
X208774077Y-44420523D01*
X208774077Y-44420524D01*
X209453553Y-45100000D01*
X209447339Y-45100000D01*
X209345606Y-45127259D01*
X209254394Y-45179920D01*
X209179920Y-45254394D01*
X209127259Y-45345606D01*
X209100000Y-45447339D01*
X209100000Y-45453553D01*
X208420524Y-44774077D01*
X208420523Y-44774077D01*
X208388143Y-44818644D01*
X208295244Y-45000968D01*
X208232009Y-45195582D01*
X208200000Y-45397682D01*
X208200000Y-45602317D01*
X208232009Y-45804417D01*
X208295244Y-45999031D01*
X208388141Y-46181350D01*
X208388147Y-46181359D01*
X208420523Y-46225921D01*
X208420524Y-46225922D01*
X209100000Y-45546446D01*
X209100000Y-45552661D01*
X209127259Y-45654394D01*
X209179920Y-45745606D01*
X209254394Y-45820080D01*
X209345606Y-45872741D01*
X209447339Y-45900000D01*
X209453552Y-45900000D01*
X208774076Y-46579474D01*
X208818650Y-46611859D01*
X209000968Y-46704755D01*
X209075881Y-46729096D01*
X209133556Y-46768534D01*
X209160754Y-46832893D01*
X209148839Y-46901739D01*
X209125243Y-46934708D01*
X206738738Y-49321214D01*
X206677415Y-49354699D01*
X206607723Y-49349715D01*
X206551790Y-49307843D01*
X206527373Y-49242379D01*
X206529440Y-49209342D01*
X206550499Y-49103468D01*
X206550500Y-49103466D01*
X206550500Y-48896534D01*
X206550499Y-48896530D01*
X206532692Y-48807007D01*
X206510130Y-48693580D01*
X206430941Y-48502402D01*
X206315977Y-48330345D01*
X206315975Y-48330342D01*
X206169657Y-48184024D01*
X206073695Y-48119905D01*
X205997598Y-48069059D01*
X205969378Y-48057370D01*
X205806420Y-47989870D01*
X205806412Y-47989868D01*
X205603469Y-47949500D01*
X205603465Y-47949500D01*
X205396535Y-47949500D01*
X205396530Y-47949500D01*
X205193587Y-47989868D01*
X205193579Y-47989870D01*
X205002403Y-48069058D01*
X204830342Y-48184024D01*
X204684024Y-48330342D01*
X204569058Y-48502403D01*
X204489870Y-48693579D01*
X204489868Y-48693587D01*
X204449500Y-48896530D01*
X204449500Y-49103469D01*
X204489868Y-49306412D01*
X204489870Y-49306420D01*
X204569058Y-49497596D01*
X204684024Y-49669657D01*
X204830342Y-49815975D01*
X204830345Y-49815977D01*
X205002402Y-49930941D01*
X205193580Y-50010130D01*
X205396530Y-50050499D01*
X205396534Y-50050500D01*
X205396535Y-50050500D01*
X205603466Y-50050500D01*
X205603466Y-50050499D01*
X205686759Y-50033931D01*
X205709342Y-50029440D01*
X205778933Y-50035667D01*
X205834111Y-50078530D01*
X205857355Y-50144420D01*
X205841287Y-50212417D01*
X205821214Y-50238738D01*
X205596772Y-50463181D01*
X205535449Y-50496666D01*
X205509091Y-50499500D01*
X186431090Y-50499500D01*
X186364051Y-50479815D01*
X186320607Y-50431798D01*
X186316234Y-50423216D01*
X186316229Y-50423207D01*
X186286672Y-50382526D01*
X186214414Y-50283072D01*
X186091928Y-50160586D01*
X185951788Y-50058768D01*
X185935559Y-50050499D01*
X185826999Y-49995185D01*
X185776203Y-49947210D01*
X185759408Y-49879389D01*
X185781945Y-49813255D01*
X185836660Y-49769803D01*
X185844978Y-49766768D01*
X185893219Y-49751094D01*
X186082557Y-49654620D01*
X186254459Y-49529727D01*
X186254464Y-49529723D01*
X186404723Y-49379464D01*
X186404727Y-49379459D01*
X186529620Y-49207557D01*
X186626095Y-49018217D01*
X186691757Y-48816129D01*
X186691757Y-48816126D01*
X186702231Y-48750000D01*
X185654146Y-48750000D01*
X185692630Y-48683343D01*
X185725000Y-48562535D01*
X185725000Y-48437465D01*
X185692630Y-48316657D01*
X185654146Y-48250000D01*
X186702231Y-48250000D01*
X186691757Y-48183873D01*
X186691757Y-48183870D01*
X186626095Y-47981782D01*
X186529620Y-47792442D01*
X186404727Y-47620540D01*
X186404723Y-47620535D01*
X186254464Y-47470276D01*
X186254459Y-47470272D01*
X186082557Y-47345378D01*
X186046661Y-47327088D01*
X185995866Y-47279113D01*
X185979072Y-47211292D01*
X186001610Y-47145157D01*
X186056326Y-47101706D01*
X186075192Y-47096978D01*
X186074932Y-47095876D01*
X186082479Y-47094092D01*
X186082481Y-47094091D01*
X186082483Y-47094091D01*
X186217331Y-47043796D01*
X186332546Y-46957546D01*
X186418796Y-46842331D01*
X186469091Y-46707483D01*
X186475500Y-46647873D01*
X186475500Y-46624500D01*
X186495185Y-46557461D01*
X186547989Y-46511706D01*
X186599500Y-46500500D01*
X193565890Y-46500500D01*
X193565892Y-46500500D01*
X193588648Y-46494402D01*
X193658496Y-46496063D01*
X193668181Y-46499609D01*
X193693580Y-46510130D01*
X193896530Y-46550499D01*
X193896534Y-46550500D01*
X193896535Y-46550500D01*
X194103466Y-46550500D01*
X194103467Y-46550499D01*
X194306420Y-46510130D01*
X194495671Y-46431738D01*
X194565140Y-46424270D01*
X194627620Y-46455545D01*
X194630805Y-46458619D01*
X196822322Y-48650136D01*
X196855807Y-48711459D01*
X196856258Y-48762008D01*
X196829500Y-48896530D01*
X196829500Y-49103469D01*
X196869868Y-49306412D01*
X196869870Y-49306420D01*
X196949058Y-49497596D01*
X197064024Y-49669657D01*
X197210342Y-49815975D01*
X197210345Y-49815977D01*
X197382402Y-49930941D01*
X197573580Y-50010130D01*
X197776530Y-50050499D01*
X197776534Y-50050500D01*
X197776535Y-50050500D01*
X197983466Y-50050500D01*
X197983467Y-50050499D01*
X198186420Y-50010130D01*
X198377598Y-49930941D01*
X198549655Y-49815977D01*
X198695977Y-49669655D01*
X198810941Y-49497598D01*
X198890130Y-49306420D01*
X198930500Y-49103465D01*
X198930500Y-48896535D01*
X198890130Y-48693580D01*
X198810941Y-48502402D01*
X198695977Y-48330345D01*
X198695975Y-48330342D01*
X198549657Y-48184024D01*
X198453695Y-48119905D01*
X198377598Y-48069059D01*
X198349378Y-48057370D01*
X198186420Y-47989870D01*
X198186412Y-47989868D01*
X197983469Y-47949500D01*
X197983465Y-47949500D01*
X197776535Y-47949500D01*
X197776530Y-47949500D01*
X197642008Y-47976258D01*
X197572416Y-47970031D01*
X197530136Y-47942322D01*
X197056187Y-47468373D01*
X197022702Y-47407050D01*
X197027686Y-47337358D01*
X197069558Y-47281425D01*
X197135022Y-47257008D01*
X197203295Y-47271860D01*
X197212758Y-47277590D01*
X197382400Y-47390940D01*
X197382401Y-47390940D01*
X197382402Y-47390941D01*
X197573580Y-47470130D01*
X197776530Y-47510499D01*
X197776534Y-47510500D01*
X197776535Y-47510500D01*
X197983466Y-47510500D01*
X197983467Y-47510499D01*
X198186420Y-47470130D01*
X198377598Y-47390941D01*
X198549655Y-47275977D01*
X198695977Y-47129655D01*
X198810941Y-46957598D01*
X198890130Y-46766420D01*
X198930500Y-46563465D01*
X198930500Y-46356535D01*
X198930499Y-46356530D01*
X204449500Y-46356530D01*
X204449500Y-46563469D01*
X204489868Y-46766412D01*
X204489870Y-46766420D01*
X204569058Y-46957596D01*
X204684024Y-47129657D01*
X204830342Y-47275975D01*
X204830345Y-47275977D01*
X205002402Y-47390941D01*
X205193580Y-47470130D01*
X205396530Y-47510499D01*
X205396534Y-47510500D01*
X205396535Y-47510500D01*
X205603466Y-47510500D01*
X205603467Y-47510499D01*
X205806420Y-47470130D01*
X205997598Y-47390941D01*
X206169655Y-47275977D01*
X206315977Y-47129655D01*
X206430941Y-46957598D01*
X206510130Y-46766420D01*
X206550500Y-46563465D01*
X206550500Y-46356535D01*
X206510130Y-46153580D01*
X206430941Y-45962402D01*
X206315977Y-45790345D01*
X206315975Y-45790342D01*
X206169657Y-45644024D01*
X205997596Y-45529057D01*
X205945254Y-45507377D01*
X205806420Y-45449870D01*
X205806412Y-45449868D01*
X205603469Y-45409500D01*
X205603465Y-45409500D01*
X205396535Y-45409500D01*
X205396530Y-45409500D01*
X205193587Y-45449868D01*
X205193579Y-45449870D01*
X205002403Y-45529058D01*
X204830342Y-45644024D01*
X204684024Y-45790342D01*
X204569058Y-45962403D01*
X204489870Y-46153579D01*
X204489868Y-46153587D01*
X204449500Y-46356530D01*
X198930499Y-46356530D01*
X198890130Y-46153580D01*
X198810941Y-45962402D01*
X198695977Y-45790345D01*
X198695975Y-45790342D01*
X198549657Y-45644024D01*
X198412921Y-45552661D01*
X198377598Y-45529059D01*
X198377593Y-45529057D01*
X198186420Y-45449870D01*
X198186412Y-45449868D01*
X197983469Y-45409500D01*
X197983465Y-45409500D01*
X197776535Y-45409500D01*
X197776530Y-45409500D01*
X197573587Y-45449868D01*
X197573579Y-45449870D01*
X197382403Y-45529058D01*
X197210342Y-45644024D01*
X197064024Y-45790342D01*
X196949058Y-45962403D01*
X196869870Y-46153579D01*
X196869868Y-46153587D01*
X196829500Y-46356530D01*
X196829500Y-46563469D01*
X196869868Y-46766412D01*
X196869870Y-46766420D01*
X196949058Y-46957596D01*
X197062410Y-47127241D01*
X197083287Y-47193918D01*
X197064802Y-47261298D01*
X197012823Y-47307988D01*
X196943853Y-47319164D01*
X196879789Y-47291278D01*
X196871626Y-47283812D01*
X195086819Y-45499005D01*
X195053334Y-45437682D01*
X195050500Y-45411324D01*
X195050500Y-45396534D01*
X195050499Y-45396530D01*
X195041666Y-45352123D01*
X195010130Y-45193580D01*
X194930941Y-45002402D01*
X194815977Y-44830345D01*
X194815975Y-44830342D01*
X194669657Y-44684024D01*
X194528422Y-44589655D01*
X194497598Y-44569059D01*
X194306420Y-44489870D01*
X194306412Y-44489868D01*
X194103469Y-44449500D01*
X194103465Y-44449500D01*
X193896535Y-44449500D01*
X193896530Y-44449500D01*
X193693587Y-44489868D01*
X193693579Y-44489870D01*
X193502403Y-44569058D01*
X193330342Y-44684024D01*
X193184024Y-44830342D01*
X193069058Y-45002403D01*
X192989870Y-45193579D01*
X192989868Y-45193587D01*
X192948872Y-45399691D01*
X192916488Y-45461602D01*
X192855772Y-45496176D01*
X192827255Y-45499500D01*
X186599499Y-45499500D01*
X186532460Y-45479815D01*
X186486705Y-45427011D01*
X186475499Y-45375500D01*
X186475499Y-45352129D01*
X186475498Y-45352123D01*
X186475497Y-45352116D01*
X186469091Y-45292517D01*
X186418796Y-45157669D01*
X186418795Y-45157668D01*
X186418793Y-45157664D01*
X186332547Y-45042455D01*
X186332544Y-45042452D01*
X186217335Y-44956206D01*
X186217328Y-44956202D01*
X186082482Y-44905908D01*
X186082483Y-44905908D01*
X186022883Y-44899501D01*
X186022881Y-44899500D01*
X186022873Y-44899500D01*
X186022864Y-44899500D01*
X184477129Y-44899500D01*
X184477123Y-44899501D01*
X184417516Y-44905908D01*
X184282671Y-44956202D01*
X184282664Y-44956206D01*
X184167455Y-45042452D01*
X184167452Y-45042455D01*
X184081206Y-45157664D01*
X184081202Y-45157671D01*
X184030908Y-45292517D01*
X184025201Y-45345606D01*
X184024501Y-45352123D01*
X184024500Y-45352135D01*
X184024500Y-46647870D01*
X184024501Y-46647876D01*
X184030908Y-46707483D01*
X184081202Y-46842328D01*
X184081206Y-46842335D01*
X184167452Y-46957544D01*
X184167455Y-46957547D01*
X184282664Y-47043793D01*
X184282671Y-47043797D01*
X184417517Y-47094091D01*
X184425062Y-47095874D01*
X184424296Y-47099113D01*
X184474848Y-47120052D01*
X184514696Y-47177444D01*
X184517190Y-47247269D01*
X184481538Y-47307358D01*
X184453339Y-47327088D01*
X184417442Y-47345378D01*
X184245540Y-47470272D01*
X184245535Y-47470276D01*
X184095276Y-47620535D01*
X184095272Y-47620540D01*
X183970379Y-47792442D01*
X183873904Y-47981782D01*
X183808242Y-48183870D01*
X183808242Y-48183873D01*
X183797769Y-48250000D01*
X181000500Y-48250000D01*
X181000500Y-43816530D01*
X196829500Y-43816530D01*
X196829500Y-44023469D01*
X196868695Y-44220515D01*
X196869870Y-44226420D01*
X196949059Y-44417598D01*
X196951014Y-44420524D01*
X197064024Y-44589657D01*
X197210342Y-44735975D01*
X197210345Y-44735977D01*
X197382402Y-44850941D01*
X197573580Y-44930130D01*
X197704654Y-44956202D01*
X197776530Y-44970499D01*
X197776534Y-44970500D01*
X197776535Y-44970500D01*
X197983466Y-44970500D01*
X197983467Y-44970499D01*
X198186420Y-44930130D01*
X198377598Y-44850941D01*
X198549655Y-44735977D01*
X198695977Y-44589655D01*
X198810941Y-44417598D01*
X198890130Y-44226420D01*
X198930500Y-44023465D01*
X198930500Y-43816535D01*
X198890130Y-43613580D01*
X198810941Y-43422402D01*
X198695977Y-43250345D01*
X198695975Y-43250342D01*
X198549657Y-43104024D01*
X198453056Y-43039478D01*
X198377598Y-42989059D01*
X198186420Y-42909870D01*
X198186412Y-42909868D01*
X197983469Y-42869500D01*
X197983465Y-42869500D01*
X197776535Y-42869500D01*
X197776530Y-42869500D01*
X197573587Y-42909868D01*
X197573579Y-42909870D01*
X197382403Y-42989058D01*
X197210342Y-43104024D01*
X197064024Y-43250342D01*
X196949058Y-43422403D01*
X196869870Y-43613579D01*
X196869868Y-43613587D01*
X196829500Y-43816530D01*
X181000500Y-43816530D01*
X181000500Y-40397682D01*
X192700000Y-40397682D01*
X192700000Y-40602317D01*
X192732009Y-40804417D01*
X192795244Y-40999031D01*
X192888141Y-41181350D01*
X192888147Y-41181359D01*
X192920523Y-41225921D01*
X192920524Y-41225922D01*
X193600000Y-40546446D01*
X193600000Y-40552661D01*
X193627259Y-40654394D01*
X193679920Y-40745606D01*
X193754394Y-40820080D01*
X193845606Y-40872741D01*
X193947339Y-40900000D01*
X193953553Y-40900000D01*
X193274076Y-41579474D01*
X193318650Y-41611859D01*
X193500968Y-41704755D01*
X193695582Y-41767990D01*
X193897683Y-41800000D01*
X194102317Y-41800000D01*
X194304417Y-41767990D01*
X194499031Y-41704755D01*
X194681349Y-41611859D01*
X194725921Y-41579474D01*
X194046447Y-40900000D01*
X194052661Y-40900000D01*
X194154394Y-40872741D01*
X194245606Y-40820080D01*
X194320080Y-40745606D01*
X194372741Y-40654394D01*
X194400000Y-40552661D01*
X194400000Y-40546447D01*
X195079474Y-41225921D01*
X195111859Y-41181349D01*
X195204755Y-40999031D01*
X195267990Y-40804417D01*
X195271519Y-40782135D01*
X196829500Y-40782135D01*
X196829500Y-41977870D01*
X196829501Y-41977876D01*
X196835908Y-42037483D01*
X196886202Y-42172328D01*
X196886206Y-42172335D01*
X196972452Y-42287544D01*
X196972455Y-42287547D01*
X197087664Y-42373793D01*
X197087671Y-42373797D01*
X197222517Y-42424091D01*
X197222516Y-42424091D01*
X197229444Y-42424835D01*
X197282127Y-42430500D01*
X198477872Y-42430499D01*
X198537483Y-42424091D01*
X198672331Y-42373796D01*
X198787546Y-42287546D01*
X198873796Y-42172331D01*
X198924091Y-42037483D01*
X198930500Y-41977873D01*
X198930499Y-41276530D01*
X204449500Y-41276530D01*
X204449500Y-41483469D01*
X204489868Y-41686412D01*
X204489870Y-41686420D01*
X204569058Y-41877596D01*
X204684024Y-42049657D01*
X204830342Y-42195975D01*
X204830345Y-42195977D01*
X205002402Y-42310941D01*
X205193580Y-42390130D01*
X205364315Y-42424091D01*
X205396530Y-42430499D01*
X205396534Y-42430500D01*
X205396535Y-42430500D01*
X205603466Y-42430500D01*
X205603467Y-42430499D01*
X205806420Y-42390130D01*
X205997598Y-42310941D01*
X206169655Y-42195977D01*
X206315977Y-42049655D01*
X206430941Y-41877598D01*
X206510130Y-41686420D01*
X206550500Y-41483465D01*
X206550500Y-41276535D01*
X206510130Y-41073580D01*
X206430941Y-40882402D01*
X206315977Y-40710345D01*
X206315975Y-40710342D01*
X206169657Y-40564024D01*
X206032608Y-40472452D01*
X205997598Y-40449059D01*
X205961503Y-40434108D01*
X205806420Y-40369870D01*
X205806412Y-40369868D01*
X205603469Y-40329500D01*
X205603465Y-40329500D01*
X205396535Y-40329500D01*
X205396530Y-40329500D01*
X205193587Y-40369868D01*
X205193579Y-40369870D01*
X205002403Y-40449058D01*
X204830342Y-40564024D01*
X204684024Y-40710342D01*
X204569058Y-40882403D01*
X204489870Y-41073579D01*
X204489868Y-41073587D01*
X204449500Y-41276530D01*
X198930499Y-41276530D01*
X198930499Y-40782128D01*
X198924091Y-40722517D01*
X198919551Y-40710345D01*
X198873797Y-40587671D01*
X198873793Y-40587664D01*
X198787547Y-40472455D01*
X198787544Y-40472452D01*
X198672335Y-40386206D01*
X198672328Y-40386202D01*
X198537482Y-40335908D01*
X198537483Y-40335908D01*
X198477883Y-40329501D01*
X198477881Y-40329500D01*
X198477873Y-40329500D01*
X198477864Y-40329500D01*
X197282129Y-40329500D01*
X197282123Y-40329501D01*
X197222516Y-40335908D01*
X197087671Y-40386202D01*
X197087664Y-40386206D01*
X196972455Y-40472452D01*
X196972452Y-40472455D01*
X196886206Y-40587664D01*
X196886202Y-40587671D01*
X196835908Y-40722517D01*
X196830711Y-40770861D01*
X196829501Y-40782123D01*
X196829500Y-40782135D01*
X195271519Y-40782135D01*
X195275119Y-40759408D01*
X195300000Y-40602317D01*
X195300000Y-40397682D01*
X195267990Y-40195582D01*
X195204755Y-40000968D01*
X195111859Y-39818650D01*
X195079474Y-39774077D01*
X195079474Y-39774076D01*
X194400000Y-40453551D01*
X194400000Y-40447339D01*
X194372741Y-40345606D01*
X194320080Y-40254394D01*
X194245606Y-40179920D01*
X194154394Y-40127259D01*
X194052661Y-40100000D01*
X194046446Y-40100000D01*
X194725922Y-39420524D01*
X194725921Y-39420523D01*
X194681359Y-39388147D01*
X194681350Y-39388141D01*
X194499031Y-39295244D01*
X194304417Y-39232009D01*
X194102317Y-39200000D01*
X193897683Y-39200000D01*
X193695582Y-39232009D01*
X193500968Y-39295244D01*
X193318644Y-39388143D01*
X193274077Y-39420523D01*
X193274077Y-39420524D01*
X193953554Y-40100000D01*
X193947339Y-40100000D01*
X193845606Y-40127259D01*
X193754394Y-40179920D01*
X193679920Y-40254394D01*
X193627259Y-40345606D01*
X193600000Y-40447339D01*
X193600000Y-40453553D01*
X192920524Y-39774077D01*
X192920523Y-39774077D01*
X192888143Y-39818644D01*
X192795244Y-40000968D01*
X192732009Y-40195582D01*
X192700000Y-40397682D01*
X181000500Y-40397682D01*
X181000500Y-35124000D01*
X181020185Y-35056961D01*
X181072989Y-35011206D01*
X181124500Y-35000000D01*
X224375500Y-35000000D01*
X224442539Y-35019685D01*
G37*
%TD.AperFunction*%
%TD*%
%TA.AperFunction,Conductor*%
%TO.N,GND*%
G36*
X100454152Y-46650185D02*
G01*
X100499907Y-46702989D01*
X100509851Y-46772147D01*
X100490216Y-46823390D01*
X100424058Y-46922403D01*
X100344870Y-47113579D01*
X100344868Y-47113587D01*
X100304500Y-47316530D01*
X100304500Y-47523469D01*
X100344868Y-47726412D01*
X100344870Y-47726420D01*
X100424058Y-47917596D01*
X100539024Y-48089657D01*
X100685342Y-48235975D01*
X100685345Y-48235977D01*
X100857402Y-48350941D01*
X101048580Y-48430130D01*
X101251530Y-48470499D01*
X101251534Y-48470500D01*
X101251535Y-48470500D01*
X101458466Y-48470500D01*
X101458467Y-48470499D01*
X101661420Y-48430130D01*
X101852598Y-48350941D01*
X102024655Y-48235977D01*
X102170977Y-48089655D01*
X102285941Y-47917598D01*
X102365130Y-47726420D01*
X102405500Y-47523465D01*
X102405500Y-47316535D01*
X102365130Y-47113580D01*
X102285941Y-46922402D01*
X102219784Y-46823390D01*
X102198907Y-46756712D01*
X102217392Y-46689332D01*
X102269371Y-46642643D01*
X102322887Y-46630500D01*
X108007113Y-46630500D01*
X108074152Y-46650185D01*
X108119907Y-46702989D01*
X108129851Y-46772147D01*
X108110216Y-46823390D01*
X108044058Y-46922403D01*
X107964870Y-47113579D01*
X107964868Y-47113587D01*
X107924500Y-47316530D01*
X107924500Y-47523469D01*
X107964868Y-47726412D01*
X107964870Y-47726420D01*
X108044058Y-47917596D01*
X108159024Y-48089657D01*
X108305342Y-48235975D01*
X108305345Y-48235977D01*
X108477402Y-48350941D01*
X108668580Y-48430130D01*
X108871530Y-48470499D01*
X108871534Y-48470500D01*
X108871535Y-48470500D01*
X109078466Y-48470500D01*
X109078467Y-48470499D01*
X109281420Y-48430130D01*
X109378449Y-48389938D01*
X109425902Y-48380500D01*
X111467324Y-48380500D01*
X111534363Y-48400185D01*
X111580118Y-48452989D01*
X111590062Y-48522147D01*
X111561037Y-48585703D01*
X111555005Y-48592181D01*
X110233531Y-49913653D01*
X110172208Y-49947138D01*
X110102516Y-49942154D01*
X110046583Y-49900282D01*
X110024233Y-49850163D01*
X109985131Y-49653587D01*
X109985130Y-49653580D01*
X109905941Y-49462402D01*
X109790977Y-49290345D01*
X109790975Y-49290342D01*
X109644657Y-49144024D01*
X109543635Y-49076524D01*
X109472598Y-49029059D01*
X109425743Y-49009651D01*
X109281420Y-48949870D01*
X109281412Y-48949868D01*
X109078469Y-48909500D01*
X109078465Y-48909500D01*
X108871535Y-48909500D01*
X108871530Y-48909500D01*
X108668587Y-48949868D01*
X108668579Y-48949870D01*
X108477403Y-49029058D01*
X108305342Y-49144024D01*
X108159024Y-49290342D01*
X108044058Y-49462403D01*
X107964870Y-49653579D01*
X107964868Y-49653587D01*
X107924500Y-49856530D01*
X107924500Y-50063469D01*
X107964868Y-50266412D01*
X107964870Y-50266420D01*
X108044058Y-50457596D01*
X108150499Y-50616899D01*
X108159023Y-50629655D01*
X108180798Y-50651430D01*
X108214283Y-50712751D01*
X108209300Y-50782442D01*
X108167429Y-50838377D01*
X108155123Y-50846494D01*
X108149928Y-50849493D01*
X108149916Y-50849502D01*
X105286238Y-53713181D01*
X105224915Y-53746666D01*
X105198557Y-53749500D01*
X101706919Y-53749500D01*
X101639880Y-53729815D01*
X101594125Y-53677011D01*
X101584181Y-53607853D01*
X101613206Y-53544297D01*
X101659466Y-53510939D01*
X101661418Y-53510130D01*
X101661420Y-53510130D01*
X101852598Y-53430941D01*
X102024655Y-53315977D01*
X102170977Y-53169655D01*
X102285941Y-52997598D01*
X102365130Y-52806420D01*
X102405500Y-52603465D01*
X102405500Y-52396535D01*
X102365130Y-52193580D01*
X102285941Y-52002402D01*
X102170977Y-51830345D01*
X102170975Y-51830342D01*
X102024657Y-51684024D01*
X101864165Y-51576788D01*
X101852598Y-51569059D01*
X101661420Y-51489870D01*
X101661412Y-51489868D01*
X101458469Y-51449500D01*
X101458465Y-51449500D01*
X101251535Y-51449500D01*
X101251530Y-51449500D01*
X101048587Y-51489868D01*
X101048579Y-51489870D01*
X100857403Y-51569058D01*
X100685342Y-51684024D01*
X100539024Y-51830342D01*
X100424058Y-52002403D01*
X100344870Y-52193579D01*
X100344868Y-52193587D01*
X100303872Y-52399691D01*
X100271488Y-52461602D01*
X100210772Y-52496176D01*
X100182255Y-52499500D01*
X98470281Y-52499500D01*
X98403242Y-52479815D01*
X98367180Y-52444392D01*
X98290977Y-52330345D01*
X98290975Y-52330342D01*
X98144657Y-52184024D01*
X98017806Y-52099266D01*
X97972598Y-52069059D01*
X97853848Y-52019871D01*
X97781420Y-51989870D01*
X97781412Y-51989868D01*
X97578469Y-51949500D01*
X97578465Y-51949500D01*
X97371535Y-51949500D01*
X97371530Y-51949500D01*
X97237008Y-51976258D01*
X97167416Y-51970031D01*
X97125136Y-51942322D01*
X95039344Y-49856530D01*
X100304500Y-49856530D01*
X100304500Y-50063469D01*
X100344868Y-50266412D01*
X100344870Y-50266420D01*
X100424058Y-50457596D01*
X100539024Y-50629657D01*
X100685342Y-50775975D01*
X100685345Y-50775977D01*
X100857402Y-50890941D01*
X101048580Y-50970130D01*
X101251530Y-51010499D01*
X101251534Y-51010500D01*
X101251535Y-51010500D01*
X101458466Y-51010500D01*
X101458467Y-51010499D01*
X101661420Y-50970130D01*
X101852598Y-50890941D01*
X102024655Y-50775977D01*
X102170977Y-50629655D01*
X102285941Y-50457598D01*
X102365130Y-50266420D01*
X102405500Y-50063465D01*
X102405500Y-49856535D01*
X102365130Y-49653580D01*
X102285941Y-49462402D01*
X102170977Y-49290345D01*
X102170975Y-49290342D01*
X102024657Y-49144024D01*
X101923635Y-49076524D01*
X101852598Y-49029059D01*
X101805743Y-49009651D01*
X101661420Y-48949870D01*
X101661412Y-48949868D01*
X101458469Y-48909500D01*
X101458465Y-48909500D01*
X101251535Y-48909500D01*
X101251530Y-48909500D01*
X101048587Y-48949868D01*
X101048579Y-48949870D01*
X100857403Y-49029058D01*
X100685342Y-49144024D01*
X100539024Y-49290342D01*
X100424058Y-49462403D01*
X100344870Y-49653579D01*
X100344868Y-49653587D01*
X100304500Y-49856530D01*
X95039344Y-49856530D01*
X93079393Y-47896579D01*
X96425000Y-47896579D01*
X96425000Y-48103420D01*
X96465348Y-48306266D01*
X96465350Y-48306274D01*
X96544500Y-48497359D01*
X96576377Y-48545067D01*
X96576378Y-48545067D01*
X97075000Y-48046445D01*
X97075000Y-48052661D01*
X97102259Y-48154394D01*
X97154920Y-48245606D01*
X97229394Y-48320080D01*
X97320606Y-48372741D01*
X97422339Y-48400000D01*
X97428554Y-48400000D01*
X96929931Y-48898620D01*
X96929932Y-48898621D01*
X96977633Y-48930495D01*
X96977639Y-48930498D01*
X97168725Y-49009649D01*
X97168733Y-49009651D01*
X97371579Y-49049999D01*
X97371583Y-49050000D01*
X97578417Y-49050000D01*
X97578420Y-49049999D01*
X97781266Y-49009651D01*
X97781274Y-49009649D01*
X97972366Y-48930495D01*
X98020066Y-48898621D01*
X98020067Y-48898620D01*
X97521447Y-48400000D01*
X97527661Y-48400000D01*
X97629394Y-48372741D01*
X97720606Y-48320080D01*
X97795080Y-48245606D01*
X97847741Y-48154394D01*
X97875000Y-48052661D01*
X97875000Y-48046446D01*
X98373620Y-48545067D01*
X98373621Y-48545066D01*
X98405495Y-48497366D01*
X98484649Y-48306274D01*
X98484651Y-48306266D01*
X98524999Y-48103420D01*
X98525000Y-48103417D01*
X98525000Y-47896583D01*
X98524999Y-47896579D01*
X98484651Y-47693733D01*
X98484649Y-47693725D01*
X98405498Y-47502639D01*
X98405495Y-47502633D01*
X98373621Y-47454932D01*
X98373620Y-47454931D01*
X97875000Y-47953552D01*
X97875000Y-47947339D01*
X97847741Y-47845606D01*
X97795080Y-47754394D01*
X97720606Y-47679920D01*
X97629394Y-47627259D01*
X97527661Y-47600000D01*
X97521447Y-47600000D01*
X98020067Y-47101378D01*
X98020067Y-47101377D01*
X97972359Y-47069500D01*
X97781274Y-46990350D01*
X97781266Y-46990348D01*
X97578420Y-46950000D01*
X97371579Y-46950000D01*
X97168733Y-46990348D01*
X97168725Y-46990350D01*
X96977641Y-47069500D01*
X96977631Y-47069505D01*
X96929932Y-47101377D01*
X96929932Y-47101378D01*
X97428554Y-47600000D01*
X97422339Y-47600000D01*
X97320606Y-47627259D01*
X97229394Y-47679920D01*
X97154920Y-47754394D01*
X97102259Y-47845606D01*
X97075000Y-47947339D01*
X97075000Y-47953554D01*
X96576378Y-47454932D01*
X96576377Y-47454932D01*
X96544505Y-47502631D01*
X96544500Y-47502641D01*
X96465350Y-47693725D01*
X96465348Y-47693733D01*
X96425000Y-47896579D01*
X93079393Y-47896579D01*
X92024995Y-46842181D01*
X91991510Y-46780858D01*
X91996494Y-46711166D01*
X92038366Y-46655233D01*
X92103830Y-46630816D01*
X92112676Y-46630500D01*
X100387113Y-46630500D01*
X100454152Y-46650185D01*
G37*
%TD.AperFunction*%
%TA.AperFunction,Conductor*%
G36*
X129942539Y-35019685D02*
G01*
X129988294Y-35072489D01*
X129999500Y-35124000D01*
X129999500Y-62376000D01*
X129979815Y-62443039D01*
X129927011Y-62488794D01*
X129875500Y-62500000D01*
X80124500Y-62500000D01*
X80057461Y-62480315D01*
X80011706Y-62427511D01*
X80000500Y-62376000D01*
X80000500Y-56413389D01*
X99359500Y-56413389D01*
X99359500Y-56586611D01*
X99386598Y-56757701D01*
X99440127Y-56922445D01*
X99518768Y-57076788D01*
X99620586Y-57216928D01*
X99743072Y-57339414D01*
X99883212Y-57441232D01*
X100037555Y-57519873D01*
X100202299Y-57573402D01*
X100373389Y-57600500D01*
X100373390Y-57600500D01*
X100546610Y-57600500D01*
X100546611Y-57600500D01*
X100717701Y-57573402D01*
X100882445Y-57519873D01*
X101036788Y-57441232D01*
X101176928Y-57339414D01*
X101299414Y-57216928D01*
X101401232Y-57076788D01*
X101479873Y-56922445D01*
X101533402Y-56757701D01*
X101560500Y-56586611D01*
X101560500Y-56413389D01*
X101533402Y-56242299D01*
X101479873Y-56077555D01*
X101401232Y-55923212D01*
X101299414Y-55783072D01*
X101176928Y-55660586D01*
X101128390Y-55625321D01*
X101899500Y-55625321D01*
X101899500Y-57374678D01*
X101914032Y-57447735D01*
X101914033Y-57447739D01*
X101914034Y-57447740D01*
X101969399Y-57530601D01*
X102052260Y-57585966D01*
X102052264Y-57585967D01*
X102125321Y-57600499D01*
X102125324Y-57600500D01*
X102125326Y-57600500D01*
X103874676Y-57600500D01*
X103874677Y-57600499D01*
X103947740Y-57585966D01*
X104030601Y-57530601D01*
X104085966Y-57447740D01*
X104100500Y-57374674D01*
X104100500Y-56413389D01*
X105899500Y-56413389D01*
X105899500Y-56586611D01*
X105926598Y-56757701D01*
X105980127Y-56922445D01*
X106058768Y-57076788D01*
X106160586Y-57216928D01*
X106283072Y-57339414D01*
X106423212Y-57441232D01*
X106577555Y-57519873D01*
X106742299Y-57573402D01*
X106913389Y-57600500D01*
X106913390Y-57600500D01*
X107086610Y-57600500D01*
X107086611Y-57600500D01*
X107257701Y-57573402D01*
X107422445Y-57519873D01*
X107576788Y-57441232D01*
X107716928Y-57339414D01*
X107839414Y-57216928D01*
X107941232Y-57076788D01*
X108019873Y-56922445D01*
X108073402Y-56757701D01*
X108100500Y-56586611D01*
X108100500Y-56413389D01*
X108073402Y-56242299D01*
X108019873Y-56077555D01*
X107941232Y-55923212D01*
X107839414Y-55783072D01*
X107716928Y-55660586D01*
X107668390Y-55625321D01*
X108439500Y-55625321D01*
X108439500Y-57374678D01*
X108454032Y-57447735D01*
X108454033Y-57447739D01*
X108454034Y-57447740D01*
X108509399Y-57530601D01*
X108592260Y-57585966D01*
X108592264Y-57585967D01*
X108665321Y-57600499D01*
X108665324Y-57600500D01*
X108665326Y-57600500D01*
X110414676Y-57600500D01*
X110414677Y-57600499D01*
X110487740Y-57585966D01*
X110570601Y-57530601D01*
X110625966Y-57447740D01*
X110640500Y-57374674D01*
X110640500Y-55625326D01*
X110640500Y-55625323D01*
X110640499Y-55625321D01*
X110625967Y-55552264D01*
X110625966Y-55552260D01*
X110570601Y-55469399D01*
X110487740Y-55414034D01*
X110487739Y-55414033D01*
X110487735Y-55414032D01*
X110414677Y-55399500D01*
X110414674Y-55399500D01*
X108665326Y-55399500D01*
X108665323Y-55399500D01*
X108592264Y-55414032D01*
X108592260Y-55414033D01*
X108509399Y-55469399D01*
X108454033Y-55552260D01*
X108454032Y-55552264D01*
X108439500Y-55625321D01*
X107668390Y-55625321D01*
X107576788Y-55558768D01*
X107422445Y-55480127D01*
X107257701Y-55426598D01*
X107257699Y-55426597D01*
X107257698Y-55426597D01*
X107126271Y-55405781D01*
X107086611Y-55399500D01*
X106913389Y-55399500D01*
X106873728Y-55405781D01*
X106742302Y-55426597D01*
X106577552Y-55480128D01*
X106423211Y-55558768D01*
X106343256Y-55616859D01*
X106283072Y-55660586D01*
X106283070Y-55660588D01*
X106283069Y-55660588D01*
X106160588Y-55783069D01*
X106160588Y-55783070D01*
X106160586Y-55783072D01*
X106116859Y-55843256D01*
X106058768Y-55923211D01*
X105980128Y-56077552D01*
X105926597Y-56242302D01*
X105901542Y-56400497D01*
X105899500Y-56413389D01*
X104100500Y-56413389D01*
X104100500Y-55625326D01*
X104100500Y-55625323D01*
X104100499Y-55625321D01*
X104085967Y-55552264D01*
X104085966Y-55552260D01*
X104030601Y-55469399D01*
X103947740Y-55414034D01*
X103947739Y-55414033D01*
X103947735Y-55414032D01*
X103874677Y-55399500D01*
X103874674Y-55399500D01*
X102125326Y-55399500D01*
X102125323Y-55399500D01*
X102052264Y-55414032D01*
X102052260Y-55414033D01*
X101969399Y-55469399D01*
X101914033Y-55552260D01*
X101914032Y-55552264D01*
X101899500Y-55625321D01*
X101128390Y-55625321D01*
X101036788Y-55558768D01*
X100882445Y-55480127D01*
X100717701Y-55426598D01*
X100717699Y-55426597D01*
X100717698Y-55426597D01*
X100586271Y-55405781D01*
X100546611Y-55399500D01*
X100373389Y-55399500D01*
X100333728Y-55405781D01*
X100202302Y-55426597D01*
X100037552Y-55480128D01*
X99883211Y-55558768D01*
X99803256Y-55616859D01*
X99743072Y-55660586D01*
X99743070Y-55660588D01*
X99743069Y-55660588D01*
X99620588Y-55783069D01*
X99620588Y-55783070D01*
X99620586Y-55783072D01*
X99576859Y-55843256D01*
X99518768Y-55923211D01*
X99440128Y-56077552D01*
X99386597Y-56242302D01*
X99361542Y-56400497D01*
X99359500Y-56413389D01*
X80000500Y-56413389D01*
X80000500Y-48249999D01*
X83050884Y-48249999D01*
X83050885Y-48250000D01*
X83845854Y-48250000D01*
X83807370Y-48316657D01*
X83775000Y-48437465D01*
X83775000Y-48562535D01*
X83807370Y-48683343D01*
X83845854Y-48750000D01*
X83050885Y-48750000D01*
X83052085Y-48757584D01*
X83105591Y-48922255D01*
X83184195Y-49076524D01*
X83285967Y-49216602D01*
X83408397Y-49339032D01*
X83548475Y-49440804D01*
X83702744Y-49519408D01*
X83867415Y-49572913D01*
X84000000Y-49593913D01*
X84000000Y-48904145D01*
X84066657Y-48942630D01*
X84187465Y-48975000D01*
X84312535Y-48975000D01*
X84433343Y-48942630D01*
X84500000Y-48904145D01*
X84500000Y-49593912D01*
X84632584Y-49572913D01*
X84797255Y-49519408D01*
X84951524Y-49440804D01*
X85091602Y-49339032D01*
X85214032Y-49216602D01*
X85315804Y-49076524D01*
X85394408Y-48922255D01*
X85447914Y-48757584D01*
X85449115Y-48750000D01*
X84654146Y-48750000D01*
X84692630Y-48683343D01*
X84725000Y-48562535D01*
X84725000Y-48437465D01*
X84692630Y-48316657D01*
X84654146Y-48250000D01*
X85449115Y-48250000D01*
X85449115Y-48249999D01*
X85447914Y-48242415D01*
X85394408Y-48077744D01*
X85315804Y-47923475D01*
X85214032Y-47783397D01*
X85091602Y-47660967D01*
X84951524Y-47559195D01*
X84797257Y-47480591D01*
X84632585Y-47427086D01*
X84500000Y-47406086D01*
X84500000Y-48095854D01*
X84433343Y-48057370D01*
X84312535Y-48025000D01*
X84187465Y-48025000D01*
X84066657Y-48057370D01*
X84000000Y-48095854D01*
X84000000Y-47406086D01*
X83867414Y-47427086D01*
X83702742Y-47480591D01*
X83548475Y-47559195D01*
X83408397Y-47660967D01*
X83285967Y-47783397D01*
X83184195Y-47923475D01*
X83105591Y-48077744D01*
X83052085Y-48242415D01*
X83050884Y-48249999D01*
X80000500Y-48249999D01*
X80000500Y-45352135D01*
X83024500Y-45352135D01*
X83024500Y-46647870D01*
X83024501Y-46647876D01*
X83030908Y-46707483D01*
X83081202Y-46842328D01*
X83081206Y-46842335D01*
X83167452Y-46957544D01*
X83167455Y-46957547D01*
X83282664Y-47043793D01*
X83282671Y-47043797D01*
X83417517Y-47094091D01*
X83417516Y-47094091D01*
X83424444Y-47094835D01*
X83477127Y-47100500D01*
X85022872Y-47100499D01*
X85082483Y-47094091D01*
X85217331Y-47043796D01*
X85332546Y-46957546D01*
X85418796Y-46842331D01*
X85469091Y-46707483D01*
X85475500Y-46647873D01*
X85475500Y-46624500D01*
X85495185Y-46557461D01*
X85547989Y-46511706D01*
X85599500Y-46500500D01*
X90216324Y-46500500D01*
X90283363Y-46520185D01*
X90304005Y-46536819D01*
X96417322Y-52650136D01*
X96450807Y-52711459D01*
X96451258Y-52762008D01*
X96424500Y-52896530D01*
X96424500Y-53103469D01*
X96464868Y-53306412D01*
X96464870Y-53306420D01*
X96544058Y-53497596D01*
X96583489Y-53556610D01*
X96604366Y-53623288D01*
X96585881Y-53690668D01*
X96533901Y-53737357D01*
X96480386Y-53749500D01*
X87758676Y-53749500D01*
X87691637Y-53729815D01*
X87670995Y-53713181D01*
X85445020Y-51487206D01*
X85411535Y-51425883D01*
X85414769Y-51361209D01*
X85448402Y-51257701D01*
X85475500Y-51086611D01*
X85475500Y-50913389D01*
X85448402Y-50742299D01*
X85394873Y-50577555D01*
X85316232Y-50423212D01*
X85214414Y-50283072D01*
X85091928Y-50160586D01*
X84951788Y-50058768D01*
X84797445Y-49980127D01*
X84632701Y-49926598D01*
X84632699Y-49926597D01*
X84632698Y-49926597D01*
X84501271Y-49905781D01*
X84461611Y-49899500D01*
X84038389Y-49899500D01*
X83998728Y-49905781D01*
X83867302Y-49926597D01*
X83702552Y-49980128D01*
X83548211Y-50058768D01*
X83529976Y-50072017D01*
X83408072Y-50160586D01*
X83408070Y-50160588D01*
X83408069Y-50160588D01*
X83285588Y-50283069D01*
X83285588Y-50283070D01*
X83285586Y-50283072D01*
X83241859Y-50343256D01*
X83183768Y-50423211D01*
X83105128Y-50577552D01*
X83051597Y-50742302D01*
X83024500Y-50913389D01*
X83024500Y-51086610D01*
X83051597Y-51257697D01*
X83051597Y-51257699D01*
X83051598Y-51257701D01*
X83105127Y-51422445D01*
X83183768Y-51576788D01*
X83285586Y-51716928D01*
X83408072Y-51839414D01*
X83548212Y-51941232D01*
X83702555Y-52019873D01*
X83867299Y-52073402D01*
X84038389Y-52100500D01*
X84038390Y-52100500D01*
X84461610Y-52100500D01*
X84461611Y-52100500D01*
X84555524Y-52085625D01*
X84560949Y-52086326D01*
X84566076Y-52084414D01*
X84595226Y-52090755D01*
X84624817Y-52094579D01*
X84630422Y-52098411D01*
X84634349Y-52099266D01*
X84662602Y-52120416D01*
X84765324Y-52223138D01*
X84798809Y-52284461D01*
X84793825Y-52354153D01*
X84751953Y-52410086D01*
X84686489Y-52434503D01*
X84639331Y-52428752D01*
X84632699Y-52426597D01*
X84493807Y-52404599D01*
X84461611Y-52399500D01*
X84038389Y-52399500D01*
X83998728Y-52405781D01*
X83867302Y-52426597D01*
X83702552Y-52480128D01*
X83548211Y-52558768D01*
X83468256Y-52616859D01*
X83408072Y-52660586D01*
X83408070Y-52660588D01*
X83408069Y-52660588D01*
X83285588Y-52783069D01*
X83285588Y-52783070D01*
X83285586Y-52783072D01*
X83268627Y-52806414D01*
X83183768Y-52923211D01*
X83105128Y-53077552D01*
X83105127Y-53077554D01*
X83105127Y-53077555D01*
X83090347Y-53123044D01*
X83051597Y-53242302D01*
X83030205Y-53377366D01*
X83024500Y-53413389D01*
X83024500Y-53586611D01*
X83027864Y-53607853D01*
X83050046Y-53747906D01*
X83051598Y-53757701D01*
X83105127Y-53922445D01*
X83183768Y-54076788D01*
X83285586Y-54216928D01*
X83408072Y-54339414D01*
X83548212Y-54441232D01*
X83702555Y-54519873D01*
X83867299Y-54573402D01*
X84038389Y-54600500D01*
X84038390Y-54600500D01*
X84461610Y-54600500D01*
X84461611Y-54600500D01*
X84632701Y-54573402D01*
X84797445Y-54519873D01*
X84951788Y-54441232D01*
X85091928Y-54339414D01*
X85214414Y-54216928D01*
X85316232Y-54076788D01*
X85394873Y-53922445D01*
X85448402Y-53757701D01*
X85475500Y-53586611D01*
X85475500Y-53413389D01*
X85448402Y-53242299D01*
X85446248Y-53235672D01*
X85444254Y-53165833D01*
X85480334Y-53106000D01*
X85543035Y-53075172D01*
X85612449Y-53083136D01*
X85651861Y-53109675D01*
X87192686Y-54650500D01*
X87306814Y-54716392D01*
X87434107Y-54750500D01*
X87434108Y-54750500D01*
X105391341Y-54750500D01*
X105523125Y-54750500D01*
X110430663Y-54750500D01*
X110497702Y-54770185D01*
X110518344Y-54786819D01*
X112038839Y-56307314D01*
X112132025Y-56400500D01*
X112246153Y-56466392D01*
X112373447Y-56500500D01*
X112373449Y-56500500D01*
X121815890Y-56500500D01*
X121815892Y-56500500D01*
X121943186Y-56466392D01*
X122057314Y-56400500D01*
X125348141Y-53109671D01*
X125409462Y-53076188D01*
X125479154Y-53081172D01*
X125535087Y-53123044D01*
X125559504Y-53188508D01*
X125553753Y-53235666D01*
X125551597Y-53242299D01*
X125551597Y-53242301D01*
X125530205Y-53377366D01*
X125524500Y-53413389D01*
X125524500Y-53586611D01*
X125527864Y-53607853D01*
X125550046Y-53747906D01*
X125551598Y-53757701D01*
X125605127Y-53922445D01*
X125683768Y-54076788D01*
X125785586Y-54216928D01*
X125908072Y-54339414D01*
X126048212Y-54441232D01*
X126202555Y-54519873D01*
X126367299Y-54573402D01*
X126538389Y-54600500D01*
X126538390Y-54600500D01*
X126961610Y-54600500D01*
X126961611Y-54600500D01*
X127132701Y-54573402D01*
X127297445Y-54519873D01*
X127451788Y-54441232D01*
X127591928Y-54339414D01*
X127714414Y-54216928D01*
X127816232Y-54076788D01*
X127894873Y-53922445D01*
X127948402Y-53757701D01*
X127975500Y-53586611D01*
X127975500Y-53413389D01*
X127948402Y-53242299D01*
X127894873Y-53077555D01*
X127816232Y-52923212D01*
X127714414Y-52783072D01*
X127591928Y-52660586D01*
X127451788Y-52558768D01*
X127297445Y-52480127D01*
X127132701Y-52426598D01*
X127132699Y-52426597D01*
X127132698Y-52426597D01*
X127001271Y-52405781D01*
X126961611Y-52399500D01*
X126538389Y-52399500D01*
X126506192Y-52404599D01*
X126367301Y-52426597D01*
X126367299Y-52426597D01*
X126360666Y-52428753D01*
X126354300Y-52428934D01*
X126348712Y-52431986D01*
X126319802Y-52429918D01*
X126290825Y-52430745D01*
X126285371Y-52427456D01*
X126279020Y-52427002D01*
X126255815Y-52409630D01*
X126230994Y-52394661D01*
X126228184Y-52388945D01*
X126223087Y-52385130D01*
X126212958Y-52357973D01*
X126200169Y-52331959D01*
X126200895Y-52325632D01*
X126198670Y-52319666D01*
X126204831Y-52291343D01*
X126208137Y-52262545D01*
X126212508Y-52256053D01*
X126213522Y-52251393D01*
X126234669Y-52223143D01*
X126337398Y-52120414D01*
X126398719Y-52086931D01*
X126444469Y-52085624D01*
X126538389Y-52100500D01*
X126538391Y-52100500D01*
X126961610Y-52100500D01*
X126961611Y-52100500D01*
X127132701Y-52073402D01*
X127297445Y-52019873D01*
X127451788Y-51941232D01*
X127591928Y-51839414D01*
X127714414Y-51716928D01*
X127816232Y-51576788D01*
X127894873Y-51422445D01*
X127948402Y-51257701D01*
X127975500Y-51086611D01*
X127975500Y-50913389D01*
X127948402Y-50742299D01*
X127894873Y-50577555D01*
X127816232Y-50423212D01*
X127714414Y-50283072D01*
X127591928Y-50160586D01*
X127451788Y-50058768D01*
X127297445Y-49980127D01*
X127132701Y-49926598D01*
X127132699Y-49926597D01*
X127132698Y-49926597D01*
X127001271Y-49905781D01*
X126961611Y-49899500D01*
X126538389Y-49899500D01*
X126498728Y-49905781D01*
X126367302Y-49926597D01*
X126202552Y-49980128D01*
X126048211Y-50058768D01*
X126029976Y-50072017D01*
X125908072Y-50160586D01*
X125908070Y-50160588D01*
X125908069Y-50160588D01*
X125785588Y-50283069D01*
X125785588Y-50283070D01*
X125785586Y-50283072D01*
X125741859Y-50343256D01*
X125683768Y-50423211D01*
X125605128Y-50577552D01*
X125551597Y-50742302D01*
X125524500Y-50913389D01*
X125524500Y-51086610D01*
X125551597Y-51257698D01*
X125585229Y-51361206D01*
X125587224Y-51431047D01*
X125554979Y-51487205D01*
X121579005Y-55463181D01*
X121517682Y-55496666D01*
X121491324Y-55499500D01*
X112698015Y-55499500D01*
X112630976Y-55479815D01*
X112610334Y-55463181D01*
X110996655Y-53849502D01*
X110996653Y-53849500D01*
X110926324Y-53808895D01*
X110882526Y-53783608D01*
X110818878Y-53766554D01*
X110755231Y-53749500D01*
X110755230Y-53749500D01*
X109326919Y-53749500D01*
X109259880Y-53729815D01*
X109214125Y-53677011D01*
X109204181Y-53607853D01*
X109233206Y-53544297D01*
X109279466Y-53510939D01*
X109281418Y-53510130D01*
X109281420Y-53510130D01*
X109472598Y-53430941D01*
X109644655Y-53315977D01*
X109790977Y-53169655D01*
X109905941Y-52997598D01*
X109985130Y-52806420D01*
X109991066Y-52776579D01*
X111925000Y-52776579D01*
X111925000Y-52983420D01*
X111965348Y-53186266D01*
X111965350Y-53186274D01*
X112044500Y-53377359D01*
X112076377Y-53425067D01*
X112076378Y-53425067D01*
X112575000Y-52926445D01*
X112575000Y-52932661D01*
X112602259Y-53034394D01*
X112654920Y-53125606D01*
X112729394Y-53200080D01*
X112820606Y-53252741D01*
X112922339Y-53280000D01*
X112928554Y-53280000D01*
X112429931Y-53778620D01*
X112429932Y-53778621D01*
X112477633Y-53810495D01*
X112477639Y-53810498D01*
X112668725Y-53889649D01*
X112668733Y-53889651D01*
X112871579Y-53929999D01*
X112871583Y-53930000D01*
X113078417Y-53930000D01*
X113078420Y-53929999D01*
X113281266Y-53889651D01*
X113281274Y-53889649D01*
X113472366Y-53810495D01*
X113520066Y-53778621D01*
X113520067Y-53778620D01*
X113021447Y-53280000D01*
X113027661Y-53280000D01*
X113129394Y-53252741D01*
X113220606Y-53200080D01*
X113295080Y-53125606D01*
X113347741Y-53034394D01*
X113375000Y-52932661D01*
X113375000Y-52926446D01*
X113873620Y-53425067D01*
X113873621Y-53425066D01*
X113905495Y-53377366D01*
X113984649Y-53186274D01*
X113984651Y-53186266D01*
X114024999Y-52983420D01*
X114025000Y-52983417D01*
X114025000Y-52776583D01*
X114024999Y-52776579D01*
X113984651Y-52573733D01*
X113984649Y-52573725D01*
X113905498Y-52382639D01*
X113905495Y-52382633D01*
X113873621Y-52334932D01*
X113873620Y-52334931D01*
X113375000Y-52833552D01*
X113375000Y-52827339D01*
X113347741Y-52725606D01*
X113295080Y-52634394D01*
X113220606Y-52559920D01*
X113129394Y-52507259D01*
X113027661Y-52480000D01*
X113021447Y-52480000D01*
X113520067Y-51981378D01*
X113520067Y-51981377D01*
X113472359Y-51949500D01*
X113472358Y-51949500D01*
X113281274Y-51870350D01*
X113281266Y-51870348D01*
X113078420Y-51830000D01*
X112871579Y-51830000D01*
X112668733Y-51870348D01*
X112668725Y-51870350D01*
X112477641Y-51949500D01*
X112477631Y-51949505D01*
X112429932Y-51981377D01*
X112429932Y-51981378D01*
X112928554Y-52480000D01*
X112922339Y-52480000D01*
X112820606Y-52507259D01*
X112729394Y-52559920D01*
X112654920Y-52634394D01*
X112602259Y-52725606D01*
X112575000Y-52827339D01*
X112575000Y-52833554D01*
X112076378Y-52334932D01*
X112076377Y-52334932D01*
X112044505Y-52382631D01*
X112044500Y-52382641D01*
X111965350Y-52573725D01*
X111965348Y-52573733D01*
X111925000Y-52776579D01*
X109991066Y-52776579D01*
X109993964Y-52762008D01*
X109997089Y-52746301D01*
X110025499Y-52603469D01*
X110025500Y-52603466D01*
X110025500Y-52396534D01*
X110025499Y-52396530D01*
X110012333Y-52330342D01*
X109985130Y-52193580D01*
X109946064Y-52099266D01*
X109936030Y-52075042D01*
X109905940Y-52002400D01*
X109905940Y-52002399D01*
X109811593Y-51861198D01*
X109790715Y-51794521D01*
X109809200Y-51727141D01*
X109852695Y-51684921D01*
X109854249Y-51684024D01*
X109912314Y-51650500D01*
X111050288Y-50512525D01*
X112699500Y-50512525D01*
X112699500Y-50657475D01*
X112731253Y-50775977D01*
X112737017Y-50797488D01*
X112809488Y-50923011D01*
X112809490Y-50923013D01*
X112809491Y-50923015D01*
X112911985Y-51025509D01*
X112911986Y-51025510D01*
X112911988Y-51025511D01*
X113037511Y-51097982D01*
X113037512Y-51097982D01*
X113037515Y-51097984D01*
X113177525Y-51135500D01*
X113177528Y-51135500D01*
X113322472Y-51135500D01*
X113322475Y-51135500D01*
X113462485Y-51097984D01*
X113588015Y-51025509D01*
X113690509Y-50923015D01*
X113762984Y-50797485D01*
X113800500Y-50657475D01*
X113800500Y-50616899D01*
X113820185Y-50549860D01*
X113836819Y-50529218D01*
X114444218Y-49921819D01*
X114505541Y-49888334D01*
X114531899Y-49885500D01*
X114572472Y-49885500D01*
X114572475Y-49885500D01*
X114712485Y-49847984D01*
X114838015Y-49775509D01*
X114940509Y-49673015D01*
X115012984Y-49547485D01*
X115050500Y-49407475D01*
X115050500Y-49262525D01*
X115012984Y-49122515D01*
X114971117Y-49050000D01*
X114940511Y-48996988D01*
X114940506Y-48996982D01*
X114838017Y-48894493D01*
X114838015Y-48894491D01*
X114712485Y-48822016D01*
X114572475Y-48784500D01*
X114427525Y-48784500D01*
X114298993Y-48818940D01*
X114287511Y-48822017D01*
X114161988Y-48894488D01*
X114161982Y-48894493D01*
X114059493Y-48996982D01*
X114059488Y-48996988D01*
X113987017Y-49122511D01*
X113987016Y-49122515D01*
X113949500Y-49262525D01*
X113949500Y-49262527D01*
X113949500Y-49303101D01*
X113929815Y-49370140D01*
X113913181Y-49390782D01*
X113305782Y-49998181D01*
X113244459Y-50031666D01*
X113218101Y-50034500D01*
X113177525Y-50034500D01*
X113048993Y-50068940D01*
X113037511Y-50072017D01*
X112911988Y-50144488D01*
X112911982Y-50144493D01*
X112809493Y-50246982D01*
X112809488Y-50246988D01*
X112737017Y-50372511D01*
X112737016Y-50372515D01*
X112699500Y-50512525D01*
X111050288Y-50512525D01*
X112625138Y-48937674D01*
X112686459Y-48904191D01*
X112737005Y-48903740D01*
X112847127Y-48925644D01*
X112871534Y-48930500D01*
X112871535Y-48930500D01*
X113078466Y-48930500D01*
X113078467Y-48930499D01*
X113281420Y-48890130D01*
X113472598Y-48810941D01*
X113644655Y-48695977D01*
X113790977Y-48549655D01*
X113905941Y-48377598D01*
X113915901Y-48353554D01*
X113958795Y-48249999D01*
X125550884Y-48249999D01*
X125550885Y-48250000D01*
X126345854Y-48250000D01*
X126307370Y-48316657D01*
X126275000Y-48437465D01*
X126275000Y-48562535D01*
X126307370Y-48683343D01*
X126345854Y-48750000D01*
X125550885Y-48750000D01*
X125552085Y-48757584D01*
X125605591Y-48922255D01*
X125684195Y-49076524D01*
X125785967Y-49216602D01*
X125908397Y-49339032D01*
X126048475Y-49440804D01*
X126202744Y-49519408D01*
X126367415Y-49572913D01*
X126500000Y-49593913D01*
X126500000Y-48904145D01*
X126566657Y-48942630D01*
X126687465Y-48975000D01*
X126812535Y-48975000D01*
X126933343Y-48942630D01*
X127000000Y-48904145D01*
X127000000Y-49593912D01*
X127132584Y-49572913D01*
X127297255Y-49519408D01*
X127451524Y-49440804D01*
X127591602Y-49339032D01*
X127714032Y-49216602D01*
X127815804Y-49076524D01*
X127894408Y-48922255D01*
X127947914Y-48757584D01*
X127949115Y-48750000D01*
X127154146Y-48750000D01*
X127192630Y-48683343D01*
X127225000Y-48562535D01*
X127225000Y-48437465D01*
X127192630Y-48316657D01*
X127154146Y-48250000D01*
X127949115Y-48250000D01*
X127949115Y-48249999D01*
X127947914Y-48242415D01*
X127894408Y-48077744D01*
X127815804Y-47923475D01*
X127714032Y-47783397D01*
X127591602Y-47660967D01*
X127451524Y-47559195D01*
X127297257Y-47480591D01*
X127132585Y-47427086D01*
X127000000Y-47406086D01*
X127000000Y-48095854D01*
X126933343Y-48057370D01*
X126812535Y-48025000D01*
X126687465Y-48025000D01*
X126566657Y-48057370D01*
X126500000Y-48095854D01*
X126500000Y-47406086D01*
X126367414Y-47427086D01*
X126202742Y-47480591D01*
X126048475Y-47559195D01*
X125908397Y-47660967D01*
X125785967Y-47783397D01*
X125684195Y-47923475D01*
X125605591Y-48077744D01*
X125552085Y-48242415D01*
X125550884Y-48249999D01*
X113958795Y-48249999D01*
X113963097Y-48239612D01*
X113964603Y-48235977D01*
X113985130Y-48186420D01*
X114025500Y-47983465D01*
X114025500Y-47776535D01*
X113985130Y-47573580D01*
X113905941Y-47382402D01*
X113790977Y-47210345D01*
X113790975Y-47210342D01*
X113644657Y-47064024D01*
X113485301Y-46957547D01*
X113472598Y-46949059D01*
X113281420Y-46869870D01*
X113281418Y-46869869D01*
X113279466Y-46869061D01*
X113225063Y-46825220D01*
X113202998Y-46758926D01*
X113220277Y-46691227D01*
X113271414Y-46643616D01*
X113326919Y-46630500D01*
X125416101Y-46630500D01*
X125483140Y-46650185D01*
X125528895Y-46702989D01*
X125532283Y-46711167D01*
X125581202Y-46842328D01*
X125581206Y-46842335D01*
X125667452Y-46957544D01*
X125667455Y-46957547D01*
X125782664Y-47043793D01*
X125782671Y-47043797D01*
X125917517Y-47094091D01*
X125917516Y-47094091D01*
X125924444Y-47094835D01*
X125977127Y-47100500D01*
X127522872Y-47100499D01*
X127582483Y-47094091D01*
X127717331Y-47043796D01*
X127832546Y-46957546D01*
X127918796Y-46842331D01*
X127969091Y-46707483D01*
X127975500Y-46647873D01*
X127975499Y-45352128D01*
X127969091Y-45292517D01*
X127929519Y-45186420D01*
X127918797Y-45157671D01*
X127918793Y-45157664D01*
X127832547Y-45042455D01*
X127832544Y-45042452D01*
X127717335Y-44956206D01*
X127717328Y-44956202D01*
X127582482Y-44905908D01*
X127582483Y-44905908D01*
X127522883Y-44899501D01*
X127522881Y-44899500D01*
X127522873Y-44899500D01*
X127522864Y-44899500D01*
X125977129Y-44899500D01*
X125977123Y-44899501D01*
X125917516Y-44905908D01*
X125782671Y-44956202D01*
X125782664Y-44956206D01*
X125667455Y-45042452D01*
X125667452Y-45042455D01*
X125581206Y-45157664D01*
X125581202Y-45157671D01*
X125530908Y-45292517D01*
X125524501Y-45352116D01*
X125524501Y-45352123D01*
X125524500Y-45352135D01*
X125524500Y-45505500D01*
X125504815Y-45572539D01*
X125452011Y-45618294D01*
X125400500Y-45629500D01*
X109969614Y-45629500D01*
X109902575Y-45609815D01*
X109856820Y-45557011D01*
X109846876Y-45487853D01*
X109866511Y-45436610D01*
X109873327Y-45426407D01*
X109905941Y-45377598D01*
X109985130Y-45186420D01*
X110025500Y-44983465D01*
X110025500Y-44776535D01*
X109985130Y-44573580D01*
X109905941Y-44382402D01*
X109790977Y-44210345D01*
X109790975Y-44210342D01*
X109644658Y-44064025D01*
X109644650Y-44064019D01*
X109539252Y-43993594D01*
X109539178Y-43993546D01*
X109507608Y-43972452D01*
X109472598Y-43949059D01*
X109345910Y-43896583D01*
X109345782Y-43896530D01*
X111424500Y-43896530D01*
X111424500Y-44103469D01*
X111464868Y-44306412D01*
X111464870Y-44306420D01*
X111544058Y-44497596D01*
X111659024Y-44669657D01*
X111805342Y-44815975D01*
X111805345Y-44815977D01*
X111977402Y-44930941D01*
X112168580Y-45010130D01*
X112331075Y-45042452D01*
X112371530Y-45050499D01*
X112371534Y-45050500D01*
X112371535Y-45050500D01*
X112578466Y-45050500D01*
X112578467Y-45050499D01*
X112781420Y-45010130D01*
X112972598Y-44930941D01*
X113144655Y-44815977D01*
X113144658Y-44815974D01*
X113195905Y-44764728D01*
X113290974Y-44669658D01*
X113290975Y-44669657D01*
X113290977Y-44669655D01*
X113405941Y-44497598D01*
X113485130Y-44306420D01*
X113525500Y-44103465D01*
X113525500Y-43896579D01*
X116425000Y-43896579D01*
X116425000Y-44103420D01*
X116465348Y-44306266D01*
X116465350Y-44306274D01*
X116544500Y-44497359D01*
X116576377Y-44545067D01*
X116576378Y-44545067D01*
X117075000Y-44046445D01*
X117075000Y-44052661D01*
X117102259Y-44154394D01*
X117154920Y-44245606D01*
X117229394Y-44320080D01*
X117320606Y-44372741D01*
X117422339Y-44400000D01*
X117428554Y-44400000D01*
X116929931Y-44898620D01*
X116929932Y-44898621D01*
X116977633Y-44930495D01*
X116977639Y-44930498D01*
X117168725Y-45009649D01*
X117168733Y-45009651D01*
X117371579Y-45049999D01*
X117371583Y-45050000D01*
X117578417Y-45050000D01*
X117578420Y-45049999D01*
X117781266Y-45009651D01*
X117781274Y-45009649D01*
X117972366Y-44930495D01*
X118020066Y-44898621D01*
X118020067Y-44898620D01*
X117521447Y-44400000D01*
X117527661Y-44400000D01*
X117629394Y-44372741D01*
X117720606Y-44320080D01*
X117795080Y-44245606D01*
X117847741Y-44154394D01*
X117875000Y-44052661D01*
X117875000Y-44046447D01*
X118373620Y-44545067D01*
X118373621Y-44545066D01*
X118405495Y-44497366D01*
X118484649Y-44306274D01*
X118484651Y-44306266D01*
X118524999Y-44103420D01*
X118525000Y-44103417D01*
X118525000Y-43896583D01*
X118524999Y-43896579D01*
X118484651Y-43693733D01*
X118484649Y-43693725D01*
X118405498Y-43502639D01*
X118405495Y-43502633D01*
X118373621Y-43454932D01*
X118373620Y-43454931D01*
X117875000Y-43953552D01*
X117875000Y-43947339D01*
X117847741Y-43845606D01*
X117795080Y-43754394D01*
X117720606Y-43679920D01*
X117629394Y-43627259D01*
X117527661Y-43600000D01*
X117521447Y-43600000D01*
X118020067Y-43101378D01*
X118020067Y-43101377D01*
X117972359Y-43069500D01*
X117781274Y-42990350D01*
X117781266Y-42990348D01*
X117578420Y-42950000D01*
X117371579Y-42950000D01*
X117168733Y-42990348D01*
X117168725Y-42990350D01*
X116977641Y-43069500D01*
X116977631Y-43069505D01*
X116929932Y-43101377D01*
X116929932Y-43101378D01*
X117428554Y-43600000D01*
X117422339Y-43600000D01*
X117320606Y-43627259D01*
X117229394Y-43679920D01*
X117154920Y-43754394D01*
X117102259Y-43845606D01*
X117075000Y-43947339D01*
X117075000Y-43953554D01*
X116576378Y-43454932D01*
X116576377Y-43454932D01*
X116544505Y-43502631D01*
X116544500Y-43502641D01*
X116465350Y-43693725D01*
X116465348Y-43693733D01*
X116425000Y-43896579D01*
X113525500Y-43896579D01*
X113525500Y-43896535D01*
X113485130Y-43693580D01*
X113405941Y-43502402D01*
X113290977Y-43330345D01*
X113290975Y-43330342D01*
X113144657Y-43184024D01*
X113020967Y-43101378D01*
X112972598Y-43069059D01*
X112781420Y-42989870D01*
X112781412Y-42989868D01*
X112578469Y-42949500D01*
X112578465Y-42949500D01*
X112371535Y-42949500D01*
X112371530Y-42949500D01*
X112168587Y-42989868D01*
X112168579Y-42989870D01*
X111977403Y-43069058D01*
X111805342Y-43184024D01*
X111659024Y-43330342D01*
X111544058Y-43502403D01*
X111464870Y-43693579D01*
X111464868Y-43693587D01*
X111424500Y-43896530D01*
X109345782Y-43896530D01*
X109281420Y-43869870D01*
X109281412Y-43869868D01*
X109078469Y-43829500D01*
X109078465Y-43829500D01*
X108871535Y-43829500D01*
X108871530Y-43829500D01*
X108668587Y-43869868D01*
X108668579Y-43869870D01*
X108477403Y-43949058D01*
X108305342Y-44064024D01*
X108159024Y-44210342D01*
X108044058Y-44382403D01*
X107964870Y-44573579D01*
X107964868Y-44573587D01*
X107924500Y-44776530D01*
X107924500Y-44983469D01*
X107964868Y-45186412D01*
X107964870Y-45186420D01*
X108044058Y-45377596D01*
X108083489Y-45436610D01*
X108104366Y-45503288D01*
X108085881Y-45570668D01*
X108033901Y-45617357D01*
X107980386Y-45629500D01*
X102527244Y-45629500D01*
X102460205Y-45609815D01*
X102414450Y-45557011D01*
X102403954Y-45492247D01*
X102405500Y-45477873D01*
X102405499Y-44282128D01*
X102399091Y-44222517D01*
X102394551Y-44210345D01*
X102348797Y-44087671D01*
X102348793Y-44087664D01*
X102262547Y-43972455D01*
X102262544Y-43972452D01*
X102147335Y-43886206D01*
X102147328Y-43886202D01*
X102012482Y-43835908D01*
X102012483Y-43835908D01*
X101952883Y-43829501D01*
X101952881Y-43829500D01*
X101952873Y-43829500D01*
X101952864Y-43829500D01*
X100757129Y-43829500D01*
X100757123Y-43829501D01*
X100697516Y-43835908D01*
X100562671Y-43886202D01*
X100562664Y-43886206D01*
X100447455Y-43972452D01*
X100447452Y-43972455D01*
X100361206Y-44087664D01*
X100361202Y-44087671D01*
X100310908Y-44222517D01*
X100304501Y-44282116D01*
X100304501Y-44282123D01*
X100304500Y-44282135D01*
X100304500Y-45477870D01*
X100304501Y-45477879D01*
X100306046Y-45492248D01*
X100293639Y-45561007D01*
X100246027Y-45612143D01*
X100182756Y-45629500D01*
X90863503Y-45629500D01*
X90796464Y-45609815D01*
X90788017Y-45603876D01*
X90782317Y-45599502D01*
X90668187Y-45533608D01*
X90604539Y-45516554D01*
X90540892Y-45499500D01*
X90540891Y-45499500D01*
X85599499Y-45499500D01*
X85532460Y-45479815D01*
X85486705Y-45427011D01*
X85475499Y-45375500D01*
X85475499Y-45352129D01*
X85475498Y-45352123D01*
X85475497Y-45352116D01*
X85469091Y-45292517D01*
X85429519Y-45186420D01*
X85418797Y-45157671D01*
X85418793Y-45157664D01*
X85332547Y-45042455D01*
X85332544Y-45042452D01*
X85217335Y-44956206D01*
X85217328Y-44956202D01*
X85082482Y-44905908D01*
X85082483Y-44905908D01*
X85022883Y-44899501D01*
X85022881Y-44899500D01*
X85022873Y-44899500D01*
X85022864Y-44899500D01*
X83477129Y-44899500D01*
X83477123Y-44899501D01*
X83417516Y-44905908D01*
X83282671Y-44956202D01*
X83282664Y-44956206D01*
X83167455Y-45042452D01*
X83167452Y-45042455D01*
X83081206Y-45157664D01*
X83081202Y-45157671D01*
X83030908Y-45292517D01*
X83024501Y-45352116D01*
X83024501Y-45352123D01*
X83024500Y-45352135D01*
X80000500Y-45352135D01*
X80000500Y-43896530D01*
X91924500Y-43896530D01*
X91924500Y-44103469D01*
X91964868Y-44306412D01*
X91964870Y-44306420D01*
X92044058Y-44497596D01*
X92159024Y-44669657D01*
X92305342Y-44815975D01*
X92305345Y-44815977D01*
X92477402Y-44930941D01*
X92668580Y-45010130D01*
X92831075Y-45042452D01*
X92871530Y-45050499D01*
X92871534Y-45050500D01*
X92871535Y-45050500D01*
X93078466Y-45050500D01*
X93078467Y-45050499D01*
X93281420Y-45010130D01*
X93472598Y-44930941D01*
X93644655Y-44815977D01*
X93790977Y-44669655D01*
X93905941Y-44497598D01*
X93985130Y-44306420D01*
X94025500Y-44103465D01*
X94025500Y-43896535D01*
X94025499Y-43896530D01*
X96924500Y-43896530D01*
X96924500Y-44103469D01*
X96964868Y-44306412D01*
X96964870Y-44306420D01*
X97044058Y-44497596D01*
X97159024Y-44669657D01*
X97305342Y-44815975D01*
X97305345Y-44815977D01*
X97477402Y-44930941D01*
X97668580Y-45010130D01*
X97831075Y-45042452D01*
X97871530Y-45050499D01*
X97871534Y-45050500D01*
X97871535Y-45050500D01*
X98078466Y-45050500D01*
X98078467Y-45050499D01*
X98281420Y-45010130D01*
X98472598Y-44930941D01*
X98644655Y-44815977D01*
X98790977Y-44669655D01*
X98905941Y-44497598D01*
X98985130Y-44306420D01*
X99025500Y-44103465D01*
X99025500Y-43896535D01*
X98985130Y-43693580D01*
X98905941Y-43502402D01*
X98790977Y-43330345D01*
X98790975Y-43330342D01*
X98644657Y-43184024D01*
X98520967Y-43101378D01*
X98472598Y-43069059D01*
X98281420Y-42989870D01*
X98281412Y-42989868D01*
X98078469Y-42949500D01*
X98078465Y-42949500D01*
X97871535Y-42949500D01*
X97871530Y-42949500D01*
X97668587Y-42989868D01*
X97668579Y-42989870D01*
X97477403Y-43069058D01*
X97305342Y-43184024D01*
X97159024Y-43330342D01*
X97044058Y-43502403D01*
X96964870Y-43693579D01*
X96964868Y-43693587D01*
X96924500Y-43896530D01*
X94025499Y-43896530D01*
X93985130Y-43693580D01*
X93905941Y-43502402D01*
X93790977Y-43330345D01*
X93790975Y-43330342D01*
X93644657Y-43184024D01*
X93520967Y-43101378D01*
X93472598Y-43069059D01*
X93281420Y-42989870D01*
X93281412Y-42989868D01*
X93078469Y-42949500D01*
X93078465Y-42949500D01*
X92871535Y-42949500D01*
X92871530Y-42949500D01*
X92668587Y-42989868D01*
X92668579Y-42989870D01*
X92477403Y-43069058D01*
X92305342Y-43184024D01*
X92159024Y-43330342D01*
X92044058Y-43502403D01*
X91964870Y-43693579D01*
X91964868Y-43693587D01*
X91924500Y-43896530D01*
X80000500Y-43896530D01*
X80000500Y-35124000D01*
X80020185Y-35056961D01*
X80072989Y-35011206D01*
X80124500Y-35000000D01*
X129875500Y-35000000D01*
X129942539Y-35019685D01*
G37*
%TD.AperFunction*%
%TD*%
M02*
