%TF.GenerationSoftware,KiCad,Pcbnew,9.0.8-1.fc43*%
%TF.CreationDate,2026-04-21T20:00:48+02:00*%
%TF.ProjectId,Bachelorprojekt,42616368-656c-46f7-9270-726f6a656b74,rev?*%
%TF.SameCoordinates,Original*%
%TF.FileFunction,Copper,L1,Top*%
%TF.FilePolarity,Positive*%
%FSLAX46Y46*%
G04 Gerber Fmt 4.6, Leading zero omitted, Abs format (unit mm)*
G04 Created by KiCad (PCBNEW 9.0.8-1.fc43) date 2026-04-21 20:00:48*
%MOMM*%
%LPD*%
G01*
G04 APERTURE LIST*
G04 Aperture macros list*
%AMRoundRect*
0 Rectangle with rounded corners*
0 $1 Rounding radius*
0 $2 $3 $4 $5 $6 $7 $8 $9 X,Y pos of 4 corners*
0 Add a 4 corners polygon primitive as box body*
4,1,4,$2,$3,$4,$5,$6,$7,$8,$9,$2,$3,0*
0 Add four circle primitives for the rounded corners*
1,1,$1+$1,$2,$3*
1,1,$1+$1,$4,$5*
1,1,$1+$1,$6,$7*
1,1,$1+$1,$8,$9*
0 Add four rect primitives between the rounded corners*
20,1,$1+$1,$2,$3,$4,$5,0*
20,1,$1+$1,$4,$5,$6,$7,0*
20,1,$1+$1,$6,$7,$8,$9,0*
20,1,$1+$1,$8,$9,$2,$3,0*%
G04 Aperture macros list end*
%TA.AperFunction,ComponentPad*%
%ADD10C,1.600000*%
%TD*%
%TA.AperFunction,ComponentPad*%
%ADD11RoundRect,0.250000X-0.550000X-0.550000X0.550000X-0.550000X0.550000X0.550000X-0.550000X0.550000X0*%
%TD*%
%TA.AperFunction,ComponentPad*%
%ADD12R,1.700000X1.700000*%
%TD*%
%TA.AperFunction,ComponentPad*%
%ADD13C,1.700000*%
%TD*%
%TA.AperFunction,ComponentPad*%
%ADD14RoundRect,0.250000X-0.725000X0.600000X-0.725000X-0.600000X0.725000X-0.600000X0.725000X0.600000X0*%
%TD*%
%TA.AperFunction,ComponentPad*%
%ADD15O,1.950000X1.700000*%
%TD*%
%TA.AperFunction,ComponentPad*%
%ADD16RoundRect,0.250001X-1.149999X1.149999X-1.149999X-1.149999X1.149999X-1.149999X1.149999X1.149999X0*%
%TD*%
%TA.AperFunction,ComponentPad*%
%ADD17C,2.800000*%
%TD*%
%TA.AperFunction,ComponentPad*%
%ADD18RoundRect,0.250000X-0.750000X0.600000X-0.750000X-0.600000X0.750000X-0.600000X0.750000X0.600000X0*%
%TD*%
%TA.AperFunction,ComponentPad*%
%ADD19O,2.000000X1.700000*%
%TD*%
%TA.AperFunction,ComponentPad*%
%ADD20C,2.010000*%
%TD*%
%TA.AperFunction,ComponentPad*%
%ADD21RoundRect,0.250001X1.149999X1.149999X-1.149999X1.149999X-1.149999X-1.149999X1.149999X-1.149999X0*%
%TD*%
%TA.AperFunction,ViaPad*%
%ADD22C,0.800000*%
%TD*%
%TA.AperFunction,ViaPad*%
%ADD23C,0.600000*%
%TD*%
%TA.AperFunction,Conductor*%
%ADD24C,0.500000*%
%TD*%
%TA.AperFunction,Conductor*%
%ADD25C,0.250000*%
%TD*%
G04 APERTURE END LIST*
D10*
%TO.P,U2,8,VOS*%
%TO.N,unconnected-(U2-VOS-Pad8)*%
X108975000Y-44880000D03*
%TO.P,U2,7,V+*%
%TO.N,+9V*%
X108975000Y-47420000D03*
%TO.P,U2,6*%
%TO.N,/LP Out*%
X108975000Y-49960000D03*
%TO.P,U2,5,NC*%
%TO.N,unconnected-(U2-NC-Pad5)*%
X108975000Y-52500000D03*
%TO.P,U2,4,V-*%
%TO.N,-9V*%
X101355000Y-52500000D03*
%TO.P,U2,3,+*%
%TO.N,Net-(J11-Pin_1)*%
X101355000Y-49960000D03*
%TO.P,U2,2,-*%
%TO.N,/LP Out*%
X101355000Y-47420000D03*
D11*
%TO.P,U2,1,VOS*%
%TO.N,unconnected-(U2-VOS-Pad1)*%
X101355000Y-44880000D03*
%TD*%
D12*
%TO.P,J11,1,Pin_1*%
%TO.N,Net-(J11-Pin_1)*%
X109540000Y-56500000D03*
D13*
%TO.P,J11,2,Pin_2*%
%TO.N,Net-(J10-Pin_1)*%
X107000000Y-56500000D03*
%TD*%
D11*
%TO.P,U3,1,VOS*%
%TO.N,unconnected-(U3-VOS-Pad1)*%
X149000000Y-41000000D03*
D10*
%TO.P,U3,2,-*%
%TO.N,/HP Out*%
X149000000Y-43540000D03*
%TO.P,U3,3,+*%
%TO.N,Net-(J13-Pin_1)*%
X149000000Y-46080000D03*
%TO.P,U3,4,V-*%
%TO.N,-9V*%
X149000000Y-48620000D03*
%TO.P,U3,5,NC*%
%TO.N,unconnected-(U3-NC-Pad5)*%
X156620000Y-48620000D03*
%TO.P,U3,6*%
%TO.N,/HP Out*%
X156620000Y-46080000D03*
%TO.P,U3,7,V+*%
%TO.N,+9V*%
X156620000Y-43540000D03*
%TO.P,U3,8,VOS*%
%TO.N,unconnected-(U3-VOS-Pad8)*%
X156620000Y-41000000D03*
%TD*%
D14*
%TO.P,J7,1,Pin_1*%
%TO.N,-9V*%
X176750000Y-46000000D03*
D15*
%TO.P,J7,2,Pin_2*%
%TO.N,GND*%
X176750000Y-48500000D03*
%TO.P,J7,3,Pin_3*%
%TO.N,+9V*%
X176750000Y-51000000D03*
%TO.P,J7,4,Pin_4*%
%TO.N,/HP Out*%
X176750000Y-53500000D03*
%TD*%
D16*
%TO.P,J1,1,Pin_1*%
%TO.N,/S1223 Out*%
X24500000Y-47380000D03*
D17*
%TO.P,J1,2,Pin_2*%
%TO.N,GND*%
X24500000Y-52380000D03*
%TD*%
D10*
%TO.P,C8,1*%
%TO.N,+9V*%
X112975000Y-47880000D03*
%TO.P,C8,2*%
%TO.N,GND*%
X112975000Y-52880000D03*
%TD*%
%TO.P,C1,1*%
%TO.N,/S1223 Out*%
X39250000Y-54380000D03*
%TO.P,C1,2*%
%TO.N,/TIA Out*%
X41750000Y-54380000D03*
%TD*%
%TO.P,C11,1*%
%TO.N,-9V*%
X145000000Y-49000000D03*
%TO.P,C11,2*%
%TO.N,GND*%
X145000000Y-44000000D03*
%TD*%
D12*
%TO.P,J14,1,Pin_1*%
%TO.N,Net-(J14-Pin_1)*%
X205000000Y-53250000D03*
D13*
%TO.P,J14,2,Pin_2*%
%TO.N,/Non-inv. JST Output*%
X205000000Y-55790000D03*
%TD*%
D14*
%TO.P,J4,1,Pin_1*%
%TO.N,-9V*%
X84250000Y-46000000D03*
D15*
%TO.P,J4,2,Pin_2*%
%TO.N,GND*%
X84250000Y-48500000D03*
%TO.P,J4,3,Pin_3*%
%TO.N,+9V*%
X84250000Y-51000000D03*
%TO.P,J4,4,Pin_4*%
%TO.N,/TIA Out*%
X84250000Y-53500000D03*
%TD*%
D14*
%TO.P,J8,1,Pin_1*%
%TO.N,-9V*%
X185250000Y-46000000D03*
D15*
%TO.P,J8,2,Pin_2*%
%TO.N,GND*%
X185250000Y-48500000D03*
%TO.P,J8,3,Pin_3*%
%TO.N,+9V*%
X185250000Y-51000000D03*
%TO.P,J8,4,Pin_4*%
%TO.N,/HP Out*%
X185250000Y-53500000D03*
%TD*%
D10*
%TO.P,C14,1*%
%TO.N,+9V*%
X68500000Y-57880000D03*
%TO.P,C14,2*%
%TO.N,GND*%
X63500000Y-57880000D03*
%TD*%
%TO.P,C5,1*%
%TO.N,Net-(J12-Pin_2)*%
X156000000Y-54500000D03*
%TO.P,C5,2*%
%TO.N,Net-(J13-Pin_1)*%
X161000000Y-54500000D03*
%TD*%
D12*
%TO.P,J12,1,Pin_1*%
%TO.N,/HP Out*%
X165025000Y-43250000D03*
D13*
%TO.P,J12,2,Pin_2*%
%TO.N,Net-(J12-Pin_2)*%
X165025000Y-45790000D03*
%TD*%
D10*
%TO.P,C7,1*%
%TO.N,GND*%
X49000000Y-50880000D03*
%TO.P,C7,2*%
%TO.N,+9V*%
X49000000Y-45880000D03*
%TD*%
D14*
%TO.P,J3,1,Pin_1*%
%TO.N,-9V*%
X75750000Y-46000000D03*
D15*
%TO.P,J3,2,Pin_2*%
%TO.N,GND*%
X75750000Y-48500000D03*
%TO.P,J3,3,Pin_3*%
%TO.N,+9V*%
X75750000Y-51000000D03*
%TO.P,J3,4,Pin_4*%
%TO.N,/TIA Out*%
X75750000Y-53500000D03*
%TD*%
D12*
%TO.P,J13,1,Pin_1*%
%TO.N,Net-(J13-Pin_1)*%
X165025000Y-50750000D03*
D13*
%TO.P,J13,2,Pin_2*%
%TO.N,GND*%
X165025000Y-53290000D03*
%TD*%
D10*
%TO.P,C6,1*%
%TO.N,GND*%
X32500000Y-45880000D03*
%TO.P,C6,2*%
%TO.N,-9V*%
X32500000Y-50880000D03*
%TD*%
D12*
%TO.P,J15,1,Pin_1*%
%TO.N,Net-(J14-Pin_1)*%
X198525000Y-53250000D03*
D13*
%TO.P,J15,2,Pin_2*%
%TO.N,GND*%
X198525000Y-55790000D03*
%TD*%
D10*
%TO.P,C2,1*%
%TO.N,Net-(J10-Pin_1)*%
X97975000Y-44000000D03*
%TO.P,C2,2*%
%TO.N,/LP Out*%
X92975000Y-44000000D03*
%TD*%
D12*
%TO.P,J10,1,Pin_1*%
%TO.N,Net-(J10-Pin_1)*%
X103000000Y-56500000D03*
D13*
%TO.P,J10,2,Pin_2*%
%TO.N,/TIA Out*%
X100460000Y-56500000D03*
%TD*%
D10*
%TO.P,C9,1*%
%TO.N,-9V*%
X97475000Y-53000000D03*
%TO.P,C9,2*%
%TO.N,GND*%
X97475000Y-48000000D03*
%TD*%
%TO.P,C12,1*%
%TO.N,-9V*%
X194000000Y-45500000D03*
%TO.P,C12,2*%
%TO.N,GND*%
X194000000Y-40500000D03*
%TD*%
%TO.P,C4,1*%
%TO.N,/LP Out*%
X144500000Y-54500000D03*
%TO.P,C4,2*%
%TO.N,Net-(J12-Pin_2)*%
X149500000Y-54500000D03*
%TD*%
%TO.P,C3,1*%
%TO.N,GND*%
X117475000Y-44000000D03*
%TO.P,C3,2*%
%TO.N,Net-(J11-Pin_1)*%
X112475000Y-44000000D03*
%TD*%
D11*
%TO.P,U4,1,VOS*%
%TO.N,unconnected-(U4-VOS-Pad1)*%
X197880000Y-41380000D03*
D10*
%TO.P,U4,2,-*%
%TO.N,Net-(J14-Pin_1)*%
X197880000Y-43920000D03*
%TO.P,U4,3,+*%
%TO.N,/HP Out*%
X197880000Y-46460000D03*
%TO.P,U4,4,V-*%
%TO.N,-9V*%
X197880000Y-49000000D03*
%TO.P,U4,5,NC*%
%TO.N,unconnected-(U4-NC-Pad5)*%
X205500000Y-49000000D03*
%TO.P,U4,6*%
%TO.N,/Non-inv. JST Output*%
X205500000Y-46460000D03*
%TO.P,U4,7,V+*%
%TO.N,+9V*%
X205500000Y-43920000D03*
%TO.P,U4,8,VOS*%
%TO.N,unconnected-(U4-VOS-Pad8)*%
X205500000Y-41380000D03*
%TD*%
D18*
%TO.P,J9,1,Pin_1*%
%TO.N,GND*%
X217275000Y-48500000D03*
D19*
%TO.P,J9,2,Pin_2*%
%TO.N,/Non-inv. JST Output*%
X217275000Y-51000000D03*
%TD*%
D12*
%TO.P,J16,1,Pin_1*%
%TO.N,/TIA Out*%
X42000000Y-58380000D03*
D13*
%TO.P,J16,2,Pin_2*%
%TO.N,/S1223 Out*%
X39460000Y-58380000D03*
%TD*%
D10*
%TO.P,C10,1*%
%TO.N,+9V*%
X160500000Y-44000000D03*
%TO.P,C10,2*%
%TO.N,GND*%
X160500000Y-49000000D03*
%TD*%
D20*
%TO.P,F2,1*%
%TO.N,-9V*%
X54900000Y-53430000D03*
%TO.P,F2,2*%
X56100000Y-48330000D03*
%TD*%
%TO.P,F1,1*%
%TO.N,+9V*%
X66800000Y-53480000D03*
%TO.P,F1,2*%
X68000000Y-48380000D03*
%TD*%
D14*
%TO.P,J6,1,Pin_1*%
%TO.N,-9V*%
X135250000Y-46000000D03*
D15*
%TO.P,J6,2,Pin_2*%
%TO.N,GND*%
X135250000Y-48500000D03*
%TO.P,J6,3,Pin_3*%
%TO.N,+9V*%
X135250000Y-51000000D03*
%TO.P,J6,4,Pin_4*%
%TO.N,/LP Out*%
X135250000Y-53500000D03*
%TD*%
D11*
%TO.P,U1,1,VOS*%
%TO.N,unconnected-(U1-VOS-Pad1)*%
X37000000Y-42880000D03*
D10*
%TO.P,U1,2,-*%
%TO.N,/S1223 Out*%
X37000000Y-45420000D03*
%TO.P,U1,3,+*%
%TO.N,GND*%
X37000000Y-47960000D03*
%TO.P,U1,4,V-*%
%TO.N,-9V*%
X37000000Y-50500000D03*
%TO.P,U1,5,NC*%
%TO.N,unconnected-(U1-NC-Pad5)*%
X44620000Y-50500000D03*
%TO.P,U1,6*%
%TO.N,/TIA Out*%
X44620000Y-47960000D03*
%TO.P,U1,7,V+*%
%TO.N,+9V*%
X44620000Y-45420000D03*
%TO.P,U1,8,VOS*%
%TO.N,unconnected-(U1-VOS-Pad8)*%
X44620000Y-42880000D03*
%TD*%
D21*
%TO.P,J2,1,Pin_1*%
%TO.N,+9V*%
X66250000Y-42380000D03*
D17*
%TO.P,J2,2,Pin_2*%
%TO.N,GND*%
X61250000Y-42380000D03*
%TO.P,J2,3,Pin_3*%
%TO.N,-9V*%
X56250000Y-42380000D03*
%TD*%
D14*
%TO.P,J5,1,Pin_1*%
%TO.N,-9V*%
X126750000Y-46000000D03*
D15*
%TO.P,J5,2,Pin_2*%
%TO.N,GND*%
X126750000Y-48500000D03*
%TO.P,J5,3,Pin_3*%
%TO.N,+9V*%
X126750000Y-51000000D03*
%TO.P,J5,4,Pin_4*%
%TO.N,/LP Out*%
X126750000Y-53500000D03*
%TD*%
D10*
%TO.P,C13,1*%
%TO.N,+9V*%
X209500000Y-40500000D03*
%TO.P,C13,2*%
%TO.N,GND*%
X209500000Y-45500000D03*
%TD*%
%TO.P,C15,1*%
%TO.N,GND*%
X59500000Y-57880000D03*
%TO.P,C15,2*%
%TO.N,-9V*%
X54500000Y-57880000D03*
%TD*%
D22*
%TO.N,-9V*%
X70250000Y-54250000D03*
X71041041Y-56541041D03*
D23*
%TO.N,Net-(J11-Pin_1)*%
X114500000Y-49335000D03*
X113250000Y-50585000D03*
%TD*%
D24*
%TO.N,-9V*%
X71041041Y-55041041D02*
X70250000Y-54250000D01*
X71041041Y-56541041D02*
X71041041Y-55041041D01*
D25*
%TO.N,/TIA Out*%
X84250000Y-53500000D02*
X87250000Y-56500000D01*
X87250000Y-56500000D02*
X100460000Y-56500000D01*
%TO.N,Net-(J13-Pin_1)*%
X161000000Y-54500000D02*
X164750000Y-50750000D01*
X164750000Y-50750000D02*
X165025000Y-50750000D01*
%TO.N,/TIA Out*%
X46320000Y-49660000D02*
X48250000Y-49660000D01*
X41750000Y-54380000D02*
X43530000Y-54380000D01*
X43530000Y-54380000D02*
X48250000Y-49660000D01*
X44620000Y-47960000D02*
X46320000Y-49660000D01*
X67399095Y-49660000D02*
X71239095Y-53500000D01*
X71239095Y-53500000D02*
X75750000Y-53500000D01*
%TO.N,/HP Out*%
X165025000Y-43250000D02*
X165025000Y-44128299D01*
X165025000Y-44128299D02*
X164538299Y-44615000D01*
X156620000Y-46080000D02*
X163073299Y-46080000D01*
%TO.N,Net-(J12-Pin_2)*%
X149500000Y-54500000D02*
X156000000Y-54500000D01*
%TO.N,Net-(J11-Pin_1)*%
X109540000Y-56500000D02*
X109540000Y-54295000D01*
X109540000Y-54295000D02*
X113250000Y-50585000D01*
X114500000Y-46025000D02*
X112475000Y-44000000D01*
X114500000Y-49335000D02*
X114500000Y-46025000D01*
%TO.N,Net-(J14-Pin_1)*%
X205000000Y-53250000D02*
X205000000Y-51040000D01*
X205000000Y-51040000D02*
X197880000Y-43920000D01*
%TO.N,/Non-inv. JST Output*%
X205500000Y-46460000D02*
X210040000Y-51000000D01*
X210040000Y-51000000D02*
X217275000Y-51000000D01*
%TO.N,Net-(J14-Pin_1)*%
X205000000Y-53250000D02*
X198525000Y-53250000D01*
%TO.N,/Non-inv. JST Output*%
X205500000Y-46460000D02*
X206625000Y-47585000D01*
X206625000Y-47585000D02*
X206625000Y-54165000D01*
X206625000Y-54165000D02*
X205000000Y-55790000D01*
%TO.N,/HP Out*%
X185250000Y-53500000D02*
X190840000Y-53500000D01*
X190840000Y-53500000D02*
X197880000Y-46460000D01*
%TO.N,Net-(J13-Pin_1)*%
X161000000Y-54500000D02*
X159875000Y-55625000D01*
X159875000Y-55625000D02*
X149034009Y-55625000D01*
X147875000Y-54465991D02*
X147875000Y-47205000D01*
X149034009Y-55625000D02*
X147875000Y-54465991D01*
X147875000Y-47205000D02*
X149000000Y-46080000D01*
%TO.N,/HP Out*%
X164538299Y-44615000D02*
X167865000Y-44615000D01*
X163073299Y-46080000D02*
X164538299Y-44615000D01*
X167865000Y-44615000D02*
X176750000Y-53500000D01*
X149000000Y-43540000D02*
X154080000Y-43540000D01*
X154080000Y-43540000D02*
X156620000Y-46080000D01*
%TO.N,Net-(J12-Pin_2)*%
X156000000Y-54500000D02*
X157131370Y-54500000D01*
X157131370Y-54500000D02*
X165025000Y-46606370D01*
X165025000Y-46606370D02*
X165025000Y-45790000D01*
%TO.N,/LP Out*%
X135250000Y-53500000D02*
X143500000Y-53500000D01*
X143500000Y-53500000D02*
X144500000Y-54500000D01*
X108975000Y-49960000D02*
X123923299Y-49960000D01*
X123923299Y-49960000D02*
X126750000Y-52786701D01*
X126750000Y-52786701D02*
X126750000Y-53500000D01*
X101355000Y-47420000D02*
X106435000Y-47420000D01*
X106435000Y-47420000D02*
X108975000Y-49960000D01*
X92975000Y-44000000D02*
X94100000Y-42875000D01*
X94100000Y-42875000D02*
X98440991Y-42875000D01*
X98440991Y-42875000D02*
X99100000Y-43534009D01*
X99100000Y-43534009D02*
X99100000Y-45165000D01*
X99100000Y-45165000D02*
X101355000Y-47420000D01*
%TO.N,Net-(J10-Pin_1)*%
X103000000Y-56500000D02*
X98600000Y-52100000D01*
X98600000Y-52100000D02*
X98600000Y-44625000D01*
X98600000Y-44625000D02*
X97975000Y-44000000D01*
%TO.N,Net-(J11-Pin_1)*%
X109540000Y-56500000D02*
X103000000Y-49960000D01*
X103000000Y-49960000D02*
X101355000Y-49960000D01*
%TO.N,Net-(J10-Pin_1)*%
X103000000Y-56500000D02*
X107000000Y-56500000D01*
%TO.N,/TIA Out*%
X42000000Y-58380000D02*
X42000000Y-54630000D01*
X42000000Y-54630000D02*
X41750000Y-54380000D01*
%TO.N,/S1223 Out*%
X35040000Y-50170000D02*
X35040000Y-53960000D01*
X35040000Y-53960000D02*
X39460000Y-58380000D01*
X35040000Y-47380000D02*
X35040000Y-50170000D01*
X35040000Y-50170000D02*
X39250000Y-54380000D01*
X24500000Y-47380000D02*
X35040000Y-47380000D01*
X35040000Y-47380000D02*
X37000000Y-45420000D01*
%TO.N,/TIA Out*%
X48250000Y-49660000D02*
X67399095Y-49660000D01*
%TD*%
%TA.AperFunction,Conductor*%
%TO.N,GND*%
G36*
X179942539Y-35019685D02*
G01*
X179988294Y-35072489D01*
X179999500Y-35124000D01*
X179999500Y-62376000D01*
X179979815Y-62443039D01*
X179927011Y-62488794D01*
X179875500Y-62500000D01*
X131124500Y-62500000D01*
X131057461Y-62480315D01*
X131011706Y-62427511D01*
X131000500Y-62376000D01*
X131000500Y-53413389D01*
X134024500Y-53413389D01*
X134024500Y-53586610D01*
X134051316Y-53755925D01*
X134051598Y-53757701D01*
X134105127Y-53922445D01*
X134183768Y-54076788D01*
X134285586Y-54216928D01*
X134408072Y-54339414D01*
X134548212Y-54441232D01*
X134702555Y-54519873D01*
X134867299Y-54573402D01*
X135038389Y-54600500D01*
X135038390Y-54600500D01*
X135461610Y-54600500D01*
X135461611Y-54600500D01*
X135632701Y-54573402D01*
X135797445Y-54519873D01*
X135951788Y-54441232D01*
X136091928Y-54339414D01*
X136214414Y-54216928D01*
X136316232Y-54076788D01*
X136384295Y-53943206D01*
X136432269Y-53892409D01*
X136494780Y-53875500D01*
X143293101Y-53875500D01*
X143322541Y-53884144D01*
X143352528Y-53890668D01*
X143357543Y-53894422D01*
X143360140Y-53895185D01*
X143380782Y-53911819D01*
X143481857Y-54012894D01*
X143515342Y-54074217D01*
X143510358Y-54143909D01*
X143508738Y-54148026D01*
X143489870Y-54193579D01*
X143489868Y-54193582D01*
X143449500Y-54396530D01*
X143449500Y-54603469D01*
X143489868Y-54806412D01*
X143489870Y-54806420D01*
X143569058Y-54997596D01*
X143684024Y-55169657D01*
X143830342Y-55315975D01*
X143830345Y-55315977D01*
X144002402Y-55430941D01*
X144193580Y-55510130D01*
X144396530Y-55550499D01*
X144396534Y-55550500D01*
X144396535Y-55550500D01*
X144603466Y-55550500D01*
X144603467Y-55550499D01*
X144806420Y-55510130D01*
X144997598Y-55430941D01*
X145169655Y-55315977D01*
X145315977Y-55169655D01*
X145430941Y-54997598D01*
X145510130Y-54806420D01*
X145550500Y-54603465D01*
X145550500Y-54396535D01*
X145510130Y-54193580D01*
X145430941Y-54002402D01*
X145315977Y-53830345D01*
X145315975Y-53830342D01*
X145169657Y-53684024D01*
X145039425Y-53597007D01*
X144997598Y-53569059D01*
X144867914Y-53515342D01*
X144806420Y-53489870D01*
X144806412Y-53489868D01*
X144603469Y-53449500D01*
X144603465Y-53449500D01*
X144396535Y-53449500D01*
X144396530Y-53449500D01*
X144193582Y-53489868D01*
X144193579Y-53489870D01*
X144148026Y-53508738D01*
X144078557Y-53516205D01*
X144016078Y-53484930D01*
X144012894Y-53481857D01*
X143730563Y-53199526D01*
X143730562Y-53199525D01*
X143644938Y-53150090D01*
X143597186Y-53137295D01*
X143597184Y-53137294D01*
X143597182Y-53137293D01*
X143549436Y-53124500D01*
X143549435Y-53124500D01*
X136494780Y-53124500D01*
X136427741Y-53104815D01*
X136384295Y-53056794D01*
X136316233Y-52923213D01*
X136292030Y-52889901D01*
X136214414Y-52783072D01*
X136091928Y-52660586D01*
X135951788Y-52558768D01*
X135797445Y-52480127D01*
X135632701Y-52426598D01*
X135632699Y-52426597D01*
X135632698Y-52426597D01*
X135501271Y-52405781D01*
X135461611Y-52399500D01*
X135038389Y-52399500D01*
X134998728Y-52405781D01*
X134867302Y-52426597D01*
X134702552Y-52480128D01*
X134548211Y-52558768D01*
X134468256Y-52616859D01*
X134408072Y-52660586D01*
X134408070Y-52660588D01*
X134408069Y-52660588D01*
X134285588Y-52783069D01*
X134285588Y-52783070D01*
X134285586Y-52783072D01*
X134241859Y-52843256D01*
X134183768Y-52923211D01*
X134105128Y-53077552D01*
X134051597Y-53242302D01*
X134024500Y-53413389D01*
X131000500Y-53413389D01*
X131000500Y-50913389D01*
X134024500Y-50913389D01*
X134024500Y-51086611D01*
X134051598Y-51257701D01*
X134105127Y-51422445D01*
X134183768Y-51576788D01*
X134285586Y-51716928D01*
X134408072Y-51839414D01*
X134548212Y-51941232D01*
X134702555Y-52019873D01*
X134867299Y-52073402D01*
X135038389Y-52100500D01*
X135038390Y-52100500D01*
X135461610Y-52100500D01*
X135461611Y-52100500D01*
X135632701Y-52073402D01*
X135797445Y-52019873D01*
X135951788Y-51941232D01*
X136091928Y-51839414D01*
X136214414Y-51716928D01*
X136316232Y-51576788D01*
X136394873Y-51422445D01*
X136448402Y-51257701D01*
X136475500Y-51086611D01*
X136475500Y-50913389D01*
X136448402Y-50742299D01*
X136394873Y-50577555D01*
X136316232Y-50423212D01*
X136214414Y-50283072D01*
X136091928Y-50160586D01*
X135951788Y-50058768D01*
X135797445Y-49980127D01*
X135632701Y-49926598D01*
X135632699Y-49926597D01*
X135632698Y-49926597D01*
X135501271Y-49905781D01*
X135461611Y-49899500D01*
X135038389Y-49899500D01*
X134998728Y-49905781D01*
X134867302Y-49926597D01*
X134702552Y-49980128D01*
X134548211Y-50058768D01*
X134468256Y-50116859D01*
X134408072Y-50160586D01*
X134408070Y-50160588D01*
X134408069Y-50160588D01*
X134285588Y-50283069D01*
X134285588Y-50283070D01*
X134285586Y-50283072D01*
X134241859Y-50343256D01*
X134183768Y-50423211D01*
X134105128Y-50577552D01*
X134051597Y-50742302D01*
X134024500Y-50913389D01*
X131000500Y-50913389D01*
X131000500Y-48249999D01*
X134050884Y-48249999D01*
X134050885Y-48250000D01*
X134845854Y-48250000D01*
X134807370Y-48316657D01*
X134775000Y-48437465D01*
X134775000Y-48562535D01*
X134807370Y-48683343D01*
X134845854Y-48750000D01*
X134050885Y-48750000D01*
X134052085Y-48757584D01*
X134105591Y-48922255D01*
X134184195Y-49076524D01*
X134285967Y-49216602D01*
X134408397Y-49339032D01*
X134548475Y-49440804D01*
X134702744Y-49519408D01*
X134867415Y-49572913D01*
X135000000Y-49593913D01*
X135000000Y-48904145D01*
X135066657Y-48942630D01*
X135187465Y-48975000D01*
X135312535Y-48975000D01*
X135433343Y-48942630D01*
X135500000Y-48904145D01*
X135500000Y-49593912D01*
X135632584Y-49572913D01*
X135797255Y-49519408D01*
X135951524Y-49440804D01*
X136091602Y-49339032D01*
X136214032Y-49216602D01*
X136315804Y-49076524D01*
X136394408Y-48922257D01*
X136402767Y-48896530D01*
X143949500Y-48896530D01*
X143949500Y-49103469D01*
X143989868Y-49306412D01*
X143989870Y-49306420D01*
X144043534Y-49435977D01*
X144069059Y-49497598D01*
X144119383Y-49572913D01*
X144184024Y-49669657D01*
X144330342Y-49815975D01*
X144330345Y-49815977D01*
X144502402Y-49930941D01*
X144693580Y-50010130D01*
X144894016Y-50049999D01*
X144896530Y-50050499D01*
X144896534Y-50050500D01*
X144896535Y-50050500D01*
X145103466Y-50050500D01*
X145103467Y-50050499D01*
X145306420Y-50010130D01*
X145497598Y-49930941D01*
X145669655Y-49815977D01*
X145815977Y-49669655D01*
X145930941Y-49497598D01*
X146010130Y-49306420D01*
X146050500Y-49103465D01*
X146050500Y-48896535D01*
X146010130Y-48693580D01*
X145930941Y-48502402D01*
X145815977Y-48330345D01*
X145815975Y-48330342D01*
X145669657Y-48184024D01*
X145577435Y-48122404D01*
X145497598Y-48069059D01*
X145469378Y-48057370D01*
X145306420Y-47989870D01*
X145306412Y-47989868D01*
X145103469Y-47949500D01*
X145103465Y-47949500D01*
X144896535Y-47949500D01*
X144896530Y-47949500D01*
X144693587Y-47989868D01*
X144693579Y-47989870D01*
X144502403Y-48069058D01*
X144330342Y-48184024D01*
X144184024Y-48330342D01*
X144069058Y-48502403D01*
X143989870Y-48693579D01*
X143989868Y-48693587D01*
X143949500Y-48896530D01*
X136402767Y-48896530D01*
X136417196Y-48852124D01*
X136417196Y-48852123D01*
X136447914Y-48757584D01*
X136449115Y-48750000D01*
X135654146Y-48750000D01*
X135692630Y-48683343D01*
X135725000Y-48562535D01*
X135725000Y-48437465D01*
X135692630Y-48316657D01*
X135654146Y-48250000D01*
X136449115Y-48250000D01*
X136449115Y-48249999D01*
X136447914Y-48242415D01*
X136394408Y-48077744D01*
X136315804Y-47923475D01*
X136214032Y-47783397D01*
X136091602Y-47660967D01*
X135951524Y-47559195D01*
X135797257Y-47480591D01*
X135632585Y-47427086D01*
X135500000Y-47406086D01*
X135500000Y-48095854D01*
X135433343Y-48057370D01*
X135312535Y-48025000D01*
X135187465Y-48025000D01*
X135066657Y-48057370D01*
X135000000Y-48095854D01*
X135000000Y-47406086D01*
X134867414Y-47427086D01*
X134702742Y-47480591D01*
X134548475Y-47559195D01*
X134408397Y-47660967D01*
X134285967Y-47783397D01*
X134184195Y-47923475D01*
X134105591Y-48077744D01*
X134052085Y-48242415D01*
X134050884Y-48249999D01*
X131000500Y-48249999D01*
X131000500Y-47155565D01*
X147499500Y-47155565D01*
X147499500Y-47155567D01*
X147499500Y-54515427D01*
X147508612Y-54549431D01*
X147508612Y-54549434D01*
X147508613Y-54549434D01*
X147525090Y-54610930D01*
X147525091Y-54610931D01*
X147570594Y-54689744D01*
X147574527Y-54696556D01*
X148193947Y-55315975D01*
X148733534Y-55855562D01*
X148803447Y-55925475D01*
X148889068Y-55974908D01*
X148889071Y-55974910D01*
X148936820Y-55987705D01*
X148936821Y-55987705D01*
X148946912Y-55990408D01*
X148984573Y-56000500D01*
X148984574Y-56000500D01*
X148984575Y-56000500D01*
X159924435Y-56000500D01*
X159924436Y-56000500D01*
X159972186Y-55987705D01*
X160019938Y-55974910D01*
X160105562Y-55925475D01*
X160175475Y-55855562D01*
X160512897Y-55518138D01*
X160574217Y-55484656D01*
X160643908Y-55489640D01*
X160647972Y-55491238D01*
X160693580Y-55510130D01*
X160896530Y-55550499D01*
X160896534Y-55550500D01*
X160896535Y-55550500D01*
X161103466Y-55550500D01*
X161103467Y-55550499D01*
X161306420Y-55510130D01*
X161497598Y-55430941D01*
X161669655Y-55315977D01*
X161815977Y-55169655D01*
X161930941Y-54997598D01*
X162010130Y-54806420D01*
X162050500Y-54603465D01*
X162050500Y-54396535D01*
X162010130Y-54193580D01*
X161990027Y-54145048D01*
X161988963Y-54142049D01*
X161987197Y-54110232D01*
X161983792Y-54078561D01*
X161985275Y-54075596D01*
X161985092Y-54072286D01*
X162000808Y-54044565D01*
X162015066Y-54016082D01*
X162018112Y-54012924D01*
X162827609Y-53203428D01*
X163925000Y-53203428D01*
X163925000Y-53376571D01*
X163952085Y-53547584D01*
X164005592Y-53712259D01*
X164084196Y-53866525D01*
X164088709Y-53872736D01*
X164088709Y-53872737D01*
X164542037Y-53419409D01*
X164559075Y-53482993D01*
X164624901Y-53597007D01*
X164717993Y-53690099D01*
X164832007Y-53755925D01*
X164895589Y-53772962D01*
X164442261Y-54226289D01*
X164442262Y-54226290D01*
X164448471Y-54230801D01*
X164602742Y-54309408D01*
X164767415Y-54362914D01*
X164938429Y-54390000D01*
X165111571Y-54390000D01*
X165282584Y-54362914D01*
X165447257Y-54309408D01*
X165601525Y-54230803D01*
X165607736Y-54226289D01*
X165607737Y-54226289D01*
X165154410Y-53772962D01*
X165217993Y-53755925D01*
X165332007Y-53690099D01*
X165425099Y-53597007D01*
X165490925Y-53482993D01*
X165507962Y-53419409D01*
X165961289Y-53872736D01*
X165965803Y-53866525D01*
X166044408Y-53712257D01*
X166097914Y-53547584D01*
X166125000Y-53376571D01*
X166125000Y-53203428D01*
X166097914Y-53032415D01*
X166044408Y-52867742D01*
X165965801Y-52713471D01*
X165961290Y-52707262D01*
X165961289Y-52707261D01*
X165507962Y-53160589D01*
X165490925Y-53097007D01*
X165425099Y-52982993D01*
X165332007Y-52889901D01*
X165217993Y-52824075D01*
X165154409Y-52807037D01*
X165607737Y-52353709D01*
X165601525Y-52349196D01*
X165447259Y-52270592D01*
X165282584Y-52217085D01*
X165111571Y-52190000D01*
X164938429Y-52190000D01*
X164767415Y-52217085D01*
X164602740Y-52270592D01*
X164448480Y-52349193D01*
X164448463Y-52349203D01*
X164442261Y-52353708D01*
X164442261Y-52353709D01*
X164895590Y-52807037D01*
X164832007Y-52824075D01*
X164717993Y-52889901D01*
X164624901Y-52982993D01*
X164559075Y-53097007D01*
X164542037Y-53160590D01*
X164088709Y-52707261D01*
X164088708Y-52707261D01*
X164084203Y-52713463D01*
X164084193Y-52713480D01*
X164005592Y-52867740D01*
X163952085Y-53032415D01*
X163925000Y-53203428D01*
X162827609Y-53203428D01*
X164144219Y-51886819D01*
X164205542Y-51853334D01*
X164231900Y-51850500D01*
X165899676Y-51850500D01*
X165899677Y-51850499D01*
X165972740Y-51835966D01*
X166055601Y-51780601D01*
X166110966Y-51697740D01*
X166125500Y-51624674D01*
X166125500Y-49875326D01*
X166125500Y-49875323D01*
X166125499Y-49875321D01*
X166110967Y-49802264D01*
X166110966Y-49802260D01*
X166055601Y-49719399D01*
X166000235Y-49682405D01*
X165972739Y-49664033D01*
X165972735Y-49664032D01*
X165899677Y-49649500D01*
X165899674Y-49649500D01*
X164150326Y-49649500D01*
X164150323Y-49649500D01*
X164077264Y-49664032D01*
X164077260Y-49664033D01*
X163994399Y-49719399D01*
X163939033Y-49802260D01*
X163939032Y-49802264D01*
X163924500Y-49875321D01*
X163924500Y-50993099D01*
X163904815Y-51060138D01*
X163888181Y-51080780D01*
X161487103Y-53481857D01*
X161425780Y-53515342D01*
X161356088Y-53510358D01*
X161351970Y-53508737D01*
X161306424Y-53489871D01*
X161306412Y-53489868D01*
X161103469Y-53449500D01*
X161103465Y-53449500D01*
X160896535Y-53449500D01*
X160896530Y-53449500D01*
X160693587Y-53489868D01*
X160693579Y-53489870D01*
X160502403Y-53569058D01*
X160330342Y-53684024D01*
X160184024Y-53830342D01*
X160069058Y-54002403D01*
X159989870Y-54193579D01*
X159989868Y-54193587D01*
X159949500Y-54396530D01*
X159949500Y-54603469D01*
X159989867Y-54806412D01*
X159989869Y-54806416D01*
X159989870Y-54806420D01*
X160007883Y-54849908D01*
X160008738Y-54851972D01*
X160016205Y-54921442D01*
X159984929Y-54983920D01*
X159981858Y-54987104D01*
X159755780Y-55213182D01*
X159694460Y-55246666D01*
X159668101Y-55249500D01*
X156994614Y-55249500D01*
X156989876Y-55248108D01*
X156985048Y-55249130D01*
X156956682Y-55238362D01*
X156927575Y-55229815D01*
X156924343Y-55226085D01*
X156919727Y-55224333D01*
X156901681Y-55199932D01*
X156881820Y-55177011D01*
X156881117Y-55172126D01*
X156878182Y-55168157D01*
X156876193Y-55137880D01*
X156871876Y-55107853D01*
X156873837Y-55102014D01*
X156873603Y-55098437D01*
X156880285Y-55082827D01*
X156886129Y-55065441D01*
X156888636Y-55060911D01*
X156930941Y-54997598D01*
X156952491Y-54945570D01*
X156955885Y-54939441D01*
X156975950Y-54919608D01*
X156993650Y-54897644D01*
X157000466Y-54895375D01*
X157005577Y-54890324D01*
X157033175Y-54884488D01*
X157059944Y-54875579D01*
X157064370Y-54875500D01*
X157180805Y-54875500D01*
X157180806Y-54875500D01*
X157228556Y-54862705D01*
X157276308Y-54849910D01*
X157361932Y-54800475D01*
X157431845Y-54730562D01*
X165285802Y-46876603D01*
X165335164Y-46846355D01*
X165447440Y-46809875D01*
X165447442Y-46809873D01*
X165447445Y-46809873D01*
X165601788Y-46731232D01*
X165741928Y-46629414D01*
X165864414Y-46506928D01*
X165966232Y-46366788D01*
X166044873Y-46212445D01*
X166098402Y-46047701D01*
X166125500Y-45876611D01*
X166125500Y-45703389D01*
X166098402Y-45532299D01*
X166044873Y-45367555D01*
X165966232Y-45213212D01*
X165947467Y-45187385D01*
X165923988Y-45121580D01*
X165939813Y-45053526D01*
X165989919Y-45004831D01*
X166047786Y-44990500D01*
X167658101Y-44990500D01*
X167725140Y-45010185D01*
X167745782Y-45026819D01*
X175606024Y-52887061D01*
X175639509Y-52948384D01*
X175634525Y-53018076D01*
X175628829Y-53031034D01*
X175605126Y-53077556D01*
X175605125Y-53077558D01*
X175551597Y-53242301D01*
X175524500Y-53413389D01*
X175524500Y-53586610D01*
X175551316Y-53755925D01*
X175551598Y-53757701D01*
X175605127Y-53922445D01*
X175683768Y-54076788D01*
X175785586Y-54216928D01*
X175908072Y-54339414D01*
X176048212Y-54441232D01*
X176202555Y-54519873D01*
X176367299Y-54573402D01*
X176538389Y-54600500D01*
X176538390Y-54600500D01*
X176961610Y-54600500D01*
X176961611Y-54600500D01*
X177132701Y-54573402D01*
X177297445Y-54519873D01*
X177451788Y-54441232D01*
X177591928Y-54339414D01*
X177714414Y-54216928D01*
X177816232Y-54076788D01*
X177894873Y-53922445D01*
X177948402Y-53757701D01*
X177975500Y-53586611D01*
X177975500Y-53413389D01*
X177948402Y-53242299D01*
X177894873Y-53077555D01*
X177816232Y-52923212D01*
X177714414Y-52783072D01*
X177591928Y-52660586D01*
X177451788Y-52558768D01*
X177297445Y-52480127D01*
X177132701Y-52426598D01*
X177132699Y-52426597D01*
X177132698Y-52426597D01*
X177001271Y-52405781D01*
X176961611Y-52399500D01*
X176538389Y-52399500D01*
X176481359Y-52408532D01*
X176367297Y-52426598D01*
X176319058Y-52442272D01*
X176249217Y-52444267D01*
X176193059Y-52412022D01*
X175937262Y-52156225D01*
X175903777Y-52094902D01*
X175908761Y-52025210D01*
X175950633Y-51969277D01*
X176016097Y-51944860D01*
X176081236Y-51958058D01*
X176202555Y-52019873D01*
X176367299Y-52073402D01*
X176538389Y-52100500D01*
X176538390Y-52100500D01*
X176961610Y-52100500D01*
X176961611Y-52100500D01*
X177132701Y-52073402D01*
X177297445Y-52019873D01*
X177451788Y-51941232D01*
X177591928Y-51839414D01*
X177714414Y-51716928D01*
X177816232Y-51576788D01*
X177894873Y-51422445D01*
X177948402Y-51257701D01*
X177975500Y-51086611D01*
X177975500Y-50913389D01*
X177948402Y-50742299D01*
X177894873Y-50577555D01*
X177816232Y-50423212D01*
X177714414Y-50283072D01*
X177591928Y-50160586D01*
X177451788Y-50058768D01*
X177297445Y-49980127D01*
X177132701Y-49926598D01*
X177132699Y-49926597D01*
X177132698Y-49926597D01*
X177001271Y-49905781D01*
X176961611Y-49899500D01*
X176538389Y-49899500D01*
X176498728Y-49905781D01*
X176367302Y-49926597D01*
X176202552Y-49980128D01*
X176048211Y-50058768D01*
X175968256Y-50116859D01*
X175908072Y-50160586D01*
X175908070Y-50160588D01*
X175908069Y-50160588D01*
X175785588Y-50283069D01*
X175785588Y-50283070D01*
X175785586Y-50283072D01*
X175741859Y-50343256D01*
X175683768Y-50423211D01*
X175605128Y-50577552D01*
X175551597Y-50742302D01*
X175524500Y-50913389D01*
X175524500Y-51086610D01*
X175551597Y-51257697D01*
X175605128Y-51422447D01*
X175666940Y-51543761D01*
X175679836Y-51612431D01*
X175653559Y-51677171D01*
X175596453Y-51717428D01*
X175526647Y-51720420D01*
X175468774Y-51687737D01*
X172031036Y-48249999D01*
X175550884Y-48249999D01*
X175550885Y-48250000D01*
X176345854Y-48250000D01*
X176307370Y-48316657D01*
X176275000Y-48437465D01*
X176275000Y-48562535D01*
X176307370Y-48683343D01*
X176345854Y-48750000D01*
X175550885Y-48750000D01*
X175552085Y-48757584D01*
X175605591Y-48922255D01*
X175684195Y-49076524D01*
X175785967Y-49216602D01*
X175908397Y-49339032D01*
X176048475Y-49440804D01*
X176202744Y-49519408D01*
X176367415Y-49572913D01*
X176500000Y-49593913D01*
X176500000Y-48904145D01*
X176566657Y-48942630D01*
X176687465Y-48975000D01*
X176812535Y-48975000D01*
X176933343Y-48942630D01*
X177000000Y-48904145D01*
X177000000Y-49593912D01*
X177132584Y-49572913D01*
X177297255Y-49519408D01*
X177451524Y-49440804D01*
X177591602Y-49339032D01*
X177714032Y-49216602D01*
X177815804Y-49076524D01*
X177894408Y-48922255D01*
X177947914Y-48757584D01*
X177949115Y-48750000D01*
X177154146Y-48750000D01*
X177192630Y-48683343D01*
X177225000Y-48562535D01*
X177225000Y-48437465D01*
X177192630Y-48316657D01*
X177154146Y-48250000D01*
X177949115Y-48250000D01*
X177949115Y-48249999D01*
X177947914Y-48242415D01*
X177894408Y-48077744D01*
X177815804Y-47923475D01*
X177714032Y-47783397D01*
X177591602Y-47660967D01*
X177451524Y-47559195D01*
X177297257Y-47480591D01*
X177132585Y-47427086D01*
X177000000Y-47406086D01*
X177000000Y-48095854D01*
X176933343Y-48057370D01*
X176812535Y-48025000D01*
X176687465Y-48025000D01*
X176566657Y-48057370D01*
X176500000Y-48095854D01*
X176500000Y-47406086D01*
X176367414Y-47427086D01*
X176202742Y-47480591D01*
X176048475Y-47559195D01*
X175908397Y-47660967D01*
X175785967Y-47783397D01*
X175684195Y-47923475D01*
X175605591Y-48077744D01*
X175552085Y-48242415D01*
X175550884Y-48249999D01*
X172031036Y-48249999D01*
X169133172Y-45352135D01*
X175524500Y-45352135D01*
X175524500Y-46647870D01*
X175524501Y-46647876D01*
X175530908Y-46707483D01*
X175581202Y-46842328D01*
X175581206Y-46842335D01*
X175667452Y-46957544D01*
X175667455Y-46957547D01*
X175782664Y-47043793D01*
X175782671Y-47043797D01*
X175917517Y-47094091D01*
X175917516Y-47094091D01*
X175924444Y-47094835D01*
X175977127Y-47100500D01*
X177522872Y-47100499D01*
X177582483Y-47094091D01*
X177717331Y-47043796D01*
X177832546Y-46957546D01*
X177918796Y-46842331D01*
X177969091Y-46707483D01*
X177975500Y-46647873D01*
X177975499Y-45352128D01*
X177969091Y-45292517D01*
X177958463Y-45264023D01*
X177918797Y-45157671D01*
X177918793Y-45157664D01*
X177832547Y-45042455D01*
X177832544Y-45042452D01*
X177717335Y-44956206D01*
X177717328Y-44956202D01*
X177582482Y-44905908D01*
X177582483Y-44905908D01*
X177522883Y-44899501D01*
X177522881Y-44899500D01*
X177522873Y-44899500D01*
X177522864Y-44899500D01*
X175977129Y-44899500D01*
X175977123Y-44899501D01*
X175917516Y-44905908D01*
X175782671Y-44956202D01*
X175782664Y-44956206D01*
X175667455Y-45042452D01*
X175667452Y-45042455D01*
X175581206Y-45157664D01*
X175581202Y-45157671D01*
X175530908Y-45292517D01*
X175524501Y-45352116D01*
X175524501Y-45352123D01*
X175524500Y-45352135D01*
X169133172Y-45352135D01*
X168095563Y-44314526D01*
X168095562Y-44314525D01*
X168009938Y-44265090D01*
X167962186Y-44252295D01*
X167962184Y-44252294D01*
X167962182Y-44252293D01*
X167914436Y-44239500D01*
X167914435Y-44239500D01*
X166249500Y-44239500D01*
X166182461Y-44219815D01*
X166136706Y-44167011D01*
X166125500Y-44115500D01*
X166125500Y-42375323D01*
X166125499Y-42375321D01*
X166110967Y-42302264D01*
X166110966Y-42302260D01*
X166055601Y-42219399D01*
X165972740Y-42164034D01*
X165972739Y-42164033D01*
X165972735Y-42164032D01*
X165899677Y-42149500D01*
X165899674Y-42149500D01*
X164150326Y-42149500D01*
X164150323Y-42149500D01*
X164077264Y-42164032D01*
X164077260Y-42164033D01*
X163994399Y-42219399D01*
X163939033Y-42302260D01*
X163939032Y-42302264D01*
X163924500Y-42375321D01*
X163924500Y-44124678D01*
X163939032Y-44197735D01*
X163939033Y-44197739D01*
X163953784Y-44219815D01*
X163994399Y-44280601D01*
X164076936Y-44335750D01*
X164121742Y-44389361D01*
X164130449Y-44458686D01*
X164100295Y-44521714D01*
X164095727Y-44526533D01*
X162954081Y-45668181D01*
X162892758Y-45701666D01*
X162866400Y-45704500D01*
X157684370Y-45704500D01*
X157617331Y-45684815D01*
X157571576Y-45632011D01*
X157569809Y-45627953D01*
X157550941Y-45582403D01*
X157550941Y-45582402D01*
X157435977Y-45410345D01*
X157435975Y-45410342D01*
X157289657Y-45264024D01*
X157174959Y-45187386D01*
X157117598Y-45149059D01*
X156926420Y-45069870D01*
X156926412Y-45069868D01*
X156723469Y-45029500D01*
X156723465Y-45029500D01*
X156516535Y-45029500D01*
X156516530Y-45029500D01*
X156313582Y-45069868D01*
X156313579Y-45069870D01*
X156268026Y-45088738D01*
X156198557Y-45096205D01*
X156136078Y-45064930D01*
X156132894Y-45061857D01*
X154507567Y-43436530D01*
X155569500Y-43436530D01*
X155569500Y-43643469D01*
X155609868Y-43846412D01*
X155609870Y-43846420D01*
X155689058Y-44037596D01*
X155804024Y-44209657D01*
X155950342Y-44355975D01*
X155950345Y-44355977D01*
X156122402Y-44470941D01*
X156313580Y-44550130D01*
X156516530Y-44590499D01*
X156516534Y-44590500D01*
X156516535Y-44590500D01*
X156723466Y-44590500D01*
X156723467Y-44590499D01*
X156926420Y-44550130D01*
X157117598Y-44470941D01*
X157289655Y-44355977D01*
X157435977Y-44209655D01*
X157550941Y-44037598D01*
X157609374Y-43896530D01*
X159449500Y-43896530D01*
X159449500Y-44103469D01*
X159489868Y-44306412D01*
X159489870Y-44306420D01*
X159569058Y-44497596D01*
X159684024Y-44669657D01*
X159830342Y-44815975D01*
X159830345Y-44815977D01*
X160002402Y-44930941D01*
X160193580Y-45010130D01*
X160356075Y-45042452D01*
X160396530Y-45050499D01*
X160396534Y-45050500D01*
X160396535Y-45050500D01*
X160603466Y-45050500D01*
X160603467Y-45050499D01*
X160806420Y-45010130D01*
X160997598Y-44930941D01*
X161169655Y-44815977D01*
X161315977Y-44669655D01*
X161430941Y-44497598D01*
X161510130Y-44306420D01*
X161550500Y-44103465D01*
X161550500Y-43896535D01*
X161510130Y-43693580D01*
X161430941Y-43502402D01*
X161315977Y-43330345D01*
X161315975Y-43330342D01*
X161169657Y-43184024D01*
X161045967Y-43101378D01*
X160997598Y-43069059D01*
X160806420Y-42989870D01*
X160806412Y-42989868D01*
X160603469Y-42949500D01*
X160603465Y-42949500D01*
X160396535Y-42949500D01*
X160396530Y-42949500D01*
X160193587Y-42989868D01*
X160193579Y-42989870D01*
X160002403Y-43069058D01*
X159830342Y-43184024D01*
X159684024Y-43330342D01*
X159569058Y-43502403D01*
X159489870Y-43693579D01*
X159489868Y-43693587D01*
X159449500Y-43896530D01*
X157609374Y-43896530D01*
X157630130Y-43846420D01*
X157670500Y-43643465D01*
X157670500Y-43436535D01*
X157630130Y-43233580D01*
X157550941Y-43042402D01*
X157435977Y-42870345D01*
X157435975Y-42870342D01*
X157289657Y-42724024D01*
X157203626Y-42666541D01*
X157117598Y-42609059D01*
X156926420Y-42529870D01*
X156926412Y-42529868D01*
X156723469Y-42489500D01*
X156723465Y-42489500D01*
X156516535Y-42489500D01*
X156516530Y-42489500D01*
X156313587Y-42529868D01*
X156313579Y-42529870D01*
X156122403Y-42609058D01*
X155950342Y-42724024D01*
X155804024Y-42870342D01*
X155689058Y-43042403D01*
X155609870Y-43233579D01*
X155609868Y-43233587D01*
X155569500Y-43436530D01*
X154507567Y-43436530D01*
X154310564Y-43239527D01*
X154310563Y-43239526D01*
X154310562Y-43239525D01*
X154253479Y-43206568D01*
X154224937Y-43190089D01*
X154172662Y-43176081D01*
X154172662Y-43176082D01*
X154129437Y-43164500D01*
X154129436Y-43164500D01*
X154129435Y-43164500D01*
X150064370Y-43164500D01*
X149997331Y-43144815D01*
X149951576Y-43092011D01*
X149949809Y-43087953D01*
X149948673Y-43085211D01*
X149930941Y-43042402D01*
X149815977Y-42870345D01*
X149815975Y-42870342D01*
X149669657Y-42724024D01*
X149583626Y-42666541D01*
X149497598Y-42609059D01*
X149306420Y-42529870D01*
X149306412Y-42529868D01*
X149103469Y-42489500D01*
X149103465Y-42489500D01*
X148896535Y-42489500D01*
X148896530Y-42489500D01*
X148693587Y-42529868D01*
X148693579Y-42529870D01*
X148502403Y-42609058D01*
X148330342Y-42724024D01*
X148184024Y-42870342D01*
X148069058Y-43042403D01*
X147989870Y-43233579D01*
X147989868Y-43233587D01*
X147949500Y-43436530D01*
X147949500Y-43643469D01*
X147989868Y-43846412D01*
X147989870Y-43846420D01*
X148069058Y-44037596D01*
X148184024Y-44209657D01*
X148330342Y-44355975D01*
X148330345Y-44355977D01*
X148502402Y-44470941D01*
X148693580Y-44550130D01*
X148896530Y-44590499D01*
X148896534Y-44590500D01*
X148896535Y-44590500D01*
X149103466Y-44590500D01*
X149103467Y-44590499D01*
X149306420Y-44550130D01*
X149497598Y-44470941D01*
X149669655Y-44355977D01*
X149815977Y-44209655D01*
X149930941Y-44037598D01*
X149949809Y-43992047D01*
X149993650Y-43937644D01*
X150059944Y-43915579D01*
X150064370Y-43915500D01*
X153873101Y-43915500D01*
X153940140Y-43935185D01*
X153960782Y-43951819D01*
X155601857Y-45592894D01*
X155635342Y-45654217D01*
X155630358Y-45723909D01*
X155628738Y-45728026D01*
X155609870Y-45773579D01*
X155609868Y-45773582D01*
X155569500Y-45976530D01*
X155569500Y-46183469D01*
X155609868Y-46386412D01*
X155609870Y-46386420D01*
X155689058Y-46577596D01*
X155804024Y-46749657D01*
X155950342Y-46895975D01*
X155950345Y-46895977D01*
X156122402Y-47010941D01*
X156313580Y-47090130D01*
X156516530Y-47130499D01*
X156516534Y-47130500D01*
X156516535Y-47130500D01*
X156723466Y-47130500D01*
X156723467Y-47130499D01*
X156926420Y-47090130D01*
X157117598Y-47010941D01*
X157289655Y-46895977D01*
X157435977Y-46749655D01*
X157550941Y-46577598D01*
X157569809Y-46532047D01*
X157613650Y-46477644D01*
X157679944Y-46455579D01*
X157684370Y-46455500D01*
X163122734Y-46455500D01*
X163122735Y-46455500D01*
X163170485Y-46442705D01*
X163218237Y-46429910D01*
X163303861Y-46380475D01*
X163373774Y-46310562D01*
X163373773Y-46310562D01*
X163432342Y-46251993D01*
X163736452Y-45947883D01*
X163797772Y-45914400D01*
X163867464Y-45919384D01*
X163923397Y-45961256D01*
X163946603Y-46016166D01*
X163951597Y-46047699D01*
X163951598Y-46047701D01*
X164005127Y-46212445D01*
X164083768Y-46366788D01*
X164185586Y-46506928D01*
X164185588Y-46506930D01*
X164301814Y-46623156D01*
X164335299Y-46684479D01*
X164330315Y-46754171D01*
X164301814Y-46798518D01*
X161728076Y-49372255D01*
X161666753Y-49405740D01*
X161597061Y-49400756D01*
X161541128Y-49358884D01*
X161516711Y-49293420D01*
X161518778Y-49260383D01*
X161549999Y-49103420D01*
X161550000Y-49103417D01*
X161550000Y-48896583D01*
X161549999Y-48896579D01*
X161509651Y-48693733D01*
X161509649Y-48693725D01*
X161430498Y-48502639D01*
X161430495Y-48502633D01*
X161398621Y-48454932D01*
X161398620Y-48454931D01*
X160900000Y-48953553D01*
X160900000Y-48947339D01*
X160872741Y-48845606D01*
X160820080Y-48754394D01*
X160745606Y-48679920D01*
X160654394Y-48627259D01*
X160552661Y-48600000D01*
X160546447Y-48600000D01*
X161045067Y-48101378D01*
X161045067Y-48101377D01*
X160997359Y-48069500D01*
X160806274Y-47990350D01*
X160806266Y-47990348D01*
X160603420Y-47950000D01*
X160396579Y-47950000D01*
X160193733Y-47990348D01*
X160193725Y-47990350D01*
X160002641Y-48069500D01*
X160002631Y-48069505D01*
X159954932Y-48101377D01*
X159954932Y-48101378D01*
X160453554Y-48600000D01*
X160447339Y-48600000D01*
X160345606Y-48627259D01*
X160254394Y-48679920D01*
X160179920Y-48754394D01*
X160127259Y-48845606D01*
X160100000Y-48947339D01*
X160100000Y-48953553D01*
X159601378Y-48454932D01*
X159601377Y-48454932D01*
X159569505Y-48502631D01*
X159569500Y-48502641D01*
X159490350Y-48693725D01*
X159490348Y-48693733D01*
X159450000Y-48896579D01*
X159450000Y-49103420D01*
X159490348Y-49306266D01*
X159490350Y-49306274D01*
X159569500Y-49497359D01*
X159601377Y-49545067D01*
X159601378Y-49545067D01*
X160100000Y-49046445D01*
X160100000Y-49052661D01*
X160127259Y-49154394D01*
X160179920Y-49245606D01*
X160254394Y-49320080D01*
X160345606Y-49372741D01*
X160447339Y-49400000D01*
X160453553Y-49400000D01*
X159954931Y-49898620D01*
X159954932Y-49898621D01*
X160002633Y-49930495D01*
X160002639Y-49930498D01*
X160193725Y-50009649D01*
X160193733Y-50009651D01*
X160396579Y-50049999D01*
X160396583Y-50050000D01*
X160603417Y-50050000D01*
X160603420Y-50049999D01*
X160760383Y-50018778D01*
X160829975Y-50025005D01*
X160885152Y-50067868D01*
X160908396Y-50133758D01*
X160892328Y-50201755D01*
X160872255Y-50228076D01*
X157104667Y-53995664D01*
X157043344Y-54029149D01*
X156973652Y-54024165D01*
X156917719Y-53982293D01*
X156913883Y-53976873D01*
X156857446Y-53892409D01*
X156815977Y-53830345D01*
X156815975Y-53830342D01*
X156669657Y-53684024D01*
X156539425Y-53597007D01*
X156497598Y-53569059D01*
X156367914Y-53515342D01*
X156306420Y-53489870D01*
X156306412Y-53489868D01*
X156103469Y-53449500D01*
X156103465Y-53449500D01*
X155896535Y-53449500D01*
X155896530Y-53449500D01*
X155693587Y-53489868D01*
X155693579Y-53489870D01*
X155502403Y-53569058D01*
X155330342Y-53684024D01*
X155184024Y-53830342D01*
X155069058Y-54002403D01*
X155050191Y-54047953D01*
X155006350Y-54102356D01*
X154940056Y-54124421D01*
X154935630Y-54124500D01*
X150564370Y-54124500D01*
X150497331Y-54104815D01*
X150451576Y-54052011D01*
X150449809Y-54047953D01*
X150442020Y-54029149D01*
X150430941Y-54002402D01*
X150315977Y-53830345D01*
X150315975Y-53830342D01*
X150169657Y-53684024D01*
X150039425Y-53597007D01*
X149997598Y-53569059D01*
X149867914Y-53515342D01*
X149806420Y-53489870D01*
X149806412Y-53489868D01*
X149603469Y-53449500D01*
X149603465Y-53449500D01*
X149396535Y-53449500D01*
X149396530Y-53449500D01*
X149193587Y-53489868D01*
X149193579Y-53489870D01*
X149002403Y-53569058D01*
X148830342Y-53684024D01*
X148684024Y-53830342D01*
X148569057Y-54002403D01*
X148489061Y-54195533D01*
X148445220Y-54249936D01*
X148378926Y-54272001D01*
X148311226Y-54254722D01*
X148263616Y-54203584D01*
X148250500Y-54148080D01*
X148250500Y-49614613D01*
X148270185Y-49547574D01*
X148322989Y-49501819D01*
X148392147Y-49491875D01*
X148443389Y-49511510D01*
X148502402Y-49550941D01*
X148693580Y-49630130D01*
X148864018Y-49664032D01*
X148896530Y-49670499D01*
X148896534Y-49670500D01*
X148896535Y-49670500D01*
X149103466Y-49670500D01*
X149103467Y-49670499D01*
X149306420Y-49630130D01*
X149497598Y-49550941D01*
X149669655Y-49435977D01*
X149815977Y-49289655D01*
X149930941Y-49117598D01*
X150010130Y-48926420D01*
X150050500Y-48723465D01*
X150050500Y-48516535D01*
X150050499Y-48516530D01*
X155569500Y-48516530D01*
X155569500Y-48723469D01*
X155609868Y-48926412D01*
X155609870Y-48926420D01*
X155689058Y-49117596D01*
X155804024Y-49289657D01*
X155950342Y-49435975D01*
X155950345Y-49435977D01*
X156122402Y-49550941D01*
X156313580Y-49630130D01*
X156484018Y-49664032D01*
X156516530Y-49670499D01*
X156516534Y-49670500D01*
X156516535Y-49670500D01*
X156723466Y-49670500D01*
X156723467Y-49670499D01*
X156926420Y-49630130D01*
X157117598Y-49550941D01*
X157289655Y-49435977D01*
X157435977Y-49289655D01*
X157550941Y-49117598D01*
X157630130Y-48926420D01*
X157639345Y-48880095D01*
X157642089Y-48866301D01*
X157670499Y-48723469D01*
X157670500Y-48723466D01*
X157670500Y-48516534D01*
X157670499Y-48516530D01*
X157654772Y-48437465D01*
X157630130Y-48313580D01*
X157576465Y-48184023D01*
X157550942Y-48122404D01*
X157549272Y-48119905D01*
X157435977Y-47950345D01*
X157435975Y-47950342D01*
X157289657Y-47804024D01*
X157180189Y-47730881D01*
X157117598Y-47689059D01*
X157049778Y-47660967D01*
X156926420Y-47609870D01*
X156926412Y-47609868D01*
X156723469Y-47569500D01*
X156723465Y-47569500D01*
X156516535Y-47569500D01*
X156516530Y-47569500D01*
X156313587Y-47609868D01*
X156313579Y-47609870D01*
X156122403Y-47689058D01*
X155950342Y-47804024D01*
X155804024Y-47950342D01*
X155689058Y-48122403D01*
X155609870Y-48313579D01*
X155609868Y-48313587D01*
X155569500Y-48516530D01*
X150050499Y-48516530D01*
X150010130Y-48313580D01*
X149930941Y-48122402D01*
X149815977Y-47950345D01*
X149815975Y-47950342D01*
X149669657Y-47804024D01*
X149560189Y-47730881D01*
X149497598Y-47689059D01*
X149429778Y-47660967D01*
X149306420Y-47609870D01*
X149306412Y-47609868D01*
X149103469Y-47569500D01*
X149103465Y-47569500D01*
X148896535Y-47569500D01*
X148896530Y-47569500D01*
X148693587Y-47609868D01*
X148693579Y-47609870D01*
X148502403Y-47689058D01*
X148443390Y-47728489D01*
X148433690Y-47731526D01*
X148426011Y-47738180D01*
X148400912Y-47741788D01*
X148376712Y-47749366D01*
X148366912Y-47746677D01*
X148356853Y-47748124D01*
X148333786Y-47737589D01*
X148309332Y-47730881D01*
X148302541Y-47723320D01*
X148293297Y-47719099D01*
X148279585Y-47697763D01*
X148262643Y-47678901D01*
X148260012Y-47667306D01*
X148255523Y-47660321D01*
X148250500Y-47625386D01*
X148250500Y-47411898D01*
X148270185Y-47344859D01*
X148286815Y-47324221D01*
X148512896Y-47098139D01*
X148574217Y-47064656D01*
X148643908Y-47069640D01*
X148647972Y-47071238D01*
X148693580Y-47090130D01*
X148896530Y-47130499D01*
X148896534Y-47130500D01*
X148896535Y-47130500D01*
X149103466Y-47130500D01*
X149103467Y-47130499D01*
X149306420Y-47090130D01*
X149497598Y-47010941D01*
X149669655Y-46895977D01*
X149815977Y-46749655D01*
X149930941Y-46577598D01*
X150010130Y-46386420D01*
X150050500Y-46183465D01*
X150050500Y-45976535D01*
X150010130Y-45773580D01*
X149930941Y-45582402D01*
X149815977Y-45410345D01*
X149815975Y-45410342D01*
X149669657Y-45264024D01*
X149554959Y-45187386D01*
X149497598Y-45149059D01*
X149306420Y-45069870D01*
X149306412Y-45069868D01*
X149103469Y-45029500D01*
X149103465Y-45029500D01*
X148896535Y-45029500D01*
X148896530Y-45029500D01*
X148693587Y-45069868D01*
X148693579Y-45069870D01*
X148502403Y-45149058D01*
X148330342Y-45264024D01*
X148184024Y-45410342D01*
X148069058Y-45582403D01*
X147989870Y-45773579D01*
X147989868Y-45773587D01*
X147949500Y-45976530D01*
X147949500Y-46183469D01*
X147989867Y-46386412D01*
X147989869Y-46386416D01*
X147989870Y-46386420D01*
X148007883Y-46429908D01*
X148008738Y-46431972D01*
X148016205Y-46501442D01*
X147984929Y-46563920D01*
X147981858Y-46567104D01*
X147644438Y-46904525D01*
X147574526Y-46974436D01*
X147525091Y-47060059D01*
X147525091Y-47060060D01*
X147525090Y-47060062D01*
X147499500Y-47155565D01*
X131000500Y-47155565D01*
X131000500Y-45352135D01*
X134024500Y-45352135D01*
X134024500Y-46647870D01*
X134024501Y-46647876D01*
X134030908Y-46707483D01*
X134081202Y-46842328D01*
X134081206Y-46842335D01*
X134167452Y-46957544D01*
X134167455Y-46957547D01*
X134282664Y-47043793D01*
X134282671Y-47043797D01*
X134417517Y-47094091D01*
X134417516Y-47094091D01*
X134424444Y-47094835D01*
X134477127Y-47100500D01*
X136022872Y-47100499D01*
X136082483Y-47094091D01*
X136217331Y-47043796D01*
X136332546Y-46957546D01*
X136418796Y-46842331D01*
X136469091Y-46707483D01*
X136475500Y-46647873D01*
X136475499Y-45352128D01*
X136469091Y-45292517D01*
X136458463Y-45264023D01*
X136418797Y-45157671D01*
X136418793Y-45157664D01*
X136332547Y-45042455D01*
X136332544Y-45042452D01*
X136217334Y-44956206D01*
X136217328Y-44956202D01*
X136082482Y-44905908D01*
X136082483Y-44905908D01*
X136022883Y-44899501D01*
X136022881Y-44899500D01*
X136022873Y-44899500D01*
X136022864Y-44899500D01*
X134477129Y-44899500D01*
X134477123Y-44899501D01*
X134417516Y-44905908D01*
X134282671Y-44956202D01*
X134282664Y-44956206D01*
X134167455Y-45042452D01*
X134167452Y-45042455D01*
X134081206Y-45157664D01*
X134081202Y-45157671D01*
X134030908Y-45292517D01*
X134024501Y-45352116D01*
X134024501Y-45352123D01*
X134024500Y-45352135D01*
X131000500Y-45352135D01*
X131000500Y-43896579D01*
X143950000Y-43896579D01*
X143950000Y-44103420D01*
X143990348Y-44306266D01*
X143990350Y-44306274D01*
X144069500Y-44497359D01*
X144101377Y-44545067D01*
X144101378Y-44545067D01*
X144600000Y-44046445D01*
X144600000Y-44052661D01*
X144627259Y-44154394D01*
X144679920Y-44245606D01*
X144754394Y-44320080D01*
X144845606Y-44372741D01*
X144947339Y-44400000D01*
X144953554Y-44400000D01*
X144454931Y-44898620D01*
X144454932Y-44898621D01*
X144502633Y-44930495D01*
X144502639Y-44930498D01*
X144693725Y-45009649D01*
X144693733Y-45009651D01*
X144896579Y-45049999D01*
X144896583Y-45050000D01*
X145103417Y-45050000D01*
X145103420Y-45049999D01*
X145306266Y-45009651D01*
X145306274Y-45009649D01*
X145497366Y-44930495D01*
X145545066Y-44898621D01*
X145545067Y-44898620D01*
X145046447Y-44400000D01*
X145052661Y-44400000D01*
X145154394Y-44372741D01*
X145245606Y-44320080D01*
X145320080Y-44245606D01*
X145372741Y-44154394D01*
X145400000Y-44052661D01*
X145400000Y-44046446D01*
X145898620Y-44545067D01*
X145898621Y-44545066D01*
X145930495Y-44497366D01*
X146009649Y-44306274D01*
X146009651Y-44306266D01*
X146049999Y-44103420D01*
X146050000Y-44103417D01*
X146050000Y-43896583D01*
X146049999Y-43896579D01*
X146009651Y-43693733D01*
X146009649Y-43693725D01*
X145930498Y-43502639D01*
X145930495Y-43502633D01*
X145898621Y-43454932D01*
X145898620Y-43454931D01*
X145400000Y-43953552D01*
X145400000Y-43947339D01*
X145372741Y-43845606D01*
X145320080Y-43754394D01*
X145245606Y-43679920D01*
X145154394Y-43627259D01*
X145052661Y-43600000D01*
X145046447Y-43600000D01*
X145545067Y-43101378D01*
X145545067Y-43101377D01*
X145497359Y-43069500D01*
X145306274Y-42990350D01*
X145306266Y-42990348D01*
X145103420Y-42950000D01*
X144896579Y-42950000D01*
X144693733Y-42990348D01*
X144693725Y-42990350D01*
X144502641Y-43069500D01*
X144502631Y-43069505D01*
X144454932Y-43101377D01*
X144454932Y-43101378D01*
X144953554Y-43600000D01*
X144947339Y-43600000D01*
X144845606Y-43627259D01*
X144754394Y-43679920D01*
X144679920Y-43754394D01*
X144627259Y-43845606D01*
X144600000Y-43947339D01*
X144600000Y-43953554D01*
X144101378Y-43454932D01*
X144101377Y-43454932D01*
X144069505Y-43502631D01*
X144069500Y-43502641D01*
X143990350Y-43693725D01*
X143990348Y-43693733D01*
X143950000Y-43896579D01*
X131000500Y-43896579D01*
X131000500Y-40402135D01*
X147949500Y-40402135D01*
X147949500Y-41597870D01*
X147949501Y-41597876D01*
X147955908Y-41657483D01*
X148006202Y-41792328D01*
X148006206Y-41792335D01*
X148092452Y-41907544D01*
X148092455Y-41907547D01*
X148207664Y-41993793D01*
X148207671Y-41993797D01*
X148342517Y-42044091D01*
X148342516Y-42044091D01*
X148349444Y-42044835D01*
X148402127Y-42050500D01*
X149597872Y-42050499D01*
X149657483Y-42044091D01*
X149792331Y-41993796D01*
X149907546Y-41907546D01*
X149993796Y-41792331D01*
X150044091Y-41657483D01*
X150050500Y-41597873D01*
X150050499Y-40896530D01*
X155569500Y-40896530D01*
X155569500Y-41103469D01*
X155609868Y-41306412D01*
X155609870Y-41306420D01*
X155689058Y-41497596D01*
X155804024Y-41669657D01*
X155950342Y-41815975D01*
X155950345Y-41815977D01*
X156122402Y-41930941D01*
X156313580Y-42010130D01*
X156484315Y-42044091D01*
X156516530Y-42050499D01*
X156516534Y-42050500D01*
X156516535Y-42050500D01*
X156723466Y-42050500D01*
X156723467Y-42050499D01*
X156926420Y-42010130D01*
X157117598Y-41930941D01*
X157289655Y-41815977D01*
X157435977Y-41669655D01*
X157550941Y-41497598D01*
X157630130Y-41306420D01*
X157670500Y-41103465D01*
X157670500Y-40896535D01*
X157630130Y-40693580D01*
X157550941Y-40502402D01*
X157435977Y-40330345D01*
X157435975Y-40330342D01*
X157289657Y-40184024D01*
X157152608Y-40092452D01*
X157117598Y-40069059D01*
X156926420Y-39989870D01*
X156926412Y-39989868D01*
X156723469Y-39949500D01*
X156723465Y-39949500D01*
X156516535Y-39949500D01*
X156516530Y-39949500D01*
X156313587Y-39989868D01*
X156313579Y-39989870D01*
X156122403Y-40069058D01*
X155950342Y-40184024D01*
X155804024Y-40330342D01*
X155689058Y-40502403D01*
X155609870Y-40693579D01*
X155609868Y-40693587D01*
X155569500Y-40896530D01*
X150050499Y-40896530D01*
X150050499Y-40402128D01*
X150044091Y-40342517D01*
X150039551Y-40330345D01*
X149993797Y-40207671D01*
X149993793Y-40207664D01*
X149907547Y-40092455D01*
X149907544Y-40092452D01*
X149792335Y-40006206D01*
X149792328Y-40006202D01*
X149657482Y-39955908D01*
X149657483Y-39955908D01*
X149597883Y-39949501D01*
X149597881Y-39949500D01*
X149597873Y-39949500D01*
X149597864Y-39949500D01*
X148402129Y-39949500D01*
X148402123Y-39949501D01*
X148342516Y-39955908D01*
X148207671Y-40006202D01*
X148207664Y-40006206D01*
X148092455Y-40092452D01*
X148092452Y-40092455D01*
X148006206Y-40207664D01*
X148006202Y-40207671D01*
X147955908Y-40342517D01*
X147949501Y-40402116D01*
X147949501Y-40402123D01*
X147949500Y-40402135D01*
X131000500Y-40402135D01*
X131000500Y-35124000D01*
X131020185Y-35056961D01*
X131072989Y-35011206D01*
X131124500Y-35000000D01*
X179875500Y-35000000D01*
X179942539Y-35019685D01*
G37*
%TD.AperFunction*%
%TD*%
%TA.AperFunction,Conductor*%
%TO.N,GND*%
G36*
X224442539Y-35019685D02*
G01*
X224488294Y-35072489D01*
X224499500Y-35124000D01*
X224499500Y-62376000D01*
X224479815Y-62443039D01*
X224427011Y-62488794D01*
X224375500Y-62500000D01*
X181124500Y-62500000D01*
X181057461Y-62480315D01*
X181011706Y-62427511D01*
X181000500Y-62376000D01*
X181000500Y-55703428D01*
X197425000Y-55703428D01*
X197425000Y-55876571D01*
X197452085Y-56047584D01*
X197505592Y-56212259D01*
X197584196Y-56366525D01*
X197588709Y-56372736D01*
X197588709Y-56372737D01*
X198042037Y-55919409D01*
X198059075Y-55982993D01*
X198124901Y-56097007D01*
X198217993Y-56190099D01*
X198332007Y-56255925D01*
X198395589Y-56272962D01*
X197942261Y-56726289D01*
X197942262Y-56726290D01*
X197948471Y-56730801D01*
X198102742Y-56809408D01*
X198267415Y-56862914D01*
X198438429Y-56890000D01*
X198611571Y-56890000D01*
X198782584Y-56862914D01*
X198947257Y-56809408D01*
X199101525Y-56730803D01*
X199107736Y-56726289D01*
X199107737Y-56726289D01*
X198654410Y-56272962D01*
X198717993Y-56255925D01*
X198832007Y-56190099D01*
X198925099Y-56097007D01*
X198990925Y-55982993D01*
X199007962Y-55919409D01*
X199461289Y-56372736D01*
X199465803Y-56366525D01*
X199544408Y-56212257D01*
X199597914Y-56047584D01*
X199625000Y-55876571D01*
X199625000Y-55703428D01*
X199597914Y-55532415D01*
X199544408Y-55367742D01*
X199465801Y-55213471D01*
X199461290Y-55207262D01*
X199461289Y-55207261D01*
X199007962Y-55660589D01*
X198990925Y-55597007D01*
X198925099Y-55482993D01*
X198832007Y-55389901D01*
X198717993Y-55324075D01*
X198654409Y-55307037D01*
X199107737Y-54853709D01*
X199101525Y-54849196D01*
X198947259Y-54770592D01*
X198782584Y-54717085D01*
X198611571Y-54690000D01*
X198438429Y-54690000D01*
X198267415Y-54717085D01*
X198102740Y-54770592D01*
X197948480Y-54849193D01*
X197948463Y-54849203D01*
X197942261Y-54853708D01*
X197942261Y-54853709D01*
X198395590Y-55307037D01*
X198332007Y-55324075D01*
X198217993Y-55389901D01*
X198124901Y-55482993D01*
X198059075Y-55597007D01*
X198042037Y-55660590D01*
X197588709Y-55207261D01*
X197588708Y-55207261D01*
X197584203Y-55213463D01*
X197584193Y-55213480D01*
X197505592Y-55367740D01*
X197452085Y-55532415D01*
X197425000Y-55703428D01*
X181000500Y-55703428D01*
X181000500Y-53413389D01*
X184024500Y-53413389D01*
X184024500Y-53586610D01*
X184047299Y-53730562D01*
X184051598Y-53757701D01*
X184105127Y-53922445D01*
X184183768Y-54076788D01*
X184285586Y-54216928D01*
X184408072Y-54339414D01*
X184548212Y-54441232D01*
X184702555Y-54519873D01*
X184867299Y-54573402D01*
X185038389Y-54600500D01*
X185038390Y-54600500D01*
X185461610Y-54600500D01*
X185461611Y-54600500D01*
X185632701Y-54573402D01*
X185797445Y-54519873D01*
X185951788Y-54441232D01*
X186091928Y-54339414D01*
X186214414Y-54216928D01*
X186316232Y-54076788D01*
X186384295Y-53943206D01*
X186432269Y-53892409D01*
X186494780Y-53875500D01*
X190889435Y-53875500D01*
X190889436Y-53875500D01*
X190937186Y-53862705D01*
X190984938Y-53849910D01*
X191070562Y-53800475D01*
X191140475Y-53730562D01*
X195974505Y-48896530D01*
X196829500Y-48896530D01*
X196829500Y-49103469D01*
X196869868Y-49306412D01*
X196869870Y-49306420D01*
X196949058Y-49497596D01*
X197064024Y-49669657D01*
X197210342Y-49815975D01*
X197210345Y-49815977D01*
X197382402Y-49930941D01*
X197573580Y-50010130D01*
X197776530Y-50050499D01*
X197776534Y-50050500D01*
X197776535Y-50050500D01*
X197983466Y-50050500D01*
X197983467Y-50050499D01*
X198186420Y-50010130D01*
X198377598Y-49930941D01*
X198549655Y-49815977D01*
X198695977Y-49669655D01*
X198810941Y-49497598D01*
X198890130Y-49306420D01*
X198930500Y-49103465D01*
X198930500Y-48896535D01*
X198890130Y-48693580D01*
X198810941Y-48502402D01*
X198695977Y-48330345D01*
X198695975Y-48330342D01*
X198549657Y-48184024D01*
X198451113Y-48118180D01*
X198377598Y-48069059D01*
X198349378Y-48057370D01*
X198186420Y-47989870D01*
X198186412Y-47989868D01*
X197983469Y-47949500D01*
X197983465Y-47949500D01*
X197776535Y-47949500D01*
X197776530Y-47949500D01*
X197573587Y-47989868D01*
X197573579Y-47989870D01*
X197382403Y-48069058D01*
X197210342Y-48184024D01*
X197064024Y-48330342D01*
X196949058Y-48502403D01*
X196869870Y-48693579D01*
X196869868Y-48693587D01*
X196829500Y-48896530D01*
X195974505Y-48896530D01*
X197392896Y-47478139D01*
X197454217Y-47444656D01*
X197523909Y-47449640D01*
X197527972Y-47451238D01*
X197573580Y-47470130D01*
X197776530Y-47510499D01*
X197776534Y-47510500D01*
X197776535Y-47510500D01*
X197983466Y-47510500D01*
X197983467Y-47510499D01*
X198186420Y-47470130D01*
X198377598Y-47390941D01*
X198549655Y-47275977D01*
X198695977Y-47129655D01*
X198810941Y-46957598D01*
X198890130Y-46766420D01*
X198930500Y-46563465D01*
X198930500Y-46356535D01*
X198890130Y-46153580D01*
X198810941Y-45962402D01*
X198695977Y-45790345D01*
X198695975Y-45790342D01*
X198549657Y-45644024D01*
X198412921Y-45552661D01*
X198377598Y-45529059D01*
X198377593Y-45529057D01*
X198186420Y-45449870D01*
X198186412Y-45449868D01*
X197983469Y-45409500D01*
X197983465Y-45409500D01*
X197776535Y-45409500D01*
X197776530Y-45409500D01*
X197573587Y-45449868D01*
X197573579Y-45449870D01*
X197382403Y-45529058D01*
X197210342Y-45644024D01*
X197064024Y-45790342D01*
X196949058Y-45962403D01*
X196869870Y-46153579D01*
X196869868Y-46153587D01*
X196829500Y-46356530D01*
X196829500Y-46563469D01*
X196869867Y-46766412D01*
X196869869Y-46766416D01*
X196869870Y-46766420D01*
X196888327Y-46810980D01*
X196888738Y-46811972D01*
X196896205Y-46881442D01*
X196864929Y-46943920D01*
X196861857Y-46947104D01*
X190720782Y-53088181D01*
X190659459Y-53121666D01*
X190633101Y-53124500D01*
X186494780Y-53124500D01*
X186427741Y-53104815D01*
X186384295Y-53056794D01*
X186316233Y-52923213D01*
X186300937Y-52902160D01*
X186214414Y-52783072D01*
X186091928Y-52660586D01*
X185951788Y-52558768D01*
X185797445Y-52480127D01*
X185632701Y-52426598D01*
X185632699Y-52426597D01*
X185632698Y-52426597D01*
X185501271Y-52405781D01*
X185461611Y-52399500D01*
X185038389Y-52399500D01*
X184998728Y-52405781D01*
X184867302Y-52426597D01*
X184702552Y-52480128D01*
X184548211Y-52558768D01*
X184468256Y-52616859D01*
X184408072Y-52660586D01*
X184408070Y-52660588D01*
X184408069Y-52660588D01*
X184285588Y-52783069D01*
X184285588Y-52783070D01*
X184285586Y-52783072D01*
X184271826Y-52802011D01*
X184183768Y-52923211D01*
X184105128Y-53077552D01*
X184051597Y-53242302D01*
X184024500Y-53413389D01*
X181000500Y-53413389D01*
X181000500Y-50913389D01*
X184024500Y-50913389D01*
X184024500Y-51086611D01*
X184051598Y-51257701D01*
X184105127Y-51422445D01*
X184183768Y-51576788D01*
X184285586Y-51716928D01*
X184408072Y-51839414D01*
X184548212Y-51941232D01*
X184702555Y-52019873D01*
X184867299Y-52073402D01*
X185038389Y-52100500D01*
X185038390Y-52100500D01*
X185461610Y-52100500D01*
X185461611Y-52100500D01*
X185632701Y-52073402D01*
X185797445Y-52019873D01*
X185951788Y-51941232D01*
X186091928Y-51839414D01*
X186214414Y-51716928D01*
X186316232Y-51576788D01*
X186394873Y-51422445D01*
X186448402Y-51257701D01*
X186475500Y-51086611D01*
X186475500Y-50913389D01*
X186472597Y-50895063D01*
X186448402Y-50742302D01*
X186448402Y-50742299D01*
X186394873Y-50577555D01*
X186316232Y-50423212D01*
X186214414Y-50283072D01*
X186091928Y-50160586D01*
X185951788Y-50058768D01*
X185797445Y-49980127D01*
X185632701Y-49926598D01*
X185632699Y-49926597D01*
X185632698Y-49926597D01*
X185501271Y-49905781D01*
X185461611Y-49899500D01*
X185038389Y-49899500D01*
X184998728Y-49905781D01*
X184867302Y-49926597D01*
X184702552Y-49980128D01*
X184548211Y-50058768D01*
X184468256Y-50116859D01*
X184408072Y-50160586D01*
X184408070Y-50160588D01*
X184408069Y-50160588D01*
X184285588Y-50283069D01*
X184285588Y-50283070D01*
X184285586Y-50283072D01*
X184241859Y-50343256D01*
X184183768Y-50423211D01*
X184105128Y-50577552D01*
X184051597Y-50742302D01*
X184027402Y-50895064D01*
X184024500Y-50913389D01*
X181000500Y-50913389D01*
X181000500Y-48249999D01*
X184050884Y-48249999D01*
X184050885Y-48250000D01*
X184845854Y-48250000D01*
X184807370Y-48316657D01*
X184775000Y-48437465D01*
X184775000Y-48562535D01*
X184807370Y-48683343D01*
X184845854Y-48750000D01*
X184050885Y-48750000D01*
X184052085Y-48757584D01*
X184105591Y-48922255D01*
X184184195Y-49076524D01*
X184285967Y-49216602D01*
X184408397Y-49339032D01*
X184548475Y-49440804D01*
X184702744Y-49519408D01*
X184867415Y-49572913D01*
X185000000Y-49593913D01*
X185000000Y-48904145D01*
X185066657Y-48942630D01*
X185187465Y-48975000D01*
X185312535Y-48975000D01*
X185433343Y-48942630D01*
X185500000Y-48904145D01*
X185500000Y-49593912D01*
X185632584Y-49572913D01*
X185797255Y-49519408D01*
X185951524Y-49440804D01*
X186091602Y-49339032D01*
X186214032Y-49216602D01*
X186315804Y-49076524D01*
X186394408Y-48922255D01*
X186447914Y-48757584D01*
X186449115Y-48750000D01*
X185654146Y-48750000D01*
X185692630Y-48683343D01*
X185725000Y-48562535D01*
X185725000Y-48437465D01*
X185692630Y-48316657D01*
X185654146Y-48250000D01*
X186449115Y-48250000D01*
X186449115Y-48249999D01*
X186447914Y-48242415D01*
X186394408Y-48077744D01*
X186315804Y-47923475D01*
X186214032Y-47783397D01*
X186091602Y-47660967D01*
X185951524Y-47559195D01*
X185797257Y-47480591D01*
X185632585Y-47427086D01*
X185500000Y-47406086D01*
X185500000Y-48095854D01*
X185433343Y-48057370D01*
X185312535Y-48025000D01*
X185187465Y-48025000D01*
X185066657Y-48057370D01*
X185000000Y-48095854D01*
X185000000Y-47406086D01*
X184867414Y-47427086D01*
X184702742Y-47480591D01*
X184548475Y-47559195D01*
X184408397Y-47660967D01*
X184285967Y-47783397D01*
X184184195Y-47923475D01*
X184105591Y-48077744D01*
X184052085Y-48242415D01*
X184050884Y-48249999D01*
X181000500Y-48249999D01*
X181000500Y-45352135D01*
X184024500Y-45352135D01*
X184024500Y-46647870D01*
X184024501Y-46647876D01*
X184030908Y-46707483D01*
X184081202Y-46842328D01*
X184081206Y-46842335D01*
X184167452Y-46957544D01*
X184167455Y-46957547D01*
X184282664Y-47043793D01*
X184282671Y-47043797D01*
X184417517Y-47094091D01*
X184417516Y-47094091D01*
X184424444Y-47094835D01*
X184477127Y-47100500D01*
X186022872Y-47100499D01*
X186082483Y-47094091D01*
X186217331Y-47043796D01*
X186332546Y-46957546D01*
X186418796Y-46842331D01*
X186469091Y-46707483D01*
X186475500Y-46647873D01*
X186475499Y-45396530D01*
X192949500Y-45396530D01*
X192949500Y-45603469D01*
X192989868Y-45806412D01*
X192989870Y-45806420D01*
X193069058Y-45997596D01*
X193184024Y-46169657D01*
X193330342Y-46315975D01*
X193330345Y-46315977D01*
X193502402Y-46430941D01*
X193693580Y-46510130D01*
X193894016Y-46549999D01*
X193896530Y-46550499D01*
X193896534Y-46550500D01*
X193896535Y-46550500D01*
X194103466Y-46550500D01*
X194103467Y-46550499D01*
X194306420Y-46510130D01*
X194497598Y-46430941D01*
X194669655Y-46315977D01*
X194815977Y-46169655D01*
X194930941Y-45997598D01*
X195010130Y-45806420D01*
X195050500Y-45603465D01*
X195050500Y-45396535D01*
X195010130Y-45193580D01*
X194930941Y-45002402D01*
X194815977Y-44830345D01*
X194815975Y-44830342D01*
X194669657Y-44684024D01*
X194545967Y-44601378D01*
X194497598Y-44569059D01*
X194306420Y-44489870D01*
X194306412Y-44489868D01*
X194103469Y-44449500D01*
X194103465Y-44449500D01*
X193896535Y-44449500D01*
X193896530Y-44449500D01*
X193693587Y-44489868D01*
X193693579Y-44489870D01*
X193502403Y-44569058D01*
X193330342Y-44684024D01*
X193184024Y-44830342D01*
X193069058Y-45002403D01*
X192989870Y-45193579D01*
X192989868Y-45193587D01*
X192949500Y-45396530D01*
X186475499Y-45396530D01*
X186475499Y-45352128D01*
X186469091Y-45292517D01*
X186418796Y-45157669D01*
X186418795Y-45157668D01*
X186418793Y-45157664D01*
X186332547Y-45042455D01*
X186332544Y-45042452D01*
X186217335Y-44956206D01*
X186217328Y-44956202D01*
X186082482Y-44905908D01*
X186082483Y-44905908D01*
X186022883Y-44899501D01*
X186022881Y-44899500D01*
X186022873Y-44899500D01*
X186022864Y-44899500D01*
X184477129Y-44899500D01*
X184477123Y-44899501D01*
X184417516Y-44905908D01*
X184282671Y-44956202D01*
X184282664Y-44956206D01*
X184167455Y-45042452D01*
X184167452Y-45042455D01*
X184081206Y-45157664D01*
X184081202Y-45157671D01*
X184030908Y-45292517D01*
X184025201Y-45345606D01*
X184024501Y-45352123D01*
X184024500Y-45352135D01*
X181000500Y-45352135D01*
X181000500Y-43816530D01*
X196829500Y-43816530D01*
X196829500Y-44023469D01*
X196869868Y-44226412D01*
X196869870Y-44226420D01*
X196949058Y-44417596D01*
X197064024Y-44589657D01*
X197210342Y-44735975D01*
X197210345Y-44735977D01*
X197382402Y-44850941D01*
X197573580Y-44930130D01*
X197704654Y-44956202D01*
X197776530Y-44970499D01*
X197776534Y-44970500D01*
X197776535Y-44970500D01*
X197983466Y-44970500D01*
X197983467Y-44970499D01*
X198186420Y-44930130D01*
X198231972Y-44911261D01*
X198301437Y-44903792D01*
X198363917Y-44935065D01*
X198367104Y-44938141D01*
X204588181Y-51159218D01*
X204621666Y-51220541D01*
X204624500Y-51246899D01*
X204624500Y-52025500D01*
X204604815Y-52092539D01*
X204552011Y-52138294D01*
X204500500Y-52149500D01*
X204125323Y-52149500D01*
X204052264Y-52164032D01*
X204052260Y-52164033D01*
X203969399Y-52219399D01*
X203914033Y-52302260D01*
X203914032Y-52302264D01*
X203899500Y-52375321D01*
X203899500Y-52750500D01*
X203879815Y-52817539D01*
X203827011Y-52863294D01*
X203775500Y-52874500D01*
X199749500Y-52874500D01*
X199682461Y-52854815D01*
X199636706Y-52802011D01*
X199625500Y-52750500D01*
X199625500Y-52375323D01*
X199625499Y-52375321D01*
X199610967Y-52302264D01*
X199610966Y-52302260D01*
X199555601Y-52219399D01*
X199472740Y-52164034D01*
X199472739Y-52164033D01*
X199472735Y-52164032D01*
X199399677Y-52149500D01*
X199399674Y-52149500D01*
X197650326Y-52149500D01*
X197650323Y-52149500D01*
X197577264Y-52164032D01*
X197577260Y-52164033D01*
X197494399Y-52219399D01*
X197439033Y-52302260D01*
X197439032Y-52302264D01*
X197424500Y-52375321D01*
X197424500Y-54124678D01*
X197439032Y-54197735D01*
X197439033Y-54197739D01*
X197439034Y-54197740D01*
X197494399Y-54280601D01*
X197538309Y-54309940D01*
X197577260Y-54335966D01*
X197577264Y-54335967D01*
X197650321Y-54350499D01*
X197650324Y-54350500D01*
X197650326Y-54350500D01*
X199399676Y-54350500D01*
X199399677Y-54350499D01*
X199472740Y-54335966D01*
X199555601Y-54280601D01*
X199610966Y-54197740D01*
X199625500Y-54124674D01*
X199625500Y-53749500D01*
X199645185Y-53682461D01*
X199697989Y-53636706D01*
X199749500Y-53625500D01*
X203775500Y-53625500D01*
X203842539Y-53645185D01*
X203888294Y-53697989D01*
X203899500Y-53749500D01*
X203899500Y-54124678D01*
X203914032Y-54197735D01*
X203914033Y-54197739D01*
X203914034Y-54197740D01*
X203969399Y-54280601D01*
X204013309Y-54309940D01*
X204052260Y-54335966D01*
X204052264Y-54335967D01*
X204125321Y-54350499D01*
X204125324Y-54350500D01*
X205609100Y-54350500D01*
X205676139Y-54370185D01*
X205721894Y-54422989D01*
X205731838Y-54492147D01*
X205702813Y-54555703D01*
X205696781Y-54562181D01*
X205526284Y-54732677D01*
X205464961Y-54766162D01*
X205400286Y-54762927D01*
X205257701Y-54716598D01*
X205257699Y-54716597D01*
X205257698Y-54716597D01*
X205126271Y-54695781D01*
X205086611Y-54689500D01*
X204913389Y-54689500D01*
X204873728Y-54695781D01*
X204742302Y-54716597D01*
X204577552Y-54770128D01*
X204423211Y-54848768D01*
X204343256Y-54906859D01*
X204283072Y-54950586D01*
X204283070Y-54950588D01*
X204283069Y-54950588D01*
X204160588Y-55073069D01*
X204160588Y-55073070D01*
X204160586Y-55073072D01*
X204116859Y-55133256D01*
X204058768Y-55213211D01*
X203980128Y-55367552D01*
X203926597Y-55532302D01*
X203916349Y-55597007D01*
X203899500Y-55703389D01*
X203899500Y-55876611D01*
X203926598Y-56047701D01*
X203980127Y-56212445D01*
X204058768Y-56366788D01*
X204160586Y-56506928D01*
X204283072Y-56629414D01*
X204423212Y-56731232D01*
X204577555Y-56809873D01*
X204742299Y-56863402D01*
X204913389Y-56890500D01*
X204913390Y-56890500D01*
X205086610Y-56890500D01*
X205086611Y-56890500D01*
X205257701Y-56863402D01*
X205422445Y-56809873D01*
X205576788Y-56731232D01*
X205716928Y-56629414D01*
X205839414Y-56506928D01*
X205941232Y-56366788D01*
X206019873Y-56212445D01*
X206073402Y-56047701D01*
X206100500Y-55876611D01*
X206100500Y-55703389D01*
X206073402Y-55532299D01*
X206027071Y-55389710D01*
X206025077Y-55319871D01*
X206057320Y-55263715D01*
X206925474Y-54395563D01*
X206925475Y-54395562D01*
X206974910Y-54309938D01*
X207000500Y-54214435D01*
X207000500Y-48790899D01*
X207020185Y-48723860D01*
X207072989Y-48678105D01*
X207142147Y-48668161D01*
X207205703Y-48697186D01*
X207212181Y-48703218D01*
X209809438Y-51300475D01*
X209895063Y-51349911D01*
X209990564Y-51375500D01*
X209990565Y-51375500D01*
X216005220Y-51375500D01*
X216072259Y-51395185D01*
X216115705Y-51443206D01*
X216183766Y-51576786D01*
X216214357Y-51618890D01*
X216285586Y-51716928D01*
X216408072Y-51839414D01*
X216548212Y-51941232D01*
X216702555Y-52019873D01*
X216867299Y-52073402D01*
X217038389Y-52100500D01*
X217038390Y-52100500D01*
X217511610Y-52100500D01*
X217511611Y-52100500D01*
X217682701Y-52073402D01*
X217847445Y-52019873D01*
X218001788Y-51941232D01*
X218141928Y-51839414D01*
X218264414Y-51716928D01*
X218366232Y-51576788D01*
X218444873Y-51422445D01*
X218498402Y-51257701D01*
X218525500Y-51086611D01*
X218525500Y-50913389D01*
X218522597Y-50895063D01*
X218498402Y-50742302D01*
X218498402Y-50742299D01*
X218444873Y-50577555D01*
X218366232Y-50423212D01*
X218264414Y-50283072D01*
X218141928Y-50160586D01*
X218001788Y-50058768D01*
X217847445Y-49980127D01*
X217682701Y-49926598D01*
X217682699Y-49926597D01*
X217682698Y-49926597D01*
X217551271Y-49905781D01*
X217511611Y-49899500D01*
X217038389Y-49899500D01*
X216998728Y-49905781D01*
X216867302Y-49926597D01*
X216702552Y-49980128D01*
X216548211Y-50058768D01*
X216468256Y-50116859D01*
X216408072Y-50160586D01*
X216408070Y-50160588D01*
X216408069Y-50160588D01*
X216285588Y-50283069D01*
X216285588Y-50283070D01*
X216285586Y-50283072D01*
X216254996Y-50325174D01*
X216183766Y-50423213D01*
X216115705Y-50556794D01*
X216067731Y-50607591D01*
X216005220Y-50624500D01*
X210246899Y-50624500D01*
X210179860Y-50604815D01*
X210159218Y-50588181D01*
X207423192Y-47852155D01*
X216025000Y-47852155D01*
X216025000Y-48250000D01*
X216841988Y-48250000D01*
X216809075Y-48307007D01*
X216775000Y-48434174D01*
X216775000Y-48565826D01*
X216809075Y-48692993D01*
X216841988Y-48750000D01*
X216025000Y-48750000D01*
X216025000Y-49147844D01*
X216031401Y-49207372D01*
X216031403Y-49207379D01*
X216081645Y-49342086D01*
X216081649Y-49342093D01*
X216167809Y-49457187D01*
X216167812Y-49457190D01*
X216282906Y-49543350D01*
X216282913Y-49543354D01*
X216417620Y-49593596D01*
X216417627Y-49593598D01*
X216477155Y-49599999D01*
X216477172Y-49600000D01*
X217025000Y-49600000D01*
X217025000Y-48933012D01*
X217082007Y-48965925D01*
X217209174Y-49000000D01*
X217340826Y-49000000D01*
X217467993Y-48965925D01*
X217525000Y-48933012D01*
X217525000Y-49600000D01*
X218072828Y-49600000D01*
X218072844Y-49599999D01*
X218132372Y-49593598D01*
X218132379Y-49593596D01*
X218267086Y-49543354D01*
X218267093Y-49543350D01*
X218382187Y-49457190D01*
X218382190Y-49457187D01*
X218468350Y-49342093D01*
X218468354Y-49342086D01*
X218518596Y-49207379D01*
X218518598Y-49207372D01*
X218524999Y-49147844D01*
X218525000Y-49147827D01*
X218525000Y-48750000D01*
X217708012Y-48750000D01*
X217740925Y-48692993D01*
X217775000Y-48565826D01*
X217775000Y-48434174D01*
X217740925Y-48307007D01*
X217708012Y-48250000D01*
X218525000Y-48250000D01*
X218525000Y-47852172D01*
X218524999Y-47852155D01*
X218518598Y-47792627D01*
X218518596Y-47792620D01*
X218468354Y-47657913D01*
X218468350Y-47657906D01*
X218382190Y-47542812D01*
X218382187Y-47542809D01*
X218267093Y-47456649D01*
X218267086Y-47456645D01*
X218132379Y-47406403D01*
X218132372Y-47406401D01*
X218072844Y-47400000D01*
X217525000Y-47400000D01*
X217525000Y-48066988D01*
X217467993Y-48034075D01*
X217340826Y-48000000D01*
X217209174Y-48000000D01*
X217082007Y-48034075D01*
X217025000Y-48066988D01*
X217025000Y-47400000D01*
X216477155Y-47400000D01*
X216417627Y-47406401D01*
X216417620Y-47406403D01*
X216282913Y-47456645D01*
X216282906Y-47456649D01*
X216167812Y-47542809D01*
X216167809Y-47542812D01*
X216081649Y-47657906D01*
X216081645Y-47657913D01*
X216031403Y-47792620D01*
X216031401Y-47792627D01*
X216025000Y-47852155D01*
X207423192Y-47852155D01*
X206518141Y-46947104D01*
X206484656Y-46885781D01*
X206489640Y-46816089D01*
X206491237Y-46812029D01*
X206510130Y-46766420D01*
X206550500Y-46563465D01*
X206550500Y-46356535D01*
X206510130Y-46153580D01*
X206430941Y-45962402D01*
X206315977Y-45790345D01*
X206315975Y-45790342D01*
X206169657Y-45644024D01*
X205997596Y-45529057D01*
X205939643Y-45505053D01*
X205806420Y-45449870D01*
X205806412Y-45449868D01*
X205603469Y-45409500D01*
X205603465Y-45409500D01*
X205396535Y-45409500D01*
X205396530Y-45409500D01*
X205193587Y-45449868D01*
X205193579Y-45449870D01*
X205002403Y-45529058D01*
X204830342Y-45644024D01*
X204684024Y-45790342D01*
X204569058Y-45962403D01*
X204489870Y-46153579D01*
X204489868Y-46153587D01*
X204449500Y-46356530D01*
X204449500Y-46563469D01*
X204489868Y-46766412D01*
X204489870Y-46766420D01*
X204569058Y-46957596D01*
X204684024Y-47129657D01*
X204830342Y-47275975D01*
X204830345Y-47275977D01*
X205002402Y-47390941D01*
X205193580Y-47470130D01*
X205396530Y-47510499D01*
X205396534Y-47510500D01*
X205396535Y-47510500D01*
X205603466Y-47510500D01*
X205603467Y-47510499D01*
X205806420Y-47470130D01*
X205851972Y-47451261D01*
X205921437Y-47443792D01*
X205983917Y-47475065D01*
X205987104Y-47478141D01*
X206213181Y-47704218D01*
X206227884Y-47731145D01*
X206244477Y-47756964D01*
X206245368Y-47763164D01*
X206246666Y-47765541D01*
X206249500Y-47791899D01*
X206249500Y-48005386D01*
X206229815Y-48072425D01*
X206177011Y-48118180D01*
X206107853Y-48128124D01*
X206056610Y-48108489D01*
X206010596Y-48077744D01*
X205997598Y-48069059D01*
X205969378Y-48057370D01*
X205806420Y-47989870D01*
X205806412Y-47989868D01*
X205603469Y-47949500D01*
X205603465Y-47949500D01*
X205396535Y-47949500D01*
X205396530Y-47949500D01*
X205193587Y-47989868D01*
X205193579Y-47989870D01*
X205002403Y-48069058D01*
X204830342Y-48184024D01*
X204684024Y-48330342D01*
X204569058Y-48502403D01*
X204489870Y-48693579D01*
X204489868Y-48693587D01*
X204449500Y-48896530D01*
X204449500Y-49103469D01*
X204489868Y-49306412D01*
X204489870Y-49306420D01*
X204569058Y-49497596D01*
X204684024Y-49669657D01*
X204830342Y-49815975D01*
X204830345Y-49815977D01*
X205002402Y-49930941D01*
X205193580Y-50010130D01*
X205396530Y-50050499D01*
X205396534Y-50050500D01*
X205396535Y-50050500D01*
X205603466Y-50050500D01*
X205603467Y-50050499D01*
X205806420Y-50010130D01*
X205997598Y-49930941D01*
X206056610Y-49891510D01*
X206123287Y-49870633D01*
X206190667Y-49889118D01*
X206237357Y-49941096D01*
X206249500Y-49994613D01*
X206249500Y-52138936D01*
X206229815Y-52205975D01*
X206177011Y-52251730D01*
X206107853Y-52261674D01*
X206044297Y-52232649D01*
X206037819Y-52226617D01*
X206030603Y-52219401D01*
X206030601Y-52219400D01*
X206030601Y-52219399D01*
X205947740Y-52164034D01*
X205947739Y-52164033D01*
X205947735Y-52164032D01*
X205874677Y-52149500D01*
X205874674Y-52149500D01*
X205499500Y-52149500D01*
X205432461Y-52129815D01*
X205386706Y-52077011D01*
X205375500Y-52025500D01*
X205375500Y-50990567D01*
X205375500Y-50990565D01*
X205354821Y-50913389D01*
X205354821Y-50913387D01*
X205349911Y-50895064D01*
X205349912Y-50895064D01*
X205331817Y-50863724D01*
X205300475Y-50809438D01*
X199887616Y-45396579D01*
X208450000Y-45396579D01*
X208450000Y-45603420D01*
X208490348Y-45806266D01*
X208490350Y-45806274D01*
X208569500Y-45997359D01*
X208601377Y-46045067D01*
X208601378Y-46045067D01*
X209100000Y-45546445D01*
X209100000Y-45552661D01*
X209127259Y-45654394D01*
X209179920Y-45745606D01*
X209254394Y-45820080D01*
X209345606Y-45872741D01*
X209447339Y-45900000D01*
X209453554Y-45900000D01*
X208954931Y-46398620D01*
X208954932Y-46398621D01*
X209002633Y-46430495D01*
X209002639Y-46430498D01*
X209193725Y-46509649D01*
X209193733Y-46509651D01*
X209396579Y-46549999D01*
X209396583Y-46550000D01*
X209603417Y-46550000D01*
X209603420Y-46549999D01*
X209806266Y-46509651D01*
X209806274Y-46509649D01*
X209997366Y-46430495D01*
X210045066Y-46398621D01*
X210045067Y-46398620D01*
X209546447Y-45900000D01*
X209552661Y-45900000D01*
X209654394Y-45872741D01*
X209745606Y-45820080D01*
X209820080Y-45745606D01*
X209872741Y-45654394D01*
X209900000Y-45552661D01*
X209900000Y-45546446D01*
X210398620Y-46045067D01*
X210398621Y-46045066D01*
X210430495Y-45997366D01*
X210509649Y-45806274D01*
X210509651Y-45806266D01*
X210549999Y-45603420D01*
X210550000Y-45603417D01*
X210550000Y-45396583D01*
X210549999Y-45396579D01*
X210509651Y-45193733D01*
X210509649Y-45193725D01*
X210430498Y-45002639D01*
X210430495Y-45002633D01*
X210398621Y-44954932D01*
X210398620Y-44954931D01*
X209900000Y-45453552D01*
X209900000Y-45447339D01*
X209872741Y-45345606D01*
X209820080Y-45254394D01*
X209745606Y-45179920D01*
X209654394Y-45127259D01*
X209552661Y-45100000D01*
X209546447Y-45100000D01*
X210045067Y-44601378D01*
X210045067Y-44601377D01*
X209997359Y-44569500D01*
X209806274Y-44490350D01*
X209806266Y-44490348D01*
X209603420Y-44450000D01*
X209396579Y-44450000D01*
X209193733Y-44490348D01*
X209193725Y-44490350D01*
X209002641Y-44569500D01*
X209002631Y-44569505D01*
X208954932Y-44601377D01*
X208954932Y-44601378D01*
X209453554Y-45100000D01*
X209447339Y-45100000D01*
X209345606Y-45127259D01*
X209254394Y-45179920D01*
X209179920Y-45254394D01*
X209127259Y-45345606D01*
X209100000Y-45447339D01*
X209100000Y-45453554D01*
X208601378Y-44954932D01*
X208601377Y-44954932D01*
X208569505Y-45002631D01*
X208569500Y-45002641D01*
X208490350Y-45193725D01*
X208490348Y-45193733D01*
X208450000Y-45396579D01*
X199887616Y-45396579D01*
X198898141Y-44407104D01*
X198864656Y-44345781D01*
X198869640Y-44276089D01*
X198871237Y-44272029D01*
X198890130Y-44226420D01*
X198930500Y-44023465D01*
X198930500Y-43816535D01*
X198930499Y-43816530D01*
X204449500Y-43816530D01*
X204449500Y-44023469D01*
X204489868Y-44226412D01*
X204489870Y-44226420D01*
X204569058Y-44417596D01*
X204684024Y-44589657D01*
X204830342Y-44735975D01*
X204830345Y-44735977D01*
X205002402Y-44850941D01*
X205193580Y-44930130D01*
X205324654Y-44956202D01*
X205396530Y-44970499D01*
X205396534Y-44970500D01*
X205396535Y-44970500D01*
X205603466Y-44970500D01*
X205603467Y-44970499D01*
X205806420Y-44930130D01*
X205997598Y-44850941D01*
X206169655Y-44735977D01*
X206315977Y-44589655D01*
X206430941Y-44417598D01*
X206510130Y-44226420D01*
X206550500Y-44023465D01*
X206550500Y-43816535D01*
X206510130Y-43613580D01*
X206430941Y-43422402D01*
X206315977Y-43250345D01*
X206315975Y-43250342D01*
X206169657Y-43104024D01*
X206083626Y-43046541D01*
X205997598Y-42989059D01*
X205806420Y-42909870D01*
X205806412Y-42909868D01*
X205603469Y-42869500D01*
X205603465Y-42869500D01*
X205396535Y-42869500D01*
X205396530Y-42869500D01*
X205193587Y-42909868D01*
X205193579Y-42909870D01*
X205002403Y-42989058D01*
X204830342Y-43104024D01*
X204684024Y-43250342D01*
X204569058Y-43422403D01*
X204489870Y-43613579D01*
X204489868Y-43613587D01*
X204449500Y-43816530D01*
X198930499Y-43816530D01*
X198890130Y-43613580D01*
X198810941Y-43422402D01*
X198695977Y-43250345D01*
X198695975Y-43250342D01*
X198549657Y-43104024D01*
X198463626Y-43046541D01*
X198377598Y-42989059D01*
X198186420Y-42909870D01*
X198186412Y-42909868D01*
X197983469Y-42869500D01*
X197983465Y-42869500D01*
X197776535Y-42869500D01*
X197776530Y-42869500D01*
X197573587Y-42909868D01*
X197573579Y-42909870D01*
X197382403Y-42989058D01*
X197210342Y-43104024D01*
X197064024Y-43250342D01*
X196949058Y-43422403D01*
X196869870Y-43613579D01*
X196869868Y-43613587D01*
X196829500Y-43816530D01*
X181000500Y-43816530D01*
X181000500Y-40396579D01*
X192950000Y-40396579D01*
X192950000Y-40603420D01*
X192990348Y-40806266D01*
X192990350Y-40806274D01*
X193069500Y-40997359D01*
X193101377Y-41045067D01*
X193101378Y-41045067D01*
X193600000Y-40546445D01*
X193600000Y-40552661D01*
X193627259Y-40654394D01*
X193679920Y-40745606D01*
X193754394Y-40820080D01*
X193845606Y-40872741D01*
X193947339Y-40900000D01*
X193953554Y-40900000D01*
X193454931Y-41398620D01*
X193454932Y-41398621D01*
X193502633Y-41430495D01*
X193502639Y-41430498D01*
X193693725Y-41509649D01*
X193693733Y-41509651D01*
X193896579Y-41549999D01*
X193896583Y-41550000D01*
X194103417Y-41550000D01*
X194103420Y-41549999D01*
X194306266Y-41509651D01*
X194306274Y-41509649D01*
X194497366Y-41430495D01*
X194545066Y-41398621D01*
X194545067Y-41398620D01*
X194046447Y-40900000D01*
X194052661Y-40900000D01*
X194154394Y-40872741D01*
X194245606Y-40820080D01*
X194320080Y-40745606D01*
X194372741Y-40654394D01*
X194400000Y-40552661D01*
X194400000Y-40546446D01*
X194898620Y-41045067D01*
X194898621Y-41045066D01*
X194930495Y-40997366D01*
X195009649Y-40806274D01*
X195009651Y-40806266D01*
X195014451Y-40782135D01*
X196829500Y-40782135D01*
X196829500Y-41977870D01*
X196829501Y-41977876D01*
X196835908Y-42037483D01*
X196886202Y-42172328D01*
X196886206Y-42172335D01*
X196972452Y-42287544D01*
X196972455Y-42287547D01*
X197087664Y-42373793D01*
X197087671Y-42373797D01*
X197222517Y-42424091D01*
X197222516Y-42424091D01*
X197229444Y-42424835D01*
X197282127Y-42430500D01*
X198477872Y-42430499D01*
X198537483Y-42424091D01*
X198672331Y-42373796D01*
X198787546Y-42287546D01*
X198873796Y-42172331D01*
X198924091Y-42037483D01*
X198930500Y-41977873D01*
X198930499Y-41276530D01*
X204449500Y-41276530D01*
X204449500Y-41483469D01*
X204489868Y-41686412D01*
X204489870Y-41686420D01*
X204569058Y-41877596D01*
X204684024Y-42049657D01*
X204830342Y-42195975D01*
X204830345Y-42195977D01*
X205002402Y-42310941D01*
X205193580Y-42390130D01*
X205364315Y-42424091D01*
X205396530Y-42430499D01*
X205396534Y-42430500D01*
X205396535Y-42430500D01*
X205603466Y-42430500D01*
X205603467Y-42430499D01*
X205806420Y-42390130D01*
X205997598Y-42310941D01*
X206169655Y-42195977D01*
X206315977Y-42049655D01*
X206430941Y-41877598D01*
X206510130Y-41686420D01*
X206550500Y-41483465D01*
X206550500Y-41276535D01*
X206510130Y-41073580D01*
X206430941Y-40882402D01*
X206315977Y-40710345D01*
X206315975Y-40710342D01*
X206169658Y-40564025D01*
X206169650Y-40564019D01*
X206064252Y-40493594D01*
X206064178Y-40493546D01*
X206032608Y-40472452D01*
X205997598Y-40449059D01*
X205870910Y-40396583D01*
X205870782Y-40396530D01*
X208449500Y-40396530D01*
X208449500Y-40603469D01*
X208489868Y-40806412D01*
X208489870Y-40806420D01*
X208569058Y-40997596D01*
X208684024Y-41169657D01*
X208830342Y-41315975D01*
X208830345Y-41315977D01*
X209002402Y-41430941D01*
X209193580Y-41510130D01*
X209394016Y-41549999D01*
X209396530Y-41550499D01*
X209396534Y-41550500D01*
X209396535Y-41550500D01*
X209603466Y-41550500D01*
X209603467Y-41550499D01*
X209806420Y-41510130D01*
X209997598Y-41430941D01*
X210169655Y-41315977D01*
X210315977Y-41169655D01*
X210430941Y-40997598D01*
X210510130Y-40806420D01*
X210550500Y-40603465D01*
X210550500Y-40396535D01*
X210510130Y-40193580D01*
X210430941Y-40002402D01*
X210315977Y-39830345D01*
X210315975Y-39830342D01*
X210169657Y-39684024D01*
X210045967Y-39601378D01*
X209997598Y-39569059D01*
X209806420Y-39489870D01*
X209806412Y-39489868D01*
X209603469Y-39449500D01*
X209603465Y-39449500D01*
X209396535Y-39449500D01*
X209396530Y-39449500D01*
X209193587Y-39489868D01*
X209193579Y-39489870D01*
X209002403Y-39569058D01*
X208830342Y-39684024D01*
X208684024Y-39830342D01*
X208569058Y-40002403D01*
X208489870Y-40193579D01*
X208489868Y-40193587D01*
X208449500Y-40396530D01*
X205870782Y-40396530D01*
X205806420Y-40369870D01*
X205806412Y-40369868D01*
X205603469Y-40329500D01*
X205603465Y-40329500D01*
X205396535Y-40329500D01*
X205396530Y-40329500D01*
X205193587Y-40369868D01*
X205193579Y-40369870D01*
X205002403Y-40449058D01*
X204830342Y-40564024D01*
X204684024Y-40710342D01*
X204569058Y-40882403D01*
X204489870Y-41073579D01*
X204489868Y-41073587D01*
X204449500Y-41276530D01*
X198930499Y-41276530D01*
X198930499Y-40782128D01*
X198924091Y-40722517D01*
X198919551Y-40710345D01*
X198873797Y-40587671D01*
X198873793Y-40587664D01*
X198787547Y-40472455D01*
X198787544Y-40472452D01*
X198672335Y-40386206D01*
X198672328Y-40386202D01*
X198537482Y-40335908D01*
X198537483Y-40335908D01*
X198477883Y-40329501D01*
X198477881Y-40329500D01*
X198477873Y-40329500D01*
X198477864Y-40329500D01*
X197282129Y-40329500D01*
X197282123Y-40329501D01*
X197222516Y-40335908D01*
X197087671Y-40386202D01*
X197087664Y-40386206D01*
X196972455Y-40472452D01*
X196972452Y-40472455D01*
X196886206Y-40587664D01*
X196886202Y-40587671D01*
X196835908Y-40722517D01*
X196832454Y-40754651D01*
X196829501Y-40782123D01*
X196829500Y-40782135D01*
X195014451Y-40782135D01*
X195019918Y-40754651D01*
X195019925Y-40754615D01*
X195050000Y-40603413D01*
X195050000Y-40396583D01*
X195049999Y-40396579D01*
X195009651Y-40193733D01*
X195009649Y-40193725D01*
X194930498Y-40002639D01*
X194930495Y-40002633D01*
X194898621Y-39954932D01*
X194898620Y-39954931D01*
X194400000Y-40453552D01*
X194400000Y-40447339D01*
X194372741Y-40345606D01*
X194320080Y-40254394D01*
X194245606Y-40179920D01*
X194154394Y-40127259D01*
X194052661Y-40100000D01*
X194046447Y-40100000D01*
X194545067Y-39601378D01*
X194545067Y-39601377D01*
X194497359Y-39569500D01*
X194306274Y-39490350D01*
X194306266Y-39490348D01*
X194103420Y-39450000D01*
X193896579Y-39450000D01*
X193693733Y-39490348D01*
X193693725Y-39490350D01*
X193502641Y-39569500D01*
X193502631Y-39569505D01*
X193454932Y-39601377D01*
X193454932Y-39601378D01*
X193953554Y-40100000D01*
X193947339Y-40100000D01*
X193845606Y-40127259D01*
X193754394Y-40179920D01*
X193679920Y-40254394D01*
X193627259Y-40345606D01*
X193600000Y-40447339D01*
X193600000Y-40453553D01*
X193101378Y-39954932D01*
X193101377Y-39954932D01*
X193069505Y-40002631D01*
X193069500Y-40002641D01*
X192990350Y-40193725D01*
X192990348Y-40193733D01*
X192950000Y-40396579D01*
X181000500Y-40396579D01*
X181000500Y-35124000D01*
X181020185Y-35056961D01*
X181072989Y-35011206D01*
X181124500Y-35000000D01*
X224375500Y-35000000D01*
X224442539Y-35019685D01*
G37*
%TD.AperFunction*%
%TD*%
%TA.AperFunction,Conductor*%
%TO.N,GND*%
G36*
X78942539Y-35019685D02*
G01*
X78988294Y-35072489D01*
X78999500Y-35124000D01*
X78999500Y-62376000D01*
X78979815Y-62443039D01*
X78927011Y-62488794D01*
X78875500Y-62500000D01*
X16124500Y-62500000D01*
X16057461Y-62480315D01*
X16011706Y-62427511D01*
X16000500Y-62376000D01*
X16000500Y-52250142D01*
X22850000Y-52250142D01*
X22850000Y-52509857D01*
X22890629Y-52766377D01*
X22970883Y-53013377D01*
X23088796Y-53244791D01*
X23169951Y-53356492D01*
X23169952Y-53356493D01*
X23898958Y-52627487D01*
X23923978Y-52687890D01*
X23995112Y-52794351D01*
X24085649Y-52884888D01*
X24192110Y-52956022D01*
X24252511Y-52981041D01*
X23523505Y-53710046D01*
X23523506Y-53710048D01*
X23635208Y-53791203D01*
X23866622Y-53909116D01*
X24113622Y-53989370D01*
X24370143Y-54030000D01*
X24629857Y-54030000D01*
X24886377Y-53989370D01*
X25133377Y-53909116D01*
X25364788Y-53791205D01*
X25476492Y-53710046D01*
X25476493Y-53710046D01*
X24747488Y-52981041D01*
X24807890Y-52956022D01*
X24914351Y-52884888D01*
X25004888Y-52794351D01*
X25076022Y-52687890D01*
X25101041Y-52627488D01*
X25830046Y-53356493D01*
X25830046Y-53356492D01*
X25911205Y-53244788D01*
X26029116Y-53013377D01*
X26109370Y-52766377D01*
X26150000Y-52509857D01*
X26150000Y-52250142D01*
X26109370Y-51993622D01*
X26029116Y-51746622D01*
X25911203Y-51515208D01*
X25830048Y-51403506D01*
X25830046Y-51403505D01*
X25101041Y-52132511D01*
X25076022Y-52072110D01*
X25004888Y-51965649D01*
X24914351Y-51875112D01*
X24807890Y-51803978D01*
X24747488Y-51778958D01*
X25476493Y-51049952D01*
X25476492Y-51049951D01*
X25364791Y-50968796D01*
X25192342Y-50880928D01*
X25192340Y-50880926D01*
X25133379Y-50850884D01*
X25133380Y-50850884D01*
X24904539Y-50776530D01*
X31449500Y-50776530D01*
X31449500Y-50983469D01*
X31489868Y-51186412D01*
X31489870Y-51186420D01*
X31543534Y-51315977D01*
X31569059Y-51377598D01*
X31626541Y-51463626D01*
X31684024Y-51549657D01*
X31830342Y-51695975D01*
X31830345Y-51695977D01*
X32002402Y-51810941D01*
X32193580Y-51890130D01*
X32394016Y-51929999D01*
X32396530Y-51930499D01*
X32396534Y-51930500D01*
X32396535Y-51930500D01*
X32603466Y-51930500D01*
X32603467Y-51930499D01*
X32806420Y-51890130D01*
X32997598Y-51810941D01*
X33169655Y-51695977D01*
X33315977Y-51549655D01*
X33430941Y-51377598D01*
X33510130Y-51186420D01*
X33550500Y-50983465D01*
X33550500Y-50776535D01*
X33510130Y-50573580D01*
X33430941Y-50382402D01*
X33315977Y-50210345D01*
X33315975Y-50210342D01*
X33169657Y-50064024D01*
X33083626Y-50006541D01*
X32997598Y-49949059D01*
X32943370Y-49926597D01*
X32806420Y-49869870D01*
X32806412Y-49869868D01*
X32603469Y-49829500D01*
X32603465Y-49829500D01*
X32396535Y-49829500D01*
X32396530Y-49829500D01*
X32193587Y-49869868D01*
X32193579Y-49869870D01*
X32002403Y-49949058D01*
X31830342Y-50064024D01*
X31684024Y-50210342D01*
X31569058Y-50382403D01*
X31489870Y-50573579D01*
X31489868Y-50573587D01*
X31449500Y-50776530D01*
X24904539Y-50776530D01*
X24886377Y-50770629D01*
X24629857Y-50730000D01*
X24370143Y-50730000D01*
X24113622Y-50770629D01*
X23866622Y-50850883D01*
X23635215Y-50968792D01*
X23523506Y-51049952D01*
X24252512Y-51778958D01*
X24192110Y-51803978D01*
X24085649Y-51875112D01*
X23995112Y-51965649D01*
X23923978Y-52072110D01*
X23898958Y-52132512D01*
X23169952Y-51403506D01*
X23088792Y-51515215D01*
X22970883Y-51746622D01*
X22890629Y-51993622D01*
X22850000Y-52250142D01*
X16000500Y-52250142D01*
X16000500Y-46182136D01*
X22849500Y-46182136D01*
X22849500Y-48577863D01*
X22849501Y-48577882D01*
X22855908Y-48637481D01*
X22906202Y-48772327D01*
X22906203Y-48772328D01*
X22906204Y-48772330D01*
X22992454Y-48887546D01*
X23107670Y-48973796D01*
X23107671Y-48973796D01*
X23107672Y-48973797D01*
X23242518Y-49024091D01*
X23242517Y-49024091D01*
X23249445Y-49024835D01*
X23302128Y-49030500D01*
X23302137Y-49030500D01*
X25697863Y-49030500D01*
X25697872Y-49030500D01*
X25757482Y-49024091D01*
X25892330Y-48973796D01*
X26007546Y-48887546D01*
X26093796Y-48772330D01*
X26144091Y-48637482D01*
X26150500Y-48577872D01*
X26150500Y-47879500D01*
X26170185Y-47812461D01*
X26222989Y-47766706D01*
X26274500Y-47755500D01*
X34540500Y-47755500D01*
X34607539Y-47775185D01*
X34653294Y-47827989D01*
X34664500Y-47879500D01*
X34664500Y-54009437D01*
X34677194Y-54056813D01*
X34690089Y-54104936D01*
X34690089Y-54104937D01*
X34690090Y-54104938D01*
X34739525Y-54190562D01*
X34739526Y-54190563D01*
X34739527Y-54190564D01*
X38402677Y-57853714D01*
X38436162Y-57915037D01*
X38432927Y-57979713D01*
X38386597Y-58122301D01*
X38368977Y-58233554D01*
X38359500Y-58293389D01*
X38359500Y-58466611D01*
X38386598Y-58637701D01*
X38440127Y-58802445D01*
X38518768Y-58956788D01*
X38620586Y-59096928D01*
X38743072Y-59219414D01*
X38883212Y-59321232D01*
X39037555Y-59399873D01*
X39202299Y-59453402D01*
X39373389Y-59480500D01*
X39373390Y-59480500D01*
X39546610Y-59480500D01*
X39546611Y-59480500D01*
X39717701Y-59453402D01*
X39882445Y-59399873D01*
X40036788Y-59321232D01*
X40176928Y-59219414D01*
X40299414Y-59096928D01*
X40401232Y-58956788D01*
X40479873Y-58802445D01*
X40533402Y-58637701D01*
X40560500Y-58466611D01*
X40560500Y-58293389D01*
X40533402Y-58122299D01*
X40479873Y-57957555D01*
X40401232Y-57803212D01*
X40299414Y-57663072D01*
X40176928Y-57540586D01*
X40036788Y-57438768D01*
X39926426Y-57382536D01*
X39882447Y-57360128D01*
X39882446Y-57360127D01*
X39882445Y-57360127D01*
X39717701Y-57306598D01*
X39717699Y-57306597D01*
X39717698Y-57306597D01*
X39586271Y-57285781D01*
X39546611Y-57279500D01*
X39373389Y-57279500D01*
X39341192Y-57284599D01*
X39202301Y-57306597D01*
X39059713Y-57352927D01*
X38989872Y-57354922D01*
X38933714Y-57322677D01*
X35451819Y-53840782D01*
X35418334Y-53779459D01*
X35415500Y-53753101D01*
X35415500Y-51375899D01*
X35435185Y-51308860D01*
X35487989Y-51263105D01*
X35557147Y-51253161D01*
X35620703Y-51282186D01*
X35627181Y-51288218D01*
X38231857Y-53892894D01*
X38265342Y-53954217D01*
X38260358Y-54023909D01*
X38258738Y-54028026D01*
X38239870Y-54073579D01*
X38239868Y-54073582D01*
X38199500Y-54276530D01*
X38199500Y-54483469D01*
X38239868Y-54686412D01*
X38239870Y-54686420D01*
X38319058Y-54877596D01*
X38434024Y-55049657D01*
X38580342Y-55195975D01*
X38580345Y-55195977D01*
X38752402Y-55310941D01*
X38943580Y-55390130D01*
X39124495Y-55426116D01*
X39146530Y-55430499D01*
X39146534Y-55430500D01*
X39146535Y-55430500D01*
X39353466Y-55430500D01*
X39353467Y-55430499D01*
X39556420Y-55390130D01*
X39747598Y-55310941D01*
X39919655Y-55195977D01*
X40065977Y-55049655D01*
X40180941Y-54877598D01*
X40260130Y-54686420D01*
X40300500Y-54483465D01*
X40300500Y-54276535D01*
X40300499Y-54276530D01*
X40699500Y-54276530D01*
X40699500Y-54483469D01*
X40739868Y-54686412D01*
X40739870Y-54686420D01*
X40819058Y-54877596D01*
X40934024Y-55049657D01*
X41080342Y-55195975D01*
X41080345Y-55195977D01*
X41252402Y-55310941D01*
X41443580Y-55390130D01*
X41524692Y-55406263D01*
X41586601Y-55438646D01*
X41621176Y-55499362D01*
X41624500Y-55527880D01*
X41624500Y-57155500D01*
X41604815Y-57222539D01*
X41552011Y-57268294D01*
X41500500Y-57279500D01*
X41125323Y-57279500D01*
X41052264Y-57294032D01*
X41052260Y-57294033D01*
X40969399Y-57349399D01*
X40914033Y-57432260D01*
X40914032Y-57432264D01*
X40899500Y-57505321D01*
X40899500Y-59254678D01*
X40914032Y-59327735D01*
X40914033Y-59327739D01*
X40914034Y-59327740D01*
X40969399Y-59410601D01*
X41052260Y-59465966D01*
X41052264Y-59465967D01*
X41125321Y-59480499D01*
X41125324Y-59480500D01*
X41125326Y-59480500D01*
X42874676Y-59480500D01*
X42874677Y-59480499D01*
X42947740Y-59465966D01*
X43030601Y-59410601D01*
X43085966Y-59327740D01*
X43100500Y-59254674D01*
X43100500Y-57776530D01*
X53449500Y-57776530D01*
X53449500Y-57983469D01*
X53489868Y-58186412D01*
X53489870Y-58186420D01*
X53569058Y-58377596D01*
X53684024Y-58549657D01*
X53830342Y-58695975D01*
X53830345Y-58695977D01*
X54002402Y-58810941D01*
X54193580Y-58890130D01*
X54394016Y-58929999D01*
X54396530Y-58930499D01*
X54396534Y-58930500D01*
X54396535Y-58930500D01*
X54603466Y-58930500D01*
X54603467Y-58930499D01*
X54806420Y-58890130D01*
X54997598Y-58810941D01*
X55169655Y-58695977D01*
X55169658Y-58695974D01*
X55220905Y-58644728D01*
X55315974Y-58549658D01*
X55315975Y-58549657D01*
X55315977Y-58549655D01*
X55430941Y-58377598D01*
X55510130Y-58186420D01*
X55550500Y-57983465D01*
X55550500Y-57776579D01*
X58450000Y-57776579D01*
X58450000Y-57983420D01*
X58490348Y-58186266D01*
X58490350Y-58186274D01*
X58569500Y-58377359D01*
X58601377Y-58425067D01*
X58601378Y-58425067D01*
X59100000Y-57926445D01*
X59100000Y-57932661D01*
X59127259Y-58034394D01*
X59179920Y-58125606D01*
X59254394Y-58200080D01*
X59345606Y-58252741D01*
X59447339Y-58280000D01*
X59453554Y-58280000D01*
X58954931Y-58778620D01*
X58954932Y-58778621D01*
X59002633Y-58810495D01*
X59002639Y-58810498D01*
X59193725Y-58889649D01*
X59193733Y-58889651D01*
X59396579Y-58929999D01*
X59396583Y-58930000D01*
X59603417Y-58930000D01*
X59603420Y-58929999D01*
X59806266Y-58889651D01*
X59806274Y-58889649D01*
X59997366Y-58810495D01*
X60045066Y-58778621D01*
X60045067Y-58778620D01*
X59546447Y-58280000D01*
X59552661Y-58280000D01*
X59654394Y-58252741D01*
X59745606Y-58200080D01*
X59820080Y-58125606D01*
X59872741Y-58034394D01*
X59900000Y-57932661D01*
X59900000Y-57926447D01*
X60398620Y-58425067D01*
X60398621Y-58425066D01*
X60430495Y-58377366D01*
X60509649Y-58186274D01*
X60509651Y-58186266D01*
X60549999Y-57983420D01*
X60550000Y-57983417D01*
X60550000Y-57776583D01*
X60549999Y-57776579D01*
X62450000Y-57776579D01*
X62450000Y-57983420D01*
X62490348Y-58186266D01*
X62490350Y-58186274D01*
X62569500Y-58377359D01*
X62601377Y-58425067D01*
X62601378Y-58425067D01*
X63100000Y-57926445D01*
X63100000Y-57932661D01*
X63127259Y-58034394D01*
X63179920Y-58125606D01*
X63254394Y-58200080D01*
X63345606Y-58252741D01*
X63447339Y-58280000D01*
X63453554Y-58280000D01*
X62954931Y-58778620D01*
X62954932Y-58778621D01*
X63002633Y-58810495D01*
X63002639Y-58810498D01*
X63193725Y-58889649D01*
X63193733Y-58889651D01*
X63396579Y-58929999D01*
X63396583Y-58930000D01*
X63603417Y-58930000D01*
X63603420Y-58929999D01*
X63806266Y-58889651D01*
X63806274Y-58889649D01*
X63997366Y-58810495D01*
X64045066Y-58778621D01*
X64045067Y-58778620D01*
X63546447Y-58280000D01*
X63552661Y-58280000D01*
X63654394Y-58252741D01*
X63745606Y-58200080D01*
X63820080Y-58125606D01*
X63872741Y-58034394D01*
X63900000Y-57932661D01*
X63900000Y-57926447D01*
X64398620Y-58425067D01*
X64398621Y-58425066D01*
X64430495Y-58377366D01*
X64509649Y-58186274D01*
X64509651Y-58186266D01*
X64549999Y-57983420D01*
X64550000Y-57983417D01*
X64550000Y-57776581D01*
X64549999Y-57776580D01*
X64549989Y-57776530D01*
X67449500Y-57776530D01*
X67449500Y-57983469D01*
X67489868Y-58186412D01*
X67489870Y-58186420D01*
X67569058Y-58377596D01*
X67684024Y-58549657D01*
X67830342Y-58695975D01*
X67830345Y-58695977D01*
X68002402Y-58810941D01*
X68193580Y-58890130D01*
X68394016Y-58929999D01*
X68396530Y-58930499D01*
X68396534Y-58930500D01*
X68396535Y-58930500D01*
X68603466Y-58930500D01*
X68603467Y-58930499D01*
X68806420Y-58890130D01*
X68997598Y-58810941D01*
X69169655Y-58695977D01*
X69315977Y-58549655D01*
X69430941Y-58377598D01*
X69510130Y-58186420D01*
X69550500Y-57983465D01*
X69550500Y-57776535D01*
X69510130Y-57573580D01*
X69430941Y-57382402D01*
X69315977Y-57210345D01*
X69315975Y-57210342D01*
X69169657Y-57064024D01*
X69045967Y-56981378D01*
X68997598Y-56949059D01*
X68806420Y-56869870D01*
X68806412Y-56869868D01*
X68603469Y-56829500D01*
X68603465Y-56829500D01*
X68396535Y-56829500D01*
X68396530Y-56829500D01*
X68193587Y-56869868D01*
X68193579Y-56869870D01*
X68002403Y-56949058D01*
X67830342Y-57064024D01*
X67684024Y-57210342D01*
X67569058Y-57382403D01*
X67489870Y-57573579D01*
X67489868Y-57573587D01*
X67449500Y-57776530D01*
X64549989Y-57776530D01*
X64509651Y-57573733D01*
X64509649Y-57573725D01*
X64430498Y-57382639D01*
X64430495Y-57382633D01*
X64398621Y-57334932D01*
X64398620Y-57334931D01*
X63900000Y-57833552D01*
X63900000Y-57827339D01*
X63872741Y-57725606D01*
X63820080Y-57634394D01*
X63745606Y-57559920D01*
X63654394Y-57507259D01*
X63552661Y-57480000D01*
X63546447Y-57480000D01*
X64045067Y-56981378D01*
X64045067Y-56981377D01*
X63997359Y-56949500D01*
X63806274Y-56870350D01*
X63806266Y-56870348D01*
X63603420Y-56830000D01*
X63396579Y-56830000D01*
X63193733Y-56870348D01*
X63193725Y-56870350D01*
X63002641Y-56949500D01*
X63002631Y-56949505D01*
X62954932Y-56981377D01*
X62954932Y-56981378D01*
X63453554Y-57480000D01*
X63447339Y-57480000D01*
X63345606Y-57507259D01*
X63254394Y-57559920D01*
X63179920Y-57634394D01*
X63127259Y-57725606D01*
X63100000Y-57827339D01*
X63100000Y-57833554D01*
X62601378Y-57334932D01*
X62601377Y-57334932D01*
X62569505Y-57382631D01*
X62569500Y-57382641D01*
X62490350Y-57573725D01*
X62490348Y-57573733D01*
X62450000Y-57776579D01*
X60549999Y-57776579D01*
X60509651Y-57573733D01*
X60509649Y-57573725D01*
X60430498Y-57382639D01*
X60430495Y-57382633D01*
X60398621Y-57334932D01*
X60398620Y-57334931D01*
X59900000Y-57833552D01*
X59900000Y-57827339D01*
X59872741Y-57725606D01*
X59820080Y-57634394D01*
X59745606Y-57559920D01*
X59654394Y-57507259D01*
X59552661Y-57480000D01*
X59546447Y-57480000D01*
X60045067Y-56981378D01*
X60045067Y-56981377D01*
X59997359Y-56949500D01*
X59806274Y-56870350D01*
X59806266Y-56870348D01*
X59603420Y-56830000D01*
X59396579Y-56830000D01*
X59193733Y-56870348D01*
X59193725Y-56870350D01*
X59002641Y-56949500D01*
X59002631Y-56949505D01*
X58954932Y-56981377D01*
X58954932Y-56981378D01*
X59453554Y-57480000D01*
X59447339Y-57480000D01*
X59345606Y-57507259D01*
X59254394Y-57559920D01*
X59179920Y-57634394D01*
X59127259Y-57725606D01*
X59100000Y-57827339D01*
X59100000Y-57833554D01*
X58601378Y-57334932D01*
X58601377Y-57334932D01*
X58569505Y-57382631D01*
X58569500Y-57382641D01*
X58490350Y-57573725D01*
X58490348Y-57573733D01*
X58450000Y-57776579D01*
X55550500Y-57776579D01*
X55550500Y-57776535D01*
X55510130Y-57573580D01*
X55430941Y-57382402D01*
X55315977Y-57210345D01*
X55315975Y-57210342D01*
X55169657Y-57064024D01*
X55045967Y-56981378D01*
X54997598Y-56949059D01*
X54806420Y-56869870D01*
X54806412Y-56869868D01*
X54603469Y-56829500D01*
X54603465Y-56829500D01*
X54396535Y-56829500D01*
X54396530Y-56829500D01*
X54193587Y-56869868D01*
X54193579Y-56869870D01*
X54002403Y-56949058D01*
X53830342Y-57064024D01*
X53684024Y-57210342D01*
X53569058Y-57382403D01*
X53489870Y-57573579D01*
X53489868Y-57573587D01*
X53449500Y-57776530D01*
X43100500Y-57776530D01*
X43100500Y-57505326D01*
X43100500Y-57505323D01*
X43100499Y-57505321D01*
X43085967Y-57432264D01*
X43085966Y-57432260D01*
X43052812Y-57382641D01*
X43030601Y-57349399D01*
X42947740Y-57294034D01*
X42947739Y-57294033D01*
X42947735Y-57294032D01*
X42874677Y-57279500D01*
X42874674Y-57279500D01*
X42499500Y-57279500D01*
X42432461Y-57259815D01*
X42386706Y-57207011D01*
X42375500Y-57155500D01*
X42375500Y-55290861D01*
X42395185Y-55223822D01*
X42415767Y-55200704D01*
X42415348Y-55200285D01*
X42565974Y-55049658D01*
X42565975Y-55049657D01*
X42565977Y-55049655D01*
X42680941Y-54877598D01*
X42699809Y-54832047D01*
X42743650Y-54777644D01*
X42809944Y-54755579D01*
X42814370Y-54755500D01*
X43579435Y-54755500D01*
X43579436Y-54755500D01*
X43627186Y-54742705D01*
X43674938Y-54729910D01*
X43760562Y-54680475D01*
X43830475Y-54610562D01*
X45109847Y-53331190D01*
X53644500Y-53331190D01*
X53644500Y-53528809D01*
X53675414Y-53723997D01*
X53736484Y-53911949D01*
X53818839Y-54073579D01*
X53826200Y-54088025D01*
X53942358Y-54247903D01*
X54082097Y-54387642D01*
X54241975Y-54503800D01*
X54325165Y-54546187D01*
X54418050Y-54593515D01*
X54418052Y-54593515D01*
X54418055Y-54593517D01*
X54518800Y-54626251D01*
X54606002Y-54654585D01*
X54669670Y-54664669D01*
X54801190Y-54685500D01*
X54801191Y-54685500D01*
X54998809Y-54685500D01*
X54998810Y-54685500D01*
X55193997Y-54654585D01*
X55381945Y-54593517D01*
X55558025Y-54503800D01*
X55717903Y-54387642D01*
X55857642Y-54247903D01*
X55973800Y-54088025D01*
X56063517Y-53911945D01*
X56124585Y-53723997D01*
X56155500Y-53528810D01*
X56155500Y-53381190D01*
X65544500Y-53381190D01*
X65544500Y-53578810D01*
X65545736Y-53586611D01*
X65575414Y-53773997D01*
X65636484Y-53961949D01*
X65693367Y-54073587D01*
X65726200Y-54138025D01*
X65842358Y-54297903D01*
X65982097Y-54437642D01*
X66141975Y-54553800D01*
X66219920Y-54593515D01*
X66318050Y-54643515D01*
X66318052Y-54643515D01*
X66318055Y-54643517D01*
X66418800Y-54676251D01*
X66506002Y-54704585D01*
X66603596Y-54720042D01*
X66701190Y-54735500D01*
X66701191Y-54735500D01*
X66898809Y-54735500D01*
X66898810Y-54735500D01*
X67093997Y-54704585D01*
X67281945Y-54643517D01*
X67458025Y-54553800D01*
X67617903Y-54437642D01*
X67757642Y-54297903D01*
X67873800Y-54138025D01*
X67963517Y-53961945D01*
X68024585Y-53773997D01*
X68055500Y-53578810D01*
X68055500Y-53381190D01*
X68024585Y-53186003D01*
X68004601Y-53124500D01*
X67982602Y-53056794D01*
X67963517Y-52998055D01*
X67963515Y-52998052D01*
X67963515Y-52998050D01*
X67873799Y-52821974D01*
X67845535Y-52783072D01*
X67757642Y-52662097D01*
X67617903Y-52522358D01*
X67458025Y-52406200D01*
X67281949Y-52316484D01*
X67093997Y-52255414D01*
X66925497Y-52228726D01*
X66898810Y-52224500D01*
X66701190Y-52224500D01*
X66677712Y-52228218D01*
X66506002Y-52255414D01*
X66318050Y-52316484D01*
X66141974Y-52406200D01*
X65982094Y-52522360D01*
X65842360Y-52662094D01*
X65726200Y-52821974D01*
X65636484Y-52998050D01*
X65575414Y-53186002D01*
X65552687Y-53329500D01*
X65544500Y-53381190D01*
X56155500Y-53381190D01*
X56155500Y-53331190D01*
X56124585Y-53136003D01*
X56120847Y-53124500D01*
X56096251Y-53048800D01*
X56063517Y-52948055D01*
X56063515Y-52948052D01*
X56063515Y-52948050D01*
X55999276Y-52821975D01*
X55973800Y-52771975D01*
X55857642Y-52612097D01*
X55717903Y-52472358D01*
X55558025Y-52356200D01*
X55381949Y-52266484D01*
X55193997Y-52205414D01*
X55025497Y-52178726D01*
X54998810Y-52174500D01*
X54801190Y-52174500D01*
X54777712Y-52178218D01*
X54606002Y-52205414D01*
X54418050Y-52266484D01*
X54241974Y-52356200D01*
X54082094Y-52472360D01*
X53942360Y-52612094D01*
X53826200Y-52771974D01*
X53736484Y-52948050D01*
X53675414Y-53136002D01*
X53644500Y-53331190D01*
X45109847Y-53331190D01*
X47738321Y-50702715D01*
X47799642Y-50669232D01*
X47869334Y-50674216D01*
X47925267Y-50716088D01*
X47949684Y-50781552D01*
X47950000Y-50790398D01*
X47950000Y-50983420D01*
X47990348Y-51186266D01*
X47990350Y-51186274D01*
X48069500Y-51377359D01*
X48101377Y-51425067D01*
X48600000Y-50926444D01*
X48600000Y-50932661D01*
X48627259Y-51034394D01*
X48679920Y-51125606D01*
X48754394Y-51200080D01*
X48845606Y-51252741D01*
X48947339Y-51280000D01*
X48953554Y-51280000D01*
X48454931Y-51778620D01*
X48454932Y-51778621D01*
X48502633Y-51810495D01*
X48502639Y-51810498D01*
X48693725Y-51889649D01*
X48693733Y-51889651D01*
X48896579Y-51929999D01*
X48896583Y-51930000D01*
X49103417Y-51930000D01*
X49103420Y-51929999D01*
X49306266Y-51889651D01*
X49306274Y-51889649D01*
X49497366Y-51810495D01*
X49545066Y-51778621D01*
X49545067Y-51778620D01*
X49046447Y-51280000D01*
X49052661Y-51280000D01*
X49154394Y-51252741D01*
X49245606Y-51200080D01*
X49320080Y-51125606D01*
X49372741Y-51034394D01*
X49400000Y-50932661D01*
X49400000Y-50926447D01*
X49898620Y-51425067D01*
X49898621Y-51425066D01*
X49930495Y-51377366D01*
X50009649Y-51186274D01*
X50009651Y-51186266D01*
X50049999Y-50983420D01*
X50050000Y-50983417D01*
X50050000Y-50776583D01*
X50049999Y-50776579D01*
X50009651Y-50573733D01*
X50009649Y-50573725D01*
X49930499Y-50382641D01*
X49930494Y-50382631D01*
X49827434Y-50228391D01*
X49806556Y-50161713D01*
X49825041Y-50094333D01*
X49877019Y-50047643D01*
X49930536Y-50035500D01*
X67192196Y-50035500D01*
X67259235Y-50055185D01*
X67279877Y-50071819D01*
X70669514Y-53461456D01*
X70702999Y-53522779D01*
X70698015Y-53592471D01*
X70656143Y-53648404D01*
X70590679Y-53672821D01*
X70534381Y-53663698D01*
X70439748Y-53624500D01*
X70439738Y-53624497D01*
X70314071Y-53599500D01*
X70314069Y-53599500D01*
X70185931Y-53599500D01*
X70185929Y-53599500D01*
X70060261Y-53624497D01*
X70060255Y-53624499D01*
X69941875Y-53673533D01*
X69941866Y-53673538D01*
X69835331Y-53744723D01*
X69835327Y-53744726D01*
X69744726Y-53835327D01*
X69744723Y-53835331D01*
X69673538Y-53941866D01*
X69673533Y-53941875D01*
X69624499Y-54060255D01*
X69624497Y-54060261D01*
X69599500Y-54185928D01*
X69599500Y-54185931D01*
X69599500Y-54314069D01*
X69599500Y-54314071D01*
X69599499Y-54314071D01*
X69624497Y-54439738D01*
X69624499Y-54439744D01*
X69673533Y-54558124D01*
X69673538Y-54558133D01*
X69744723Y-54664668D01*
X69744726Y-54664672D01*
X69835327Y-54755273D01*
X69835331Y-54755276D01*
X69941866Y-54826461D01*
X69941872Y-54826464D01*
X69941873Y-54826465D01*
X70060256Y-54875501D01*
X70124455Y-54888271D01*
X70157471Y-54894839D01*
X70219382Y-54927224D01*
X70220961Y-54928775D01*
X70504222Y-55212036D01*
X70537707Y-55273359D01*
X70540541Y-55299717D01*
X70540541Y-56081608D01*
X70520856Y-56148647D01*
X70519643Y-56150498D01*
X70464582Y-56232902D01*
X70464574Y-56232916D01*
X70415540Y-56351296D01*
X70415538Y-56351302D01*
X70390541Y-56476969D01*
X70390541Y-56476972D01*
X70390541Y-56605110D01*
X70390541Y-56605112D01*
X70390540Y-56605112D01*
X70415538Y-56730779D01*
X70415540Y-56730785D01*
X70464574Y-56849165D01*
X70464579Y-56849174D01*
X70535764Y-56955709D01*
X70535767Y-56955713D01*
X70626368Y-57046314D01*
X70626372Y-57046317D01*
X70732907Y-57117502D01*
X70732913Y-57117505D01*
X70732914Y-57117506D01*
X70851297Y-57166542D01*
X70851301Y-57166542D01*
X70851302Y-57166543D01*
X70976969Y-57191541D01*
X70976972Y-57191541D01*
X71105112Y-57191541D01*
X71189656Y-57174723D01*
X71230785Y-57166542D01*
X71349168Y-57117506D01*
X71455710Y-57046317D01*
X71546317Y-56955710D01*
X71617506Y-56849168D01*
X71666542Y-56730785D01*
X71691541Y-56605110D01*
X71691541Y-56476972D01*
X71691541Y-56476969D01*
X71666543Y-56351302D01*
X71666542Y-56351301D01*
X71666542Y-56351297D01*
X71617506Y-56232914D01*
X71617505Y-56232912D01*
X71617499Y-56232902D01*
X71562439Y-56150498D01*
X71541561Y-56083821D01*
X71541541Y-56081608D01*
X71541541Y-54975151D01*
X71541541Y-54975149D01*
X71507433Y-54847855D01*
X71441541Y-54733727D01*
X71348355Y-54640541D01*
X70928775Y-54220961D01*
X70921476Y-54208866D01*
X70913152Y-54201868D01*
X70904295Y-54180396D01*
X70898013Y-54169986D01*
X70896101Y-54163816D01*
X70875501Y-54060256D01*
X70829859Y-53950068D01*
X70828169Y-53944613D01*
X70827729Y-53915168D01*
X70824582Y-53885891D01*
X70827214Y-53880631D01*
X70827127Y-53874751D01*
X70842675Y-53849743D01*
X70855857Y-53823411D01*
X70860914Y-53820410D01*
X70864020Y-53815416D01*
X70890621Y-53802784D01*
X70915946Y-53787759D01*
X70921822Y-53787968D01*
X70927136Y-53785446D01*
X70956339Y-53789201D01*
X70985771Y-53790252D01*
X70994289Y-53794081D01*
X70996435Y-53794357D01*
X70998195Y-53795837D01*
X71008603Y-53800515D01*
X71078347Y-53840782D01*
X71094157Y-53849910D01*
X71141906Y-53862705D01*
X71141907Y-53862705D01*
X71151998Y-53865408D01*
X71189659Y-53875500D01*
X71189660Y-53875500D01*
X74505220Y-53875500D01*
X74572259Y-53895185D01*
X74615705Y-53943206D01*
X74683766Y-54076786D01*
X74704220Y-54104938D01*
X74785586Y-54216928D01*
X74908072Y-54339414D01*
X75048212Y-54441232D01*
X75202555Y-54519873D01*
X75367299Y-54573402D01*
X75538389Y-54600500D01*
X75538390Y-54600500D01*
X75961610Y-54600500D01*
X75961611Y-54600500D01*
X76132701Y-54573402D01*
X76297445Y-54519873D01*
X76451788Y-54441232D01*
X76591928Y-54339414D01*
X76714414Y-54216928D01*
X76816232Y-54076788D01*
X76894873Y-53922445D01*
X76948402Y-53757701D01*
X76975500Y-53586611D01*
X76975500Y-53413389D01*
X76948402Y-53242299D01*
X76894873Y-53077555D01*
X76816232Y-52923212D01*
X76714414Y-52783072D01*
X76591928Y-52660586D01*
X76451788Y-52558768D01*
X76297445Y-52480127D01*
X76132701Y-52426598D01*
X76132699Y-52426597D01*
X76132698Y-52426597D01*
X76001271Y-52405781D01*
X75961611Y-52399500D01*
X75538389Y-52399500D01*
X75498728Y-52405781D01*
X75367302Y-52426597D01*
X75202552Y-52480128D01*
X75048211Y-52558768D01*
X74974815Y-52612094D01*
X74908072Y-52660586D01*
X74908070Y-52660588D01*
X74908069Y-52660588D01*
X74785588Y-52783069D01*
X74785588Y-52783070D01*
X74785586Y-52783072D01*
X74757322Y-52821974D01*
X74683766Y-52923213D01*
X74615705Y-53056794D01*
X74567731Y-53107591D01*
X74505220Y-53124500D01*
X71445994Y-53124500D01*
X71378955Y-53104815D01*
X71358313Y-53088181D01*
X69183521Y-50913389D01*
X74524500Y-50913389D01*
X74524500Y-51086611D01*
X74551598Y-51257701D01*
X74605127Y-51422445D01*
X74683768Y-51576788D01*
X74785586Y-51716928D01*
X74908072Y-51839414D01*
X75048212Y-51941232D01*
X75202555Y-52019873D01*
X75367299Y-52073402D01*
X75538389Y-52100500D01*
X75538390Y-52100500D01*
X75961610Y-52100500D01*
X75961611Y-52100500D01*
X76132701Y-52073402D01*
X76297445Y-52019873D01*
X76451788Y-51941232D01*
X76591928Y-51839414D01*
X76714414Y-51716928D01*
X76816232Y-51576788D01*
X76894873Y-51422445D01*
X76948402Y-51257701D01*
X76975500Y-51086611D01*
X76975500Y-50913389D01*
X76948402Y-50742299D01*
X76894873Y-50577555D01*
X76816232Y-50423212D01*
X76714414Y-50283072D01*
X76591928Y-50160586D01*
X76451788Y-50058768D01*
X76355898Y-50009910D01*
X76297447Y-49980128D01*
X76297446Y-49980127D01*
X76297445Y-49980127D01*
X76132701Y-49926598D01*
X76132699Y-49926597D01*
X76132698Y-49926597D01*
X76001271Y-49905781D01*
X75961611Y-49899500D01*
X75538389Y-49899500D01*
X75498728Y-49905781D01*
X75367302Y-49926597D01*
X75202552Y-49980128D01*
X75048211Y-50058768D01*
X74999261Y-50094333D01*
X74908072Y-50160586D01*
X74908070Y-50160588D01*
X74908069Y-50160588D01*
X74785588Y-50283069D01*
X74785588Y-50283070D01*
X74785586Y-50283072D01*
X74776392Y-50295727D01*
X74683768Y-50423211D01*
X74605128Y-50577552D01*
X74551597Y-50742302D01*
X74541443Y-50806412D01*
X74524500Y-50913389D01*
X69183521Y-50913389D01*
X68104128Y-49833996D01*
X68070643Y-49772673D01*
X68075627Y-49702981D01*
X68117499Y-49647048D01*
X68172410Y-49623842D01*
X68293997Y-49604585D01*
X68481945Y-49543517D01*
X68658025Y-49453800D01*
X68817903Y-49337642D01*
X68957642Y-49197903D01*
X69073800Y-49038025D01*
X69163517Y-48861945D01*
X69224585Y-48673997D01*
X69255500Y-48478810D01*
X69255500Y-48281190D01*
X69250560Y-48249999D01*
X74550884Y-48249999D01*
X74550885Y-48250000D01*
X75345854Y-48250000D01*
X75307370Y-48316657D01*
X75275000Y-48437465D01*
X75275000Y-48562535D01*
X75307370Y-48683343D01*
X75345854Y-48750000D01*
X74550885Y-48750000D01*
X74552085Y-48757584D01*
X74605591Y-48922255D01*
X74684195Y-49076524D01*
X74785967Y-49216602D01*
X74908397Y-49339032D01*
X75048475Y-49440804D01*
X75202744Y-49519408D01*
X75367415Y-49572913D01*
X75500000Y-49593913D01*
X75500000Y-48904145D01*
X75566657Y-48942630D01*
X75687465Y-48975000D01*
X75812535Y-48975000D01*
X75933343Y-48942630D01*
X76000000Y-48904145D01*
X76000000Y-49593912D01*
X76132584Y-49572913D01*
X76297255Y-49519408D01*
X76451524Y-49440804D01*
X76591602Y-49339032D01*
X76714032Y-49216602D01*
X76815804Y-49076524D01*
X76894408Y-48922255D01*
X76947914Y-48757584D01*
X76949115Y-48750000D01*
X76154146Y-48750000D01*
X76192630Y-48683343D01*
X76225000Y-48562535D01*
X76225000Y-48437465D01*
X76192630Y-48316657D01*
X76154146Y-48250000D01*
X76949115Y-48250000D01*
X76949115Y-48249999D01*
X76947914Y-48242415D01*
X76894408Y-48077744D01*
X76815804Y-47923475D01*
X76714032Y-47783397D01*
X76591602Y-47660967D01*
X76451524Y-47559195D01*
X76297257Y-47480591D01*
X76132585Y-47427086D01*
X76000000Y-47406086D01*
X76000000Y-48095854D01*
X75933343Y-48057370D01*
X75812535Y-48025000D01*
X75687465Y-48025000D01*
X75566657Y-48057370D01*
X75500000Y-48095854D01*
X75500000Y-47406086D01*
X75367414Y-47427086D01*
X75202742Y-47480591D01*
X75048475Y-47559195D01*
X74908397Y-47660967D01*
X74785967Y-47783397D01*
X74684195Y-47923475D01*
X74605591Y-48077744D01*
X74552085Y-48242415D01*
X74550884Y-48249999D01*
X69250560Y-48249999D01*
X69224585Y-48086003D01*
X69221901Y-48077744D01*
X69171776Y-47923475D01*
X69163517Y-47898055D01*
X69163515Y-47898052D01*
X69163515Y-47898050D01*
X69100912Y-47775185D01*
X69073800Y-47721975D01*
X68957642Y-47562097D01*
X68817903Y-47422358D01*
X68658025Y-47306200D01*
X68626902Y-47290342D01*
X68481949Y-47216484D01*
X68293997Y-47155414D01*
X68125497Y-47128726D01*
X68098810Y-47124500D01*
X67901190Y-47124500D01*
X67877712Y-47128218D01*
X67706002Y-47155414D01*
X67518050Y-47216484D01*
X67341974Y-47306200D01*
X67182094Y-47422360D01*
X67042360Y-47562094D01*
X66926200Y-47721974D01*
X66836484Y-47898050D01*
X66775414Y-48086002D01*
X66744500Y-48281190D01*
X66744500Y-48478809D01*
X66775414Y-48673997D01*
X66836484Y-48861949D01*
X66912175Y-49010499D01*
X66926200Y-49038025D01*
X66962229Y-49087615D01*
X66985709Y-49153420D01*
X66969884Y-49221474D01*
X66919778Y-49270169D01*
X66861911Y-49284500D01*
X57201762Y-49284500D01*
X57134723Y-49264815D01*
X57088968Y-49212011D01*
X57079024Y-49142853D01*
X57101444Y-49087614D01*
X57173800Y-48988025D01*
X57263517Y-48811945D01*
X57324585Y-48623997D01*
X57355500Y-48428810D01*
X57355500Y-48231190D01*
X57328935Y-48063465D01*
X57324585Y-48036002D01*
X57288022Y-47923475D01*
X57263517Y-47848055D01*
X57263515Y-47848052D01*
X57263515Y-47848050D01*
X57199276Y-47721975D01*
X57173800Y-47671975D01*
X57057642Y-47512097D01*
X56917903Y-47372358D01*
X56758025Y-47256200D01*
X56581949Y-47166484D01*
X56393997Y-47105414D01*
X56225497Y-47078726D01*
X56198810Y-47074500D01*
X56001190Y-47074500D01*
X55977712Y-47078218D01*
X55806002Y-47105414D01*
X55618050Y-47166484D01*
X55441974Y-47256200D01*
X55282094Y-47372360D01*
X55142360Y-47512094D01*
X55026200Y-47671974D01*
X54936484Y-47848050D01*
X54875414Y-48036002D01*
X54844500Y-48231190D01*
X54844500Y-48428809D01*
X54875414Y-48623997D01*
X54936484Y-48811949D01*
X55021164Y-48978141D01*
X55026200Y-48988025D01*
X55090498Y-49076524D01*
X55098556Y-49087614D01*
X55122036Y-49153421D01*
X55106211Y-49221475D01*
X55056105Y-49270170D01*
X54998238Y-49284500D01*
X46526899Y-49284500D01*
X46459860Y-49264815D01*
X46439218Y-49248181D01*
X45638141Y-48447104D01*
X45604656Y-48385781D01*
X45609640Y-48316089D01*
X45611237Y-48312029D01*
X45630130Y-48266420D01*
X45670500Y-48063465D01*
X45670500Y-47856535D01*
X45630130Y-47653580D01*
X45550941Y-47462402D01*
X45435977Y-47290345D01*
X45435975Y-47290342D01*
X45289657Y-47144024D01*
X45165967Y-47061378D01*
X45117598Y-47029059D01*
X44926420Y-46949870D01*
X44926412Y-46949868D01*
X44723469Y-46909500D01*
X44723465Y-46909500D01*
X44516535Y-46909500D01*
X44516530Y-46909500D01*
X44313587Y-46949868D01*
X44313579Y-46949870D01*
X44122403Y-47029058D01*
X43950342Y-47144024D01*
X43804024Y-47290342D01*
X43689058Y-47462403D01*
X43609870Y-47653579D01*
X43609868Y-47653587D01*
X43569500Y-47856530D01*
X43569500Y-48063469D01*
X43609868Y-48266412D01*
X43609870Y-48266420D01*
X43680719Y-48437465D01*
X43689059Y-48457598D01*
X43720776Y-48505066D01*
X43804024Y-48629657D01*
X43950342Y-48775975D01*
X43950345Y-48775977D01*
X44122402Y-48890941D01*
X44313580Y-48970130D01*
X44514016Y-49009999D01*
X44516530Y-49010499D01*
X44516534Y-49010500D01*
X44516535Y-49010500D01*
X44723466Y-49010500D01*
X44723467Y-49010499D01*
X44926420Y-48970130D01*
X44971972Y-48951261D01*
X45041437Y-48943792D01*
X45103917Y-48975065D01*
X45107104Y-48978141D01*
X46019525Y-49890562D01*
X46089438Y-49960475D01*
X46175062Y-50009910D01*
X46222811Y-50022705D01*
X46222812Y-50022705D01*
X46232903Y-50025408D01*
X46270564Y-50035500D01*
X46270565Y-50035500D01*
X47044101Y-50035500D01*
X47111140Y-50055185D01*
X47156895Y-50107989D01*
X47166839Y-50177147D01*
X47137814Y-50240703D01*
X47131782Y-50247181D01*
X43410782Y-53968181D01*
X43349459Y-54001666D01*
X43323101Y-54004500D01*
X42814370Y-54004500D01*
X42747331Y-53984815D01*
X42701576Y-53932011D01*
X42699809Y-53927953D01*
X42680941Y-53882403D01*
X42680941Y-53882402D01*
X42565977Y-53710345D01*
X42565975Y-53710342D01*
X42419657Y-53564024D01*
X42333626Y-53506541D01*
X42247598Y-53449059D01*
X42056420Y-53369870D01*
X42056412Y-53369868D01*
X41853469Y-53329500D01*
X41853465Y-53329500D01*
X41646535Y-53329500D01*
X41646530Y-53329500D01*
X41443587Y-53369868D01*
X41443579Y-53369870D01*
X41252403Y-53449058D01*
X41080342Y-53564024D01*
X40934024Y-53710342D01*
X40819058Y-53882403D01*
X40739870Y-54073579D01*
X40739868Y-54073587D01*
X40699500Y-54276530D01*
X40300499Y-54276530D01*
X40260130Y-54073580D01*
X40180941Y-53882402D01*
X40065977Y-53710345D01*
X40065975Y-53710342D01*
X39919657Y-53564024D01*
X39833626Y-53506541D01*
X39747598Y-53449059D01*
X39556420Y-53369870D01*
X39556412Y-53369868D01*
X39353469Y-53329500D01*
X39353465Y-53329500D01*
X39146535Y-53329500D01*
X39146530Y-53329500D01*
X38943582Y-53369868D01*
X38943579Y-53369870D01*
X38898026Y-53388738D01*
X38828557Y-53396205D01*
X38766078Y-53364930D01*
X38762894Y-53361857D01*
X37140783Y-51739746D01*
X37107298Y-51678423D01*
X37112282Y-51608731D01*
X37154154Y-51552798D01*
X37204270Y-51530448D01*
X37306420Y-51510130D01*
X37497598Y-51430941D01*
X37669655Y-51315977D01*
X37815977Y-51169655D01*
X37930941Y-50997598D01*
X38010130Y-50806420D01*
X38050500Y-50603465D01*
X38050500Y-50396535D01*
X38050499Y-50396530D01*
X43569500Y-50396530D01*
X43569500Y-50603469D01*
X43609868Y-50806412D01*
X43609870Y-50806420D01*
X43689058Y-50997596D01*
X43804024Y-51169657D01*
X43950342Y-51315975D01*
X43950345Y-51315977D01*
X44122402Y-51430941D01*
X44313580Y-51510130D01*
X44512287Y-51549655D01*
X44516530Y-51550499D01*
X44516534Y-51550500D01*
X44516535Y-51550500D01*
X44723466Y-51550500D01*
X44723467Y-51550499D01*
X44926420Y-51510130D01*
X45117598Y-51430941D01*
X45289655Y-51315977D01*
X45435977Y-51169655D01*
X45550941Y-50997598D01*
X45630130Y-50806420D01*
X45670500Y-50603465D01*
X45670500Y-50396535D01*
X45630130Y-50193580D01*
X45550941Y-50002402D01*
X45435977Y-49830345D01*
X45435975Y-49830342D01*
X45289657Y-49684024D01*
X45154793Y-49593912D01*
X45117598Y-49569059D01*
X44926420Y-49489870D01*
X44926412Y-49489868D01*
X44723469Y-49449500D01*
X44723465Y-49449500D01*
X44516535Y-49449500D01*
X44516530Y-49449500D01*
X44313587Y-49489868D01*
X44313579Y-49489870D01*
X44122403Y-49569058D01*
X43950342Y-49684024D01*
X43804024Y-49830342D01*
X43689058Y-50002403D01*
X43609870Y-50193579D01*
X43609868Y-50193587D01*
X43569500Y-50396530D01*
X38050499Y-50396530D01*
X38010130Y-50193580D01*
X37930941Y-50002402D01*
X37815977Y-49830345D01*
X37815975Y-49830342D01*
X37669657Y-49684024D01*
X37534793Y-49593912D01*
X37497598Y-49569059D01*
X37306420Y-49489870D01*
X37306412Y-49489868D01*
X37103469Y-49449500D01*
X37103465Y-49449500D01*
X36896535Y-49449500D01*
X36896530Y-49449500D01*
X36693587Y-49489868D01*
X36693579Y-49489870D01*
X36502403Y-49569058D01*
X36330342Y-49684024D01*
X36184024Y-49830342D01*
X36069058Y-50002403D01*
X35989870Y-50193579D01*
X35989868Y-50193585D01*
X35969551Y-50295727D01*
X35937166Y-50357638D01*
X35876450Y-50392212D01*
X35806681Y-50388472D01*
X35760253Y-50359216D01*
X35451819Y-50050782D01*
X35418334Y-49989459D01*
X35415500Y-49963101D01*
X35415500Y-47856579D01*
X35950000Y-47856579D01*
X35950000Y-48063420D01*
X35990348Y-48266266D01*
X35990350Y-48266274D01*
X36069500Y-48457359D01*
X36101377Y-48505067D01*
X36101378Y-48505067D01*
X36600000Y-48006445D01*
X36600000Y-48012661D01*
X36627259Y-48114394D01*
X36679920Y-48205606D01*
X36754394Y-48280080D01*
X36845606Y-48332741D01*
X36947339Y-48360000D01*
X36953554Y-48360000D01*
X36454931Y-48858620D01*
X36454932Y-48858621D01*
X36502633Y-48890495D01*
X36502639Y-48890498D01*
X36693725Y-48969649D01*
X36693733Y-48969651D01*
X36896579Y-49009999D01*
X36896583Y-49010000D01*
X37103417Y-49010000D01*
X37103420Y-49009999D01*
X37306266Y-48969651D01*
X37306274Y-48969649D01*
X37497366Y-48890495D01*
X37545066Y-48858621D01*
X37545067Y-48858620D01*
X37046447Y-48360000D01*
X37052661Y-48360000D01*
X37154394Y-48332741D01*
X37245606Y-48280080D01*
X37320080Y-48205606D01*
X37372741Y-48114394D01*
X37400000Y-48012661D01*
X37400000Y-48006447D01*
X37898620Y-48505067D01*
X37898621Y-48505066D01*
X37930495Y-48457366D01*
X38009649Y-48266274D01*
X38009651Y-48266266D01*
X38049999Y-48063420D01*
X38050000Y-48063417D01*
X38050000Y-47856583D01*
X38049999Y-47856579D01*
X38009651Y-47653733D01*
X38009649Y-47653725D01*
X37930498Y-47462639D01*
X37930495Y-47462633D01*
X37898621Y-47414932D01*
X37898620Y-47414931D01*
X37400000Y-47913552D01*
X37400000Y-47907339D01*
X37372741Y-47805606D01*
X37320080Y-47714394D01*
X37245606Y-47639920D01*
X37154394Y-47587259D01*
X37052661Y-47560000D01*
X37046447Y-47560000D01*
X37545067Y-47061378D01*
X37545067Y-47061377D01*
X37497359Y-47029500D01*
X37306274Y-46950350D01*
X37306266Y-46950348D01*
X37103420Y-46910000D01*
X36896579Y-46910000D01*
X36693733Y-46950348D01*
X36693725Y-46950350D01*
X36502641Y-47029500D01*
X36502631Y-47029505D01*
X36454932Y-47061377D01*
X36454932Y-47061378D01*
X36953554Y-47560000D01*
X36947339Y-47560000D01*
X36845606Y-47587259D01*
X36754394Y-47639920D01*
X36679920Y-47714394D01*
X36627259Y-47805606D01*
X36600000Y-47907339D01*
X36600000Y-47913554D01*
X36101378Y-47414932D01*
X36101377Y-47414932D01*
X36069505Y-47462631D01*
X36069500Y-47462641D01*
X35990350Y-47653725D01*
X35990348Y-47653733D01*
X35950000Y-47856579D01*
X35415500Y-47856579D01*
X35415500Y-47586898D01*
X35435185Y-47519859D01*
X35451814Y-47499221D01*
X36512896Y-46438139D01*
X36574217Y-46404656D01*
X36643908Y-46409640D01*
X36647972Y-46411238D01*
X36693580Y-46430130D01*
X36896530Y-46470499D01*
X36896534Y-46470500D01*
X36896535Y-46470500D01*
X37103466Y-46470500D01*
X37103467Y-46470499D01*
X37306420Y-46430130D01*
X37497598Y-46350941D01*
X37669655Y-46235977D01*
X37815977Y-46089655D01*
X37930941Y-45917598D01*
X38010130Y-45726420D01*
X38050500Y-45523465D01*
X38050500Y-45316535D01*
X38050499Y-45316530D01*
X43569500Y-45316530D01*
X43569500Y-45523469D01*
X43609868Y-45726412D01*
X43609870Y-45726420D01*
X43689058Y-45917596D01*
X43804024Y-46089657D01*
X43950342Y-46235975D01*
X43950345Y-46235977D01*
X44122402Y-46350941D01*
X44313580Y-46430130D01*
X44516530Y-46470499D01*
X44516534Y-46470500D01*
X44516535Y-46470500D01*
X44723466Y-46470500D01*
X44723467Y-46470499D01*
X44926420Y-46430130D01*
X45117598Y-46350941D01*
X45289655Y-46235977D01*
X45435977Y-46089655D01*
X45550941Y-45917598D01*
X45609374Y-45776530D01*
X47949500Y-45776530D01*
X47949500Y-45983469D01*
X47989839Y-46186266D01*
X47989870Y-46186420D01*
X48069059Y-46377598D01*
X48090469Y-46409640D01*
X48184024Y-46549657D01*
X48330342Y-46695975D01*
X48330345Y-46695977D01*
X48502402Y-46810941D01*
X48693580Y-46890130D01*
X48896530Y-46930499D01*
X48896534Y-46930500D01*
X48896535Y-46930500D01*
X49103466Y-46930500D01*
X49103467Y-46930499D01*
X49306420Y-46890130D01*
X49497598Y-46810941D01*
X49669655Y-46695977D01*
X49815977Y-46549655D01*
X49930941Y-46377598D01*
X50010130Y-46186420D01*
X50050500Y-45983465D01*
X50050500Y-45776535D01*
X50010130Y-45573580D01*
X49936681Y-45396259D01*
X49930942Y-45382403D01*
X49910718Y-45352135D01*
X74524500Y-45352135D01*
X74524500Y-46647870D01*
X74524501Y-46647876D01*
X74530908Y-46707483D01*
X74581202Y-46842328D01*
X74581206Y-46842335D01*
X74667452Y-46957544D01*
X74667455Y-46957547D01*
X74782664Y-47043793D01*
X74782671Y-47043797D01*
X74917517Y-47094091D01*
X74917516Y-47094091D01*
X74924444Y-47094835D01*
X74977127Y-47100500D01*
X76522872Y-47100499D01*
X76582483Y-47094091D01*
X76717331Y-47043796D01*
X76832546Y-46957546D01*
X76918796Y-46842331D01*
X76969091Y-46707483D01*
X76975500Y-46647873D01*
X76975499Y-45352128D01*
X76969091Y-45292517D01*
X76918796Y-45157669D01*
X76918795Y-45157668D01*
X76918793Y-45157664D01*
X76832547Y-45042455D01*
X76832544Y-45042452D01*
X76717335Y-44956206D01*
X76717328Y-44956202D01*
X76582482Y-44905908D01*
X76582483Y-44905908D01*
X76522883Y-44899501D01*
X76522881Y-44899500D01*
X76522873Y-44899500D01*
X76522864Y-44899500D01*
X74977129Y-44899500D01*
X74977123Y-44899501D01*
X74917516Y-44905908D01*
X74782671Y-44956202D01*
X74782664Y-44956206D01*
X74667455Y-45042452D01*
X74667452Y-45042455D01*
X74581206Y-45157664D01*
X74581202Y-45157671D01*
X74530908Y-45292517D01*
X74524501Y-45352116D01*
X74524501Y-45352123D01*
X74524500Y-45352135D01*
X49910718Y-45352135D01*
X49815975Y-45210342D01*
X49669657Y-45064024D01*
X49545967Y-44981378D01*
X49497598Y-44949059D01*
X49393425Y-44905909D01*
X49306420Y-44869870D01*
X49306412Y-44869868D01*
X49103469Y-44829500D01*
X49103465Y-44829500D01*
X48896535Y-44829500D01*
X48896530Y-44829500D01*
X48693587Y-44869868D01*
X48693579Y-44869870D01*
X48502403Y-44949058D01*
X48330342Y-45064024D01*
X48184024Y-45210342D01*
X48069058Y-45382403D01*
X47989870Y-45573579D01*
X47989868Y-45573587D01*
X47949500Y-45776530D01*
X45609374Y-45776530D01*
X45630130Y-45726420D01*
X45670500Y-45523465D01*
X45670500Y-45316535D01*
X45630130Y-45113580D01*
X45550941Y-44922402D01*
X45435977Y-44750345D01*
X45435975Y-44750342D01*
X45289657Y-44604024D01*
X45203626Y-44546541D01*
X45117598Y-44489059D01*
X44926420Y-44409870D01*
X44926412Y-44409868D01*
X44723469Y-44369500D01*
X44723465Y-44369500D01*
X44516535Y-44369500D01*
X44516530Y-44369500D01*
X44313587Y-44409868D01*
X44313579Y-44409870D01*
X44122403Y-44489058D01*
X43950342Y-44604024D01*
X43804024Y-44750342D01*
X43689058Y-44922403D01*
X43609870Y-45113579D01*
X43609868Y-45113587D01*
X43569500Y-45316530D01*
X38050499Y-45316530D01*
X38010130Y-45113580D01*
X37930941Y-44922402D01*
X37815977Y-44750345D01*
X37815975Y-44750342D01*
X37669657Y-44604024D01*
X37583626Y-44546541D01*
X37497598Y-44489059D01*
X37306420Y-44409870D01*
X37306412Y-44409868D01*
X37103469Y-44369500D01*
X37103465Y-44369500D01*
X36896535Y-44369500D01*
X36896530Y-44369500D01*
X36693587Y-44409868D01*
X36693579Y-44409870D01*
X36502403Y-44489058D01*
X36330342Y-44604024D01*
X36184024Y-44750342D01*
X36069058Y-44922403D01*
X35989870Y-45113579D01*
X35989868Y-45113587D01*
X35949500Y-45316530D01*
X35949500Y-45523469D01*
X35989867Y-45726412D01*
X35989869Y-45726416D01*
X35989870Y-45726420D01*
X36008327Y-45770980D01*
X36008738Y-45771972D01*
X36016205Y-45841442D01*
X35984929Y-45903920D01*
X35981857Y-45907104D01*
X34920782Y-46968181D01*
X34859459Y-47001666D01*
X34833101Y-47004500D01*
X33115789Y-47004500D01*
X33048750Y-46984815D01*
X33002995Y-46932011D01*
X32993051Y-46862853D01*
X33022076Y-46799297D01*
X33045024Y-46779050D01*
X33045067Y-46778620D01*
X32546447Y-46280000D01*
X32552661Y-46280000D01*
X32654394Y-46252741D01*
X32745606Y-46200080D01*
X32820080Y-46125606D01*
X32872741Y-46034394D01*
X32900000Y-45932661D01*
X32900000Y-45926447D01*
X33398620Y-46425067D01*
X33398621Y-46425066D01*
X33430495Y-46377366D01*
X33509649Y-46186274D01*
X33509651Y-46186266D01*
X33549999Y-45983420D01*
X33550000Y-45983417D01*
X33550000Y-45776583D01*
X33549999Y-45776579D01*
X33509651Y-45573733D01*
X33509649Y-45573725D01*
X33430498Y-45382639D01*
X33430495Y-45382633D01*
X33398621Y-45334932D01*
X33398620Y-45334931D01*
X32900000Y-45833552D01*
X32900000Y-45827339D01*
X32872741Y-45725606D01*
X32820080Y-45634394D01*
X32745606Y-45559920D01*
X32654394Y-45507259D01*
X32552661Y-45480000D01*
X32546447Y-45480000D01*
X33045067Y-44981378D01*
X33045067Y-44981377D01*
X32997359Y-44949500D01*
X32806274Y-44870350D01*
X32806266Y-44870348D01*
X32603420Y-44830000D01*
X32396579Y-44830000D01*
X32193733Y-44870348D01*
X32193725Y-44870350D01*
X32002641Y-44949500D01*
X32002631Y-44949505D01*
X31954932Y-44981377D01*
X31954932Y-44981378D01*
X32453554Y-45480000D01*
X32447339Y-45480000D01*
X32345606Y-45507259D01*
X32254394Y-45559920D01*
X32179920Y-45634394D01*
X32127259Y-45725606D01*
X32100000Y-45827339D01*
X32100000Y-45833554D01*
X31601378Y-45334932D01*
X31601377Y-45334932D01*
X31569505Y-45382631D01*
X31569500Y-45382641D01*
X31490350Y-45573725D01*
X31490348Y-45573733D01*
X31450000Y-45776579D01*
X31450000Y-45983420D01*
X31490348Y-46186266D01*
X31490350Y-46186274D01*
X31569500Y-46377359D01*
X31601377Y-46425067D01*
X31601378Y-46425067D01*
X32100000Y-45926445D01*
X32100000Y-45932661D01*
X32127259Y-46034394D01*
X32179920Y-46125606D01*
X32254394Y-46200080D01*
X32345606Y-46252741D01*
X32447339Y-46280000D01*
X32453554Y-46280000D01*
X31954931Y-46778620D01*
X31955039Y-46779715D01*
X31997907Y-46831011D01*
X32006614Y-46900336D01*
X31976459Y-46963363D01*
X31917015Y-47000082D01*
X31884211Y-47004500D01*
X26274500Y-47004500D01*
X26207461Y-46984815D01*
X26161706Y-46932011D01*
X26150500Y-46880500D01*
X26150500Y-46182136D01*
X26150500Y-46182128D01*
X26144091Y-46122518D01*
X26093796Y-45987670D01*
X26007546Y-45872454D01*
X25892330Y-45786204D01*
X25892328Y-45786203D01*
X25892327Y-45786202D01*
X25757481Y-45735908D01*
X25757482Y-45735908D01*
X25697882Y-45729501D01*
X25697880Y-45729500D01*
X25697872Y-45729500D01*
X23302128Y-45729500D01*
X23302120Y-45729500D01*
X23302117Y-45729501D01*
X23242518Y-45735908D01*
X23107672Y-45786202D01*
X23107670Y-45786204D01*
X22992454Y-45872454D01*
X22906204Y-45987670D01*
X22906202Y-45987672D01*
X22855908Y-46122518D01*
X22849501Y-46182117D01*
X22849500Y-46182136D01*
X16000500Y-46182136D01*
X16000500Y-42282135D01*
X35949500Y-42282135D01*
X35949500Y-43477870D01*
X35949501Y-43477876D01*
X35955908Y-43537483D01*
X36006202Y-43672328D01*
X36006206Y-43672335D01*
X36092452Y-43787544D01*
X36092455Y-43787547D01*
X36207664Y-43873793D01*
X36207671Y-43873797D01*
X36342517Y-43924091D01*
X36342516Y-43924091D01*
X36349444Y-43924835D01*
X36402127Y-43930500D01*
X37597872Y-43930499D01*
X37657483Y-43924091D01*
X37792331Y-43873796D01*
X37907546Y-43787546D01*
X37993796Y-43672331D01*
X38044091Y-43537483D01*
X38050500Y-43477873D01*
X38050499Y-42776530D01*
X43569500Y-42776530D01*
X43569500Y-42983469D01*
X43609868Y-43186412D01*
X43609870Y-43186420D01*
X43689058Y-43377596D01*
X43804024Y-43549657D01*
X43950342Y-43695975D01*
X43950345Y-43695977D01*
X44122402Y-43810941D01*
X44313580Y-43890130D01*
X44484315Y-43924091D01*
X44516530Y-43930499D01*
X44516534Y-43930500D01*
X44516535Y-43930500D01*
X44723466Y-43930500D01*
X44723467Y-43930499D01*
X44926420Y-43890130D01*
X45117598Y-43810941D01*
X45289655Y-43695977D01*
X45435977Y-43549655D01*
X45550941Y-43377598D01*
X45630130Y-43186420D01*
X45670500Y-42983465D01*
X45670500Y-42776535D01*
X45630130Y-42573580D01*
X45550941Y-42382402D01*
X45549335Y-42379999D01*
X45505319Y-42314123D01*
X45505317Y-42314121D01*
X45483940Y-42282128D01*
X45462538Y-42250097D01*
X54599500Y-42250097D01*
X54599500Y-42509902D01*
X54640140Y-42766493D01*
X54720422Y-43013576D01*
X54801534Y-43172764D01*
X54838366Y-43245051D01*
X54991069Y-43455229D01*
X55174771Y-43638931D01*
X55384949Y-43791634D01*
X55532445Y-43866787D01*
X55616423Y-43909577D01*
X55616425Y-43909577D01*
X55616428Y-43909579D01*
X55863507Y-43989860D01*
X55995706Y-44010797D01*
X56120098Y-44030500D01*
X56120103Y-44030500D01*
X56379902Y-44030500D01*
X56493298Y-44012539D01*
X56636493Y-43989860D01*
X56883572Y-43909579D01*
X57115051Y-43791634D01*
X57325229Y-43638931D01*
X57508931Y-43455229D01*
X57661634Y-43245051D01*
X57779579Y-43013572D01*
X57859860Y-42766493D01*
X57890414Y-42573579D01*
X57900500Y-42509902D01*
X57900500Y-42250142D01*
X59600000Y-42250142D01*
X59600000Y-42509857D01*
X59640629Y-42766377D01*
X59720883Y-43013377D01*
X59838796Y-43244791D01*
X59919951Y-43356492D01*
X59919952Y-43356493D01*
X60648958Y-42627487D01*
X60673978Y-42687890D01*
X60745112Y-42794351D01*
X60835649Y-42884888D01*
X60942110Y-42956022D01*
X61002511Y-42981041D01*
X60273505Y-43710046D01*
X60273506Y-43710048D01*
X60385208Y-43791203D01*
X60616622Y-43909116D01*
X60863622Y-43989370D01*
X61120143Y-44030000D01*
X61379857Y-44030000D01*
X61636377Y-43989370D01*
X61883377Y-43909116D01*
X62114788Y-43791205D01*
X62226492Y-43710046D01*
X62226493Y-43710046D01*
X61497488Y-42981041D01*
X61557890Y-42956022D01*
X61664351Y-42884888D01*
X61754888Y-42794351D01*
X61826022Y-42687890D01*
X61851041Y-42627488D01*
X62580046Y-43356493D01*
X62580046Y-43356492D01*
X62661205Y-43244788D01*
X62779116Y-43013377D01*
X62859370Y-42766377D01*
X62900000Y-42509857D01*
X62900000Y-42250142D01*
X62859370Y-41993622D01*
X62779116Y-41746622D01*
X62661203Y-41515208D01*
X62580048Y-41403506D01*
X62580046Y-41403505D01*
X61851041Y-42132511D01*
X61826022Y-42072110D01*
X61754888Y-41965649D01*
X61664351Y-41875112D01*
X61557890Y-41803978D01*
X61497488Y-41778958D01*
X62094310Y-41182136D01*
X64599500Y-41182136D01*
X64599500Y-43577863D01*
X64599501Y-43577882D01*
X64605908Y-43637481D01*
X64656202Y-43772327D01*
X64656203Y-43772328D01*
X64656204Y-43772330D01*
X64742454Y-43887546D01*
X64857670Y-43973796D01*
X64857671Y-43973796D01*
X64857672Y-43973797D01*
X64992518Y-44024091D01*
X64992517Y-44024091D01*
X64999445Y-44024835D01*
X65052128Y-44030500D01*
X65052137Y-44030500D01*
X67447863Y-44030500D01*
X67447872Y-44030500D01*
X67507482Y-44024091D01*
X67642330Y-43973796D01*
X67757546Y-43887546D01*
X67843796Y-43772330D01*
X67894091Y-43637482D01*
X67900500Y-43577872D01*
X67900500Y-41182128D01*
X67894091Y-41122518D01*
X67843796Y-40987670D01*
X67757546Y-40872454D01*
X67642330Y-40786204D01*
X67642328Y-40786203D01*
X67642327Y-40786202D01*
X67507481Y-40735908D01*
X67507482Y-40735908D01*
X67447882Y-40729501D01*
X67447880Y-40729500D01*
X67447872Y-40729500D01*
X65052128Y-40729500D01*
X65052120Y-40729500D01*
X65052117Y-40729501D01*
X64992518Y-40735908D01*
X64857672Y-40786202D01*
X64857670Y-40786204D01*
X64742454Y-40872454D01*
X64656204Y-40987670D01*
X64656202Y-40987672D01*
X64605908Y-41122518D01*
X64599501Y-41182117D01*
X64599500Y-41182136D01*
X62094310Y-41182136D01*
X62185320Y-41091126D01*
X62226493Y-41049952D01*
X62226492Y-41049951D01*
X62114791Y-40968796D01*
X61883377Y-40850883D01*
X61636377Y-40770629D01*
X61379857Y-40730000D01*
X61120143Y-40730000D01*
X60863622Y-40770629D01*
X60616622Y-40850883D01*
X60385215Y-40968792D01*
X60273506Y-41049952D01*
X61002512Y-41778958D01*
X60942110Y-41803978D01*
X60835649Y-41875112D01*
X60745112Y-41965649D01*
X60673978Y-42072110D01*
X60648958Y-42132512D01*
X59919952Y-41403506D01*
X59838792Y-41515215D01*
X59720883Y-41746622D01*
X59640629Y-41993622D01*
X59600000Y-42250142D01*
X57900500Y-42250142D01*
X57900500Y-42250097D01*
X57872309Y-42072110D01*
X57859860Y-41993507D01*
X57779579Y-41746428D01*
X57779577Y-41746425D01*
X57779577Y-41746423D01*
X57736787Y-41662445D01*
X57661634Y-41514949D01*
X57508931Y-41304771D01*
X57325229Y-41121069D01*
X57227343Y-41049951D01*
X57115054Y-40968368D01*
X57115053Y-40968367D01*
X57115051Y-40968366D01*
X57042764Y-40931534D01*
X56883576Y-40850422D01*
X56636493Y-40770140D01*
X56379902Y-40729500D01*
X56379897Y-40729500D01*
X56120103Y-40729500D01*
X56120098Y-40729500D01*
X55863506Y-40770140D01*
X55616423Y-40850422D01*
X55384945Y-40968368D01*
X55174774Y-41121066D01*
X55174768Y-41121071D01*
X54991071Y-41304768D01*
X54991066Y-41304774D01*
X54838368Y-41514945D01*
X54720422Y-41746423D01*
X54640140Y-41993506D01*
X54599500Y-42250097D01*
X45462538Y-42250097D01*
X45435977Y-42210345D01*
X45435975Y-42210342D01*
X45289657Y-42064024D01*
X45184292Y-41993622D01*
X45117598Y-41949059D01*
X44926420Y-41869870D01*
X44926412Y-41869868D01*
X44723469Y-41829500D01*
X44723465Y-41829500D01*
X44516535Y-41829500D01*
X44516530Y-41829500D01*
X44313587Y-41869868D01*
X44313579Y-41869870D01*
X44122403Y-41949058D01*
X43950342Y-42064024D01*
X43804024Y-42210342D01*
X43689058Y-42382403D01*
X43609870Y-42573579D01*
X43609868Y-42573587D01*
X43569500Y-42776530D01*
X38050499Y-42776530D01*
X38050499Y-42282128D01*
X38044091Y-42222517D01*
X38039551Y-42210345D01*
X37993797Y-42087671D01*
X37993793Y-42087664D01*
X37907547Y-41972455D01*
X37907544Y-41972452D01*
X37792335Y-41886206D01*
X37792328Y-41886202D01*
X37657482Y-41835908D01*
X37657483Y-41835908D01*
X37597883Y-41829501D01*
X37597881Y-41829500D01*
X37597873Y-41829500D01*
X37597864Y-41829500D01*
X36402129Y-41829500D01*
X36402123Y-41829501D01*
X36342516Y-41835908D01*
X36207671Y-41886202D01*
X36207664Y-41886206D01*
X36092455Y-41972452D01*
X36092452Y-41972455D01*
X36006206Y-42087664D01*
X36006202Y-42087671D01*
X35955908Y-42222517D01*
X35949501Y-42282116D01*
X35949501Y-42282123D01*
X35949500Y-42282135D01*
X16000500Y-42282135D01*
X16000500Y-35124000D01*
X16020185Y-35056961D01*
X16072989Y-35011206D01*
X16124500Y-35000000D01*
X78875500Y-35000000D01*
X78942539Y-35019685D01*
G37*
%TD.AperFunction*%
%TD*%
%TA.AperFunction,Conductor*%
%TO.N,GND*%
G36*
X129942539Y-35019685D02*
G01*
X129988294Y-35072489D01*
X129999500Y-35124000D01*
X129999500Y-62376000D01*
X129979815Y-62443039D01*
X129927011Y-62488794D01*
X129875500Y-62500000D01*
X80124500Y-62500000D01*
X80057461Y-62480315D01*
X80011706Y-62427511D01*
X80000500Y-62376000D01*
X80000500Y-53413389D01*
X83024500Y-53413389D01*
X83024500Y-53586611D01*
X83051598Y-53757701D01*
X83105127Y-53922445D01*
X83183768Y-54076788D01*
X83285586Y-54216928D01*
X83408072Y-54339414D01*
X83548212Y-54441232D01*
X83702555Y-54519873D01*
X83867299Y-54573402D01*
X84038389Y-54600500D01*
X84038390Y-54600500D01*
X84461610Y-54600500D01*
X84461611Y-54600500D01*
X84632701Y-54573402D01*
X84680943Y-54557726D01*
X84750781Y-54555732D01*
X84806939Y-54587976D01*
X87019437Y-56800475D01*
X87105063Y-56849911D01*
X87200564Y-56875500D01*
X87200565Y-56875500D01*
X99340220Y-56875500D01*
X99407259Y-56895185D01*
X99450705Y-56943206D01*
X99518766Y-57076786D01*
X99549357Y-57118890D01*
X99620586Y-57216928D01*
X99743072Y-57339414D01*
X99883212Y-57441232D01*
X100037555Y-57519873D01*
X100202299Y-57573402D01*
X100373389Y-57600500D01*
X100373390Y-57600500D01*
X100546610Y-57600500D01*
X100546611Y-57600500D01*
X100717701Y-57573402D01*
X100882445Y-57519873D01*
X101036788Y-57441232D01*
X101176928Y-57339414D01*
X101299414Y-57216928D01*
X101401232Y-57076788D01*
X101479873Y-56922445D01*
X101533402Y-56757701D01*
X101560500Y-56586611D01*
X101560500Y-56413389D01*
X101533402Y-56242299D01*
X101479873Y-56077555D01*
X101401232Y-55923212D01*
X101299414Y-55783072D01*
X101176928Y-55660586D01*
X101036788Y-55558768D01*
X100882445Y-55480127D01*
X100717701Y-55426598D01*
X100717699Y-55426597D01*
X100717698Y-55426597D01*
X100586271Y-55405781D01*
X100546611Y-55399500D01*
X100373389Y-55399500D01*
X100333728Y-55405781D01*
X100202302Y-55426597D01*
X100037552Y-55480128D01*
X99883211Y-55558768D01*
X99803256Y-55616859D01*
X99743072Y-55660586D01*
X99743070Y-55660588D01*
X99743069Y-55660588D01*
X99620588Y-55783069D01*
X99620588Y-55783070D01*
X99620586Y-55783072D01*
X99589996Y-55825174D01*
X99518766Y-55923213D01*
X99450705Y-56056794D01*
X99402731Y-56107591D01*
X99340220Y-56124500D01*
X87456900Y-56124500D01*
X87389861Y-56104815D01*
X87369219Y-56088181D01*
X85393975Y-54112938D01*
X85360490Y-54051615D01*
X85365474Y-53981923D01*
X85371172Y-53968961D01*
X85394871Y-53922449D01*
X85394872Y-53922447D01*
X85394873Y-53922445D01*
X85448402Y-53757701D01*
X85475500Y-53586611D01*
X85475500Y-53413389D01*
X85448402Y-53242299D01*
X85394873Y-53077555D01*
X85316232Y-52923212D01*
X85214414Y-52783072D01*
X85091928Y-52660586D01*
X84951788Y-52558768D01*
X84850695Y-52507259D01*
X84797447Y-52480128D01*
X84797446Y-52480127D01*
X84797445Y-52480127D01*
X84632701Y-52426598D01*
X84632699Y-52426597D01*
X84632698Y-52426597D01*
X84501271Y-52405781D01*
X84461611Y-52399500D01*
X84038389Y-52399500D01*
X83998728Y-52405781D01*
X83867302Y-52426597D01*
X83702552Y-52480128D01*
X83548211Y-52558768D01*
X83473183Y-52613280D01*
X83408072Y-52660586D01*
X83408070Y-52660588D01*
X83408069Y-52660588D01*
X83285588Y-52783069D01*
X83285588Y-52783070D01*
X83285586Y-52783072D01*
X83268623Y-52806420D01*
X83183768Y-52923211D01*
X83105128Y-53077552D01*
X83051597Y-53242302D01*
X83030205Y-53377366D01*
X83024500Y-53413389D01*
X80000500Y-53413389D01*
X80000500Y-50913389D01*
X83024500Y-50913389D01*
X83024500Y-51086611D01*
X83051598Y-51257701D01*
X83105127Y-51422445D01*
X83183768Y-51576788D01*
X83285586Y-51716928D01*
X83408072Y-51839414D01*
X83548212Y-51941232D01*
X83702555Y-52019873D01*
X83867299Y-52073402D01*
X84038389Y-52100500D01*
X84038390Y-52100500D01*
X84461610Y-52100500D01*
X84461611Y-52100500D01*
X84632701Y-52073402D01*
X84797445Y-52019873D01*
X84951788Y-51941232D01*
X85091928Y-51839414D01*
X85214414Y-51716928D01*
X85316232Y-51576788D01*
X85394873Y-51422445D01*
X85448402Y-51257701D01*
X85475500Y-51086611D01*
X85475500Y-50913389D01*
X85448402Y-50742299D01*
X85394873Y-50577555D01*
X85316232Y-50423212D01*
X85214414Y-50283072D01*
X85091928Y-50160586D01*
X84951788Y-50058768D01*
X84797445Y-49980127D01*
X84632701Y-49926598D01*
X84632699Y-49926597D01*
X84632698Y-49926597D01*
X84501271Y-49905781D01*
X84461611Y-49899500D01*
X84038389Y-49899500D01*
X83998728Y-49905781D01*
X83867302Y-49926597D01*
X83702552Y-49980128D01*
X83548211Y-50058768D01*
X83468256Y-50116859D01*
X83408072Y-50160586D01*
X83408070Y-50160588D01*
X83408069Y-50160588D01*
X83285588Y-50283069D01*
X83285588Y-50283070D01*
X83285586Y-50283072D01*
X83247495Y-50335500D01*
X83183768Y-50423211D01*
X83105128Y-50577552D01*
X83051597Y-50742302D01*
X83046264Y-50775975D01*
X83024500Y-50913389D01*
X80000500Y-50913389D01*
X80000500Y-48249999D01*
X83050884Y-48249999D01*
X83050885Y-48250000D01*
X83845854Y-48250000D01*
X83807370Y-48316657D01*
X83775000Y-48437465D01*
X83775000Y-48562535D01*
X83807370Y-48683343D01*
X83845854Y-48750000D01*
X83050885Y-48750000D01*
X83052085Y-48757584D01*
X83105591Y-48922255D01*
X83184195Y-49076524D01*
X83285967Y-49216602D01*
X83408397Y-49339032D01*
X83548475Y-49440804D01*
X83702744Y-49519408D01*
X83867415Y-49572913D01*
X84000000Y-49593913D01*
X84000000Y-48904145D01*
X84066657Y-48942630D01*
X84187465Y-48975000D01*
X84312535Y-48975000D01*
X84433343Y-48942630D01*
X84500000Y-48904145D01*
X84500000Y-49593912D01*
X84632584Y-49572913D01*
X84797255Y-49519408D01*
X84951524Y-49440804D01*
X85091602Y-49339032D01*
X85214032Y-49216602D01*
X85315804Y-49076524D01*
X85394408Y-48922255D01*
X85447914Y-48757584D01*
X85449115Y-48750000D01*
X84654146Y-48750000D01*
X84692630Y-48683343D01*
X84725000Y-48562535D01*
X84725000Y-48437465D01*
X84692630Y-48316657D01*
X84654146Y-48250000D01*
X85449115Y-48250000D01*
X85449115Y-48249999D01*
X85447914Y-48242415D01*
X85394408Y-48077744D01*
X85327682Y-47946787D01*
X85315804Y-47923475D01*
X85214032Y-47783397D01*
X85091602Y-47660967D01*
X84951524Y-47559195D01*
X84797257Y-47480591D01*
X84632585Y-47427086D01*
X84500000Y-47406086D01*
X84500000Y-48095854D01*
X84433343Y-48057370D01*
X84312535Y-48025000D01*
X84187465Y-48025000D01*
X84066657Y-48057370D01*
X84000000Y-48095854D01*
X84000000Y-47406086D01*
X83867414Y-47427086D01*
X83702742Y-47480591D01*
X83548475Y-47559195D01*
X83408397Y-47660967D01*
X83285967Y-47783397D01*
X83184195Y-47923475D01*
X83105591Y-48077744D01*
X83052085Y-48242415D01*
X83050884Y-48249999D01*
X80000500Y-48249999D01*
X80000500Y-45352135D01*
X83024500Y-45352135D01*
X83024500Y-46647870D01*
X83024501Y-46647876D01*
X83030908Y-46707483D01*
X83081202Y-46842328D01*
X83081206Y-46842335D01*
X83167452Y-46957544D01*
X83167455Y-46957547D01*
X83282664Y-47043793D01*
X83282671Y-47043797D01*
X83417517Y-47094091D01*
X83417516Y-47094091D01*
X83424444Y-47094835D01*
X83477127Y-47100500D01*
X85022872Y-47100499D01*
X85082483Y-47094091D01*
X85217331Y-47043796D01*
X85332546Y-46957546D01*
X85418796Y-46842331D01*
X85469091Y-46707483D01*
X85475500Y-46647873D01*
X85475499Y-45352128D01*
X85469091Y-45292517D01*
X85429519Y-45186420D01*
X85418797Y-45157671D01*
X85418793Y-45157664D01*
X85332547Y-45042455D01*
X85332544Y-45042452D01*
X85217335Y-44956206D01*
X85217328Y-44956202D01*
X85082482Y-44905908D01*
X85082483Y-44905908D01*
X85022883Y-44899501D01*
X85022881Y-44899500D01*
X85022873Y-44899500D01*
X85022864Y-44899500D01*
X83477129Y-44899500D01*
X83477123Y-44899501D01*
X83417516Y-44905908D01*
X83282671Y-44956202D01*
X83282664Y-44956206D01*
X83167455Y-45042452D01*
X83167452Y-45042455D01*
X83081206Y-45157664D01*
X83081202Y-45157671D01*
X83030908Y-45292517D01*
X83024501Y-45352116D01*
X83024501Y-45352123D01*
X83024500Y-45352135D01*
X80000500Y-45352135D01*
X80000500Y-43896530D01*
X91924500Y-43896530D01*
X91924500Y-44103469D01*
X91964868Y-44306412D01*
X91964870Y-44306420D01*
X92044058Y-44497596D01*
X92159024Y-44669657D01*
X92305342Y-44815975D01*
X92305345Y-44815977D01*
X92477402Y-44930941D01*
X92668580Y-45010130D01*
X92831075Y-45042452D01*
X92871530Y-45050499D01*
X92871534Y-45050500D01*
X92871535Y-45050500D01*
X93078466Y-45050500D01*
X93078467Y-45050499D01*
X93281420Y-45010130D01*
X93472598Y-44930941D01*
X93644655Y-44815977D01*
X93790977Y-44669655D01*
X93905941Y-44497598D01*
X93985130Y-44306420D01*
X94025500Y-44103465D01*
X94025500Y-43896535D01*
X93985130Y-43693580D01*
X93966260Y-43648025D01*
X93958792Y-43578560D01*
X93990066Y-43516080D01*
X93993081Y-43512955D01*
X94219219Y-43286816D01*
X94280541Y-43253334D01*
X94306899Y-43250500D01*
X96980386Y-43250500D01*
X97047425Y-43270185D01*
X97093180Y-43322989D01*
X97103124Y-43392147D01*
X97083489Y-43443390D01*
X97044058Y-43502403D01*
X96964870Y-43693579D01*
X96964868Y-43693587D01*
X96924500Y-43896530D01*
X96924500Y-44103469D01*
X96964868Y-44306412D01*
X96964870Y-44306420D01*
X97044058Y-44497596D01*
X97159024Y-44669657D01*
X97305342Y-44815975D01*
X97305345Y-44815977D01*
X97477402Y-44930941D01*
X97668580Y-45010130D01*
X97831075Y-45042452D01*
X97871530Y-45050499D01*
X97871534Y-45050500D01*
X97871535Y-45050500D01*
X98078466Y-45050500D01*
X98084528Y-45049903D01*
X98084703Y-45051682D01*
X98145890Y-45057152D01*
X98201071Y-45100010D01*
X98224322Y-45165898D01*
X98224500Y-45172546D01*
X98224500Y-47005986D01*
X98204815Y-47073025D01*
X98152011Y-47118780D01*
X98082853Y-47128724D01*
X98031610Y-47109089D01*
X97972366Y-47069504D01*
X97972358Y-47069500D01*
X97781274Y-46990350D01*
X97781266Y-46990348D01*
X97578420Y-46950000D01*
X97371579Y-46950000D01*
X97168733Y-46990348D01*
X97168725Y-46990350D01*
X96977641Y-47069500D01*
X96977631Y-47069505D01*
X96929932Y-47101377D01*
X96929932Y-47101378D01*
X97428554Y-47600000D01*
X97422339Y-47600000D01*
X97320606Y-47627259D01*
X97229394Y-47679920D01*
X97154920Y-47754394D01*
X97102259Y-47845606D01*
X97075000Y-47947339D01*
X97075000Y-47953554D01*
X96576378Y-47454932D01*
X96576377Y-47454932D01*
X96544505Y-47502631D01*
X96544500Y-47502641D01*
X96465350Y-47693725D01*
X96465348Y-47693733D01*
X96425000Y-47896579D01*
X96425000Y-48103420D01*
X96465348Y-48306266D01*
X96465350Y-48306274D01*
X96544500Y-48497359D01*
X96576377Y-48545067D01*
X96576378Y-48545067D01*
X97075000Y-48046445D01*
X97075000Y-48052661D01*
X97102259Y-48154394D01*
X97154920Y-48245606D01*
X97229394Y-48320080D01*
X97320606Y-48372741D01*
X97422339Y-48400000D01*
X97428552Y-48400000D01*
X96929931Y-48898620D01*
X96929932Y-48898621D01*
X96977633Y-48930495D01*
X96977639Y-48930498D01*
X97168725Y-49009649D01*
X97168733Y-49009651D01*
X97371579Y-49049999D01*
X97371583Y-49050000D01*
X97578417Y-49050000D01*
X97578420Y-49049999D01*
X97781266Y-49009651D01*
X97781274Y-49009649D01*
X97972358Y-48930499D01*
X97972368Y-48930494D01*
X98031609Y-48890911D01*
X98098287Y-48870033D01*
X98165667Y-48888518D01*
X98212357Y-48940496D01*
X98224500Y-48994013D01*
X98224500Y-52005386D01*
X98204815Y-52072425D01*
X98152011Y-52118180D01*
X98082853Y-52128124D01*
X98031610Y-52108489D01*
X98004836Y-52090599D01*
X97972598Y-52069059D01*
X97853848Y-52019871D01*
X97781420Y-51989870D01*
X97781412Y-51989868D01*
X97578469Y-51949500D01*
X97578465Y-51949500D01*
X97371535Y-51949500D01*
X97371530Y-51949500D01*
X97168587Y-51989868D01*
X97168579Y-51989870D01*
X96977403Y-52069058D01*
X96805342Y-52184024D01*
X96659024Y-52330342D01*
X96544058Y-52502403D01*
X96464870Y-52693579D01*
X96464868Y-52693587D01*
X96424500Y-52896530D01*
X96424500Y-53103469D01*
X96464868Y-53306412D01*
X96464870Y-53306420D01*
X96529980Y-53463610D01*
X96544059Y-53497598D01*
X96555595Y-53514863D01*
X96659024Y-53669657D01*
X96805342Y-53815975D01*
X96805345Y-53815977D01*
X96977402Y-53930941D01*
X97168580Y-54010130D01*
X97365170Y-54049234D01*
X97371530Y-54050499D01*
X97371534Y-54050500D01*
X97371535Y-54050500D01*
X97578466Y-54050500D01*
X97578467Y-54050499D01*
X97781420Y-54010130D01*
X97972598Y-53930941D01*
X98144655Y-53815977D01*
X98290977Y-53669655D01*
X98405941Y-53497598D01*
X98485130Y-53306420D01*
X98525500Y-53103465D01*
X98525500Y-52896535D01*
X98520825Y-52873033D01*
X98527051Y-52803444D01*
X98569913Y-52748266D01*
X98635802Y-52725020D01*
X98703800Y-52741087D01*
X98730123Y-52761161D01*
X101863181Y-55894218D01*
X101896666Y-55955541D01*
X101899500Y-55981899D01*
X101899500Y-57374678D01*
X101914032Y-57447735D01*
X101914033Y-57447739D01*
X101914034Y-57447740D01*
X101969399Y-57530601D01*
X102052260Y-57585966D01*
X102052264Y-57585967D01*
X102125321Y-57600499D01*
X102125324Y-57600500D01*
X102125326Y-57600500D01*
X103874676Y-57600500D01*
X103874677Y-57600499D01*
X103947740Y-57585966D01*
X104030601Y-57530601D01*
X104085966Y-57447740D01*
X104100500Y-57374674D01*
X104100500Y-56999500D01*
X104120185Y-56932461D01*
X104172989Y-56886706D01*
X104224500Y-56875500D01*
X105880220Y-56875500D01*
X105947259Y-56895185D01*
X105990705Y-56943206D01*
X106058766Y-57076786D01*
X106089357Y-57118890D01*
X106160586Y-57216928D01*
X106283072Y-57339414D01*
X106423212Y-57441232D01*
X106577555Y-57519873D01*
X106742299Y-57573402D01*
X106913389Y-57600500D01*
X106913390Y-57600500D01*
X107086610Y-57600500D01*
X107086611Y-57600500D01*
X107257701Y-57573402D01*
X107422445Y-57519873D01*
X107576788Y-57441232D01*
X107716928Y-57339414D01*
X107839414Y-57216928D01*
X107941232Y-57076788D01*
X108019873Y-56922445D01*
X108073402Y-56757701D01*
X108100500Y-56586611D01*
X108100500Y-56413389D01*
X108073402Y-56242299D01*
X108019873Y-56077555D01*
X107941232Y-55923212D01*
X107839414Y-55783072D01*
X107716928Y-55660586D01*
X107576788Y-55558768D01*
X107422445Y-55480127D01*
X107257701Y-55426598D01*
X107257699Y-55426597D01*
X107257698Y-55426597D01*
X107126271Y-55405781D01*
X107086611Y-55399500D01*
X106913389Y-55399500D01*
X106873728Y-55405781D01*
X106742302Y-55426597D01*
X106577552Y-55480128D01*
X106423211Y-55558768D01*
X106343256Y-55616859D01*
X106283072Y-55660586D01*
X106283070Y-55660588D01*
X106283069Y-55660588D01*
X106160588Y-55783069D01*
X106160588Y-55783070D01*
X106160586Y-55783072D01*
X106129996Y-55825174D01*
X106058766Y-55923213D01*
X105990705Y-56056794D01*
X105942731Y-56107591D01*
X105880220Y-56124500D01*
X104224500Y-56124500D01*
X104157461Y-56104815D01*
X104111706Y-56052011D01*
X104100500Y-56000500D01*
X104100500Y-55625323D01*
X104100499Y-55625321D01*
X104085967Y-55552264D01*
X104085966Y-55552260D01*
X104030601Y-55469399D01*
X103947740Y-55414034D01*
X103947739Y-55414033D01*
X103947735Y-55414032D01*
X103874677Y-55399500D01*
X103874674Y-55399500D01*
X102481900Y-55399500D01*
X102414861Y-55379815D01*
X102394219Y-55363181D01*
X100555971Y-53524933D01*
X100522486Y-53463610D01*
X100527470Y-53393918D01*
X100569342Y-53337985D01*
X100634806Y-53313568D01*
X100703079Y-53328420D01*
X100712542Y-53334150D01*
X100857400Y-53430940D01*
X100857401Y-53430940D01*
X100857402Y-53430941D01*
X101048580Y-53510130D01*
X101251530Y-53550499D01*
X101251534Y-53550500D01*
X101251535Y-53550500D01*
X101458466Y-53550500D01*
X101458467Y-53550499D01*
X101661420Y-53510130D01*
X101852598Y-53430941D01*
X102024655Y-53315977D01*
X102170977Y-53169655D01*
X102285941Y-52997598D01*
X102365130Y-52806420D01*
X102405500Y-52603465D01*
X102405500Y-52396535D01*
X102365130Y-52193580D01*
X102285941Y-52002402D01*
X102170977Y-51830345D01*
X102170975Y-51830342D01*
X102024657Y-51684024D01*
X101864165Y-51576788D01*
X101852598Y-51569059D01*
X101661420Y-51489870D01*
X101661412Y-51489868D01*
X101458469Y-51449500D01*
X101458465Y-51449500D01*
X101251535Y-51449500D01*
X101251530Y-51449500D01*
X101048587Y-51489868D01*
X101048579Y-51489870D01*
X100857403Y-51569058D01*
X100685342Y-51684024D01*
X100539024Y-51830342D01*
X100424058Y-52002403D01*
X100344870Y-52193579D01*
X100344868Y-52193587D01*
X100304500Y-52396530D01*
X100304500Y-52603469D01*
X100344868Y-52806412D01*
X100344870Y-52806420D01*
X100424058Y-52997596D01*
X100520850Y-53142457D01*
X100541727Y-53209134D01*
X100523242Y-53276514D01*
X100471263Y-53323204D01*
X100402293Y-53334380D01*
X100338229Y-53306494D01*
X100330066Y-53299028D01*
X99011819Y-51980781D01*
X98978334Y-51919458D01*
X98975500Y-51893100D01*
X98975500Y-45870899D01*
X98995185Y-45803860D01*
X99047989Y-45758105D01*
X99117147Y-45748161D01*
X99180703Y-45777186D01*
X99187181Y-45783218D01*
X100336857Y-46932894D01*
X100370342Y-46994217D01*
X100365358Y-47063909D01*
X100363738Y-47068026D01*
X100344870Y-47113579D01*
X100344868Y-47113582D01*
X100304500Y-47316530D01*
X100304500Y-47523469D01*
X100344868Y-47726412D01*
X100344870Y-47726420D01*
X100415352Y-47896579D01*
X100424059Y-47917598D01*
X100443931Y-47947339D01*
X100539024Y-48089657D01*
X100685342Y-48235975D01*
X100685345Y-48235977D01*
X100857402Y-48350941D01*
X101048580Y-48430130D01*
X101195098Y-48459274D01*
X101251530Y-48470499D01*
X101251534Y-48470500D01*
X101251535Y-48470500D01*
X101458466Y-48470500D01*
X101458467Y-48470499D01*
X101661420Y-48430130D01*
X101852598Y-48350941D01*
X102024655Y-48235977D01*
X102170977Y-48089655D01*
X102285941Y-47917598D01*
X102304809Y-47872047D01*
X102348650Y-47817644D01*
X102414944Y-47795579D01*
X102419370Y-47795500D01*
X106228101Y-47795500D01*
X106295140Y-47815185D01*
X106315782Y-47831819D01*
X107956857Y-49472894D01*
X107990342Y-49534217D01*
X107985358Y-49603909D01*
X107983738Y-49608026D01*
X107964870Y-49653579D01*
X107964868Y-49653582D01*
X107924500Y-49856530D01*
X107924500Y-50063469D01*
X107964868Y-50266412D01*
X107964870Y-50266420D01*
X108044058Y-50457596D01*
X108159024Y-50629657D01*
X108305342Y-50775975D01*
X108305345Y-50775977D01*
X108477402Y-50890941D01*
X108668580Y-50970130D01*
X108871530Y-51010499D01*
X108871534Y-51010500D01*
X108871535Y-51010500D01*
X109078466Y-51010500D01*
X109078467Y-51010499D01*
X109281420Y-50970130D01*
X109472598Y-50890941D01*
X109644655Y-50775977D01*
X109790977Y-50629655D01*
X109905941Y-50457598D01*
X109924809Y-50412047D01*
X109968650Y-50357644D01*
X110034944Y-50335579D01*
X110039370Y-50335500D01*
X112585334Y-50335500D01*
X112652373Y-50355185D01*
X112698128Y-50407989D01*
X112708655Y-50472456D01*
X112707634Y-50482165D01*
X112699500Y-50512525D01*
X112699500Y-50559594D01*
X112698821Y-50566057D01*
X112687900Y-50592602D01*
X112679815Y-50620140D01*
X112673191Y-50628358D01*
X112672240Y-50630673D01*
X112670154Y-50632128D01*
X112663181Y-50640782D01*
X109989863Y-53314099D01*
X109928540Y-53347584D01*
X109858848Y-53342600D01*
X109802915Y-53300728D01*
X109778498Y-53235264D01*
X109793350Y-53166991D01*
X109799074Y-53157536D01*
X109905941Y-52997598D01*
X109985130Y-52806420D01*
X110025500Y-52603465D01*
X110025500Y-52396535D01*
X109985130Y-52193580D01*
X109905941Y-52002402D01*
X109790977Y-51830345D01*
X109790975Y-51830342D01*
X109644657Y-51684024D01*
X109484165Y-51576788D01*
X109472598Y-51569059D01*
X109281420Y-51489870D01*
X109281412Y-51489868D01*
X109078469Y-51449500D01*
X109078465Y-51449500D01*
X108871535Y-51449500D01*
X108871530Y-51449500D01*
X108668587Y-51489868D01*
X108668579Y-51489870D01*
X108477403Y-51569058D01*
X108305342Y-51684024D01*
X108159024Y-51830342D01*
X108044058Y-52002403D01*
X107964870Y-52193579D01*
X107964868Y-52193587D01*
X107924500Y-52396530D01*
X107924500Y-52603469D01*
X107964868Y-52806412D01*
X107964870Y-52806420D01*
X108044058Y-52997596D01*
X108159024Y-53169657D01*
X108305342Y-53315975D01*
X108305345Y-53315977D01*
X108477402Y-53430941D01*
X108668580Y-53510130D01*
X108871530Y-53550499D01*
X108871534Y-53550500D01*
X108871535Y-53550500D01*
X109078466Y-53550500D01*
X109078467Y-53550499D01*
X109281420Y-53510130D01*
X109472598Y-53430941D01*
X109632528Y-53324079D01*
X109699205Y-53303202D01*
X109766585Y-53321687D01*
X109813275Y-53373666D01*
X109824451Y-53442636D01*
X109796565Y-53506699D01*
X109789099Y-53514863D01*
X109309438Y-53994525D01*
X109239526Y-54064436D01*
X109190091Y-54150059D01*
X109190091Y-54150060D01*
X109190090Y-54150062D01*
X109164500Y-54245565D01*
X109164500Y-54245567D01*
X109164500Y-55275500D01*
X109161949Y-55284185D01*
X109163238Y-55293147D01*
X109152259Y-55317187D01*
X109144815Y-55342539D01*
X109137974Y-55348466D01*
X109134213Y-55356703D01*
X109111978Y-55370992D01*
X109092011Y-55388294D01*
X109081496Y-55390581D01*
X109075435Y-55394477D01*
X109040500Y-55399500D01*
X109021900Y-55399500D01*
X108954861Y-55379815D01*
X108934219Y-55363181D01*
X103230563Y-49659526D01*
X103230562Y-49659525D01*
X103144938Y-49610090D01*
X103097186Y-49597295D01*
X103097184Y-49597294D01*
X103097182Y-49597293D01*
X103049436Y-49584500D01*
X103049435Y-49584500D01*
X102419370Y-49584500D01*
X102352331Y-49564815D01*
X102306576Y-49512011D01*
X102304809Y-49507953D01*
X102285941Y-49462403D01*
X102285941Y-49462402D01*
X102170977Y-49290345D01*
X102170975Y-49290342D01*
X102024657Y-49144024D01*
X101923635Y-49076524D01*
X101852598Y-49029059D01*
X101805743Y-49009651D01*
X101661420Y-48949870D01*
X101661412Y-48949868D01*
X101458469Y-48909500D01*
X101458465Y-48909500D01*
X101251535Y-48909500D01*
X101251530Y-48909500D01*
X101048587Y-48949868D01*
X101048579Y-48949870D01*
X100857403Y-49029058D01*
X100685342Y-49144024D01*
X100539024Y-49290342D01*
X100424058Y-49462403D01*
X100344870Y-49653579D01*
X100344868Y-49653587D01*
X100304500Y-49856530D01*
X100304500Y-50063469D01*
X100344868Y-50266412D01*
X100344870Y-50266420D01*
X100424058Y-50457596D01*
X100539024Y-50629657D01*
X100685342Y-50775975D01*
X100685345Y-50775977D01*
X100857402Y-50890941D01*
X101048580Y-50970130D01*
X101251530Y-51010499D01*
X101251534Y-51010500D01*
X101251535Y-51010500D01*
X101458466Y-51010500D01*
X101458467Y-51010499D01*
X101661420Y-50970130D01*
X101852598Y-50890941D01*
X102024655Y-50775977D01*
X102170977Y-50629655D01*
X102285941Y-50457598D01*
X102304809Y-50412047D01*
X102348650Y-50357644D01*
X102414944Y-50335579D01*
X102419370Y-50335500D01*
X102793101Y-50335500D01*
X102860140Y-50355185D01*
X102880782Y-50371819D01*
X108403181Y-55894218D01*
X108436666Y-55955541D01*
X108439500Y-55981899D01*
X108439500Y-57374678D01*
X108454032Y-57447735D01*
X108454033Y-57447739D01*
X108454034Y-57447740D01*
X108509399Y-57530601D01*
X108592260Y-57585966D01*
X108592264Y-57585967D01*
X108665321Y-57600499D01*
X108665324Y-57600500D01*
X108665326Y-57600500D01*
X110414676Y-57600500D01*
X110414677Y-57600499D01*
X110487740Y-57585966D01*
X110570601Y-57530601D01*
X110625966Y-57447740D01*
X110640500Y-57374674D01*
X110640500Y-55625326D01*
X110640500Y-55625323D01*
X110640499Y-55625321D01*
X110625967Y-55552264D01*
X110625966Y-55552260D01*
X110570601Y-55469399D01*
X110487740Y-55414034D01*
X110487739Y-55414033D01*
X110487735Y-55414032D01*
X110414677Y-55399500D01*
X110414674Y-55399500D01*
X110039500Y-55399500D01*
X109972461Y-55379815D01*
X109926706Y-55327011D01*
X109915500Y-55275500D01*
X109915500Y-54501899D01*
X109935185Y-54434860D01*
X109951819Y-54414218D01*
X110721309Y-53644728D01*
X111208510Y-53157527D01*
X111719273Y-52646763D01*
X111780594Y-52613280D01*
X111850286Y-52618264D01*
X111906219Y-52660136D01*
X111930636Y-52725600D01*
X111928570Y-52758635D01*
X111925000Y-52776584D01*
X111925000Y-52983420D01*
X111965348Y-53186266D01*
X111965350Y-53186274D01*
X112044500Y-53377359D01*
X112076377Y-53425067D01*
X112575000Y-52926445D01*
X112575000Y-52932661D01*
X112602259Y-53034394D01*
X112654920Y-53125606D01*
X112729394Y-53200080D01*
X112820606Y-53252741D01*
X112922339Y-53280000D01*
X112928554Y-53280000D01*
X112429931Y-53778620D01*
X112429932Y-53778621D01*
X112477633Y-53810495D01*
X112477639Y-53810498D01*
X112668725Y-53889649D01*
X112668733Y-53889651D01*
X112871579Y-53929999D01*
X112871583Y-53930000D01*
X113078417Y-53930000D01*
X113078420Y-53929999D01*
X113281266Y-53889651D01*
X113281274Y-53889649D01*
X113472366Y-53810495D01*
X113520066Y-53778621D01*
X113520067Y-53778620D01*
X113021447Y-53280000D01*
X113027661Y-53280000D01*
X113129394Y-53252741D01*
X113220606Y-53200080D01*
X113295080Y-53125606D01*
X113347741Y-53034394D01*
X113375000Y-52932661D01*
X113375000Y-52926446D01*
X113873620Y-53425067D01*
X113873621Y-53425066D01*
X113905495Y-53377366D01*
X113984649Y-53186274D01*
X113984651Y-53186266D01*
X114024999Y-52983420D01*
X114025000Y-52983417D01*
X114025000Y-52776583D01*
X114024999Y-52776579D01*
X113984651Y-52573733D01*
X113984649Y-52573725D01*
X113905498Y-52382639D01*
X113905495Y-52382633D01*
X113873621Y-52334932D01*
X113873620Y-52334931D01*
X113375000Y-52833552D01*
X113375000Y-52827339D01*
X113347741Y-52725606D01*
X113295080Y-52634394D01*
X113220606Y-52559920D01*
X113129394Y-52507259D01*
X113027661Y-52480000D01*
X113021445Y-52480000D01*
X113520067Y-51981377D01*
X113472359Y-51949500D01*
X113472358Y-51949500D01*
X113281274Y-51870350D01*
X113281266Y-51870348D01*
X113078420Y-51830000D01*
X112871584Y-51830000D01*
X112853635Y-51833570D01*
X112784044Y-51827341D01*
X112728867Y-51784477D01*
X112705624Y-51718587D01*
X112721693Y-51650590D01*
X112741761Y-51624275D01*
X113194218Y-51171819D01*
X113255541Y-51138334D01*
X113281899Y-51135500D01*
X113322472Y-51135500D01*
X113322475Y-51135500D01*
X113462485Y-51097984D01*
X113588015Y-51025509D01*
X113690509Y-50923015D01*
X113762984Y-50797485D01*
X113800500Y-50657475D01*
X113800500Y-50512525D01*
X113794891Y-50491592D01*
X113796554Y-50421743D01*
X113835717Y-50363881D01*
X113899945Y-50336377D01*
X113914666Y-50335500D01*
X123716400Y-50335500D01*
X123783439Y-50355185D01*
X123804081Y-50371819D01*
X125912878Y-52480616D01*
X125946363Y-52541939D01*
X125941379Y-52611631D01*
X125910357Y-52655981D01*
X125911517Y-52657141D01*
X125785588Y-52783069D01*
X125785588Y-52783070D01*
X125785586Y-52783072D01*
X125768623Y-52806420D01*
X125683768Y-52923211D01*
X125605128Y-53077552D01*
X125551597Y-53242302D01*
X125530205Y-53377366D01*
X125524500Y-53413389D01*
X125524500Y-53586611D01*
X125551598Y-53757701D01*
X125605127Y-53922445D01*
X125683768Y-54076788D01*
X125785586Y-54216928D01*
X125908072Y-54339414D01*
X126048212Y-54441232D01*
X126202555Y-54519873D01*
X126367299Y-54573402D01*
X126538389Y-54600500D01*
X126538390Y-54600500D01*
X126961610Y-54600500D01*
X126961611Y-54600500D01*
X127132701Y-54573402D01*
X127297445Y-54519873D01*
X127451788Y-54441232D01*
X127591928Y-54339414D01*
X127714414Y-54216928D01*
X127816232Y-54076788D01*
X127894873Y-53922445D01*
X127948402Y-53757701D01*
X127975500Y-53586611D01*
X127975500Y-53413389D01*
X127948402Y-53242299D01*
X127894873Y-53077555D01*
X127816232Y-52923212D01*
X127714414Y-52783072D01*
X127591928Y-52660586D01*
X127451788Y-52558768D01*
X127350695Y-52507259D01*
X127297447Y-52480128D01*
X127297446Y-52480127D01*
X127297445Y-52480127D01*
X127132701Y-52426598D01*
X127132699Y-52426597D01*
X127132698Y-52426597D01*
X127001271Y-52405781D01*
X126961611Y-52399500D01*
X126961610Y-52399500D01*
X126945198Y-52399500D01*
X126915757Y-52390855D01*
X126885771Y-52384332D01*
X126880755Y-52380577D01*
X126878159Y-52379815D01*
X126857517Y-52363181D01*
X126806517Y-52312181D01*
X126773032Y-52250858D01*
X126778016Y-52181166D01*
X126819888Y-52125233D01*
X126885352Y-52100816D01*
X126894198Y-52100500D01*
X126961610Y-52100500D01*
X126961611Y-52100500D01*
X127132701Y-52073402D01*
X127297445Y-52019873D01*
X127451788Y-51941232D01*
X127591928Y-51839414D01*
X127714414Y-51716928D01*
X127816232Y-51576788D01*
X127894873Y-51422445D01*
X127948402Y-51257701D01*
X127975500Y-51086611D01*
X127975500Y-50913389D01*
X127948402Y-50742299D01*
X127894873Y-50577555D01*
X127816232Y-50423212D01*
X127714414Y-50283072D01*
X127591928Y-50160586D01*
X127451788Y-50058768D01*
X127297445Y-49980127D01*
X127132701Y-49926598D01*
X127132699Y-49926597D01*
X127132698Y-49926597D01*
X127001271Y-49905781D01*
X126961611Y-49899500D01*
X126538389Y-49899500D01*
X126498728Y-49905781D01*
X126367302Y-49926597D01*
X126202552Y-49980128D01*
X126048211Y-50058768D01*
X125968256Y-50116859D01*
X125908072Y-50160586D01*
X125908070Y-50160588D01*
X125908069Y-50160588D01*
X125785588Y-50283069D01*
X125785588Y-50283070D01*
X125785586Y-50283072D01*
X125747495Y-50335500D01*
X125683768Y-50423211D01*
X125605128Y-50577552D01*
X125551598Y-50742299D01*
X125546603Y-50773833D01*
X125516672Y-50836967D01*
X125457360Y-50873897D01*
X125387497Y-50872897D01*
X125336449Y-50842113D01*
X124153862Y-49659526D01*
X124153861Y-49659525D01*
X124068237Y-49610090D01*
X124020485Y-49597295D01*
X124020483Y-49597294D01*
X124020481Y-49597293D01*
X123972735Y-49584500D01*
X123972734Y-49584500D01*
X115164666Y-49584500D01*
X115097627Y-49564815D01*
X115051872Y-49512011D01*
X115041928Y-49442853D01*
X115044891Y-49428407D01*
X115050500Y-49407475D01*
X115050500Y-49262525D01*
X115012984Y-49122515D01*
X114971117Y-49050000D01*
X114940511Y-48996988D01*
X114940506Y-48996982D01*
X114911819Y-48968295D01*
X114897115Y-48941367D01*
X114880523Y-48915549D01*
X114879631Y-48909348D01*
X114878334Y-48906972D01*
X114875500Y-48880614D01*
X114875500Y-48249999D01*
X125550884Y-48249999D01*
X125550885Y-48250000D01*
X126345854Y-48250000D01*
X126307370Y-48316657D01*
X126275000Y-48437465D01*
X126275000Y-48562535D01*
X126307370Y-48683343D01*
X126345854Y-48750000D01*
X125550885Y-48750000D01*
X125552085Y-48757584D01*
X125605591Y-48922255D01*
X125684195Y-49076524D01*
X125785967Y-49216602D01*
X125908397Y-49339032D01*
X126048475Y-49440804D01*
X126202744Y-49519408D01*
X126367415Y-49572913D01*
X126500000Y-49593913D01*
X126500000Y-48904145D01*
X126566657Y-48942630D01*
X126687465Y-48975000D01*
X126812535Y-48975000D01*
X126933343Y-48942630D01*
X127000000Y-48904145D01*
X127000000Y-49593912D01*
X127132584Y-49572913D01*
X127297255Y-49519408D01*
X127451524Y-49440804D01*
X127591602Y-49339032D01*
X127714032Y-49216602D01*
X127815804Y-49076524D01*
X127894408Y-48922255D01*
X127947914Y-48757584D01*
X127949115Y-48750000D01*
X127154146Y-48750000D01*
X127192630Y-48683343D01*
X127225000Y-48562535D01*
X127225000Y-48437465D01*
X127192630Y-48316657D01*
X127154146Y-48250000D01*
X127949115Y-48250000D01*
X127949115Y-48249999D01*
X127947914Y-48242415D01*
X127894408Y-48077744D01*
X127815804Y-47923475D01*
X127714032Y-47783397D01*
X127591602Y-47660967D01*
X127451524Y-47559195D01*
X127297257Y-47480591D01*
X127132585Y-47427086D01*
X127000000Y-47406086D01*
X127000000Y-48095854D01*
X126933343Y-48057370D01*
X126812535Y-48025000D01*
X126687465Y-48025000D01*
X126566657Y-48057370D01*
X126500000Y-48095854D01*
X126500000Y-47406086D01*
X126367414Y-47427086D01*
X126202742Y-47480591D01*
X126048475Y-47559195D01*
X125908397Y-47660967D01*
X125785967Y-47783397D01*
X125684195Y-47923475D01*
X125605591Y-48077744D01*
X125552085Y-48242415D01*
X125550884Y-48249999D01*
X114875500Y-48249999D01*
X114875500Y-45975567D01*
X114875500Y-45975565D01*
X114849910Y-45880062D01*
X114800475Y-45794438D01*
X114730562Y-45724525D01*
X114358172Y-45352135D01*
X125524500Y-45352135D01*
X125524500Y-46647870D01*
X125524501Y-46647876D01*
X125530908Y-46707483D01*
X125581202Y-46842328D01*
X125581206Y-46842335D01*
X125667452Y-46957544D01*
X125667455Y-46957547D01*
X125782664Y-47043793D01*
X125782671Y-47043797D01*
X125917517Y-47094091D01*
X125917516Y-47094091D01*
X125924444Y-47094835D01*
X125977127Y-47100500D01*
X127522872Y-47100499D01*
X127582483Y-47094091D01*
X127717331Y-47043796D01*
X127832546Y-46957546D01*
X127918796Y-46842331D01*
X127969091Y-46707483D01*
X127975500Y-46647873D01*
X127975499Y-45352128D01*
X127969091Y-45292517D01*
X127929519Y-45186420D01*
X127918797Y-45157671D01*
X127918793Y-45157664D01*
X127832547Y-45042455D01*
X127832544Y-45042452D01*
X127717335Y-44956206D01*
X127717328Y-44956202D01*
X127582482Y-44905908D01*
X127582483Y-44905908D01*
X127522883Y-44899501D01*
X127522881Y-44899500D01*
X127522873Y-44899500D01*
X127522864Y-44899500D01*
X125977129Y-44899500D01*
X125977123Y-44899501D01*
X125917516Y-44905908D01*
X125782671Y-44956202D01*
X125782664Y-44956206D01*
X125667455Y-45042452D01*
X125667452Y-45042455D01*
X125581206Y-45157664D01*
X125581202Y-45157671D01*
X125530908Y-45292517D01*
X125524501Y-45352116D01*
X125524501Y-45352123D01*
X125524500Y-45352135D01*
X114358172Y-45352135D01*
X113493141Y-44487104D01*
X113459656Y-44425781D01*
X113464640Y-44356089D01*
X113466237Y-44352029D01*
X113485130Y-44306420D01*
X113525500Y-44103465D01*
X113525500Y-43896579D01*
X116425000Y-43896579D01*
X116425000Y-44103420D01*
X116465348Y-44306266D01*
X116465350Y-44306274D01*
X116544500Y-44497359D01*
X116576377Y-44545067D01*
X116576378Y-44545067D01*
X117075000Y-44046445D01*
X117075000Y-44052661D01*
X117102259Y-44154394D01*
X117154920Y-44245606D01*
X117229394Y-44320080D01*
X117320606Y-44372741D01*
X117422339Y-44400000D01*
X117428554Y-44400000D01*
X116929931Y-44898620D01*
X116929932Y-44898621D01*
X116977633Y-44930495D01*
X116977639Y-44930498D01*
X117168725Y-45009649D01*
X117168733Y-45009651D01*
X117371579Y-45049999D01*
X117371583Y-45050000D01*
X117578417Y-45050000D01*
X117578420Y-45049999D01*
X117781266Y-45009651D01*
X117781274Y-45009649D01*
X117972366Y-44930495D01*
X118020066Y-44898621D01*
X118020067Y-44898620D01*
X117521447Y-44400000D01*
X117527661Y-44400000D01*
X117629394Y-44372741D01*
X117720606Y-44320080D01*
X117795080Y-44245606D01*
X117847741Y-44154394D01*
X117875000Y-44052661D01*
X117875000Y-44046447D01*
X118373620Y-44545067D01*
X118373621Y-44545066D01*
X118405495Y-44497366D01*
X118484649Y-44306274D01*
X118484651Y-44306266D01*
X118524999Y-44103420D01*
X118525000Y-44103417D01*
X118525000Y-43896583D01*
X118524999Y-43896579D01*
X118484651Y-43693733D01*
X118484649Y-43693725D01*
X118405498Y-43502639D01*
X118405495Y-43502633D01*
X118373621Y-43454932D01*
X118373620Y-43454931D01*
X117875000Y-43953552D01*
X117875000Y-43947339D01*
X117847741Y-43845606D01*
X117795080Y-43754394D01*
X117720606Y-43679920D01*
X117629394Y-43627259D01*
X117527661Y-43600000D01*
X117521447Y-43600000D01*
X118020067Y-43101378D01*
X118020067Y-43101377D01*
X117972359Y-43069500D01*
X117781274Y-42990350D01*
X117781266Y-42990348D01*
X117578420Y-42950000D01*
X117371579Y-42950000D01*
X117168733Y-42990348D01*
X117168725Y-42990350D01*
X116977641Y-43069500D01*
X116977631Y-43069505D01*
X116929932Y-43101377D01*
X116929932Y-43101378D01*
X117428554Y-43600000D01*
X117422339Y-43600000D01*
X117320606Y-43627259D01*
X117229394Y-43679920D01*
X117154920Y-43754394D01*
X117102259Y-43845606D01*
X117075000Y-43947339D01*
X117075000Y-43953554D01*
X116576378Y-43454932D01*
X116576377Y-43454932D01*
X116544505Y-43502631D01*
X116544500Y-43502641D01*
X116465350Y-43693725D01*
X116465348Y-43693733D01*
X116425000Y-43896579D01*
X113525500Y-43896579D01*
X113525500Y-43896535D01*
X113485130Y-43693580D01*
X113405941Y-43502402D01*
X113290977Y-43330345D01*
X113290975Y-43330342D01*
X113144657Y-43184024D01*
X113020967Y-43101378D01*
X112972598Y-43069059D01*
X112842914Y-43015342D01*
X112781420Y-42989870D01*
X112781412Y-42989868D01*
X112578469Y-42949500D01*
X112578465Y-42949500D01*
X112371535Y-42949500D01*
X112371530Y-42949500D01*
X112168587Y-42989868D01*
X112168579Y-42989870D01*
X111977403Y-43069058D01*
X111805342Y-43184024D01*
X111659024Y-43330342D01*
X111544058Y-43502403D01*
X111464870Y-43693579D01*
X111464868Y-43693587D01*
X111424500Y-43896530D01*
X111424500Y-44103469D01*
X111464868Y-44306412D01*
X111464870Y-44306420D01*
X111544058Y-44497596D01*
X111659024Y-44669657D01*
X111805342Y-44815975D01*
X111805345Y-44815977D01*
X111977402Y-44930941D01*
X112168580Y-45010130D01*
X112331075Y-45042452D01*
X112371530Y-45050499D01*
X112371534Y-45050500D01*
X112371535Y-45050500D01*
X112578466Y-45050500D01*
X112578467Y-45050499D01*
X112781420Y-45010130D01*
X112826972Y-44991261D01*
X112896437Y-44983792D01*
X112958917Y-45015065D01*
X112962104Y-45018141D01*
X114088181Y-46144218D01*
X114121666Y-46205541D01*
X114124500Y-46231899D01*
X114124500Y-47300725D01*
X114104815Y-47367764D01*
X114052011Y-47413519D01*
X113982853Y-47423463D01*
X113919297Y-47394438D01*
X113897398Y-47369615D01*
X113790980Y-47210349D01*
X113790974Y-47210341D01*
X113644657Y-47064024D01*
X113485301Y-46957547D01*
X113472598Y-46949059D01*
X113433572Y-46932894D01*
X113281420Y-46869870D01*
X113281412Y-46869868D01*
X113078469Y-46829500D01*
X113078465Y-46829500D01*
X112871535Y-46829500D01*
X112871530Y-46829500D01*
X112668587Y-46869868D01*
X112668579Y-46869870D01*
X112477403Y-46949058D01*
X112305342Y-47064024D01*
X112159024Y-47210342D01*
X112044058Y-47382403D01*
X111964870Y-47573579D01*
X111964868Y-47573587D01*
X111924500Y-47776530D01*
X111924500Y-47983469D01*
X111964868Y-48186412D01*
X111964870Y-48186420D01*
X112044059Y-48377598D01*
X112076713Y-48426468D01*
X112159024Y-48549657D01*
X112305342Y-48695975D01*
X112305345Y-48695977D01*
X112477402Y-48810941D01*
X112668580Y-48890130D01*
X112871505Y-48930494D01*
X112871530Y-48930499D01*
X112871534Y-48930500D01*
X112871535Y-48930500D01*
X113078466Y-48930500D01*
X113078467Y-48930499D01*
X113281420Y-48890130D01*
X113472598Y-48810941D01*
X113644655Y-48695977D01*
X113790977Y-48549655D01*
X113897398Y-48390382D01*
X113951009Y-48345578D01*
X114020334Y-48336871D01*
X114083362Y-48367025D01*
X114120082Y-48426468D01*
X114124500Y-48459274D01*
X114124500Y-48880614D01*
X114104815Y-48947653D01*
X114088181Y-48968295D01*
X114059493Y-48996982D01*
X114059488Y-48996988D01*
X113987017Y-49122511D01*
X113987016Y-49122515D01*
X113949500Y-49262525D01*
X113949500Y-49262527D01*
X113949500Y-49407474D01*
X113955109Y-49428407D01*
X113953446Y-49498257D01*
X113914283Y-49556119D01*
X113850055Y-49583623D01*
X113835334Y-49584500D01*
X110039370Y-49584500D01*
X109972331Y-49564815D01*
X109926576Y-49512011D01*
X109924809Y-49507953D01*
X109905941Y-49462403D01*
X109905941Y-49462402D01*
X109790977Y-49290345D01*
X109790975Y-49290342D01*
X109644657Y-49144024D01*
X109543635Y-49076524D01*
X109472598Y-49029059D01*
X109425743Y-49009651D01*
X109281420Y-48949870D01*
X109281412Y-48949868D01*
X109078469Y-48909500D01*
X109078465Y-48909500D01*
X108871535Y-48909500D01*
X108871530Y-48909500D01*
X108668582Y-48949868D01*
X108668579Y-48949870D01*
X108623026Y-48968738D01*
X108553557Y-48976205D01*
X108491078Y-48944930D01*
X108487894Y-48941857D01*
X106862567Y-47316530D01*
X107924500Y-47316530D01*
X107924500Y-47523469D01*
X107964868Y-47726412D01*
X107964870Y-47726420D01*
X108035352Y-47896579D01*
X108044059Y-47917598D01*
X108063931Y-47947339D01*
X108159024Y-48089657D01*
X108305342Y-48235975D01*
X108305345Y-48235977D01*
X108477402Y-48350941D01*
X108668580Y-48430130D01*
X108815098Y-48459274D01*
X108871530Y-48470499D01*
X108871534Y-48470500D01*
X108871535Y-48470500D01*
X109078466Y-48470500D01*
X109078467Y-48470499D01*
X109281420Y-48430130D01*
X109472598Y-48350941D01*
X109644655Y-48235977D01*
X109790977Y-48089655D01*
X109905941Y-47917598D01*
X109985130Y-47726420D01*
X110025500Y-47523465D01*
X110025500Y-47316535D01*
X109985130Y-47113580D01*
X109905941Y-46922402D01*
X109790977Y-46750345D01*
X109790975Y-46750342D01*
X109644657Y-46604024D01*
X109558626Y-46546541D01*
X109472598Y-46489059D01*
X109281420Y-46409870D01*
X109281412Y-46409868D01*
X109078469Y-46369500D01*
X109078465Y-46369500D01*
X108871535Y-46369500D01*
X108871530Y-46369500D01*
X108668587Y-46409868D01*
X108668579Y-46409870D01*
X108477403Y-46489058D01*
X108305342Y-46604024D01*
X108159024Y-46750342D01*
X108044058Y-46922403D01*
X107964870Y-47113579D01*
X107964868Y-47113587D01*
X107924500Y-47316530D01*
X106862567Y-47316530D01*
X106665563Y-47119526D01*
X106665562Y-47119525D01*
X106579938Y-47070090D01*
X106532186Y-47057295D01*
X106532184Y-47057294D01*
X106532182Y-47057293D01*
X106484436Y-47044500D01*
X106484435Y-47044500D01*
X102419370Y-47044500D01*
X102352331Y-47024815D01*
X102306576Y-46972011D01*
X102304809Y-46967953D01*
X102300497Y-46957544D01*
X102285941Y-46922402D01*
X102170977Y-46750345D01*
X102170975Y-46750342D01*
X102024657Y-46604024D01*
X101938626Y-46546541D01*
X101852598Y-46489059D01*
X101661420Y-46409870D01*
X101661412Y-46409868D01*
X101458469Y-46369500D01*
X101458465Y-46369500D01*
X101251535Y-46369500D01*
X101251530Y-46369500D01*
X101048582Y-46409868D01*
X101048579Y-46409870D01*
X101003026Y-46428738D01*
X100933557Y-46436205D01*
X100871078Y-46404930D01*
X100867894Y-46401857D01*
X100601642Y-46135605D01*
X100568157Y-46074282D01*
X100573141Y-46004590D01*
X100615013Y-45948657D01*
X100680477Y-45924240D01*
X100702576Y-45924634D01*
X100757127Y-45930500D01*
X101952872Y-45930499D01*
X102012483Y-45924091D01*
X102147331Y-45873796D01*
X102262546Y-45787546D01*
X102348796Y-45672331D01*
X102399091Y-45537483D01*
X102405500Y-45477873D01*
X102405499Y-44776530D01*
X107924500Y-44776530D01*
X107924500Y-44983469D01*
X107964868Y-45186412D01*
X107964870Y-45186420D01*
X108044058Y-45377596D01*
X108159024Y-45549657D01*
X108305342Y-45695975D01*
X108305345Y-45695977D01*
X108477402Y-45810941D01*
X108668580Y-45890130D01*
X108871525Y-45930498D01*
X108871530Y-45930499D01*
X108871534Y-45930500D01*
X108871535Y-45930500D01*
X109078466Y-45930500D01*
X109078467Y-45930499D01*
X109281420Y-45890130D01*
X109472598Y-45810941D01*
X109644655Y-45695977D01*
X109790977Y-45549655D01*
X109905941Y-45377598D01*
X109985130Y-45186420D01*
X110025500Y-44983465D01*
X110025500Y-44776535D01*
X109985130Y-44573580D01*
X109905941Y-44382402D01*
X109790977Y-44210345D01*
X109790975Y-44210342D01*
X109644657Y-44064024D01*
X109507608Y-43972452D01*
X109472598Y-43949059D01*
X109345910Y-43896583D01*
X109281420Y-43869870D01*
X109281412Y-43869868D01*
X109078469Y-43829500D01*
X109078465Y-43829500D01*
X108871535Y-43829500D01*
X108871530Y-43829500D01*
X108668587Y-43869868D01*
X108668579Y-43869870D01*
X108477403Y-43949058D01*
X108305342Y-44064024D01*
X108159024Y-44210342D01*
X108044058Y-44382403D01*
X107964870Y-44573579D01*
X107964868Y-44573587D01*
X107924500Y-44776530D01*
X102405499Y-44776530D01*
X102405499Y-44282128D01*
X102399091Y-44222517D01*
X102394551Y-44210345D01*
X102348797Y-44087671D01*
X102348793Y-44087664D01*
X102262547Y-43972455D01*
X102262544Y-43972452D01*
X102147335Y-43886206D01*
X102147328Y-43886202D01*
X102012482Y-43835908D01*
X102012483Y-43835908D01*
X101952883Y-43829501D01*
X101952881Y-43829500D01*
X101952873Y-43829500D01*
X101952864Y-43829500D01*
X100757129Y-43829500D01*
X100757123Y-43829501D01*
X100697516Y-43835908D01*
X100562671Y-43886202D01*
X100562664Y-43886206D01*
X100447455Y-43972452D01*
X100447452Y-43972455D01*
X100361206Y-44087664D01*
X100361202Y-44087671D01*
X100310908Y-44222517D01*
X100304501Y-44282116D01*
X100304501Y-44282123D01*
X100304500Y-44282135D01*
X100304500Y-45477870D01*
X100304501Y-45477879D01*
X100310364Y-45532423D01*
X100297956Y-45601183D01*
X100250345Y-45652319D01*
X100182645Y-45669596D01*
X100116351Y-45647529D01*
X100099393Y-45633356D01*
X99511819Y-45045782D01*
X99478334Y-44984459D01*
X99475500Y-44958101D01*
X99475500Y-43484576D01*
X99475500Y-43484574D01*
X99449910Y-43389071D01*
X99400475Y-43303447D01*
X99330562Y-43233534D01*
X98671554Y-42574526D01*
X98671553Y-42574525D01*
X98585929Y-42525090D01*
X98538177Y-42512295D01*
X98538175Y-42512294D01*
X98538173Y-42512293D01*
X98490427Y-42499500D01*
X98490426Y-42499500D01*
X94149436Y-42499500D01*
X94050564Y-42499500D01*
X94002812Y-42512295D01*
X94002811Y-42512294D01*
X93955063Y-42525089D01*
X93955062Y-42525089D01*
X93869435Y-42574527D01*
X93462104Y-42981857D01*
X93400781Y-43015342D01*
X93331089Y-43010358D01*
X93326972Y-43008738D01*
X93325980Y-43008327D01*
X93281420Y-42989870D01*
X93281416Y-42989869D01*
X93281412Y-42989867D01*
X93078469Y-42949500D01*
X93078465Y-42949500D01*
X92871535Y-42949500D01*
X92871530Y-42949500D01*
X92668587Y-42989868D01*
X92668579Y-42989870D01*
X92477403Y-43069058D01*
X92305342Y-43184024D01*
X92159024Y-43330342D01*
X92044058Y-43502403D01*
X91964870Y-43693579D01*
X91964868Y-43693587D01*
X91924500Y-43896530D01*
X80000500Y-43896530D01*
X80000500Y-35124000D01*
X80020185Y-35056961D01*
X80072989Y-35011206D01*
X80124500Y-35000000D01*
X129875500Y-35000000D01*
X129942539Y-35019685D01*
G37*
%TD.AperFunction*%
%TD*%
M02*
