M48
; DRILL file {KiCad 9.0.8-1.fc43} date 2026-04-21T20:00:07+0200
; FORMAT={-:-/ absolute / metric / decimal}
; #@! TF.CreationDate,2026-04-21T20:00:07+02:00
; #@! TF.GenerationSoftware,Kicad,Pcbnew,9.0.8-1.fc43
; #@! TF.FileFunction,MixedPlating,1,2
FMAT,2
METRIC
; #@! TA.AperFunction,Plated,PTH,ViaDrill
T1C0.300
; #@! TA.AperFunction,Plated,PTH,ViaDrill
T2C0.400
; #@! TA.AperFunction,Plated,PTH,ComponentDrill
T3C0.800
; #@! TA.AperFunction,Plated,PTH,ComponentDrill
T4C0.950
; #@! TA.AperFunction,Plated,PTH,ComponentDrill
T5C1.000
; #@! TA.AperFunction,Plated,PTH,ComponentDrill
T6C1.010
; #@! TA.AperFunction,Plated,PTH,ComponentDrill
T7C1.300
; #@! TA.AperFunction,NonPlated,NPTH,ComponentDrill
T8C3.200
%
G90
G05
T1
X113.25Y-50.585
X114.5Y-49.335
T2
X70.25Y-54.25
X71.041Y-56.541
T3
X32.5Y-45.88
X32.5Y-50.88
X37.0Y-42.88
X37.0Y-45.42
X37.0Y-47.96
X37.0Y-50.5
X39.25Y-54.38
X41.75Y-54.38
X44.62Y-42.88
X44.62Y-45.42
X44.62Y-47.96
X44.62Y-50.5
X49.0Y-45.88
X49.0Y-50.88
X54.5Y-57.88
X59.5Y-57.88
X63.5Y-57.88
X68.5Y-57.88
X92.975Y-44.0
X97.475Y-48.0
X97.475Y-53.0
X97.975Y-44.0
X101.355Y-44.88
X101.355Y-47.42
X101.355Y-49.96
X101.355Y-52.5
X108.975Y-44.88
X108.975Y-47.42
X108.975Y-49.96
X108.975Y-52.5
X112.475Y-44.0
X112.975Y-47.88
X112.975Y-52.88
X117.475Y-44.0
X144.5Y-54.5
X145.0Y-44.0
X145.0Y-49.0
X149.0Y-41.0
X149.0Y-43.54
X149.0Y-46.08
X149.0Y-48.62
X149.5Y-54.5
X156.0Y-54.5
X156.62Y-41.0
X156.62Y-43.54
X156.62Y-46.08
X156.62Y-48.62
X160.5Y-44.0
X160.5Y-49.0
X161.0Y-54.5
X194.0Y-40.5
X194.0Y-45.5
X197.88Y-41.38
X197.88Y-43.92
X197.88Y-46.46
X197.88Y-49.0
X205.5Y-41.38
X205.5Y-43.92
X205.5Y-46.46
X205.5Y-49.0
X209.5Y-40.5
X209.5Y-45.5
T4
X75.75Y-46.0
X75.75Y-48.5
X75.75Y-51.0
X75.75Y-53.5
X84.25Y-46.0
X84.25Y-48.5
X84.25Y-51.0
X84.25Y-53.5
X126.75Y-46.0
X126.75Y-48.5
X126.75Y-51.0
X126.75Y-53.5
X135.25Y-46.0
X135.25Y-48.5
X135.25Y-51.0
X135.25Y-53.5
X176.75Y-46.0
X176.75Y-48.5
X176.75Y-51.0
X176.75Y-53.5
X185.25Y-46.0
X185.25Y-48.5
X185.25Y-51.0
X185.25Y-53.5
T5
X39.46Y-58.38
X42.0Y-58.38
X100.46Y-56.5
X103.0Y-56.5
X107.0Y-56.5
X109.54Y-56.5
X165.025Y-43.25
X165.025Y-45.79
X165.025Y-50.75
X165.025Y-53.29
X198.525Y-53.25
X198.525Y-55.79
X205.0Y-53.25
X205.0Y-55.79
X217.275Y-48.5
X217.275Y-51.0
T6
X54.9Y-53.43
X56.1Y-48.33
X66.8Y-53.48
X68.0Y-48.38
T7
X24.5Y-47.38
X24.5Y-52.38
X56.25Y-42.38
X61.25Y-42.38
X66.25Y-42.38
T8
X24.0Y-79.5
X71.0Y-26.5
X88.0Y-80.0
X122.0Y-26.5
X138.985Y-79.515
X173.0Y-26.5
X190.0Y-79.5
X214.0Y-26.5
M30
